<?xml version="1.0" encoding="UTF-8" standalone="no"?>
<!-- Created with Inkscape (http://www.inkscape.org/) -->
<svg id="svg2" xmlns:rdf="http://www.w3.org/1999/02/22-rdf-syntax-ns#" xmlns="http://www.w3.org/2000/svg" xml:space="preserve" height="1e3" viewBox="0 0 1000 1000" width="1e3" version="1.1" xmlns:cc="http://creativecommons.org/ns#" xmlns:dc="http://purl.org/dc/elements/1.1/"><metadata id="metadata8"><rdf:RDF><cc:Work rdf:about=""><dc:format>image/svg+xml</dc:format><dc:type rdf:resource="http://purl.org/dc/dcmitype/StillImage"/><dc:title/></cc:Work></rdf:RDF></metadata><g id="g10" transform="matrix(1.25 0 0 -1.25 0 1e3)"><g id="g22" transform="matrix(-1 0 0 .66848 420.59 319.72)"><path id="path24" d="m0 0c-1.163 2.221-3.485 3.738-6.165 3.738-0.72 0-1.415-0.109-2.068-0.312-0.923 1.761-2.766 2.963-4.892 2.963-1.468 0-2.798-0.577-3.788-1.511-1.659 1.872-4.074 3.058-6.773 3.058-4.415 0-8.087-3.162-8.889-7.344-0.54 0.177-1.115 0.274-1.714 0.274-3.05 0-5.523-2.472-5.523-5.522 0-3.051 2.473-5.523 5.523-5.523 1.872 0 3.524 0.934 4.523 2.359 1.608-1.461 3.737-2.359 6.08-2.359 2.105 0 4.038 0.724 5.575 1.928 0.809-1.037 2.066-1.707 3.483-1.707 1.461 0 2.752 0.711 3.556 1.804 1.259-1.251 2.992-2.025 4.907-2.025 1.71 0 3.275 0.621 4.488 1.645 0.493-0.19 1.026-0.299 1.587-0.299 2.44 0 4.418 1.979 4.418 4.419 0 2.41-1.93 4.364-4.328 4.414" fill="#76bd22"/></g><path id="path26" d="m475.34 331.38h36.05v-13.806h-36.05v13.806z" fill="#5b6770"/><path id="path28" d="m494.03 326.55h-9.346v-8.9717h9.346v8.9717z" fill="#323e48"/><path id="path30" d="m473.92 332.41h39.056v-2.0823h-39.056v2.0823z" fill="#ff5a5a"/><path id="path32" d="m407.96 126.27h115.29v191.31h-115.29v-191.31z" fill="#fff"/><path id="path34" d="m496.13 297.92h17.688v7.3466h-17.688v-7.3466z" fill="#60d1e0"/><path id="path36" d="m469.89 297.92h17.688v7.3466h-17.688v-7.3466z" fill="#ff5a5a"/><path id="path38" d="m443.64 297.92h17.688v7.3466h-17.688v-7.3466z" fill="#60d1e0"/><path id="path40" d="m417.4 297.92h17.688v7.3466h-17.688v-7.3466z" fill="#60d1e0"/><path id="path42" d="m496.13 282.62h17.688v7.3466h-17.688v-7.3466z" fill="#fde052"/><path id="path44" d="m469.89 282.62h17.688v7.3466h-17.688v-7.3466z" fill="#60d1e0"/><path id="path46" d="m443.64 282.62h17.688v7.3466h-17.688v-7.3466z" fill="#60d1e0"/><path id="path48" d="m417.4 282.62h17.688v7.3466h-17.688v-7.3466z" fill="#60d1e0"/><path id="path50" d="m496.13 267.31h17.688v7.3466h-17.688v-7.3466z" fill="#60d1e0"/><path id="path52" d="m469.89 267.31h17.688v7.3466h-17.688v-7.3466z" fill="#60d1e0"/><path id="path54" d="m443.64 267.31h17.688v7.3466h-17.688v-7.3466z" fill="#fde052"/><path id="path56" d="m417.4 267.31h17.688v7.3466h-17.688v-7.3466z" fill="#60d1e0"/><path id="path58" d="m496.13 252.01h17.688v7.3473h-17.688v-7.3473z" fill="#60d1e0"/><path id="path60" d="m469.89 252.01h17.688v7.3473h-17.688v-7.3473z" fill="#60d1e0"/><path id="path62" d="m443.64 252.01h17.688v7.3473h-17.688v-7.3473z" fill="#60d1e0"/><path id="path64" d="m417.4 252.01h17.688v7.3473h-17.688v-7.3473z" fill="#60d1e0"/><path id="path66" d="m496.13 211.7h17.688v7.3473h-17.688v-7.3473z" fill="#60d1e0"/><path id="path68" d="m469.89 211.7h17.688v7.3473h-17.688v-7.3473z" fill="#60d1e0"/><path id="path70" d="m443.64 211.7h17.688v7.3473h-17.688v-7.3473z" fill="#60d1e0"/><path id="path72" d="m417.4 211.7h17.688v7.3473h-17.688v-7.3473z" fill="#60d1e0"/><path id="path74" d="m496.13 196.4h17.688v7.3466h-17.688v-7.3466z" fill="#60d1e0"/><path id="path76" d="m469.89 196.4h17.688v7.3466h-17.688v-7.3466z" fill="#60d1e0"/><path id="path78" d="m443.64 196.4h17.688v7.3466h-17.688v-7.3466z" fill="#ff5a5a"/><path id="path80" d="m417.4 196.4h17.688v7.3466h-17.688v-7.3466z" fill="#60d1e0"/><path id="path82" d="m496.13 181.1h17.688v7.3473h-17.688v-7.3473z" fill="#60d1e0"/><path id="path84" d="m469.89 181.1h17.688v7.3473h-17.688v-7.3473z" fill="#fde052"/><path id="path86" d="m443.64 181.1h17.688v7.3473h-17.688v-7.3473z" fill="#60d1e0"/><path id="path88" d="m417.4 181.1h17.688v7.3473h-17.688v-7.3473z" fill="#60d1e0"/><path id="path90" d="m496.13 165.79h17.688v7.346h-17.688v-7.346z" fill="#60d1e0"/><path id="path92" d="m469.89 165.79h17.688v7.346h-17.688v-7.346z" fill="#60d1e0"/><path id="path94" d="m443.64 165.79h17.688v7.346h-17.688v-7.346z" fill="#60d1e0"/><path id="path96" d="m417.4 165.79h17.688v7.346h-17.688v-7.346z" fill="#ff5a5a"/><path id="path98" d="m515.29 242.45h-99.366v-6.9428h99.366v6.9428z" fill="#60d1e0"/><g id="g100" transform="matrix(-1 0 0 .66848 493.35 236.1)"><path id="path102" d="m0 0c-0.797 1.525-2.393 2.568-4.233 2.568-0.5 0-0.981-0.076-1.434-0.219-0.634 1.208-1.886 2.039-3.344 2.039-1.007 0-1.917-0.4-2.596-1.04-1.14 1.286-2.799 2.101-4.653 2.101-3.036 0-5.561-2.178-6.105-5.056-0.372 0.122-0.762 0.205-1.174 0.205-2.093 0-3.791-1.699-3.791-3.792 0-2.094 1.698-3.791 3.791-3.791 1.286 0 2.417 0.643 3.102 1.622 1.105-1.005 2.567-1.622 4.177-1.622 1.448 0 2.777 0.499 3.834 1.329 0.555-0.712 1.411-1.178 2.384-1.178 1.002 0 1.885 0.492 2.437 1.243 0.864-0.861 2.055-1.394 3.372-1.394 1.177 0 2.252 0.427 3.084 1.133 0.338-0.129 0.702-0.209 1.086-0.209 1.675 0 3.032 1.358 3.032 3.033 0 1.654-1.323 2.992-2.969 3.028" fill="#4c9d2f"/></g><g id="g104" transform="matrix(-1 0 0 .66848 453.43 236.1)"><path id="path106" d="m0 0c-0.797 1.525-2.393 2.568-4.234 2.568-0.499 0-0.981-0.076-1.433-0.219-0.635 1.208-1.886 2.039-3.344 2.039-1.008 0-1.918-0.4-2.597-1.04-1.139 1.286-2.798 2.101-4.652 2.101-3.036 0-5.561-2.178-6.105-5.056-0.372 0.122-0.762 0.205-1.175 0.205-2.092 0-3.791-1.699-3.791-3.792 0-2.094 1.699-3.791 3.791-3.791 1.286 0 2.418 0.643 3.103 1.622 1.104-1.005 2.567-1.622 4.177-1.622 1.448 0 2.777 0.499 3.834 1.329 0.555-0.712 1.411-1.178 2.384-1.178 1.002 0 1.884 0.492 2.436 1.243 0.864-0.861 2.056-1.394 3.372-1.394 1.177 0 2.254 0.427 3.085 1.133 0.338-0.129 0.702-0.209 1.086-0.209 1.674 0 3.032 1.358 3.032 3.033 0 1.654-1.323 2.992-2.969 3.028" fill="#4c9d2f"/></g><g id="g108" transform="matrix(-1 0 0 .66848 407.5 236.5)"><path id="path110" d="m0 0c-0.412 0-0.802-0.083-1.174-0.205-0.544 2.878-3.069 5.057-6.105 5.057-1.854 0-3.513-0.816-4.652-2.102-0.679 0.641-1.589 1.04-2.597 1.04-1.458 0-2.71-0.831-3.344-2.039-0.452 0.144-0.934 0.22-1.433 0.22-1.841 0-3.437-1.043-4.235-2.569-1.644-0.036-2.968-1.374-2.968-3.028 0-1.675 1.357-3.032 3.032-3.032 0.385 0 0.748 0.079 1.086 0.209 0.832-0.706 1.908-1.134 3.085-1.134 1.316 0 2.508 0.533 3.371 1.395 0.553-0.751 1.434-1.244 2.437-1.244 0.973 0 1.829 0.466 2.384 1.178 1.056-0.83 2.386-1.329 3.834-1.329 1.61 0 3.073 0.617 4.176 1.622 0.686-0.978 1.818-1.622 3.103-1.622 2.093 0 3.792 1.697 3.792 3.791s-1.699 3.792-3.792 3.792" fill="#4c9d2f"/></g><path id="path112" d="m407.96 230.39h115.29v5.1226h-115.29v-5.1226z" fill="#75541d"/><g id="g114" transform="matrix(-1 0 0 .66848 407.13 234.97)"><path id="path116" d="m0 0c0-2.034-1.648-3.683-3.684-3.683-2.033 0-3.683 1.649-3.683 3.683s1.65 3.684 3.683 3.684c2.036 0 3.684-1.65 3.684-3.684" fill="#4c9d2f"/></g><g id="g118" transform="matrix(-1 0 0 .66848 420.09 235.33)"><path id="path120" d="m0 0c0-1.088-0.882-1.972-1.971-1.972s-1.971 0.884-1.971 1.972 0.882 1.97 1.971 1.97 1.971-0.882 1.971-1.97" fill="#4c9d2f"/></g><g id="g122" transform="matrix(-1 0 0 .66848 468.07 235.19)"><path id="path124" d="m0 0c0-1.559-1.264-2.822-2.822-2.822s-2.822 1.263-2.822 2.822 1.264 2.82 2.822 2.82 2.822-1.261 2.822-2.82" fill="#4c9d2f"/></g><path id="path126" d="m561.29 137.11h84.964v198.22h-84.964v-198.22z" fill="#e1e5e6"/><path id="path128" d="m626.72 312.13h10.673v10.898h-10.673v-10.898z" fill="#fde052"/><path id="path130" d="m607.87 312.13h10.673v10.898h-10.673v-10.898z" fill="#60d1e0"/><path id="path132" d="m589.01 312.13h10.673v10.898h-10.673v-10.898z" fill="#e65400"/><path id="path134" d="m570.16 312.13h10.674v10.898h-10.674v-10.898z" fill="#60d1e0"/><path id="path136" d="m626.72 292.47h10.673v10.898h-10.673v-10.898z" fill="#60d1e0"/><path id="path138" d="m607.87 292.47h10.673v10.898h-10.673v-10.898z" fill="#60d1e0"/><path id="path140" d="m589.01 292.47h10.673v10.898h-10.673v-10.898z" fill="#60d1e0"/><path id="path142" d="m570.16 292.47h10.674v10.898h-10.674v-10.898z" fill="#60d1e0"/><path id="path144" d="m626.72 272.81h10.673v10.898h-10.673v-10.898z" fill="#60d1e0"/><path id="path146" d="m607.87 272.81h10.673v10.898h-10.673v-10.898z" fill="#60d1e0"/><path id="path148" d="m589.01 272.81h10.673v10.898h-10.673v-10.898z" fill="#fde052"/><path id="path150" d="m570.16 272.81h10.674v10.898h-10.674v-10.898z" fill="#e65400"/><path id="path152" d="m626.72 253.16h10.673v10.898h-10.673v-10.898z" fill="#60d1e0"/><path id="path154" d="m607.87 253.16h10.673v10.898h-10.673v-10.898z" fill="#fde052"/><path id="path156" d="m589.01 253.16h10.673v10.898h-10.673v-10.898z" fill="#60d1e0"/><path id="path158" d="m570.16 253.16h10.674v10.898h-10.674v-10.898z" fill="#60d1e0"/><path id="path160" d="m626.72 233.5h10.673v10.898h-10.673v-10.898z" fill="#60d1e0"/><path id="path162" d="m607.87 233.5h10.673v10.898h-10.673v-10.898z" fill="#60d1e0"/><path id="path164" d="m589.01 233.5h10.673v10.898h-10.673v-10.898z" fill="#e65400"/><path id="path166" d="m570.16 233.5h10.674v10.898h-10.674v-10.898z" fill="#60d1e0"/><path id="path168" d="m626.72 213.84h10.673v10.898h-10.673v-10.898z" fill="#60d1e0"/><path id="path170" d="m607.87 213.84h10.673v10.898h-10.673v-10.898z" fill="#60d1e0"/><path id="path172" d="m589.01 213.84h10.673v10.898h-10.673v-10.898z" fill="#60d1e0"/><path id="path174" d="m570.16 213.84h10.674v10.898h-10.674v-10.898z" fill="#60d1e0"/><path id="path176" d="m626.72 194.18h10.673v10.898h-10.673v-10.898z" fill="#e65400"/><path id="path178" d="m607.87 194.18h10.673v10.898h-10.673v-10.898z" fill="#60d1e0"/><path id="path180" d="m589.01 194.18h10.673v10.898h-10.673v-10.898z" fill="#fde052"/><path id="path182" d="m570.16 194.18h10.674v10.898h-10.674v-10.898z" fill="#60d1e0"/><path id="path184" d="m553.28 338.6h100.99v-4.033h-100.99v4.033z" fill="#75541d"/><path id="path186" d="m640.99 276.89h81.113v-136.06h-81.113v136.06z" fill="#fff"/><path id="path188" d="m632.06 234.63h98.972v-5.1941h-98.972v5.1941z" fill="#896761"/><path id="path190" d="m632.06 190.17h98.972v-5.1941h-98.972v5.1941z" fill="#ff647e"/><path id="path192" d="m704.49 257.04h10.673v10.897h-10.673v-10.897z" fill="#60d1e0"/><path id="path194" d="m685.64 257.04h10.673v10.897h-10.673v-10.897z" fill="#60d1e0"/><path id="path196" d="m666.78 257.04h10.672v10.897h-10.672v-10.897z" fill="#e65400"/><path id="path198" d="m647.92 257.04h10.674v10.897h-10.674v-10.897z" fill="#60d1e0"/><path id="path200" d="m704.49 239.75h10.673v10.898h-10.673v-10.898z" fill="#60d1e0"/><path id="path202" d="m685.64 239.75h10.673v10.898h-10.673v-10.898z" fill="#60d1e0"/><path id="path204" d="m666.78 239.75h10.672v10.898h-10.672v-10.898z" fill="#60d1e0"/><path id="path206" d="m647.92 239.75h10.674v10.898h-10.674v-10.898z" fill="#60d1e0"/><path id="path208" d="m704.49 212.57h10.673v10.898h-10.673v-10.898z" fill="#60d1e0"/><path id="path210" d="m685.64 212.57h10.673v10.898h-10.673v-10.898z" fill="#60d1e0"/><path id="path212" d="m666.78 212.57h10.672v10.898h-10.672v-10.898z" fill="#60d1e0"/><path id="path214" d="m647.92 212.57h10.674v10.898h-10.674v-10.898z" fill="#60d1e0"/><path id="path216" d="m704.49 195.28h10.673v10.898h-10.673v-10.898z" fill="#60d1e0"/><path id="path218" d="m685.64 195.28h10.673v10.898h-10.673v-10.898z" fill="#e65400"/><path id="path220" d="m666.78 195.28h10.672v10.898h-10.672v-10.898z" fill="#60d1e0"/><path id="path222" d="m647.92 195.28h10.674v10.898h-10.674v-10.898z" fill="#60d1e0"/><path id="path224" d="m704.49 168.11h10.673v10.897h-10.673v-10.897z" fill="#60d1e0"/><path id="path226" d="m685.64 168.11h10.673v10.897h-10.673v-10.897z" fill="#60d1e0"/><path id="path228" d="m666.78 168.11h10.672v10.897h-10.672v-10.897z" fill="#60d1e0"/><path id="path230" d="m647.92 168.11h10.674v10.897h-10.674v-10.897z" fill="#60d1e0"/><path id="path232" d="m650.38 284.21h62.333v-7.3246h-62.333v7.3246z" fill="#ff647e"/><path id="path234" d="m658.6 289.6h45.892v-5.3913h-45.892v5.3913z" fill="#ffb700"/><path id="path236" d="m679.03 286.91h5.019v18.976h-5.019v-18.976z" fill="#ffb700"/><g id="g558" transform="matrix(1 0 0 .66848 323.6 41.681)"><path id="path560" d="m0 0h65.906c87.168 37.678 215.88 121.52 410.5 121.52v17.97c-251.01 0-392.41-139.49-476.41-139.49" fill="#5ca642"/></g><g id="g566" transform="matrix(1 0 0 .66848 323.6 17.656)"><path id="path568" d="m0 0h65.906c87.168 37.678 215.88 121.52 410.5 121.52v17.97c-251.01 0-392.41-139.49-476.41-139.49" fill="#5ca642"/></g><g id="g570" transform="matrix(-1 0 0 .66848 535.57 240.18)"><path id="path572" d="m0 0v-37.831h38.043l-38.043 37.831z" fill="#cc9800"/></g><g id="g574" transform="matrix(-1 0 0 .66848 554.6 240.18)"><path id="path576" d="m0 0v-37.831h38.043l-38.043 37.831z" fill="#dbab36"/></g><g id="g578" transform="matrix(-1 0 0 .66848 573.62 240.18)"><path id="path580" d="m0 0v-37.831h38.043l-38.043 37.831z" fill="#e0b653"/></g><g id="g582" transform="matrix(-1 0 0 .66848 592.64 240.18)"><path id="path584" d="m0 0v-37.831h38.043l-38.043 37.831z" fill="#e6bc64"/></g><g id="g586" transform="matrix(-1 0 0 .66848 573.62 214.89)"><path id="path588" d="m0 0-38.043 37.831v-179.51h114.13v141.68h-76.087z" fill="#fde052"/></g><path id="path590" d="m580.42 194.65h18.558v7.989h-18.558v-7.989z" fill="#fff"/><path id="path592" d="m545.32 194.65h18.559v7.989h-18.559v-7.989z" fill="#fff"/><path id="path594" d="m510.21 194.65h18.557v7.989h-18.557v-7.989z" fill="#fff"/><path id="path596" d="m580.42 177.99h18.558v7.9884h-18.558v-7.9884z" fill="#fff"/><path id="path598" d="m545.32 177.99h18.559v7.9884h-18.559v-7.9884z" fill="#fff"/><path id="path600" d="m510.21 177.99h18.557v7.9884h-18.557v-7.9884z" fill="#fff"/><path id="path602" d="m580.42 161.32h18.558v7.989h-18.558v-7.989z" fill="#fff"/><path id="path604" d="m545.32 161.32h18.559v7.989h-18.559v-7.989z" fill="#fff"/><path id="path606" d="m510.21 161.32h18.557v7.989h-18.557v-7.989z" fill="#fff"/><path id="path608" d="m510.21 189.63h88.768v2.0415h-88.768v-2.0415z" fill="#ff5a5a"/><path id="path610" d="m510.21 172.21h88.768v2.0409h-88.768v-2.0409z" fill="#60d1e0"/><path id="path612" d="m397.28 198.27h-15.323v-19.054h15.323v19.054z" fill="#5b6770"/><path id="path614" d="m423.31 198.27h-15.324v-19.054h15.324v19.054z" fill="#5b6770"/><path id="path616" d="m449.33 198.27h-15.324v-19.054h15.324v19.054z" fill="#5b6770"/><path id="path618" d="m504.52 176.65h-131.09v-56.473h131.09v56.473z" fill="#a3aaae"/><path id="path620" d="m397.28 157.18h-9.936v11.747h9.936v-11.747z" fill="#fff"/><path id="path622" d="m420.61 157.18h-9.937v11.747h9.937v-11.747z" fill="#fde052"/><path id="path624" d="m443.94 157.18h-9.937v11.747h9.937v-11.747z" fill="#ff5a5a"/><path id="path626" d="m467.28 157.18h-9.938v11.747h9.938v-11.747z" fill="#fff"/><path id="path628" d="m490.6 157.18h-9.937v11.747h9.937v-11.747z" fill="#ff5a5a"/><path id="path630" d="m397.28 137.11h-9.936v11.746h9.936v-11.746z" fill="#fff"/><path id="path632" d="m420.61 137.11h-9.937v11.746h9.937v-11.746z" fill="#fff"/><path id="path634" d="m443.94 137.11h-9.937v11.746h9.937v-11.746z" fill="#fff"/><path id="path636" d="m467.28 137.11h-9.938v11.746h9.938v-11.746z" fill="#fde052"/><g id="g550" transform="matrix(1 0 0 .66848 324.59 67.949)"><path id="path552" d="m0 0c83.997 0 225.4 139.49 476.4 139.49v-139.49h-476.4z" fill="#4c9d2f"/></g><path id="path638" d="m490.6 137.11h-9.937v11.746h9.937v-11.746z" fill="#fff"/><path id="path640" d="m508.82 180.75h-139.7v-4.2228h139.7v4.2228z" fill="#323e48"/><g id="g554" transform="matrix(1 0 0 .66848 323.6 53.693)"><path id="path556" d="m0 0h65.906c87.168 37.678 215.88 121.52 410.5 121.52v17.97c-251.01 0-392.41-139.49-476.41-139.49" fill="#66aa4b"/></g><g id="g562" transform="matrix(1 0 0 .66848 323.6 29.668)"><path id="path564" d="m0 0h65.906c87.168 37.678 215.88 121.52 410.5 121.52v17.97c-251.01 0-392.41-139.49-476.41-139.49" fill="#66aa4b"/></g><g id="g642" transform="matrix(1 0 0 .66848 800 93.868)"><path id="path644" d="m0 0c-209.42 0-365.41 97.495-800 97.495v-237.92h800v140.42z" fill="#76bd22"/></g><g id="g646" transform="matrix(1 0 0 .66848 0 141.69)"><path id="path648" d="m0 0v-23.664c434.59 0 590.58-97.495 800-97.495v23.664c-209.42 0.001-365.41 97.496-800 97.496" fill="#90c851"/></g><g id="g650" transform="matrix(1 0 0 .66848 0 125.87)"><path id="path652" d="m0 0v-23.664c434.59 0 590.58-97.495 800-97.495v23.664c-209.42 0.001-365.41 97.496-800 97.496" fill="#7fc136"/></g><g id="g654" transform="matrix(1 0 0 .66848 0 110.05)"><path id="path656" d="m0 0v-23.664c434.59 0 590.58-97.495 800-97.495v23.664c-209.42 0.001-365.41 97.496-800 97.496" fill="#90c851"/></g><g id="g658" transform="matrix(1 0 0 .66848 0 94.23)"><path id="path660" d="m0 0v-23.664c434.59 0 590.58-97.495 800-97.495v23.664c-209.42 0.001-365.41 97.496-800 97.496" fill="#7fc136"/></g><path id="path662" d="m130.52 52.952h-5.6486v-18.494h5.6486v18.494z" fill="#6a4024"/><g id="g664" transform="matrix(.70555 0 0 .66848 139.78 84.631)"><path id="path666" d="m0 0c0-9.462-7.67-17.131-17.131-17.131s-17.131 7.669-17.131 17.131c0 9.461 7.67 17.131 17.131 17.131s17.131-7.67 17.131-17.131" fill="#48773c"/></g><g id="g668" transform="matrix(.70555 0 0 .66848 139.78 73.179)"><path id="path670" d="m0 0c0-9.462-7.67-17.131-17.131-17.131s-17.131 7.669-17.131 17.131c0 9.461 7.67 17.131 17.131 17.131s17.131-7.67 17.131-17.131" fill="#48773c"/></g><g id="g672" transform="matrix(.70555 0 0 .66848 139.78 61.728)"><path id="path674" d="m0 0c0-9.462-7.67-17.131-17.131-17.131s-17.131 7.669-17.131 17.131c0 9.461 7.67 17.131 17.131 17.131s17.131-7.67 17.131-17.131" fill="#48773c"/></g><path id="path676" d="m645.18 95.75h-5.6486v-18.494h5.6486v18.494z" fill="#6a4024"/><g id="g678" transform="matrix(.70555 0 0 .66848 654.44 127.43)"><path id="path680" d="m0 0c0-9.462-7.67-17.131-17.131-17.131s-17.131 7.669-17.131 17.131c0 9.461 7.67 17.131 17.131 17.131s17.131-7.67 17.131-17.131" fill="#48773c"/></g><g id="g682" transform="matrix(.70555 0 0 .66848 654.44 115.98)"><path id="path684" d="m0 0c0-9.462-7.67-17.131-17.131-17.131s-17.131 7.669-17.131 17.131c0 9.461 7.67 17.131 17.131 17.131s17.131-7.67 17.131-17.131" fill="#48773c"/></g><g id="g686" transform="matrix(.70555 0 0 .66848 654.44 104.53)"><path id="path688" d="m0 0c0-9.462-7.67-17.131-17.131-17.131s-17.131 7.669-17.131 17.131c0 9.461 7.67 17.131 17.131 17.131s17.131-7.67 17.131-17.131" fill="#48773c"/></g><path id="path690" d="m379.16 62.017h-5.6486v-18.494h5.6486v18.494z" fill="#6a4024"/><g id="g692" transform="matrix(.70555 0 0 .66848 392.51 74.807)"><path id="path694" d="m0 0c0-12.66-10.262-22.923-22.922-22.923s-22.922 10.263-22.922 22.923c0 12.659 10.262 22.922 22.922 22.922s22.922-10.263 22.922-22.922" fill="#48773c"/></g><path id="path696" d="m472.84 141.06h-5.6486v-18.494h5.6486v18.494z" fill="#6a4024"/><g id="g698" transform="matrix(.70555 0 0 .66848 486.19 153.85)"><path id="path700" d="m0 0c0-12.66-10.262-22.923-22.922-22.923-12.659 0-22.922 10.263-22.922 22.923 0 12.659 10.263 22.922 22.922 22.922 12.66 0 22.922-10.263 22.922-22.922" fill="#48773c"/></g><path id="path702" d="m172.5 108.6h-5.6486v-18.494h5.6486v18.494z" fill="#6a4024"/><g id="g704" transform="matrix(.70555 0 0 .66848 185.85 121.39)"><path id="path706" d="m0 0c0-12.66-10.262-22.923-22.922-22.923s-22.922 10.263-22.922 22.923c0 12.659 10.262 22.922 22.922 22.922s22.922-10.263 22.922-22.922" fill="#48773c"/></g><path id="path708" d="m739.84 155.44h-5.6486v-18.494h5.6486v18.494z" fill="#6a4024"/><g id="g710" transform="matrix(.70555 0 0 .66848 753.18 168.23)"><path id="path712" d="m0 0c0-12.66-10.263-22.923-22.922-22.923-12.66 0-22.922 10.263-22.922 22.923 0 12.659 10.262 22.922 22.922 22.922 12.659 0 22.922-10.263 22.922-22.922" fill="#48773c"/></g><g id="g714" transform="matrix(1 0 0 .66848 311.64 497.88)"><path id="path716" d="m0 0c-1.723 8.828-9.491 15.493-18.823 15.493-2.569 0-5.014-0.514-7.253-1.43-5.439 7.339-14.162 12.097-23.997 12.097-15.406 0-28.082-11.67-29.68-26.652-1.797 0.557-3.707 0.858-5.687 0.858-10.596 0-19.186-8.59-19.186-19.187 0-9.407 6.775-17.218 15.709-18.856 4.133-9.976 13.961-16.996 25.432-16.996 4.921 0 9.536 1.298 13.534 3.561 3.5-3.735 8.463-6.081 13.985-6.081 6.303 0 11.879 3.053 15.376 7.745 4.532-3.284 10.101-5.226 16.127-5.226 15.198 0 27.519 12.321 27.519 27.52 0.004 13.678-9.977 25.021-23.052 27.154" fill="#fff"/></g></g></svg>
