<?xml version="1.0" encoding="UTF-8" standalone="no"?>
<!-- Created with Inkscape (http://www.inkscape.org/) -->

<svg
   xmlns:dc="http://purl.org/dc/elements/1.1/"
   xmlns:cc="http://creativecommons.org/ns#"
   xmlns:rdf="http://www.w3.org/1999/02/22-rdf-syntax-ns#"
   xmlns:svg="http://www.w3.org/2000/svg"
   xmlns="http://www.w3.org/2000/svg"
   xmlns:sodipodi="http://sodipodi.sourceforge.net/DTD/sodipodi-0.dtd"
   xmlns:inkscape="http://www.inkscape.org/namespaces/inkscape"
   id="svg2"
   version="1.1"
   inkscape:version="0.91 r13725"
   xml:space="preserve"
   width="1000"
   height="1000"
   viewBox="0 0 1000 1000"
   sodipodi:docname="fair.svg"><metadata
     id="metadata8"><rdf:RDF><cc:Work
         rdf:about=""><dc:format>image/svg+xml</dc:format><dc:type
           rdf:resource="http://purl.org/dc/dcmitype/StillImage" /><dc:title></dc:title></cc:Work></rdf:RDF></metadata><defs
     id="defs6"><clipPath
       clipPathUnits="userSpaceOnUse"
       id="clipPath18"><path
         d="M 0,800 800,800 800,0 0,0 0,800 Z"
         id="path20"
         inkscape:connector-curvature="0" /></clipPath></defs><sodipodi:namedview
     pagecolor="#ffffff"
     bordercolor="#666666"
     borderopacity="1"
     objecttolerance="10"
     gridtolerance="10"
     guidetolerance="10"
     inkscape:pageopacity="0"
     inkscape:pageshadow="2"
     inkscape:window-width="1920"
     inkscape:window-height="1058"
     id="namedview4"
     showgrid="false"
     inkscape:zoom="0.8075625"
     inkscape:cx="500"
     inkscape:cy="409.30751"
     inkscape:window-x="1"
     inkscape:window-y="0"
     inkscape:window-maximized="0"
     inkscape:current-layer="g10" /><g
     id="g10"
     inkscape:groupmode="layer"
     inkscape:label="fair"
     transform="matrix(1.25,0,0,-1.25,0,1000)"><g
       id="g22"
       transform="matrix(-1,0,0,0.66848149,420.5858,319.71814)"><path
         d="m 0,0 c -1.163,2.221 -3.485,3.738 -6.165,3.738 -0.72,0 -1.415,-0.109 -2.068,-0.312 -0.923,1.761 -2.766,2.963 -4.892,2.963 -1.468,0 -2.798,-0.577 -3.788,-1.511 -1.659,1.872 -4.074,3.058 -6.773,3.058 -4.415,0 -8.087,-3.162 -8.889,-7.344 -0.54,0.177 -1.115,0.274 -1.714,0.274 -3.05,0 -5.523,-2.472 -5.523,-5.522 0,-3.051 2.473,-5.523 5.523,-5.523 1.872,0 3.524,0.934 4.523,2.359 1.608,-1.461 3.737,-2.359 6.08,-2.359 2.105,0 4.038,0.724 5.575,1.928 0.809,-1.037 2.066,-1.707 3.483,-1.707 1.461,0 2.752,0.711 3.556,1.804 1.259,-1.251 2.992,-2.025 4.907,-2.025 1.71,0 3.275,0.621 4.488,1.645 0.493,-0.19 1.026,-0.299 1.587,-0.299 2.44,0 4.418,1.979 4.418,4.419 C 4.328,-2.004 2.398,-0.05 0,0"
         style="fill:#76bd22;fill-opacity:1;fill-rule:nonzero;stroke:none"
         id="path24"
         inkscape:connector-curvature="0" /></g><path
       d="m 475.339,331.38401 36.05,0 0,-13.80615 -36.05,0 0,13.80615 z"
       style="fill:#5b6770;fill-opacity:1;fill-rule:nonzero;stroke:none"
       id="path26"
       inkscape:connector-curvature="0" /><path
       d="m 494.032,326.54955 -9.346,0 0,-8.97169 9.346,0 0,8.97169 z"
       style="fill:#323e48;fill-opacity:1;fill-rule:nonzero;stroke:none"
       id="path28"
       inkscape:connector-curvature="0" /><path
       d="m 473.919,332.40745 39.056,0 0,-2.08232 -39.056,0 0,2.08232 z"
       style="fill:#ff5a5a;fill-opacity:1;fill-rule:nonzero;stroke:none"
       id="path30"
       inkscape:connector-curvature="0" /><path
       d="m 407.964,126.27049 115.291,0 0,191.30737 -115.291,0 0,-191.30737 z"
       style="fill:#ffffff;fill-opacity:1;fill-rule:nonzero;stroke:none"
       id="path32"
       inkscape:connector-curvature="0" /><path
       d="m 496.128,297.92049 17.688,0 0,7.34661 -17.688,0 0,-7.34661 z"
       style="fill:#60d1e0;fill-opacity:1;fill-rule:nonzero;stroke:none"
       id="path34"
       inkscape:connector-curvature="0" /><path
       d="m 469.886,297.92049 17.688,0 0,7.34661 -17.688,0 0,-7.34661 z"
       style="fill:#ff5a5a;fill-opacity:1;fill-rule:nonzero;stroke:none"
       id="path36"
       inkscape:connector-curvature="0" /><path
       d="m 443.644,297.92049 17.688,0 0,7.34661 -17.688,0 0,-7.34661 z"
       style="fill:#60d1e0;fill-opacity:1;fill-rule:nonzero;stroke:none"
       id="path38"
       inkscape:connector-curvature="0" /><path
       d="m 417.403,297.92049 17.688,0 0,7.34661 -17.688,0 0,-7.34661 z"
       style="fill:#60d1e0;fill-opacity:1;fill-rule:nonzero;stroke:none"
       id="path40"
       inkscape:connector-curvature="0" /><path
       d="m 496.128,282.61761 17.688,0 0,7.34662 -17.688,0 0,-7.34662 z"
       style="fill:#fde052;fill-opacity:1;fill-rule:nonzero;stroke:none"
       id="path42"
       inkscape:connector-curvature="0" /><path
       d="m 469.886,282.61761 17.688,0 0,7.34662 -17.688,0 0,-7.34662 z"
       style="fill:#60d1e0;fill-opacity:1;fill-rule:nonzero;stroke:none"
       id="path44"
       inkscape:connector-curvature="0" /><path
       d="m 443.644,282.61761 17.688,0 0,7.34662 -17.688,0 0,-7.34662 z"
       style="fill:#60d1e0;fill-opacity:1;fill-rule:nonzero;stroke:none"
       id="path46"
       inkscape:connector-curvature="0" /><path
       d="m 417.403,282.61761 17.688,0 0,7.34662 -17.688,0 0,-7.34662 z"
       style="fill:#60d1e0;fill-opacity:1;fill-rule:nonzero;stroke:none"
       id="path48"
       inkscape:connector-curvature="0" /><path
       d="m 496.128,267.31474 17.688,0 0,7.34661 -17.688,0 0,-7.34661 z"
       style="fill:#60d1e0;fill-opacity:1;fill-rule:nonzero;stroke:none"
       id="path50"
       inkscape:connector-curvature="0" /><path
       d="m 469.886,267.31474 17.688,0 0,7.34661 -17.688,0 0,-7.34661 z"
       style="fill:#60d1e0;fill-opacity:1;fill-rule:nonzero;stroke:none"
       id="path52"
       inkscape:connector-curvature="0" /><path
       d="m 443.644,267.31474 17.688,0 0,7.34661 -17.688,0 0,-7.34661 z"
       style="fill:#fde052;fill-opacity:1;fill-rule:nonzero;stroke:none"
       id="path54"
       inkscape:connector-curvature="0" /><path
       d="m 417.403,267.31474 17.688,0 0,7.34661 -17.688,0 0,-7.34661 z"
       style="fill:#60d1e0;fill-opacity:1;fill-rule:nonzero;stroke:none"
       id="path56"
       inkscape:connector-curvature="0" /><path
       d="m 496.128,252.01186 17.688,0 0,7.34728 -17.688,0 0,-7.34728 z"
       style="fill:#60d1e0;fill-opacity:1;fill-rule:nonzero;stroke:none"
       id="path58"
       inkscape:connector-curvature="0" /><path
       d="m 469.886,252.01186 17.688,0 0,7.34728 -17.688,0 0,-7.34728 z"
       style="fill:#60d1e0;fill-opacity:1;fill-rule:nonzero;stroke:none"
       id="path60"
       inkscape:connector-curvature="0" /><path
       d="m 443.644,252.01186 17.688,0 0,7.34728 -17.688,0 0,-7.34728 z"
       style="fill:#60d1e0;fill-opacity:1;fill-rule:nonzero;stroke:none"
       id="path62"
       inkscape:connector-curvature="0" /><path
       d="m 417.403,252.01186 17.688,0 0,7.34728 -17.688,0 0,-7.34728 z"
       style="fill:#60d1e0;fill-opacity:1;fill-rule:nonzero;stroke:none"
       id="path64"
       inkscape:connector-curvature="0" /><path
       d="m 496.128,211.70109 17.688,0 0,7.34728 -17.688,0 0,-7.34728 z"
       style="fill:#60d1e0;fill-opacity:1;fill-rule:nonzero;stroke:none"
       id="path66"
       inkscape:connector-curvature="0" /><path
       d="m 469.886,211.70109 17.688,0 0,7.34728 -17.688,0 0,-7.34728 z"
       style="fill:#60d1e0;fill-opacity:1;fill-rule:nonzero;stroke:none"
       id="path68"
       inkscape:connector-curvature="0" /><path
       d="m 443.644,211.70109 17.688,0 0,7.34728 -17.688,0 0,-7.34728 z"
       style="fill:#60d1e0;fill-opacity:1;fill-rule:nonzero;stroke:none"
       id="path70"
       inkscape:connector-curvature="0" /><path
       d="m 417.403,211.70109 17.688,0 0,7.34728 -17.688,0 0,-7.34728 z"
       style="fill:#60d1e0;fill-opacity:1;fill-rule:nonzero;stroke:none"
       id="path72"
       inkscape:connector-curvature="0" /><path
       d="m 496.128,196.39888 17.688,0 0,7.34661 -17.688,0 0,-7.34661 z"
       style="fill:#60d1e0;fill-opacity:1;fill-rule:nonzero;stroke:none"
       id="path74"
       inkscape:connector-curvature="0" /><path
       d="m 469.886,196.39888 17.688,0 0,7.34661 -17.688,0 0,-7.34661 z"
       style="fill:#60d1e0;fill-opacity:1;fill-rule:nonzero;stroke:none"
       id="path76"
       inkscape:connector-curvature="0" /><path
       d="m 443.644,196.39888 17.688,0 0,7.34661 -17.688,0 0,-7.34661 z"
       style="fill:#ff5a5a;fill-opacity:1;fill-rule:nonzero;stroke:none"
       id="path78"
       inkscape:connector-curvature="0" /><path
       d="m 417.403,196.39888 17.688,0 0,7.34661 -17.688,0 0,-7.34661 z"
       style="fill:#60d1e0;fill-opacity:1;fill-rule:nonzero;stroke:none"
       id="path80"
       inkscape:connector-curvature="0" /><path
       d="m 496.128,181.09533 17.688,0 0,7.34728 -17.688,0 0,-7.34728 z"
       style="fill:#60d1e0;fill-opacity:1;fill-rule:nonzero;stroke:none"
       id="path82"
       inkscape:connector-curvature="0" /><path
       d="m 469.886,181.09533 17.688,0 0,7.34728 -17.688,0 0,-7.34728 z"
       style="fill:#fde052;fill-opacity:1;fill-rule:nonzero;stroke:none"
       id="path84"
       inkscape:connector-curvature="0" /><path
       d="m 443.644,181.09533 17.688,0 0,7.34728 -17.688,0 0,-7.34728 z"
       style="fill:#60d1e0;fill-opacity:1;fill-rule:nonzero;stroke:none"
       id="path86"
       inkscape:connector-curvature="0" /><path
       d="m 417.403,181.09533 17.688,0 0,7.34728 -17.688,0 0,-7.34728 z"
       style="fill:#60d1e0;fill-opacity:1;fill-rule:nonzero;stroke:none"
       id="path88"
       inkscape:connector-curvature="0" /><path
       d="m 496.128,165.79245 17.688,0 0,7.34595 -17.688,0 0,-7.34595 z"
       style="fill:#60d1e0;fill-opacity:1;fill-rule:nonzero;stroke:none"
       id="path90"
       inkscape:connector-curvature="0" /><path
       d="m 469.886,165.79245 17.688,0 0,7.34595 -17.688,0 0,-7.34595 z"
       style="fill:#60d1e0;fill-opacity:1;fill-rule:nonzero;stroke:none"
       id="path92"
       inkscape:connector-curvature="0" /><path
       d="m 443.644,165.79245 17.688,0 0,7.34595 -17.688,0 0,-7.34595 z"
       style="fill:#60d1e0;fill-opacity:1;fill-rule:nonzero;stroke:none"
       id="path94"
       inkscape:connector-curvature="0" /><path
       d="m 417.403,165.79245 17.688,0 0,7.34595 -17.688,0 0,-7.34595 z"
       style="fill:#ff5a5a;fill-opacity:1;fill-rule:nonzero;stroke:none"
       id="path96"
       inkscape:connector-curvature="0" /><path
       d="m 515.292,242.45391 -99.366,0 0,-6.94285 99.366,0 0,6.94285 z"
       style="fill:#60d1e0;fill-opacity:1;fill-rule:nonzero;stroke:none"
       id="path98"
       inkscape:connector-curvature="0" /><g
       id="g100"
       transform="matrix(-1,0,0,0.66848149,493.3485,236.09752)"><path
         d="m 0,0 c -0.797,1.525 -2.393,2.568 -4.233,2.568 -0.5,0 -0.981,-0.076 -1.434,-0.219 -0.634,1.208 -1.886,2.039 -3.344,2.039 -1.007,0 -1.917,-0.4 -2.596,-1.04 -1.14,1.286 -2.799,2.101 -4.653,2.101 -3.036,0 -5.561,-2.178 -6.105,-5.056 -0.372,0.122 -0.762,0.205 -1.174,0.205 -2.093,0 -3.791,-1.699 -3.791,-3.792 0,-2.094 1.698,-3.791 3.791,-3.791 1.286,0 2.417,0.643 3.102,1.622 1.105,-1.005 2.567,-1.622 4.177,-1.622 1.448,0 2.777,0.499 3.834,1.329 0.555,-0.712 1.411,-1.178 2.384,-1.178 1.002,0 1.885,0.492 2.437,1.243 0.864,-0.861 2.055,-1.394 3.372,-1.394 1.177,0 2.252,0.427 3.084,1.133 0.338,-0.129 0.702,-0.209 1.086,-0.209 1.675,0 3.032,1.358 3.032,3.033 C 2.969,-1.374 1.646,-0.036 0,0"
         style="fill:#4c9d2f;fill-opacity:1;fill-rule:nonzero;stroke:none"
         id="path102"
         inkscape:connector-curvature="0" /></g><g
       id="g104"
       transform="matrix(-1,0,0,0.66848149,453.4286,236.09752)"><path
         d="m 0,0 c -0.797,1.525 -2.393,2.568 -4.234,2.568 -0.499,0 -0.981,-0.076 -1.433,-0.219 -0.635,1.208 -1.886,2.039 -3.344,2.039 -1.008,0 -1.918,-0.4 -2.597,-1.04 -1.139,1.286 -2.798,2.101 -4.652,2.101 -3.036,0 -5.561,-2.178 -6.105,-5.056 -0.372,0.122 -0.762,0.205 -1.175,0.205 -2.092,0 -3.791,-1.699 -3.791,-3.792 0,-2.094 1.699,-3.791 3.791,-3.791 1.286,0 2.418,0.643 3.103,1.622 1.104,-1.005 2.567,-1.622 4.177,-1.622 1.448,0 2.777,0.499 3.834,1.329 0.555,-0.712 1.411,-1.178 2.384,-1.178 1.002,0 1.884,0.492 2.436,1.243 0.864,-0.861 2.056,-1.394 3.372,-1.394 1.177,0 2.254,0.427 3.085,1.133 0.338,-0.129 0.702,-0.209 1.086,-0.209 1.674,0 3.032,1.358 3.032,3.033 C 2.969,-1.374 1.646,-0.036 0,0"
         style="fill:#4c9d2f;fill-opacity:1;fill-rule:nonzero;stroke:none"
         id="path106"
         inkscape:connector-curvature="0" /></g><g
       id="g108"
       transform="matrix(-1,0,0,0.66848149,407.4979,236.49707)"><path
         d="m 0,0 c -0.412,0 -0.802,-0.083 -1.174,-0.205 -0.544,2.878 -3.069,5.057 -6.105,5.057 -1.854,0 -3.513,-0.816 -4.652,-2.102 -0.679,0.641 -1.589,1.04 -2.597,1.04 -1.458,0 -2.71,-0.831 -3.344,-2.039 -0.452,0.144 -0.934,0.22 -1.433,0.22 -1.841,0 -3.437,-1.043 -4.235,-2.569 -1.644,-0.036 -2.968,-1.374 -2.968,-3.028 0,-1.675 1.357,-3.032 3.032,-3.032 0.385,0 0.748,0.079 1.086,0.209 0.832,-0.706 1.908,-1.134 3.085,-1.134 1.316,0 2.508,0.533 3.371,1.395 0.553,-0.751 1.434,-1.244 2.437,-1.244 0.973,0 1.829,0.466 2.384,1.178 1.056,-0.83 2.386,-1.329 3.834,-1.329 1.61,0 3.073,0.617 4.176,1.622 0.686,-0.978 1.818,-1.622 3.103,-1.622 2.093,0 3.792,1.697 3.792,3.791 C 3.792,-1.698 2.093,0 0,0"
         style="fill:#4c9d2f;fill-opacity:1;fill-rule:nonzero;stroke:none"
         id="path110"
         inkscape:connector-curvature="0" /></g><path
       d="m 407.964,230.38849 115.291,0 0,5.12257 -115.291,0 0,-5.12257 z"
       style="fill:#75541d;fill-opacity:1;fill-rule:nonzero;stroke:none"
       id="path112"
       inkscape:connector-curvature="0" /><g
       id="g114"
       transform="matrix(-1,0,0,0.66848149,407.1253,234.96625)"><path
         d="m 0,0 c 0,-2.034 -1.648,-3.683 -3.684,-3.683 -2.033,0 -3.683,1.649 -3.683,3.683 0,2.034 1.65,3.684 3.683,3.684 C -1.648,3.684 0,2.034 0,0"
         style="fill:#4c9d2f;fill-opacity:1;fill-rule:nonzero;stroke:none"
         id="path116"
         inkscape:connector-curvature="0" /></g><g
       id="g118"
       transform="matrix(-1,0,0,0.66848149,420.0858,235.33177)"><path
         d="m 0,0 c 0,-1.088 -0.882,-1.972 -1.971,-1.972 -1.089,0 -1.971,0.884 -1.971,1.972 0,1.088 0.882,1.97 1.971,1.97 C -0.882,1.97 0,1.088 0,0"
         style="fill:#4c9d2f;fill-opacity:1;fill-rule:nonzero;stroke:none"
         id="path120"
         inkscape:connector-curvature="0" /></g><g
       id="g122"
       transform="matrix(-1,0,0,0.66848149,468.0697,235.19079)"><path
         d="m 0,0 c 0,-1.559 -1.264,-2.822 -2.822,-2.822 -1.558,0 -2.822,1.263 -2.822,2.822 0,1.559 1.264,2.82 2.822,2.82 C -1.264,2.82 0,1.559 0,0"
         style="fill:#4c9d2f;fill-opacity:1;fill-rule:nonzero;stroke:none"
         id="path124"
         inkscape:connector-curvature="0" /></g><path
       d="m 561.293,137.11326 84.964,0 0,198.22415 -84.964,0 0,-198.22415 z"
       style="fill:#e1e5e6;fill-opacity:1;fill-rule:nonzero;stroke:none"
       id="path126"
       inkscape:connector-curvature="0" /><path
       d="m 626.721,312.12907 10.673,0 0,10.89758 -10.673,0 0,-10.89758 z"
       style="fill:#fde052;fill-opacity:1;fill-rule:nonzero;stroke:none"
       id="path128"
       inkscape:connector-curvature="0" /><path
       d="m 607.866,312.12907 10.673,0 0,10.89758 -10.673,0 0,-10.89758 z"
       style="fill:#60d1e0;fill-opacity:1;fill-rule:nonzero;stroke:none"
       id="path130"
       inkscape:connector-curvature="0" /><path
       d="m 589.011,312.12907 10.673,0 0,10.89758 -10.673,0 0,-10.89758 z"
       style="fill:#e65400;fill-opacity:1;fill-rule:nonzero;stroke:none"
       id="path132"
       inkscape:connector-curvature="0" /><path
       d="m 570.156,312.12907 10.674,0 0,10.89758 -10.674,0 0,-10.89758 z"
       style="fill:#60d1e0;fill-opacity:1;fill-rule:nonzero;stroke:none"
       id="path134"
       inkscape:connector-curvature="0" /><path
       d="m 626.721,292.4717 10.673,0 0,10.89758 -10.673,0 0,-10.89758 z"
       style="fill:#60d1e0;fill-opacity:1;fill-rule:nonzero;stroke:none"
       id="path136"
       inkscape:connector-curvature="0" /><path
       d="m 607.866,292.4717 10.673,0 0,10.89758 -10.673,0 0,-10.89758 z"
       style="fill:#60d1e0;fill-opacity:1;fill-rule:nonzero;stroke:none"
       id="path138"
       inkscape:connector-curvature="0" /><path
       d="m 589.011,292.4717 10.673,0 0,10.89758 -10.673,0 0,-10.89758 z"
       style="fill:#60d1e0;fill-opacity:1;fill-rule:nonzero;stroke:none"
       id="path140"
       inkscape:connector-curvature="0" /><path
       d="m 570.156,292.4717 10.674,0 0,10.89758 -10.674,0 0,-10.89758 z"
       style="fill:#60d1e0;fill-opacity:1;fill-rule:nonzero;stroke:none"
       id="path142"
       inkscape:connector-curvature="0" /><path
       d="m 626.721,272.81366 10.673,0 0,10.89759 -10.673,0 0,-10.89759 z"
       style="fill:#60d1e0;fill-opacity:1;fill-rule:nonzero;stroke:none"
       id="path144"
       inkscape:connector-curvature="0" /><path
       d="m 607.866,272.81366 10.673,0 0,10.89759 -10.673,0 0,-10.89759 z"
       style="fill:#60d1e0;fill-opacity:1;fill-rule:nonzero;stroke:none"
       id="path146"
       inkscape:connector-curvature="0" /><path
       d="m 589.011,272.81366 10.673,0 0,10.89759 -10.673,0 0,-10.89759 z"
       style="fill:#fde052;fill-opacity:1;fill-rule:nonzero;stroke:none"
       id="path148"
       inkscape:connector-curvature="0" /><path
       d="m 570.156,272.81366 10.674,0 0,10.89759 -10.674,0 0,-10.89759 z"
       style="fill:#e65400;fill-opacity:1;fill-rule:nonzero;stroke:none"
       id="path150"
       inkscape:connector-curvature="0" /><path
       d="m 626.721,253.1563 10.673,0 0,10.89758 -10.673,0 0,-10.89758 z"
       style="fill:#60d1e0;fill-opacity:1;fill-rule:nonzero;stroke:none"
       id="path152"
       inkscape:connector-curvature="0" /><path
       d="m 607.866,253.1563 10.673,0 0,10.89758 -10.673,0 0,-10.89758 z"
       style="fill:#fde052;fill-opacity:1;fill-rule:nonzero;stroke:none"
       id="path154"
       inkscape:connector-curvature="0" /><path
       d="m 589.011,253.1563 10.673,0 0,10.89758 -10.673,0 0,-10.89758 z"
       style="fill:#60d1e0;fill-opacity:1;fill-rule:nonzero;stroke:none"
       id="path156"
       inkscape:connector-curvature="0" /><path
       d="m 570.156,253.1563 10.674,0 0,10.89758 -10.674,0 0,-10.89758 z"
       style="fill:#60d1e0;fill-opacity:1;fill-rule:nonzero;stroke:none"
       id="path158"
       inkscape:connector-curvature="0" /><path
       d="m 626.721,233.49826 10.673,0 0,10.89759 -10.673,0 0,-10.89759 z"
       style="fill:#60d1e0;fill-opacity:1;fill-rule:nonzero;stroke:none"
       id="path160"
       inkscape:connector-curvature="0" /><path
       d="m 607.866,233.49826 10.673,0 0,10.89759 -10.673,0 0,-10.89759 z"
       style="fill:#60d1e0;fill-opacity:1;fill-rule:nonzero;stroke:none"
       id="path162"
       inkscape:connector-curvature="0" /><path
       d="m 589.011,233.49826 10.673,0 0,10.89759 -10.673,0 0,-10.89759 z"
       style="fill:#e65400;fill-opacity:1;fill-rule:nonzero;stroke:none"
       id="path164"
       inkscape:connector-curvature="0" /><path
       d="m 570.156,233.49826 10.674,0 0,10.89759 -10.674,0 0,-10.89759 z"
       style="fill:#60d1e0;fill-opacity:1;fill-rule:nonzero;stroke:none"
       id="path166"
       inkscape:connector-curvature="0" /><path
       d="m 626.721,213.84023 10.673,0 0,10.89758 -10.673,0 0,-10.89758 z"
       style="fill:#60d1e0;fill-opacity:1;fill-rule:nonzero;stroke:none"
       id="path168"
       inkscape:connector-curvature="0" /><path
       d="m 607.866,213.84023 10.673,0 0,10.89758 -10.673,0 0,-10.89758 z"
       style="fill:#60d1e0;fill-opacity:1;fill-rule:nonzero;stroke:none"
       id="path170"
       inkscape:connector-curvature="0" /><path
       d="m 589.011,213.84023 10.673,0 0,10.89758 -10.673,0 0,-10.89758 z"
       style="fill:#60d1e0;fill-opacity:1;fill-rule:nonzero;stroke:none"
       id="path172"
       inkscape:connector-curvature="0" /><path
       d="m 570.156,213.84023 10.674,0 0,10.89758 -10.674,0 0,-10.89758 z"
       style="fill:#60d1e0;fill-opacity:1;fill-rule:nonzero;stroke:none"
       id="path174"
       inkscape:connector-curvature="0" /><path
       d="m 626.721,194.18286 10.673,0 0,10.89759 -10.673,0 0,-10.89759 z"
       style="fill:#e65400;fill-opacity:1;fill-rule:nonzero;stroke:none"
       id="path176"
       inkscape:connector-curvature="0" /><path
       d="m 607.866,194.18286 10.673,0 0,10.89759 -10.673,0 0,-10.89759 z"
       style="fill:#60d1e0;fill-opacity:1;fill-rule:nonzero;stroke:none"
       id="path178"
       inkscape:connector-curvature="0" /><path
       d="m 589.011,194.18286 10.673,0 0,10.89759 -10.673,0 0,-10.89759 z"
       style="fill:#fde052;fill-opacity:1;fill-rule:nonzero;stroke:none"
       id="path180"
       inkscape:connector-curvature="0" /><path
       d="m 570.156,194.18286 10.674,0 0,10.89759 -10.674,0 0,-10.89759 z"
       style="fill:#60d1e0;fill-opacity:1;fill-rule:nonzero;stroke:none"
       id="path182"
       inkscape:connector-curvature="0" /><path
       d="m 553.279,338.5996 100.991,0 0,-4.03295 -100.991,0 0,4.03295 z"
       style="fill:#75541d;fill-opacity:1;fill-rule:nonzero;stroke:none"
       id="path184"
       inkscape:connector-curvature="0" /><path
       d="m 640.987,276.88672 81.113,0 0,-136.05604 -81.113,0 0,136.05604 z"
       style="fill:#ffffff;fill-opacity:1;fill-rule:nonzero;stroke:none"
       id="path186"
       inkscape:connector-curvature="0" /><path
       d="m 632.058,234.62866 98.972,0 0,-5.1941 -98.972,0 0,5.1941 z"
       style="fill:#896761;fill-opacity:1;fill-rule:nonzero;stroke:none"
       id="path188"
       inkscape:connector-curvature="0" /><path
       d="m 632.058,190.16596 98.972,0 0,-5.19411 -98.972,0 0,5.19411 z"
       style="fill:#ff647e;fill-opacity:1;fill-rule:nonzero;stroke:none"
       id="path190"
       inkscape:connector-curvature="0" /><path
       d="m 704.49,257.03817 10.673,0 0,10.89692 -10.673,0 0,-10.89692 z"
       style="fill:#60d1e0;fill-opacity:1;fill-rule:nonzero;stroke:none"
       id="path192"
       inkscape:connector-curvature="0" /><path
       d="m 685.635,257.03817 10.673,0 0,10.89692 -10.673,0 0,-10.89692 z"
       style="fill:#60d1e0;fill-opacity:1;fill-rule:nonzero;stroke:none"
       id="path194"
       inkscape:connector-curvature="0" /><path
       d="m 666.78,257.03817 10.672,0 0,10.89692 -10.672,0 0,-10.89692 z"
       style="fill:#e65400;fill-opacity:1;fill-rule:nonzero;stroke:none"
       id="path196"
       inkscape:connector-curvature="0" /><path
       d="m 647.924,257.03817 10.674,0 0,10.89692 -10.674,0 0,-10.89692 z"
       style="fill:#60d1e0;fill-opacity:1;fill-rule:nonzero;stroke:none"
       id="path198"
       inkscape:connector-curvature="0" /><path
       d="m 704.49,239.74723 10.673,0 0,10.89758 -10.673,0 0,-10.89758 z"
       style="fill:#60d1e0;fill-opacity:1;fill-rule:nonzero;stroke:none"
       id="path200"
       inkscape:connector-curvature="0" /><path
       d="m 685.635,239.74723 10.673,0 0,10.89758 -10.673,0 0,-10.89758 z"
       style="fill:#60d1e0;fill-opacity:1;fill-rule:nonzero;stroke:none"
       id="path202"
       inkscape:connector-curvature="0" /><path
       d="m 666.78,239.74723 10.672,0 0,10.89758 -10.672,0 0,-10.89758 z"
       style="fill:#60d1e0;fill-opacity:1;fill-rule:nonzero;stroke:none"
       id="path204"
       inkscape:connector-curvature="0" /><path
       d="m 647.924,239.74723 10.674,0 0,10.89758 -10.674,0 0,-10.89758 z"
       style="fill:#60d1e0;fill-opacity:1;fill-rule:nonzero;stroke:none"
       id="path206"
       inkscape:connector-curvature="0" /><path
       d="m 704.49,212.57479 10.673,0 0,10.89759 -10.673,0 0,-10.89759 z"
       style="fill:#60d1e0;fill-opacity:1;fill-rule:nonzero;stroke:none"
       id="path208"
       inkscape:connector-curvature="0" /><path
       d="m 685.635,212.57479 10.673,0 0,10.89759 -10.673,0 0,-10.89759 z"
       style="fill:#60d1e0;fill-opacity:1;fill-rule:nonzero;stroke:none"
       id="path210"
       inkscape:connector-curvature="0" /><path
       d="m 666.78,212.57479 10.672,0 0,10.89759 -10.672,0 0,-10.89759 z"
       style="fill:#60d1e0;fill-opacity:1;fill-rule:nonzero;stroke:none"
       id="path212"
       inkscape:connector-curvature="0" /><path
       d="m 647.924,212.57479 10.674,0 0,10.89759 -10.674,0 0,-10.89759 z"
       style="fill:#60d1e0;fill-opacity:1;fill-rule:nonzero;stroke:none"
       id="path214"
       inkscape:connector-curvature="0" /><path
       d="m 704.49,195.28452 10.673,0 0,10.89825 -10.673,0 0,-10.89825 z"
       style="fill:#60d1e0;fill-opacity:1;fill-rule:nonzero;stroke:none"
       id="path216"
       inkscape:connector-curvature="0" /><path
       d="m 685.635,195.28452 10.673,0 0,10.89825 -10.673,0 0,-10.89825 z"
       style="fill:#e65400;fill-opacity:1;fill-rule:nonzero;stroke:none"
       id="path218"
       inkscape:connector-curvature="0" /><path
       d="m 666.78,195.28452 10.672,0 0,10.89825 -10.672,0 0,-10.89825 z"
       style="fill:#60d1e0;fill-opacity:1;fill-rule:nonzero;stroke:none"
       id="path220"
       inkscape:connector-curvature="0" /><path
       d="m 647.924,195.28452 10.674,0 0,10.89825 -10.674,0 0,-10.89825 z"
       style="fill:#60d1e0;fill-opacity:1;fill-rule:nonzero;stroke:none"
       id="path222"
       inkscape:connector-curvature="0" /><path
       d="m 704.49,168.11208 10.673,0 0,10.89692 -10.673,0 0,-10.89692 z"
       style="fill:#60d1e0;fill-opacity:1;fill-rule:nonzero;stroke:none"
       id="path224"
       inkscape:connector-curvature="0" /><path
       d="m 685.635,168.11208 10.673,0 0,10.89692 -10.673,0 0,-10.89692 z"
       style="fill:#60d1e0;fill-opacity:1;fill-rule:nonzero;stroke:none"
       id="path226"
       inkscape:connector-curvature="0" /><path
       d="m 666.78,168.11208 10.672,0 0,10.89692 -10.672,0 0,-10.89692 z"
       style="fill:#60d1e0;fill-opacity:1;fill-rule:nonzero;stroke:none"
       id="path228"
       inkscape:connector-curvature="0" /><path
       d="m 647.924,168.11208 10.674,0 0,10.89692 -10.674,0 0,-10.89692 z"
       style="fill:#60d1e0;fill-opacity:1;fill-rule:nonzero;stroke:none"
       id="path230"
       inkscape:connector-curvature="0" /><path
       d="m 650.378,284.21127 62.333,0 0,-7.32455 -62.333,0 0,7.32455 z"
       style="fill:#ff647e;fill-opacity:1;fill-rule:nonzero;stroke:none"
       id="path232"
       inkscape:connector-curvature="0" /><path
       d="m 658.598,289.60258 45.892,0 0,-5.39131 -45.892,0 0,5.39131 z"
       style="fill:#ffb700;fill-opacity:1;fill-rule:nonzero;stroke:none"
       id="path234"
       inkscape:connector-curvature="0" /><path
       d="m 679.034,286.90726 5.019,0 0,18.97618 -5.019,0 0,-18.97618 z"
       style="fill:#ffb700;fill-opacity:1;fill-rule:nonzero;stroke:none"
       id="path236"
       inkscape:connector-curvature="0" /><g
       id="g558"
       transform="matrix(1,0,0,0.66848149,323.5967,41.680857)"><path
         d="m 0,0 65.906,0 c 87.168,37.678 215.885,121.521 410.497,121.521 l 0,17.97 C 225.403,139.491 83.997,0 0,0"
         style="fill:#5ca642;fill-opacity:1;fill-rule:nonzero;stroke:none"
         id="path560"
         inkscape:connector-curvature="0" /></g><g
       id="g566"
       transform="matrix(1,0,0,0.66848149,323.5967,17.655967)"><path
         d="m 0,0 65.906,0 c 87.168,37.678 215.885,121.521 410.497,121.521 l 0,17.97 C 225.403,139.491 83.997,0 0,0"
         style="fill:#5ca642;fill-opacity:1;fill-rule:nonzero;stroke:none"
         id="path568"
         inkscape:connector-curvature="0" /></g><g
       id="g570"
       transform="matrix(-1,0,0,0.66848149,535.5746,240.17766)"><path
         d="m 0,0 0,-37.831 38.043,0 L 0,0 Z"
         style="fill:#cc9800;fill-opacity:1;fill-rule:nonzero;stroke:none"
         id="path572"
         inkscape:connector-curvature="0" /></g><g
       id="g574"
       transform="matrix(-1,0,0,0.66848149,554.596,240.17766)"><path
         d="m 0,0 0,-37.831 38.043,0 L 0,0 Z"
         style="fill:#dbab36;fill-opacity:1;fill-rule:nonzero;stroke:none"
         id="path576"
         inkscape:connector-curvature="0" /></g><g
       id="g578"
       transform="matrix(-1,0,0,0.66848149,573.618,240.17766)"><path
         d="m 0,0 0,-37.831 38.043,0 L 0,0 Z"
         style="fill:#e0b653;fill-opacity:1;fill-rule:nonzero;stroke:none"
         id="path580"
         inkscape:connector-curvature="0" /></g><g
       id="g582"
       transform="matrix(-1,0,0,0.66848149,592.6395,240.17766)"><path
         d="m 0,0 0,-37.831 38.043,0 L 0,0 Z"
         style="fill:#e6bc64;fill-opacity:1;fill-rule:nonzero;stroke:none"
         id="path584"
         inkscape:connector-curvature="0" /></g><g
       id="g586"
       transform="matrix(-1,0,0,0.66848149,573.618,214.88827)"><path
         d="m 0,0 -38.043,37.831 0,-179.508 114.13,0 L 76.087,0 0,0 Z"
         style="fill:#fde052;fill-opacity:1;fill-rule:nonzero;stroke:none"
         id="path588"
         inkscape:connector-curvature="0" /></g><path
       d="m 580.423,194.65414 18.558,0 0,7.98902 -18.558,0 0,-7.98902 z"
       style="fill:#ffffff;fill-opacity:1;fill-rule:nonzero;stroke:none"
       id="path590"
       inkscape:connector-curvature="0" /><path
       d="m 545.317,194.65414 18.559,0 0,7.98902 -18.559,0 0,-7.98902 z"
       style="fill:#ffffff;fill-opacity:1;fill-rule:nonzero;stroke:none"
       id="path592"
       inkscape:connector-curvature="0" /><path
       d="m 510.213,194.65414 18.557,0 0,7.98902 -18.557,0 0,-7.98902 z"
       style="fill:#ffffff;fill-opacity:1;fill-rule:nonzero;stroke:none"
       id="path594"
       inkscape:connector-curvature="0" /><path
       d="m 580.423,177.98689 18.558,0 0,7.98836 -18.558,0 0,-7.98836 z"
       style="fill:#ffffff;fill-opacity:1;fill-rule:nonzero;stroke:none"
       id="path596"
       inkscape:connector-curvature="0" /><path
       d="m 545.317,177.98689 18.559,0 0,7.98836 -18.559,0 0,-7.98836 z"
       style="fill:#ffffff;fill-opacity:1;fill-rule:nonzero;stroke:none"
       id="path598"
       inkscape:connector-curvature="0" /><path
       d="m 510.213,177.98689 18.557,0 0,7.98836 -18.557,0 0,-7.98836 z"
       style="fill:#ffffff;fill-opacity:1;fill-rule:nonzero;stroke:none"
       id="path600"
       inkscape:connector-curvature="0" /><path
       d="m 580.423,161.31897 18.558,0 0,7.98903 -18.558,0 0,-7.98903 z"
       style="fill:#ffffff;fill-opacity:1;fill-rule:nonzero;stroke:none"
       id="path602"
       inkscape:connector-curvature="0" /><path
       d="m 545.317,161.31897 18.559,0 0,7.98903 -18.559,0 0,-7.98903 z"
       style="fill:#ffffff;fill-opacity:1;fill-rule:nonzero;stroke:none"
       id="path604"
       inkscape:connector-curvature="0" /><path
       d="m 510.213,161.31897 18.557,0 0,7.98903 -18.557,0 0,-7.98903 z"
       style="fill:#ffffff;fill-opacity:1;fill-rule:nonzero;stroke:none"
       id="path606"
       inkscape:connector-curvature="0" /><path
       d="m 510.213,189.62582 88.768,0 0,2.04154 -88.768,0 0,-2.04154 z"
       style="fill:#ff5a5a;fill-opacity:1;fill-rule:nonzero;stroke:none"
       id="path608"
       inkscape:connector-curvature="0" /><path
       d="m 510.213,172.21455 88.768,0 0,2.04088 -88.768,0 0,-2.04088 z"
       style="fill:#60d1e0;fill-opacity:1;fill-rule:nonzero;stroke:none"
       id="path610"
       inkscape:connector-curvature="0" /><path
       d="m 397.282,198.26795 -15.323,0 0,-19.05373 15.323,0 0,19.05373 z"
       style="fill:#5b6770;fill-opacity:1;fill-rule:nonzero;stroke:none"
       id="path612"
       inkscape:connector-curvature="0" /><path
       d="m 423.306,198.26795 -15.324,0 0,-19.05373 15.324,0 0,19.05373 z"
       style="fill:#5b6770;fill-opacity:1;fill-rule:nonzero;stroke:none"
       id="path614"
       inkscape:connector-curvature="0" /><path
       d="m 449.331,198.26795 -15.324,0 0,-19.05373 15.324,0 0,19.05373 z"
       style="fill:#5b6770;fill-opacity:1;fill-rule:nonzero;stroke:none"
       id="path616"
       inkscape:connector-curvature="0" /><path
       d="m 504.521,176.65394 -131.093,0 0,-56.47332 131.093,0 0,56.47332 z"
       style="fill:#a3aaae;fill-opacity:1;fill-rule:nonzero;stroke:none"
       id="path618"
       inkscape:connector-curvature="0" /><path
       d="m 397.282,157.17639 -9.936,0 0,11.74656 9.936,0 0,-11.74656 z"
       style="fill:#ffffff;fill-opacity:1;fill-rule:nonzero;stroke:none"
       id="path620"
       inkscape:connector-curvature="0" /><path
       d="m 420.613,157.17639 -9.937,0 0,11.74656 9.937,0 0,-11.74656 z"
       style="fill:#fde052;fill-opacity:1;fill-rule:nonzero;stroke:none"
       id="path622"
       inkscape:connector-curvature="0" /><path
       d="m 443.944,157.17639 -9.937,0 0,11.74656 9.937,0 0,-11.74656 z"
       style="fill:#ff5a5a;fill-opacity:1;fill-rule:nonzero;stroke:none"
       id="path624"
       inkscape:connector-curvature="0" /><path
       d="m 467.275,157.17639 -9.938,0 0,11.74656 9.938,0 0,-11.74656 z"
       style="fill:#ffffff;fill-opacity:1;fill-rule:nonzero;stroke:none"
       id="path626"
       inkscape:connector-curvature="0" /><path
       d="m 490.605,157.17639 -9.937,0 0,11.74656 9.937,0 0,-11.74656 z"
       style="fill:#ff5a5a;fill-opacity:1;fill-rule:nonzero;stroke:none"
       id="path628"
       inkscape:connector-curvature="0" /><path
       d="m 397.282,137.11326 -9.936,0 0,11.74589 9.936,0 0,-11.74589 z"
       style="fill:#ffffff;fill-opacity:1;fill-rule:nonzero;stroke:none"
       id="path630"
       inkscape:connector-curvature="0" /><path
       d="m 420.613,137.11326 -9.937,0 0,11.74589 9.937,0 0,-11.74589 z"
       style="fill:#ffffff;fill-opacity:1;fill-rule:nonzero;stroke:none"
       id="path632"
       inkscape:connector-curvature="0" /><path
       d="m 443.944,137.11326 -9.937,0 0,11.74589 9.937,0 0,-11.74589 z"
       style="fill:#ffffff;fill-opacity:1;fill-rule:nonzero;stroke:none"
       id="path634"
       inkscape:connector-curvature="0" /><path
       d="m 467.275,137.11326 -9.938,0 0,11.74589 9.938,0 0,-11.74589 z"
       style="fill:#fde052;fill-opacity:1;fill-rule:nonzero;stroke:none"
       id="path636"
       inkscape:connector-curvature="0" /><g
       id="g550"
       transform="matrix(1,0,0,0.66848149,324.58734,67.94896)"><path
         d="M 0,0 C 83.997,0 225.403,139.491 476.403,139.491 L 476.403,0 0,0 Z"
         style="fill:#4c9d2f;fill-opacity:1;fill-rule:nonzero;stroke:none"
         id="path552"
         inkscape:connector-curvature="0" /></g><path
       d="m 490.605,137.11326 -9.937,0 0,11.74589 9.937,0 0,-11.74589 z"
       style="fill:#ffffff;fill-opacity:1;fill-rule:nonzero;stroke:none"
       id="path638"
       inkscape:connector-curvature="0" /><path
       d="m 508.823,180.74705 -139.697,0 0,-4.2228 139.697,0 0,4.2228 z"
       style="fill:#323e48;fill-opacity:1;fill-rule:nonzero;stroke:none"
       id="path640"
       inkscape:connector-curvature="0" /><g
       id="g554"
       transform="matrix(1,0,0,0.66848149,323.5967,53.693269)"><path
         d="m 0,0 65.906,0 c 87.168,37.678 215.885,121.521 410.497,121.521 l 0,17.97 C 225.403,139.491 83.997,0 0,0"
         style="fill:#66aa4b;fill-opacity:1;fill-rule:nonzero;stroke:none"
         id="path556"
         inkscape:connector-curvature="0" /></g><g
       id="g562"
       transform="matrix(1,0,0,0.66848149,323.5967,29.668378)"><path
         d="m 0,0 65.906,0 c 87.168,37.678 215.885,121.521 410.497,121.521 l 0,17.97 C 225.403,139.491 83.997,0 0,0"
         style="fill:#66aa4b;fill-opacity:1;fill-rule:nonzero;stroke:none"
         id="path564"
         inkscape:connector-curvature="0" /></g><g
       id="g642"
       transform="matrix(1,0,0,0.66848149,800,93.86807)"><path
         d="m 0,0 c -209.419,0 -365.411,97.495 -800,97.495 l 0,-237.915 800,0 L 0,0 Z"
         style="fill:#76bd22;fill-opacity:1;fill-rule:nonzero;stroke:none"
         id="path644"
         inkscape:connector-curvature="0" /></g><g
       id="g646"
       transform="matrix(1,0,0,0.66848149,0,141.68736)"><path
         d="m 0,0 0,-23.664 c 434.589,0 590.581,-97.495 800,-97.495 l 0,23.664 C 590.581,-97.495 434.589,0 0,0"
         style="fill:#90c851;fill-opacity:1;fill-rule:nonzero;stroke:none"
         id="path648"
         inkscape:connector-curvature="0" /></g><g
       id="g650"
       transform="matrix(1,0,0,0.66848149,0,125.86835)"><path
         d="m 0,0 0,-23.664 c 434.589,0 590.581,-97.495 800,-97.495 l 0,23.664 C 590.581,-97.495 434.589,0 0,0"
         style="fill:#7fc136;fill-opacity:1;fill-rule:nonzero;stroke:none"
         id="path652"
         inkscape:connector-curvature="0" /></g><g
       id="g654"
       transform="matrix(1,0,0,0.66848149,0,110.0494)"><path
         d="m 0,0 0,-23.664 c 434.589,0 590.581,-97.495 800,-97.495 l 0,23.664 C 590.581,-97.495 434.589,0 0,0"
         style="fill:#90c851;fill-opacity:1;fill-rule:nonzero;stroke:none"
         id="path656"
         inkscape:connector-curvature="0" /></g><g
       id="g658"
       transform="matrix(1,0,0,0.66848149,0,94.230387)"><path
         d="m 0,0 0,-23.664 c 434.589,0 590.581,-97.495 800,-97.495 l 0,23.664 C 590.581,-97.495 434.589,0 0,0"
         style="fill:#7fc136;fill-opacity:1;fill-rule:nonzero;stroke:none"
         id="path660"
         inkscape:connector-curvature="0" /></g><path
       d="m 130.51764,52.951668 -5.64861,0 0,-18.494209 5.64861,0 0,18.494209 z"
       style="fill:#6a4024;fill-opacity:1;fill-rule:nonzero;stroke:none"
       id="path662"
       inkscape:connector-curvature="0" /><g
       id="g664"
       transform="matrix(0.70554793,0,0,0.66848149,139.77987,84.631072)"><path
         d="m 0,0 c 0,-9.462 -7.67,-17.131 -17.131,-17.131 -9.461,0 -17.131,7.669 -17.131,17.131 0,9.461 7.67,17.131 17.131,17.131 C -7.67,17.131 0,9.461 0,0"
         style="fill:#48773c;fill-opacity:1;fill-rule:nonzero;stroke:none"
         id="path666"
         inkscape:connector-curvature="0" /></g><g
       id="g668"
       transform="matrix(0.70554793,0,0,0.66848149,139.77987,73.17945)"><path
         d="m 0,0 c 0,-9.462 -7.67,-17.131 -17.131,-17.131 -9.461,0 -17.131,7.669 -17.131,17.131 0,9.461 7.67,17.131 17.131,17.131 C -7.67,17.131 0,9.461 0,0"
         style="fill:#48773c;fill-opacity:1;fill-rule:nonzero;stroke:none"
         id="path670"
         inkscape:connector-curvature="0" /></g><g
       id="g672"
       transform="matrix(0.70554793,0,0,0.66848149,139.77987,61.72776)"><path
         d="m 0,0 c 0,-9.462 -7.67,-17.131 -17.131,-17.131 -9.461,0 -17.131,7.669 -17.131,17.131 0,9.461 7.67,17.131 17.131,17.131 C -7.67,17.131 0,9.461 0,0"
         style="fill:#48773c;fill-opacity:1;fill-rule:nonzero;stroke:none"
         id="path674"
         inkscape:connector-curvature="0" /></g><path
       d="m 645.17509,95.750021 -5.64862,0 0,-18.494209 5.64862,0 0,18.494209 z"
       style="fill:#6a4024;fill-opacity:1;fill-rule:nonzero;stroke:none"
       id="path676"
       inkscape:connector-curvature="0" /><g
       id="g678"
       transform="matrix(0.70554793,0,0,0.66848149,654.43759,127.42929)"><path
         d="m 0,0 c 0,-9.462 -7.67,-17.131 -17.131,-17.131 -9.461,0 -17.131,7.669 -17.131,17.131 0,9.461 7.67,17.131 17.131,17.131 C -7.67,17.131 0,9.461 0,0"
         style="fill:#48773c;fill-opacity:1;fill-rule:nonzero;stroke:none"
         id="path680"
         inkscape:connector-curvature="0" /></g><g
       id="g682"
       transform="matrix(0.70554793,0,0,0.66848149,654.43759,115.9776)"><path
         d="m 0,0 c 0,-9.462 -7.67,-17.131 -17.131,-17.131 -9.461,0 -17.131,7.669 -17.131,17.131 0,9.461 7.67,17.131 17.131,17.131 C -7.67,17.131 0,9.461 0,0"
         style="fill:#48773c;fill-opacity:1;fill-rule:nonzero;stroke:none"
         id="path684"
         inkscape:connector-curvature="0" /></g><g
       id="g686"
       transform="matrix(0.70554793,0,0,0.66848149,654.43759,104.52591)"><path
         d="m 0,0 c 0,-9.462 -7.67,-17.131 -17.131,-17.131 -9.461,0 -17.131,7.669 -17.131,17.131 0,9.461 7.67,17.131 17.131,17.131 C -7.67,17.131 0,9.461 0,0"
         style="fill:#48773c;fill-opacity:1;fill-rule:nonzero;stroke:none"
         id="path688"
         inkscape:connector-curvature="0" /></g><path
       d="m 379.15806,62.016765 -5.64861,0 0,-18.494209 5.64861,0 0,18.494209 z"
       style="fill:#6a4024;fill-opacity:1;fill-rule:nonzero;stroke:none"
       id="path690"
       inkscape:connector-curvature="0" /><g
       id="g692"
       transform="matrix(0.70554793,0,0,0.66848149,392.50647,74.807289)"><path
         d="m 0,0 c 0,-12.66 -10.262,-22.923 -22.922,-22.923 -12.66,0 -22.922,10.263 -22.922,22.923 0,12.659 10.262,22.922 22.922,22.922 C -10.262,22.922 0,12.659 0,0"
         style="fill:#48773c;fill-opacity:1;fill-rule:nonzero;stroke:none"
         id="path694"
         inkscape:connector-curvature="0" /></g><path
       d="m 472.84028,141.05558 -5.64861,0 0,-18.49421 5.64861,0 0,18.49421 z"
       style="fill:#6a4024;fill-opacity:1;fill-rule:nonzero;stroke:none"
       id="path696"
       inkscape:connector-curvature="0" /><g
       id="g698"
       transform="matrix(0.70554793,0,0,0.66848149,486.18798,153.84603)"><path
         d="m 0,0 c 0,-12.66 -10.262,-22.923 -22.922,-22.923 -12.659,0 -22.922,10.263 -22.922,22.923 0,12.659 10.263,22.922 22.922,22.922 C -10.262,22.922 0,12.659 0,0"
         style="fill:#48773c;fill-opacity:1;fill-rule:nonzero;stroke:none"
         id="path700"
         inkscape:connector-curvature="0" /></g><path
       d="m 172.49845,108.59941 -5.64862,0 0,-18.49421 5.64862,0 0,18.49421 z"
       style="fill:#6a4024;fill-opacity:1;fill-rule:nonzero;stroke:none"
       id="path702"
       inkscape:connector-curvature="0" /><g
       id="g704"
       transform="matrix(0.70554793,0,0,0.66848149,185.84685,121.38974)"><path
         d="m 0,0 c 0,-12.66 -10.262,-22.923 -22.922,-22.923 -12.66,0 -22.922,10.263 -22.922,22.923 0,12.659 10.262,22.922 22.922,22.922 C -10.262,22.922 0,12.659 0,0"
         style="fill:#48773c;fill-opacity:1;fill-rule:nonzero;stroke:none"
         id="path706"
         inkscape:connector-curvature="0" /></g><path
       d="m 739.83504,155.44312 -5.64861,0 0,-18.49421 5.64861,0 0,18.49421 z"
       style="fill:#6a4024;fill-opacity:1;fill-rule:nonzero;stroke:none"
       id="path708"
       inkscape:connector-curvature="0" /><g
       id="g710"
       transform="matrix(0.70554793,0,0,0.66848149,753.1838,168.23378)"><path
         d="m 0,0 c 0,-12.66 -10.263,-22.923 -22.922,-22.923 -12.66,0 -22.922,10.263 -22.922,22.923 0,12.659 10.262,22.922 22.922,22.922 C -10.263,22.922 0,12.659 0,0"
         style="fill:#48773c;fill-opacity:1;fill-rule:nonzero;stroke:none"
         id="path712"
         inkscape:connector-curvature="0" /></g><g
       id="g714"
       transform="matrix(1,0,0,0.66848149,311.6421,497.87769)"><path
         d="m 0,0 c -1.723,8.828 -9.491,15.493 -18.823,15.493 -2.569,0 -5.014,-0.514 -7.253,-1.43 -5.439,7.339 -14.162,12.097 -23.997,12.097 -15.406,0 -28.082,-11.67 -29.68,-26.652 -1.797,0.557 -3.707,0.858 -5.687,0.858 -10.596,0 -19.186,-8.59 -19.186,-19.187 0,-9.407 6.775,-17.218 15.709,-18.856 4.133,-9.976 13.961,-16.996 25.432,-16.996 4.921,0 9.536,1.298 13.534,3.561 3.5,-3.735 8.463,-6.081 13.985,-6.081 6.303,0 11.879,3.053 15.376,7.745 4.532,-3.284 10.101,-5.226 16.127,-5.226 15.198,0 27.519,12.321 27.519,27.52 C 23.056,-13.476 13.075,-2.133 0,0"
         style="fill:#ffffff;fill-opacity:1;fill-rule:nonzero;stroke:none"
         id="path716"
         inkscape:connector-curvature="0" /></g></g></svg>