<?xml version="1.0" encoding="UTF-8" standalone="no"?>
<!-- Created with Inkscape (http://www.inkscape.org/) -->

<svg
   xmlns:dc="http://purl.org/dc/elements/1.1/"
   xmlns:cc="http://creativecommons.org/ns#"
   xmlns:rdf="http://www.w3.org/1999/02/22-rdf-syntax-ns#"
   xmlns:svg="http://www.w3.org/2000/svg"
   xmlns="http://www.w3.org/2000/svg"
   xmlns:sodipodi="http://sodipodi.sourceforge.net/DTD/sodipodi-0.dtd"
   xmlns:inkscape="http://www.inkscape.org/namespaces/inkscape"
   id="svg2"
   version="1.1"
   inkscape:version="0.91 r13725"
   xml:space="preserve"
   width="600"
   height="1000"
   viewBox="0 0 600 1000"
   sodipodi:docname="programming-on-the-cloud.svg"><metadata
     id="metadata8"><rdf:RDF><cc:Work
         rdf:about=""><dc:format>image/svg+xml</dc:format><dc:type
           rdf:resource="http://purl.org/dc/dcmitype/StillImage" /><dc:title></dc:title></cc:Work></rdf:RDF></metadata><defs
     id="defs6"><clipPath
       clipPathUnits="userSpaceOnUse"
       id="clipPath18"><path
         d="M 0,800 800,800 800,0 0,0 0,800 Z"
         id="path20"
         inkscape:connector-curvature="0" /></clipPath><clipPath
       clipPathUnits="userSpaceOnUse"
       id="clipPath152"><path
         d="m 497.098,360.118 25.436,0 0,-20.239 -25.436,0 0,20.239 z"
         id="path154"
         inkscape:connector-curvature="0" /></clipPath><clipPath
       clipPathUnits="userSpaceOnUse"
       id="clipPath396"><path
         d="m 384.269,259.036 88.951,0 0,-76.712 -88.951,0 0,76.712 z"
         id="path398"
         inkscape:connector-curvature="0" /></clipPath><clipPath
       clipPathUnits="userSpaceOnUse"
       id="clipPath424"><path
         d="m 465.629,421.37 44.479,0 0,-75.207 -44.479,0 0,75.207 z"
         id="path426"
         inkscape:connector-curvature="0" /></clipPath><clipPath
       clipPathUnits="userSpaceOnUse"
       id="clipPath480"><path
         d="m 227.494,650.518 80.996,0 0,-80.996 -80.996,0 0,80.996 z"
         id="path482"
         inkscape:connector-curvature="0" /></clipPath><clipPath
       clipPathUnits="userSpaceOnUse"
       id="clipPath506"><path
         d="m 328.754,577.305 61.735,0 0,-61.736 -61.735,0 0,61.736 z"
         id="path508"
         inkscape:connector-curvature="0" /></clipPath><clipPath
       clipPathUnits="userSpaceOnUse"
       id="clipPath530"><path
         d="m 504.267,626.719 80.996,0 0,-80.996 -80.996,0 0,80.996 z"
         id="path532"
         inkscape:connector-curvature="0" /></clipPath><clipPath
       clipPathUnits="userSpaceOnUse"
       id="clipPath550"><path
         d="m 222.246,474.414 80.996,0 0,-80.996 -80.996,0 0,80.996 z"
         id="path552"
         inkscape:connector-curvature="0" /></clipPath><clipPath
       clipPathUnits="userSpaceOnUse"
       id="clipPath578"><path
         d="m 466.058,702.316 61.735,0 0,-61.735 -61.735,0 0,61.735 z"
         id="path580"
         inkscape:connector-curvature="0" /></clipPath><clipPath
       clipPathUnits="userSpaceOnUse"
       id="clipPath654"><path
         d="m 586.623,765.345 80.996,0 0,-80.996 -80.996,0 0,80.996 z"
         id="path656"
         inkscape:connector-curvature="0" /></clipPath><clipPath
       clipPathUnits="userSpaceOnUse"
       id="clipPath678"><path
         d="m 646.332,571.48 80.995,0 0,-80.996 -80.995,0 0,80.996 z"
         id="path680"
         inkscape:connector-curvature="0" /></clipPath><clipPath
       clipPathUnits="userSpaceOnUse"
       id="clipPath698"><path
         d="m 171.522,789.747 85.503,0 0,-85.501 -85.503,0 0,85.501 z"
         id="path700"
         inkscape:connector-curvature="0" /></clipPath><clipPath
       clipPathUnits="userSpaceOnUse"
       id="clipPath758"><path
         d="m 87.9019,544.92 80.9951,0 0,-80.996 -80.9951,0 0,80.996 z"
         id="path760"
         inkscape:connector-curvature="0" /></clipPath><clipPath
       clipPathUnits="userSpaceOnUse"
       id="clipPath778"><path
         d="m 576.238,465.292 61.735,0 0,-61.736 -61.735,0 0,61.736 z"
         id="path780"
         inkscape:connector-curvature="0" /></clipPath><clipPath
       clipPathUnits="userSpaceOnUse"
       id="clipPath926"><path
         d="m 295.999,732.817 65.512,0 0,-65.512 -65.512,0 0,65.512 z"
         id="path928"
         inkscape:connector-curvature="0" /></clipPath></defs><sodipodi:namedview
     pagecolor="#ffffff"
     bordercolor="#666666"
     borderopacity="1"
     objecttolerance="10"
     gridtolerance="10"
     guidetolerance="10"
     inkscape:pageopacity="0"
     inkscape:pageshadow="2"
     inkscape:window-width="1920"
     inkscape:window-height="1058"
     id="namedview4"
     showgrid="false"
     inkscape:zoom="0.63446243"
     inkscape:cx="299.21231"
     inkscape:cy="563.14317"
     inkscape:window-x="0"
     inkscape:window-y="0"
     inkscape:window-maximized="1"
     inkscape:current-layer="g10"><inkscape:grid
       type="xygrid"
       id="grid6565" /></sodipodi:namedview><g
     id="g10"
     inkscape:groupmode="layer"
     inkscape:label="284"
     transform="matrix(1.25,0,0,-1.25,0,1000)"><g
       id="g3660"
       transform="translate(16,0)"><g
         transform="matrix(-1,0,0,1,202.74195,543.01798)"
         id="g22"><path
           inkscape:connector-curvature="0"
           id="path24"
           style="fill:#ffffff;fill-opacity:1;fill-rule:nonzero;stroke:none"
           d="m 0,0 c 0,13.696 -11.103,24.8 -24.799,24.8 -13.697,0 -24.8,-11.104 -24.8,-24.8 0,-13.696 11.103,-24.8 24.8,-24.8 C -11.103,-24.8 0,-13.696 0,0" /></g><g
         transform="matrix(-1,0,0,1,157.41725,509.54338)"
         id="g26"><path
           inkscape:connector-curvature="0"
           id="path28"
           style="fill:#ffffff;fill-opacity:1;fill-rule:nonzero;stroke:none"
           d="m 0,0 c 0,13.696 -11.103,24.8 -24.799,24.8 -13.697,0 -24.8,-11.104 -24.8,-24.8 0,-13.696 11.103,-24.8 24.8,-24.8 C -11.103,-24.8 0,-13.696 0,0" /></g><g
         transform="matrix(-1,0,0,1,156.04955,558.45938)"
         id="g30"><path
           inkscape:connector-curvature="0"
           id="path32"
           style="fill:#ffffff;fill-opacity:1;fill-rule:nonzero;stroke:none"
           d="m 0,0 c 0,18.619 -15.094,33.713 -33.712,33.713 -18.619,0 -33.712,-15.094 -33.712,-33.713 0,-18.619 15.093,-33.713 33.712,-33.713 C -15.094,-33.713 0,-18.619 0,0" /></g><g
         transform="matrix(-1,0,0,1,116.62815,517.58628)"
         id="g34"><path
           inkscape:connector-curvature="0"
           id="path36"
           style="fill:#ffffff;fill-opacity:1;fill-rule:nonzero;stroke:none"
           d="m 0,0 c 0,18.619 -15.094,33.713 -33.712,33.713 -18.619,0 -33.712,-15.094 -33.712,-33.713 0,-18.619 15.093,-33.713 33.712,-33.713 C -15.094,-33.713 0,-18.619 0,0" /></g><g
         transform="matrix(-1,0,0,1,182.21655,518.45638)"
         id="g38"><path
           inkscape:connector-curvature="0"
           id="path40"
           style="fill:#ffffff;fill-opacity:1;fill-rule:nonzero;stroke:none"
           d="m 0,0 c 0,18.619 -15.094,33.713 -33.712,33.713 -18.619,0 -33.712,-15.094 -33.712,-33.713 0,-18.619 15.093,-33.713 33.712,-33.713 C -15.094,-33.713 0,-18.619 0,0" /></g><g
         transform="matrix(-1,0,0,1,225.81375,517.58438)"
         id="g42"><path
           inkscape:connector-curvature="0"
           id="path44"
           style="fill:#ffffff;fill-opacity:1;fill-rule:nonzero;stroke:none"
           d="m 0,0 c 0,14.652 -11.876,26.528 -26.527,26.528 -14.651,0 -26.527,-11.876 -26.527,-26.528 0,-14.649 11.876,-26.525 26.527,-26.525 C -11.876,-26.525 0,-14.649 0,0" /></g><g
         transform="matrix(-1,0,0,1,124.70775,544.67028)"
         id="g46"><path
           inkscape:connector-curvature="0"
           id="path48"
           style="fill:#ffffff;fill-opacity:1;fill-rule:nonzero;stroke:none"
           d="m 0,0 c 0,13.742 -11.141,24.884 -24.884,24.884 -13.743,0 -24.884,-11.142 -24.884,-24.884 0,-13.742 11.141,-24.884 24.884,-24.884 C -11.141,-24.884 0,-13.742 0,0" /></g><g
         transform="matrix(-1,0,0,1,91.07595,520.28938)"
         id="g50"><path
           inkscape:connector-curvature="0"
           id="path52"
           style="fill:#ffffff;fill-opacity:1;fill-rule:nonzero;stroke:none"
           d="m 0,0 c 0,-15.43 -12.508,-27.936 -27.935,-27.936 -15.429,0 -27.937,12.506 -27.937,27.936 0,15.428 12.508,27.935 27.937,27.935 C -12.508,27.935 0,15.428 0,0" /></g><path
         inkscape:connector-curvature="0"
         id="path54"
         style="fill:#ffffff;fill-opacity:1;fill-rule:nonzero;stroke:none"
         d="m 130.61475,535.59348 106.876,0 0,-41.831 -106.876,0 0,41.831 z" /><path
         inkscape:connector-curvature="0"
         id="path56"
         style="fill:#ffffff;fill-opacity:1;fill-rule:nonzero;stroke:none"
         d="m 211.43274,544.29849 -55.304,0 0,-27.88 55.304,0 0,27.88 z" /></g><g
       id="g5365"
       transform="matrix(-1,0,0,1,802.49736,0.82684)"><g
         transform="translate(695.8867,336.8018)"
         id="g58"><path
           inkscape:connector-curvature="0"
           id="path60"
           style="fill:#ffffff;fill-opacity:1;fill-rule:nonzero;stroke:none"
           d="m 0,0 c 0,10.491 -8.504,18.996 -18.995,18.996 -10.49,0 -18.995,-8.505 -18.995,-18.996 0,-10.491 8.505,-18.996 18.995,-18.996 C -8.504,-18.996 0,-10.491 0,0" /></g><g
         transform="translate(767.8682,316.3721)"
         id="g62"><path
           inkscape:connector-curvature="0"
           id="path64"
           style="fill:#ffffff;fill-opacity:1;fill-rule:nonzero;stroke:none"
           d="m 0,0 c 0,11.283 -9.146,20.43 -20.428,20.43 -11.282,0 -20.428,-9.147 -20.428,-20.43 0,-11.281 9.146,-20.429 20.428,-20.429 C -9.146,-20.429 0,-11.281 0,0" /></g><g
         transform="translate(734.5361,347.7998)"
         id="g66"><path
           inkscape:connector-curvature="0"
           id="path68"
           style="fill:#ffffff;fill-opacity:1;fill-rule:nonzero;stroke:none"
           d="m 0,0 c 0,14.262 -11.562,25.822 -25.822,25.822 -14.261,0 -25.823,-11.56 -25.823,-25.822 0,-14.262 11.562,-25.823 25.823,-25.823 C -11.562,-25.823 0,-14.262 0,0" /></g><g
         transform="translate(716.2031,316.373)"
         id="g70"><path
           inkscape:connector-curvature="0"
           id="path72"
           style="fill:#ffffff;fill-opacity:1;fill-rule:nonzero;stroke:none"
           d="m 0,0 c 0,14.263 -11.562,25.823 -25.822,25.823 -14.261,0 -25.823,-11.56 -25.823,-25.823 0,-14.262 11.562,-25.823 25.823,-25.823 C -11.562,-25.823 0,-14.262 0,0" /></g><g
         transform="translate(678.2158,317.8057)"
         id="g74"><path
           inkscape:connector-curvature="0"
           id="path76"
           style="fill:#ffffff;fill-opacity:1;fill-rule:nonzero;stroke:none"
           d="m 0,0 c 0,11.223 -9.098,20.319 -20.318,20.319 -11.224,0 -20.32,-9.096 -20.32,-20.319 0,-11.222 9.096,-20.318 20.32,-20.318 C -9.098,-20.318 0,-11.222 0,0" /></g><g
         transform="translate(758.3535,344.4512)"
         id="g78"><path
           inkscape:connector-curvature="0"
           id="path80"
           style="fill:#ffffff;fill-opacity:1;fill-rule:nonzero;stroke:none"
           d="m 0,0 c 0,9.278 -7.521,16.799 -16.797,16.799 -9.278,0 -16.799,-7.521 -16.799,-16.799 0,-9.277 7.521,-16.798 16.799,-16.798 C -7.521,-16.798 0,-9.277 0,0" /></g><g
         transform="translate(740.3379,307.0283)"
         id="g82"><path
           inkscape:connector-curvature="0"
           id="path84"
           style="fill:#ffffff;fill-opacity:1;fill-rule:nonzero;stroke:none"
           d="m 0,0 c 0,9.277 -7.521,16.798 -16.798,16.798 -9.278,0 -16.799,-7.521 -16.799,-16.798 0,-9.277 7.521,-16.798 16.799,-16.798 C -7.521,-16.798 0,-9.277 0,0" /></g><g
         transform="translate(778.5332,319.8281)"
         id="g86"><path
           inkscape:connector-curvature="0"
           id="path88"
           style="fill:#ffffff;fill-opacity:1;fill-rule:nonzero;stroke:none"
           d="m 0,0 c 0,-11.817 -9.58,-21.396 -21.397,-21.396 -11.818,0 -21.399,9.579 -21.399,21.396 0,11.817 9.581,21.397 21.399,21.397 C -9.58,21.397 0,11.817 0,0" /></g><path
         inkscape:connector-curvature="0"
         id="path90"
         style="fill:#ffffff;fill-opacity:1;fill-rule:nonzero;stroke:none"
         d="m 757.135,330.473 -81.864,0 0,-32.041 81.864,0 0,32.041 z" /><path
         inkscape:connector-curvature="0"
         id="path92"
         style="fill:#ffffff;fill-opacity:1;fill-rule:nonzero;stroke:none"
         d="m 703.577,345.488 42.362,0 0,-21.355 -42.362,0 0,21.355 z" /></g><g
       id="g6378"
       transform="matrix(-1,0,0,1,791.60037,-28.892221)"><g
         transform="translate(629.8457,110.415)"
         id="g94"><path
           inkscape:connector-curvature="0"
           id="path96"
           style="fill:#ffffff;fill-opacity:1;fill-rule:nonzero;stroke:none"
           d="M 0,0 C 0,17.467 14.16,31.627 31.627,31.627 49.094,31.627 63.255,17.467 63.255,0 63.255,-17.469 49.094,-31.629 31.627,-31.629 14.16,-31.629 0,-17.469 0,0" /></g><g
         transform="translate(602.5117,103.9746)"
         id="g98"><path
           inkscape:connector-curvature="0"
           id="path100"
           style="fill:#ffffff;fill-opacity:1;fill-rule:nonzero;stroke:none"
           d="M 0,0 C 0,17.467 14.16,31.627 31.627,31.627 49.094,31.627 63.255,17.467 63.255,0 63.255,-17.469 49.094,-31.629 31.627,-31.629 14.16,-31.629 0,-17.469 0,0" /></g><g
         transform="translate(380.0029,118.665)"
         id="g102"><path
           inkscape:connector-curvature="0"
           id="path104"
           style="fill:#ffffff;fill-opacity:1;fill-rule:nonzero;stroke:none"
           d="m 0,0 c 0,22.025 17.854,39.879 39.878,39.879 22.026,0 39.88,-17.854 39.88,-39.879 0,-22.025 -17.854,-39.879 -39.88,-39.879 C 17.854,-39.879 0,-22.025 0,0" /></g><g
         transform="translate(651.1221,148.8486)"
         id="g106"><path
           inkscape:connector-curvature="0"
           id="path108"
           style="fill:#ffffff;fill-opacity:1;fill-rule:nonzero;stroke:none"
           d="m 0,0 c 0,28.059 -22.747,50.807 -50.809,50.807 -28.059,0 -50.807,-22.748 -50.807,-50.807 0,-28.061 22.748,-50.809 50.807,-50.809 C -22.747,-50.809 0,-28.061 0,0" /></g><g
         transform="translate(647.6484,107.7373)"
         id="g110"><path
           inkscape:connector-curvature="0"
           id="path112"
           style="fill:#ffffff;fill-opacity:1;fill-rule:nonzero;stroke:none"
           d="m 0,0 c 0,28.059 -22.747,50.807 -50.809,50.807 -28.059,0 -50.807,-22.748 -50.807,-50.807 0,-28.061 22.748,-50.809 50.807,-50.809 C -22.747,-50.809 0,-28.061 0,0" /></g><g
         transform="translate(517.2334,110.415)"
         id="g114"><path
           inkscape:connector-curvature="0"
           id="path116"
           style="fill:#ffffff;fill-opacity:1;fill-rule:nonzero;stroke:none"
           d="m 0,0 c 0,28.059 -22.747,50.807 -50.809,50.807 -28.059,0 -50.807,-22.748 -50.807,-50.807 0,-28.061 22.748,-50.809 50.807,-50.809 C -22.747,-50.809 0,-28.061 0,0" /></g><g
         transform="translate(580.3398,118.666)"
         id="g118"><path
           inkscape:connector-curvature="0"
           id="path120"
           style="fill:#ffffff;fill-opacity:1;fill-rule:nonzero;stroke:none"
           d="m 0,0 c 0,28.059 -22.747,50.807 -50.809,50.807 -28.059,0 -50.807,-22.748 -50.807,-50.807 0,-28.061 22.748,-50.809 50.807,-50.809 C -22.747,-50.809 0,-28.061 0,0" /></g><g
         transform="translate(515.6348,161.4404)"
         id="g122"><path
           inkscape:connector-curvature="0"
           id="path124"
           style="fill:#ffffff;fill-opacity:1;fill-rule:nonzero;stroke:none"
           d="m 0,0 c 0,28.061 -22.747,50.809 -50.808,50.809 -28.059,0 -50.808,-22.748 -50.808,-50.809 0,-28.061 22.749,-50.807 50.808,-50.807 C -22.747,-50.807 0,-28.061 0,0" /></g><g
         transform="translate(596.8408,176.6396)"
         id="g126"><path
           inkscape:connector-curvature="0"
           id="path128"
           style="fill:#ffffff;fill-opacity:1;fill-rule:nonzero;stroke:none"
           d="m 0,0 c 0,36.453 -29.552,66.008 -66.008,66.008 -36.454,0 -66.006,-29.555 -66.006,-66.008 0,-36.453 29.552,-66.006 66.006,-66.006 C -29.552,-66.006 0,-36.453 0,0" /></g><path
         inkscape:connector-curvature="0"
         id="path130"
         style="fill:#ffffff;fill-opacity:1;fill-rule:nonzero;stroke:none"
         d="m 414.019,129.161 247.454,0 0,-50.375 -247.454,0 0,50.375 z" /><g
         transform="translate(474.6553,211.29)"
         id="g132"><path
           inkscape:connector-curvature="0"
           id="path134"
           style="fill:#f1f2f2;fill-opacity:1;fill-rule:nonzero;stroke:none"
           d="m 0,0 c -0.031,0.006 -0.064,0.011 -0.096,0.017 -0.03,0.004 -0.06,0.008 -0.091,0.014 -2.434,-8.611 -3.738,-17.697 -3.738,-27.088 0,-14.42 3.075,-28.121 8.599,-40.488 -10.09,-11.166 -16.237,-25.963 -16.237,-42.197 0,-7.26 1.242,-32.035 3.504,-41.937 14.35,0.048 27.29,6.05 36.501,15.658 7.702,-4.701 16.75,-7.412 26.434,-7.412 1.974,0 3.921,0.115 5.836,0.333 -2.858,14.524 -4.615,35.985 -5.093,45.291 -27.073,8.235 -40.735,33.395 -40.735,63.159 0,33.277 18.584,60.795 50.603,65.341 -1.499,0.212 -3.012,0.375 -4.541,0.489 -0.173,0.011 -0.346,0.019 -0.52,0.03 -0.597,0.04 -1.196,0.076 -1.797,0.099 -0.814,0.03 -1.63,0.048 -2.451,0.048 C 32.436,31.357 11.629,18.814 0,0" /></g><g
         transform="translate(439.748,91.708)"
         id="g136"><path
           inkscape:connector-curvature="0"
           id="path138"
           style="fill:#000000;fill-opacity:1;fill-rule:nonzero;stroke:none"
           d="m 0,0 c 0,0 -4.194,-6.252 -11.217,-7.533 -7.02,-1.283 -11.866,-3.858 -13.161,-9.147 7.772,-0.281 20.808,0 20.808,0 l 8.697,5.992 1.838,-4.957 10.684,0.881 L 15.708,0 C 15.708,0 3.377,-0.873 0,0" /></g><g
         transform="translate(464.8652,92.2861)"
         id="g140"><path
           inkscape:connector-curvature="0"
           id="path142"
           style="fill:#000000;fill-opacity:1;fill-rule:nonzero;stroke:none"
           d="m 0,0 c 0,0 -3.02,-6.898 -9.703,-9.408 -6.68,-2.508 -10.994,-5.899 -11.329,-11.336 7.698,1.099 20.475,3.691 20.475,3.691 l 7.499,7.446 2.687,-4.557 10.36,2.766 -4.535,14.185 C 15.454,2.787 3.478,-0.264 0,0" /></g><g
         transform="translate(526.3994,342.4209)"
         id="g144"><path
           inkscape:connector-curvature="0"
           id="path146"
           style="fill:#f9bb78;fill-opacity:1;fill-rule:nonzero;stroke:none"
           d="m 0,0 c 0,0 -6.521,4.803 -6.763,12.346 l 0,5.351 -16.302,0 0,-5.351 c 0,-3.407 -3.523,-12.27 -6.409,-13.748 3,-7.787 7.948,-18.737 7.948,-18.737 l 6.79,-24.332 0,24.006 c 0,0 12.985,8.488 14.736,20.465" /></g><g
         id="g148"><g
           id="g150" /><g
           id="g156"><g
             style="opacity:0.19999701"
             id="g158"
             clip-path="url(#clipPath152)"><g
               id="g160"
               transform="translate(503.334,354.7666)"><path
                 inkscape:connector-curvature="0"
                 id="path162"
                 style="fill:#ffc988;fill-opacity:1;fill-rule:nonzero;stroke:none"
                 d="m 0,0 0,5.352 16.303,0 0,-5.352 C 16.408,-3.334 17.745,-6.133 19.2,-8.217 14.746,-11.51 4.605,-17.494 -6.236,-13.635 -3.383,-11.906 0,-3.342 0,0" /></g></g></g></g><g
         style="fill:#475673;fill-opacity:1"
         transform="translate(466.4258,227.7607)"
         id="g164"><path
           inkscape:connector-curvature="0"
           id="path166"
           style="fill:#475673;fill-opacity:1;fill-rule:nonzero;stroke:none"
           d="M 0,0 C 0,0 17.486,21.117 23.356,40.891 30.057,63.457 12.968,88.293 26.581,89.807 40.196,91.32 45.831,55.563 40.947,36.572 36.064,17.576 12.598,-8.459 12.598,-8.459 L 0,0 Z" /></g><g
         transform="translate(475.0703,221.9561)"
         id="g168"><path
           inkscape:connector-curvature="0"
           id="path170"
           style="fill:#fed196;fill-opacity:1;fill-rule:nonzero;stroke:none"
           d="m 0,0 c 0,0 -2.19,-6.479 -7.593,-9.287 -1.421,-1.043 -1.745,0.021 -0.862,0.973 0.884,0.949 1.891,2.226 1.96,2.349 0.07,0.117 -2.546,-1.959 -3.506,-2.818 -0.962,-0.86 -2.091,0 -1.041,1.084 1.053,1.088 3.105,3.011 3.105,3.011 0,0 -3.703,-3.064 -4.699,-3.65 -0.991,-0.588 -1.996,0.342 -0.874,1.358 1.125,1.015 4.094,3.585 4.094,3.585 0,0 -2.994,-2.589 -4.352,-3.154 -1.358,-0.556 -2.007,0.529 -0.958,1.488 1.049,0.956 3.282,2.469 3.282,2.469 0,0 -1.674,0.1 -3.1,-0.769 -1.623,-0.993 -3.175,0.062 -1.106,1.916 1.262,1.132 5.856,5.652 9.907,5.3 C -1.808,1.482 0,0 0,0" /></g><g
         transform="translate(488.6523,334.042)"
         id="g172"><path
           inkscape:connector-curvature="0"
           id="path174"
           style="fill:#ffffff;fill-opacity:1;fill-rule:nonzero;stroke:none"
           d="m 0,0 17.393,-8.311 1.911,-3.207 2.92,-19.951 -0.648,19.303 7.785,7.383 -0.312,0.406 21.14,7.137 c 0,0 24.658,-3.893 35.039,-31.795 10.381,-27.901 7.138,-83.377 7.138,-83.377 l -63.264,0 c 0,0 -11.68,53.527 -23.036,65.857 C -5.725,-26.168 0,0 0,0" /></g><g
         transform="translate(517.7539,221.6299)"
         id="g176"><path
           inkscape:connector-curvature="0"
           id="path178"
           style="fill:#f1f2f2;fill-opacity:1;fill-rule:nonzero;stroke:none"
           d="m 0,0 c 0,0 -8.703,39.859 -18.387,58.705 l 0.002,0 c 22.541,-17.021 48.628,6.707 48.628,6.707 0,0 1.145,-7.826 1.144,-20.16 C 31.385,15.34 48.604,0 48.604,0 L 0,0 Z" /></g><g
         style="fill:#475673;fill-opacity:1"
         transform="translate(520.2852,311.4951)"
         id="g180"><path
           inkscape:connector-curvature="0"
           id="path182"
           style="fill:#475673;fill-opacity:1;fill-rule:nonzero;stroke:none"
           d="m 0,0 -10.057,10.381 c 0,0 16.275,14.351 16.437,22.299 6.326,-2.106 12.924,-7.213 12.924,-7.213 L 0,0 Z" /></g><g
         style="fill:#475673;fill-opacity:1"
         transform="translate(507.9561,322.5244)"
         id="g184"><path
           inkscape:connector-curvature="0"
           id="path186"
           style="fill:#475673;fill-opacity:1;fill-rule:nonzero;stroke:none"
           d="m 0,0 c 0,0 -5.548,-9.07 -5.78,-9.895 0,0 -10.888,14.196 -13.524,21.413 2.271,4.707 8.274,6.976 8.274,6.976 L 0,0 Z" /></g><g
         transform="translate(517.7539,221.6299)"
         id="g188"><path
           inkscape:connector-curvature="0"
           id="path190"
           style="fill:#404042;fill-opacity:1;fill-rule:nonzero;stroke:none"
           d="m 0,0 c 0,0 1.195,-8.225 -9.475,-8.928 -6.649,-0.437 -39.097,-3.578 -54.885,-17.82 -15.786,-14.246 -16.098,-59.783 -14.12,-103.516 l 16.47,0 c 0,0 -2.309,83.494 14.253,89.483 16.565,5.988 68.801,9.74 72.597,10.162 3.795,0.424 37.885,14.24 38.37,30.619 L 0,0 Z" /></g><g
         transform="translate(580.9434,221.6299)"
         id="g192"><path
           inkscape:connector-curvature="0"
           id="path194"
           style="fill:#404042;fill-opacity:1;fill-rule:nonzero;stroke:none"
           d="m 0,0 c 0,0 6.429,-29.166 -14.885,-41.826 -26.816,-15.926 -76.869,-8.772 -84.09,-21.037 -5.159,-8.76 0.996,-67.401 0.996,-67.401 l -19.841,0 c 0,0 -8.475,72.002 1.358,85.973 9.834,13.978 49.861,20.789 61.613,21.426 C -43.096,-22.23 -36.974,0 -36.974,0 L 0,0 Z" /></g><g
         transform="translate(464.4814,177.3389)"
         id="g196"><path
           inkscape:connector-curvature="0"
           id="path198"
           style="fill:#5b5b5b;fill-opacity:1;fill-rule:nonzero;stroke:none"
           d="m 0,0 c 9.834,13.979 49.861,20.789 61.613,21.426 11.753,0.635 17.875,22.865 17.875,22.865 l 27.208,0 C 106.352,39.834 97.434,14.752 74.761,10.305 49.953,5.434 15.945,14.682 -0.701,-1.189 -0.476,-0.768 -0.248,-0.35 0,0" /></g><g
         transform="translate(508.8994,179.6406)"
         id="g200"><path
           inkscape:connector-curvature="0"
           id="path202"
           style="fill:#76888c;fill-opacity:1;fill-rule:nonzero;stroke:none"
           d="m 0,0 c 0,0 60.665,29.504 61.91,30.131 1.248,0.622 1.476,1.525 1.476,2.567 l 0,2.89 L 0,8.222 0,0 Z" /></g><g
         transform="translate(424.4209,184.5908)"
         id="g204"><path
           inkscape:connector-curvature="0"
           id="path206"
           style="fill:#a6a7ab;fill-opacity:1;fill-rule:nonzero;stroke:none"
           d="m 0,0 c -2.695,-1.492 -2.495,-2.72 0.446,-2.72 l 82.152,0 c 2.941,0 4.938,2.464 4.938,2.464 l 58.433,28.997 c 2.694,1.494 2.49,2.721 -0.449,2.721 l -83.501,0 c -2.94,0 -7.55,-1.227 -10.248,-2.721 L 0,0 Z" /></g><g
         transform="translate(498.8848,187.1016)"
         id="g208"><path
           inkscape:connector-curvature="0"
           id="path210"
           style="fill:#f7f9f8;fill-opacity:1;fill-rule:evenodd;stroke:none"
           d="m 0,0 2.4,0.021 c 0.273,0 0.883,0.184 1.355,0.401 L 6.856,1.854 C 7.336,2.07 7.502,2.249 7.228,2.249 L 4.826,2.229 C 4.554,2.222 3.939,2.037 3.465,1.822 L 0.363,0.393 C -0.11,0.174 -0.272,-0.004 0,0" /></g><g
         transform="translate(504.9102,189.835)"
         id="g212"><path
           inkscape:connector-curvature="0"
           id="path214"
           style="fill:#f7f9f8;fill-opacity:1;fill-rule:evenodd;stroke:none"
           d="M 0,0 2.182,0.015 C 2.518,0.021 3.261,0.24 3.842,0.507 L 8.047,2.448 C 8.629,2.716 8.828,2.931 8.494,2.929 L 6.313,2.913 C 5.981,2.905 5.23,2.687 4.654,2.417 L 0.45,0.479 C -0.131,0.209 -0.329,0 0,0" /></g><g
         transform="translate(512.3164,193.2461)"
         id="g216"><path
           inkscape:connector-curvature="0"
           id="path218"
           style="fill:#f7f9f8;fill-opacity:1;fill-rule:evenodd;stroke:none"
           d="M 0,0 2.175,0.02 C 2.514,0.021 3.262,0.244 3.842,0.512 L 8.046,2.454 C 8.626,2.718 8.825,2.937 8.49,2.931 L 6.313,2.913 C 5.978,2.909 5.23,2.688 4.65,2.425 L 0.445,0.482 C -0.13,0.215 -0.336,0 0,0" /></g><g
         transform="translate(519.7207,196.6631)"
         id="g220"><path
           inkscape:connector-curvature="0"
           id="path222"
           style="fill:#f7f9f8;fill-opacity:1;fill-rule:evenodd;stroke:none"
           d="m 0,0 2.177,0.021 c 0.336,0 1.084,0.221 1.665,0.491 L 8.043,2.454 C 8.625,2.718 8.826,2.935 8.491,2.935 L 6.312,2.911 C 5.978,2.911 5.229,2.687 4.65,2.424 L 0.444,0.482 C -0.135,0.213 -0.335,0 0,0" /></g><g
         transform="translate(527.1221,200.0781)"
         id="g224"><path
           inkscape:connector-curvature="0"
           id="path226"
           style="fill:#f7f9f8;fill-opacity:1;fill-rule:evenodd;stroke:none"
           d="M 0,0 2.183,0.018 C 2.514,0.023 3.259,0.242 3.841,0.514 L 8.042,2.453 C 8.625,2.718 8.827,2.933 8.491,2.93 L 6.313,2.912 C 5.979,2.912 5.231,2.689 4.653,2.426 L 0.449,0.482 C -0.133,0.215 -0.33,0 0,0" /></g><g
         transform="translate(534.5264,203.4932)"
         id="g228"><path
           inkscape:connector-curvature="0"
           id="path230"
           style="fill:#f7f9f8;fill-opacity:1;fill-rule:evenodd;stroke:none"
           d="M 0,0 2.179,0.02 C 2.512,0.025 3.261,0.246 3.844,0.514 L 8.042,2.453 C 8.622,2.72 8.826,2.936 8.494,2.932 L 6.313,2.912 C 5.977,2.912 5.229,2.689 4.649,2.424 L 0.449,0.482 C -0.132,0.218 -0.335,-0.004 0,0" /></g><g
         transform="translate(494.6377,187.0605)"
         id="g232"><path
           inkscape:connector-curvature="0"
           id="path234"
           style="fill:#f7f9f8;fill-opacity:1;fill-rule:evenodd;stroke:none"
           d="m 0,0 2.406,0.027 c 0.275,0 0.883,0.182 1.355,0.395 l 3.106,1.433 c 0.474,0.223 0.641,0.4 0.364,0.392 L 4.832,2.228 C 4.56,2.226 3.949,2.048 3.475,1.829 L 0.373,0.396 C -0.105,0.178 -0.268,0 0,0" /></g><g
         transform="translate(496.7959,189.7607)"
         id="g236"><path
           inkscape:connector-curvature="0"
           id="path238"
           style="fill:#f7f9f8;fill-opacity:1;fill-rule:evenodd;stroke:none"
           d="m 0,0 6.012,0.053 c 0.356,0.004 1.159,0.242 1.779,0.528 l 4.057,1.869 c 0.618,0.283 0.834,0.516 0.479,0.514 L 6.313,2.912 C 5.956,2.912 5.159,2.674 4.534,2.385 L 0.482,0.518 C -0.138,0.232 -0.354,0 0,0" /></g><g
         transform="translate(506.958,193.2012)"
         id="g240"><path
           inkscape:connector-curvature="0"
           id="path242"
           style="fill:#f7f9f8;fill-opacity:1;fill-rule:evenodd;stroke:none"
           d="M 0,0 3.256,0.029 C 3.611,0.031 4.412,0.271 5.027,0.553 L 9.088,2.428 C 9.703,2.71 9.922,2.946 9.564,2.94 L 6.314,2.914 C 5.959,2.91 5.155,2.672 4.537,2.385 L 0.479,0.516 C -0.143,0.23 -0.354,0 0,0" /></g><g
         transform="translate(511.123,196.5898)"
         id="g244"><path
           inkscape:connector-curvature="0"
           id="path246"
           style="fill:#f7f9f8;fill-opacity:1;fill-rule:evenodd;stroke:none"
           d="M 0,0 6.493,0.058 C 6.852,0.062 7.65,0.298 8.27,0.585 l 4.056,1.871 c 0.617,0.28 0.836,0.516 0.479,0.512 L 6.314,2.911 C 5.959,2.909 5.16,2.675 4.538,2.385 L 0.482,0.515 C -0.14,0.227 -0.355,-0.004 0,0" /></g><g
         transform="translate(522.8809,200.043)"
         id="g248"><path
           inkscape:connector-curvature="0"
           id="path250"
           style="fill:#f7f9f8;fill-opacity:1;fill-rule:evenodd;stroke:none"
           d="m 0,0 2.182,0.02 c 0.328,0 1.08,0.226 1.659,0.49 L 8.047,2.449 C 8.625,2.717 8.827,2.936 8.492,2.93 L 6.312,2.912 C 5.979,2.908 5.229,2.688 4.65,2.424 L 0.449,0.48 C -0.13,0.216 -0.334,-0.004 0,0" /></g><g
         transform="translate(530.2813,203.457)"
         id="g252"><path
           inkscape:connector-curvature="0"
           id="path254"
           style="fill:#f7f9f8;fill-opacity:1;fill-rule:evenodd;stroke:none"
           d="m 0,0 2.185,0.023 c 0.336,0.002 1.08,0.221 1.659,0.488 L 8.051,2.45 C 8.629,2.72 8.826,2.935 8.494,2.931 L 6.313,2.911 C 5.98,2.905 5.235,2.692 4.653,2.419 L 0.449,0.482 C -0.131,0.213 -0.331,0 0,0" /></g><g
         transform="translate(490.7256,187.0273)"
         id="g256"><path
           inkscape:connector-curvature="0"
           id="path258"
           style="fill:#f7f9f8;fill-opacity:1;fill-rule:evenodd;stroke:none"
           d="m 0,0 2.074,0.02 c 0.272,0.001 0.886,0.183 1.36,0.403 l 3.1,1.431 C 7.014,2.073 7.18,2.251 6.906,2.251 L 4.831,2.231 C 4.558,2.228 3.943,2.048 3.469,1.827 L 0.364,0.392 C -0.107,0.177 -0.273,0 0,0" /></g><g
         transform="translate(486.7383,186.9961)"
         id="g260"><path
           inkscape:connector-curvature="0"
           id="path262"
           style="fill:#f7f9f8;fill-opacity:1;fill-rule:evenodd;stroke:none"
           d="M 0,0 2.082,0.016 C 2.353,0.02 2.969,0.2 3.437,0.415 L 6.543,1.853 C 7.021,2.069 7.186,2.248 6.91,2.244 L 4.833,2.229 C 4.558,2.223 3.947,2.04 3.477,1.825 L 0.371,0.392 C -0.102,0.175 -0.271,-0.004 0,0" /></g><g
         transform="translate(492.5,189.7227)"
         id="g264"><path
           inkscape:connector-curvature="0"
           id="path266"
           style="fill:#f7f9f8;fill-opacity:1;fill-rule:evenodd;stroke:none"
           d="M 0,0 2.14,0.019 C 2.47,0.022 3.201,0.241 3.771,0.503 L 8.013,2.46 C 8.579,2.724 8.781,2.938 8.455,2.935 L 6.313,2.911 C 5.985,2.911 5.252,2.692 4.684,2.433 L 0.442,0.475 C -0.128,0.211 -0.326,0 0,0" /></g><g
         transform="translate(488.1826,189.6855)"
         id="g268"><path
           inkscape:connector-curvature="0"
           id="path270"
           style="fill:#f7f9f8;fill-opacity:1;fill-rule:evenodd;stroke:none"
           d="M 0,0 2.136,0.02 C 2.464,0.023 3.198,0.242 3.768,0.506 L 8.009,2.46 C 8.58,2.724 8.778,2.935 8.45,2.931 L 6.313,2.913 C 5.983,2.911 5.252,2.692 4.681,2.431 L 0.442,0.475 C -0.132,0.211 -0.331,0 0,0" /></g><g
         transform="translate(489.4854,193.0498)"
         id="g272"><path
           inkscape:connector-curvature="0"
           id="path274"
           style="fill:#f7f9f8;fill-opacity:1;fill-rule:evenodd;stroke:none"
           d="M 0,0 2.294,0.023 C 2.644,0.025 3.43,0.256 4.04,0.539 l 4.096,1.889 c 0.611,0.283 0.822,0.51 0.471,0.51 L 6.315,2.914 C 5.962,2.91 5.179,2.682 4.569,2.395 L 0.474,0.506 C -0.135,0.226 -0.346,0 0,0" /></g><g
         transform="translate(493.8867,193.085)"
         id="g276"><path
           inkscape:connector-curvature="0"
           id="path278"
           style="fill:#f7f9f8;fill-opacity:1;fill-rule:evenodd;stroke:none"
           d="M 0,0 2.292,0.021 C 2.644,0.029 3.428,0.258 4.037,0.539 L 8.134,2.43 C 8.745,2.708 8.957,2.935 8.606,2.935 L 6.314,2.916 C 5.964,2.91 5.178,2.68 4.568,2.4 L 0.475,0.512 C -0.139,0.229 -0.349,0 0,0" /></g><g
         transform="translate(498.2861,193.1279)"
         id="g280"><path
           inkscape:connector-curvature="0"
           id="path282"
           style="fill:#f7f9f8;fill-opacity:1;fill-rule:evenodd;stroke:none"
           d="M 0,0 2.294,0.016 C 2.646,0.023 3.427,0.252 4.04,0.53 l 4.094,1.895 c 0.609,0.279 0.825,0.508 0.47,0.506 L 6.315,2.911 C 5.962,2.907 5.18,2.673 4.567,2.391 L 0.474,0.505 C -0.137,0.221 -0.349,-0.004 0,0" /></g><g
         transform="translate(502.6895,193.166)"
         id="g284"><path
           inkscape:connector-curvature="0"
           id="path286"
           style="fill:#f7f9f8;fill-opacity:1;fill-rule:evenodd;stroke:none"
           d="M 0,0 2.291,0.018 C 2.643,0.023 3.429,0.252 4.037,0.535 L 8.131,2.426 C 8.74,2.703 8.952,2.934 8.604,2.93 L 6.313,2.912 C 5.962,2.906 5.175,2.674 4.567,2.395 L 0.474,0.506 C -0.14,0.224 -0.348,-0.004 0,0" /></g><g
         transform="translate(489.3145,196.3994)"
         id="g288"><path
           inkscape:connector-curvature="0"
           id="path290"
           style="fill:#f7f9f8;fill-opacity:1;fill-rule:evenodd;stroke:none"
           d="m 0,0 2.288,0.02 c 0.349,0.003 1.14,0.24 1.747,0.517 L 8.133,2.428 C 8.742,2.71 8.952,2.935 8.603,2.933 L 6.312,2.918 C 5.96,2.914 5.176,2.68 4.568,2.395 L 0.473,0.506 C -0.138,0.223 -0.352,0 0,0" /></g><g
         transform="translate(493.7109,196.4404)"
         id="g292"><path
           inkscape:connector-curvature="0"
           id="path294"
           style="fill:#f7f9f8;fill-opacity:1;fill-rule:evenodd;stroke:none"
           d="m 0,0 2.295,0.018 c 0.352,0.007 1.135,0.238 1.75,0.52 l 4.092,1.889 c 0.61,0.279 0.817,0.506 0.47,0.506 L 6.313,2.905 C 5.965,2.905 5.179,2.677 4.572,2.396 L 0.475,0.504 C -0.135,0.223 -0.351,-0.004 0,0" /></g><g
         transform="translate(498.1182,196.4824)"
         id="g296"><path
           inkscape:connector-curvature="0"
           id="path298"
           style="fill:#f7f9f8;fill-opacity:1;fill-rule:evenodd;stroke:none"
           d="M 0,0 2.287,0.012 C 2.641,0.016 3.423,0.25 4.036,0.535 l 4.093,1.889 c 0.611,0.279 0.822,0.508 0.472,0.5 L 6.309,2.91 C 5.962,2.904 5.174,2.67 4.564,2.395 L 0.472,0.504 C -0.142,0.222 -0.355,-0.009 0,0" /></g><g
         transform="translate(502.5127,196.5137)"
         id="g300"><path
           inkscape:connector-curvature="0"
           id="path302"
           style="fill:#f7f9f8;fill-opacity:1;fill-rule:evenodd;stroke:none"
           d="M 0,0 2.292,0.02 C 2.647,0.021 3.43,0.258 4.039,0.537 l 4.093,1.889 c 0.611,0.282 0.822,0.51 0.473,0.51 L 6.313,2.912 C 5.964,2.912 5.177,2.678 4.568,2.396 L 0.472,0.506 C -0.134,0.227 -0.348,0 0,0" /></g><g
         transform="translate(506.917,196.5566)"
         id="g304"><path
           inkscape:connector-curvature="0"
           id="path306"
           style="fill:#f7f9f8;fill-opacity:1;fill-rule:evenodd;stroke:none"
           d="m 0,0 2.289,0.018 c 0.353,0 1.137,0.234 1.746,0.516 l 4.097,1.889 c 0.61,0.279 0.824,0.512 0.471,0.506 L 6.312,2.909 C 5.958,2.905 5.179,2.677 4.566,2.395 L 0.469,0.502 C -0.14,0.223 -0.35,-0.01 0,0" /></g><g
         transform="translate(485.8232,199.7236)"
         id="g308"><path
           inkscape:connector-curvature="0"
           id="path310"
           style="fill:#f7f9f8;fill-opacity:1;fill-rule:evenodd;stroke:none"
           d="M 0,0 2.288,0.02 C 2.637,0.021 3.423,0.256 4.033,0.539 L 8.129,2.426 C 8.737,2.708 8.949,2.933 8.6,2.929 L 6.309,2.916 C 5.96,2.908 5.171,2.678 4.566,2.395 L 0.471,0.506 C -0.14,0.225 -0.351,0 0,0" /></g><g
         transform="translate(490.2197,199.7627)"
         id="g312"><path
           inkscape:connector-curvature="0"
           id="path314"
           style="fill:#f7f9f8;fill-opacity:1;fill-rule:evenodd;stroke:none"
           d="M 0,0 2.292,0.018 C 2.646,0.021 3.425,0.256 4.037,0.532 L 8.132,2.423 C 8.743,2.71 8.954,2.937 8.603,2.927 L 6.312,2.909 C 5.964,2.909 5.178,2.673 4.568,2.393 L 0.471,0.5 C -0.14,0.225 -0.352,-0.006 0,0" /></g><g
         transform="translate(494.6221,199.7998)"
         id="g316"><path
           inkscape:connector-curvature="0"
           id="path318"
           style="fill:#f7f9f8;fill-opacity:1;fill-rule:evenodd;stroke:none"
           d="m 0,0 2.292,0.019 c 0.35,0.002 1.137,0.236 1.745,0.515 L 8.132,2.425 C 8.739,2.708 8.955,2.931 8.603,2.931 L 6.31,2.909 C 5.959,2.907 5.172,2.677 4.563,2.394 L 0.472,0.507 C -0.14,0.227 -0.352,-0.002 0,0" /></g><g
         transform="translate(499.0215,199.8379)"
         id="g320"><path
           inkscape:connector-curvature="0"
           id="path322"
           style="fill:#f7f9f8;fill-opacity:1;fill-rule:evenodd;stroke:none"
           d="m 0,0 2.289,0.018 c 0.35,0.003 1.144,0.24 1.747,0.517 L 8.131,2.424 C 8.741,2.706 8.95,2.935 8.603,2.93 L 6.313,2.914 C 5.963,2.91 5.175,2.676 4.567,2.395 L 0.471,0.504 C -0.139,0.225 -0.352,-0.006 0,0" /></g><g
         transform="translate(503.4209,199.875)"
         id="g324"><path
           inkscape:connector-curvature="0"
           id="path326"
           style="fill:#f7f9f8;fill-opacity:1;fill-rule:evenodd;stroke:none"
           d="m 0,0 2.293,0.021 c 0.35,0 1.137,0.235 1.746,0.517 l 4.095,1.885 c 0.609,0.285 0.816,0.51 0.471,0.51 L 6.313,2.909 C 5.961,2.909 5.175,2.677 4.565,2.395 L 0.473,0.506 C -0.138,0.227 -0.353,0 0,0" /></g><g
         transform="translate(507.8242,199.916)"
         id="g328"><path
           inkscape:connector-curvature="0"
           id="path330"
           style="fill:#f7f9f8;fill-opacity:1;fill-rule:evenodd;stroke:none"
           d="M 0,0 2.288,0.015 C 2.642,0.019 3.424,0.251 4.034,0.532 L 8.13,2.425 C 8.74,2.704 8.949,2.933 8.601,2.931 L 6.31,2.909 C 5.955,2.907 5.176,2.677 4.566,2.394 L 0.47,0.505 C -0.138,0.223 -0.353,-0.002 0,0" /></g><g
         transform="translate(512.2227,199.9482)"
         id="g332"><path
           inkscape:connector-curvature="0"
           id="path334"
           style="fill:#f7f9f8;fill-opacity:1;fill-rule:evenodd;stroke:none"
           d="M 0,0 2.294,0.025 C 2.644,0.027 3.425,0.26 4.036,0.537 L 8.134,2.428 C 8.742,2.708 8.958,2.94 8.606,2.935 L 6.309,2.916 C 5.96,2.914 5.174,2.68 4.562,2.395 L 0.471,0.506 C -0.141,0.229 -0.353,-0.004 0,0" /></g><g
         transform="translate(516.6367,199.9873)"
         id="g336"><path
           inkscape:connector-curvature="0"
           id="path338"
           style="fill:#f7f9f8;fill-opacity:1;fill-rule:evenodd;stroke:none"
           d="M 0,0 4.142,0.035 C 4.5,0.039 5.298,0.275 5.917,0.562 l 4.057,1.869 c 0.623,0.289 0.834,0.523 0.48,0.519 L 6.312,2.911 C 5.954,2.911 5.154,2.673 4.536,2.389 L 0.478,0.518 C -0.144,0.23 -0.359,0 0,0" /></g><g
         transform="translate(488.7529,203.0986)"
         id="g340"><path
           inkscape:connector-curvature="0"
           id="path342"
           style="fill:#f7f9f8;fill-opacity:1;fill-rule:evenodd;stroke:none"
           d="m 0,0 2.293,0.022 c 0.35,0.004 1.134,0.234 1.742,0.518 l 4.096,1.891 c 0.61,0.281 0.825,0.506 0.472,0.504 L 6.312,2.913 C 5.961,2.911 5.174,2.677 4.564,2.394 L 0.47,0.509 C -0.142,0.227 -0.354,0 0,0" /></g><g
         transform="translate(493.1533,203.1348)"
         id="g344"><path
           inkscape:connector-curvature="0"
           id="path346"
           style="fill:#f7f9f8;fill-opacity:1;fill-rule:evenodd;stroke:none"
           d="m 0,0 2.29,0.023 c 0.35,0 1.139,0.237 1.747,0.518 L 8.132,2.432 C 8.741,2.709 8.954,2.939 8.599,2.936 L 6.311,2.918 C 5.959,2.912 5.174,2.68 4.565,2.398 L 0.471,0.512 C -0.138,0.227 -0.351,0 0,0" /></g><g
         transform="translate(497.5508,203.1738)"
         id="g348"><path
           inkscape:connector-curvature="0"
           id="path350"
           style="fill:#f7f9f8;fill-opacity:1;fill-rule:evenodd;stroke:none"
           d="m 0,0 2.291,0.021 c 0.353,0.006 1.142,0.235 1.751,0.518 l 4.095,1.889 c 0.609,0.284 0.816,0.509 0.47,0.505 L 6.313,2.916 C 5.963,2.912 5.178,2.682 4.57,2.398 L 0.476,0.51 C -0.135,0.227 -0.35,0 0,0" /></g><g
         transform="translate(501.9521,203.2168)"
         id="g352"><path
           inkscape:connector-curvature="0"
           id="path354"
           style="fill:#f7f9f8;fill-opacity:1;fill-rule:evenodd;stroke:none"
           d="m 0,0 2.291,0.018 c 0.352,0 1.138,0.238 1.748,0.516 L 8.134,2.425 C 8.739,2.706 8.956,2.933 8.605,2.929 L 6.313,2.911 C 5.964,2.905 5.177,2.677 4.567,2.393 L 0.475,0.504 C -0.136,0.225 -0.349,-0.004 0,0" /></g><g
         transform="translate(506.3535,203.2529)"
         id="g356"><path
           inkscape:connector-curvature="0"
           id="path358"
           style="fill:#f7f9f8;fill-opacity:1;fill-rule:evenodd;stroke:none"
           d="m 0,0 2.29,0.018 c 0.353,0.005 1.138,0.234 1.747,0.517 l 4.09,1.889 C 8.744,2.709 8.952,2.934 8.603,2.93 L 6.311,2.91 C 5.958,2.908 5.174,2.674 4.567,2.398 L 0.47,0.506 C -0.139,0.224 -0.352,-0.004 0,0" /></g><g
         transform="translate(510.7578,203.29)"
         id="g360"><path
           inkscape:connector-curvature="0"
           id="path362"
           style="fill:#f7f9f8;fill-opacity:1;fill-rule:evenodd;stroke:none"
           d="m 0,0 2.29,0.02 c 0.349,0.001 1.134,0.234 1.744,0.521 l 4.094,1.887 c 0.61,0.28 0.824,0.507 0.47,0.507 L 6.313,2.912 C 5.958,2.908 5.173,2.677 4.564,2.4 L 0.469,0.506 C -0.144,0.223 -0.357,-0.002 0,0" /></g><g
         transform="translate(515.1543,203.3291)"
         id="g364"><path
           inkscape:connector-curvature="0"
           id="path366"
           style="fill:#f7f9f8;fill-opacity:1;fill-rule:evenodd;stroke:none"
           d="m 0,0 2.291,0.02 c 0.35,0.003 1.134,0.232 1.742,0.514 l 4.098,1.889 c 0.61,0.281 0.822,0.512 0.472,0.512 L 6.311,2.909 C 5.962,2.909 5.177,2.673 4.567,2.398 L 0.472,0.505 C -0.137,0.223 -0.35,-0.004 0,0" /></g><g
         transform="translate(519.5654,203.3652)"
         id="g368"><path
           inkscape:connector-curvature="0"
           id="path370"
           style="fill:#f7f9f8;fill-opacity:1;fill-rule:evenodd;stroke:none"
           d="M 0,0 4.144,0.035 C 4.501,0.041 5.3,0.275 5.921,0.561 l 4.055,1.875 c 0.622,0.285 0.837,0.515 0.481,0.515 L 6.312,2.916 C 5.953,2.91 5.156,2.676 4.534,2.387 L 0.479,0.516 C -0.143,0.228 -0.357,-0.004 0,0" /></g><g
         transform="translate(526.0449,203.4238)"
         id="g372"><path
           inkscape:connector-curvature="0"
           id="path374"
           style="fill:#f7f9f8;fill-opacity:1;fill-rule:evenodd;stroke:none"
           d="m 0,0 2.18,0.018 c 0.328,0.003 1.08,0.222 1.658,0.49 l 4.205,1.938 c 0.582,0.27 0.778,0.487 0.446,0.487 L 6.309,2.909 C 5.977,2.909 5.23,2.683 4.65,2.42 L 0.445,0.479 C -0.136,0.211 -0.337,-0.004 0,0" /></g><g
         transform="translate(503.2734,208.4854)"
         id="g376"><path
           inkscape:connector-curvature="0"
           id="path378"
           style="fill:#f7f9f8;fill-opacity:1;fill-rule:evenodd;stroke:none"
           d="m 0,0 22.866,0.198 c 0.35,0.004 1.129,0.233 1.738,0.515 l 9.631,4.159 c 0.606,0.274 0.815,0.498 0.467,0.496 L 11.837,5.171 c -0.347,0 -1.134,-0.233 -1.738,-0.516 L 0.471,0.506 C -0.141,0.223 -0.35,-0.002 0,0" /></g><g
         transform="translate(508.8994,179.6406)"
         id="g380"><path
           inkscape:connector-curvature="0"
           id="path382"
           style="fill:#76888c;fill-opacity:1;fill-rule:nonzero;stroke:none"
           d="M 0,0 -85.455,0 -87.518,3.692 0.104,2.635 0,0 Z" /></g><g
         transform="translate(415.9746,189.0869)"
         id="g384"><path
           inkscape:connector-curvature="0"
           id="path386"
           style="fill:#dadada;fill-opacity:1;fill-rule:nonzero;stroke:none"
           d="m 0,0 c 1.952,-3.97 6.561,-7.216 10.242,-7.216 l 80.802,0 c 3.683,0 5.102,3.246 3.151,7.216 l -30.83,62.735 c -1.951,3.967 -6.56,7.214 -10.243,7.214 l -80.801,0 c -3.683,0 -5.101,-3.247 -3.151,-7.214 L 0,0 Z" /></g><g
         transform="translate(508.1299,185.7217)"
         id="g388"><path
           inkscape:connector-curvature="0"
           id="path390"
           style="fill:#e6e6e8;fill-opacity:1;fill-rule:nonzero;stroke:none"
           d="m 0,0 -30.83,62.733 c -1.951,3.968 -6.56,7.212 -10.242,7.212 l -80.803,0 c -0.766,0 -1.426,-0.144 -1.983,-0.402 0.035,2.241 1.496,3.771 4.024,3.771 l 80.801,0 c 3.682,0 8.292,-3.247 10.243,-7.213 L 2.04,3.365 C 3.584,0.223 3.01,-2.462 0.874,-3.446 0.891,-2.419 0.611,-1.243 0,0" /></g><g
         id="g392"><g
           id="g394" /><g
           id="g400"><g
             style="opacity:0.10000598"
             id="g402"
             clip-path="url(#clipPath396)"><g
               id="g404"
               transform="translate(388.2954,259.0361)"><path
                 inkscape:connector-curvature="0"
                 id="path406"
                 style="fill:#f7f9f8;fill-opacity:1;fill-rule:nonzero;stroke:none"
                 d="m 0,0 80.801,0 c 1.313,0 2.739,-0.424 4.123,-1.137 L 35.443,-76.712 c -3.069,1.009 -6.235,3.649 -7.764,6.763 L -3.151,-7.214 C -5.101,-3.247 -3.683,0 0,0" /></g></g></g></g><g
         style="fill:#475673;fill-opacity:1"
         transform="translate(517.6348,219.2939)"
         id="g408"><path
           inkscape:connector-curvature="0"
           id="path410"
           style="fill:#475673;fill-opacity:1;fill-rule:nonzero;stroke:none"
           d="M 0,0 C 0,0 19.882,21.473 27.308,42.203 35.779,65.857 19.034,93.34 33.634,94.148 48.233,94.959 52.126,56.514 45.801,36.559 39.474,16.605 12.926,-9.76 12.926,-9.76 L 0,0 Z" /></g><g
         transform="translate(529.5322,210.5342)"
         id="g412"><path
           inkscape:connector-curvature="0"
           id="path414"
           style="fill:#f9bb78;fill-opacity:1;fill-rule:nonzero;stroke:none"
           d="m 0,0 c 0,0 -3.969,-9.893 -12.614,-13.801 -2.3,-1.498 -2.716,0.192 -1.259,1.59 1.456,1.4 3.132,3.307 3.255,3.482 0.117,0.178 -4.13,-2.822 -5.699,-4.076 -1.573,-1.254 -3.256,0.178 -1.527,1.776 1.729,1.601 5.091,4.422 5.091,4.422 0,0 -6.025,-4.452 -7.626,-5.28 -1.597,-0.83 -3.076,0.705 -1.242,2.19 1.835,1.48 6.679,5.228 6.679,5.228 0,0 -4.885,-3.773 -7.046,-4.531 -2.161,-0.756 -3.078,0.994 -1.363,2.393 1.718,1.394 5.319,3.558 5.319,3.558 0,0 -2.596,0.301 -4.89,-0.93 -2.611,-1.404 -4.933,0.375 -1.554,3.083 2.062,1.648 9.595,8.289 15.872,7.39 C -2.684,2.465 0,0 0,0" /></g><g
         transform="translate(516.5791,346.4463)"
         id="g416"><path
           inkscape:connector-curvature="0"
           id="path418"
           style="fill:#fed196;fill-opacity:1;fill-rule:nonzero;stroke:none"
           d="m 0,0 c 0,0 -21.315,-3.639 -30.675,13.518 -9.358,17.158 -20.275,56.15 -20.275,56.15 0,0 25.476,0.52 43.153,11.957 C 14.038,69.668 24.438,68.11 24.438,68.11 24.438,68.11 34.316,7.275 0,0" /></g><g
         id="g420"><g
           id="g422" /><g
           id="g428"><g
             style="opacity:0.35000604"
             id="g430"
             clip-path="url(#clipPath424)"><g
               id="g432"
               transform="translate(494.5586,421.3696)"><path
                 inkscape:connector-curvature="0"
                 id="path434"
                 style="fill:#ffc483;fill-opacity:1;fill-rule:nonzero;stroke:none"
                 d="m 0,0 c 2.122,-5.342 3.746,-9.506 3.746,-9.506 0,0 0.082,-6.203 0,-17.395 -0.081,-11.194 -1.785,-24.429 1.621,-32.714 3.385,-8.232 3.814,-13.777 10.183,-15.592 -7.051,0.299 -18.136,2.68 -24.204,13.801 -9.359,17.158 -20.276,56.151 -20.276,56.151 0,0 14.315,0.293 28.93,5.255" /></g></g></g></g><g
         transform="translate(541.4023,381.1787)"
         id="g436"><path
           inkscape:connector-curvature="0"
           id="path438"
           style="fill:#231f20;fill-opacity:1;fill-rule:nonzero;stroke:none"
           d="m 0,0 c 0,0 9.459,22.101 7.463,42.46 -1.995,20.36 -27.889,37.818 -49.019,28.172 -29.849,-13.626 -52.38,-8.9 -52.38,-8.9 0,0 7.91,-30.752 20.288,-34.065 38.256,-10.242 52.369,8.322 52.369,8.322 0,0 5.453,-16.55 13.836,-24.933 3.926,12.94 -0.711,23.553 -0.711,23.553 C -8.154,34.609 3.194,7.98 0,0" /></g><g
         transform="translate(491.2881,364.54)"
         id="g440"><path
           inkscape:connector-curvature="0"
           id="path442"
           style="fill:#fed196;fill-opacity:1;fill-rule:nonzero;stroke:#231f20;stroke-width:1;stroke-linecap:butt;stroke-linejoin:miter;stroke-miterlimit:10;stroke-dasharray:none;stroke-opacity:1"
           d="M 0,0 C 0,0 11.558,-12.531 21.778,0" /></g><g
         transform="translate(498.6875,367.46)"
         id="g444"><path
           inkscape:connector-curvature="0"
           id="path446"
           style="fill:#fed196;fill-opacity:1;fill-rule:nonzero;stroke:#231f20;stroke-width:1;stroke-linecap:butt;stroke-linejoin:miter;stroke-miterlimit:10;stroke-dasharray:none;stroke-opacity:1"
           d="m 0,0 c -3.811,0 -11.117,3.649 -6.141,9.164 4.551,5.043 5.721,15.543 5.721,15.543" /></g><g
         transform="translate(508.7197,432.9419)"
         id="g448"><path
           inkscape:connector-curvature="0"
           id="path450"
           style="fill:#3d3d3f;fill-opacity:1;fill-rule:nonzero;stroke:none"
           d="m 0,0 c -29.232,-19.981 -53.517,-7.402 -55.531,-6.311 -3.659,8.279 -5.722,16.28 -5.722,16.28 0,0 22.53,-4.726 52.38,8.9 21.13,9.646 47.023,-7.812 49.019,-28.172 1.996,-20.359 -7.463,-42.46 -7.463,-42.46 0.328,0.81 0.44,4.355 0.49,5.508 C 44.7,19.866 3.321,2.232 0,0" /></g><g
         transform="translate(481.0068,390.7246)"
         id="g452"><path
           inkscape:connector-curvature="0"
           id="path454"
           style="fill:#ffffff;fill-opacity:1;fill-rule:nonzero;stroke:none"
           d="M 0,0 C 0,2.559 2.077,4.635 4.636,4.635 7.198,4.635 9.274,2.559 9.271,0 9.274,-2.562 7.198,-4.638 4.636,-4.636 2.077,-4.638 0,-2.562 0,0" /></g><g
         transform="translate(483.0469,389.8799)"
         id="g456"><path
           inkscape:connector-curvature="0"
           id="path458"
           style="fill:#88a4b2;fill-opacity:1;fill-rule:nonzero;stroke:none"
           d="M 0,0 C 0,1.897 1.542,3.438 3.44,3.438 5.343,3.438 6.884,1.897 6.884,0 6.884,-1.902 5.343,-3.443 3.44,-3.443 1.542,-3.443 0,-1.902 0,0" /></g><g
         transform="translate(484.5811,389.3584)"
         id="g460"><path
           inkscape:connector-curvature="0"
           id="path462"
           style="fill:#0b1316;fill-opacity:1;fill-rule:nonzero;stroke:none"
           d="M 0,0 C 0,1.054 0.855,1.907 1.909,1.907 2.96,1.907 3.813,1.05 3.813,0 3.813,-1.053 2.962,-1.906 1.909,-1.906 0.855,-1.906 0,-1.051 0,0" /></g><g
         transform="translate(517.7012,390.7246)"
         id="g464"><path
           inkscape:connector-curvature="0"
           id="path466"
           style="fill:#ffffff;fill-opacity:1;fill-rule:nonzero;stroke:none"
           d="M 0,0 C 0,2.559 -2.076,4.635 -4.635,4.635 -7.197,4.635 -9.274,2.559 -9.271,0 -9.274,-2.562 -7.197,-4.638 -4.635,-4.636 -2.076,-4.638 0,-2.562 0,0" /></g><g
         transform="translate(515.6611,389.8799)"
         id="g468"><path
           inkscape:connector-curvature="0"
           id="path470"
           style="fill:#88a4b2;fill-opacity:1;fill-rule:nonzero;stroke:none"
           d="m 0,0 c 0,1.897 -1.542,3.438 -3.44,3.438 -1.901,0 -3.443,-1.541 -3.443,-3.438 0,-1.902 1.542,-3.443 3.443,-3.443 C -1.542,-3.443 0,-1.902 0,0" /></g><g
         transform="translate(514.127,389.3584)"
         id="g472"><path
           inkscape:connector-curvature="0"
           id="path474"
           style="fill:#0b1316;fill-opacity:1;fill-rule:nonzero;stroke:none"
           d="M 0,0 C 0,1.054 -0.855,1.907 -1.908,1.907 -2.96,1.907 -3.813,1.05 -3.813,0 c 0,-1.053 0.851,-1.906 1.905,-1.906 C -0.855,-1.906 0,-1.051 0,0" /></g></g></g></svg>