<?xml version="1.0" standalone="no"?>
<!DOCTYPE svg PUBLIC "-//W3C//DTD SVG 1.1//EN" "http://www.w3.org/Graphics/SVG/1.1/DTD/svg11.dtd" >
<svg xmlns="http://www.w3.org/2000/svg">
<metadata>Generated by IcoMoon</metadata>
<defs>
<font id="Expercise-Avatars" horiz-adv-x="1024">
<font-face units-per-em="1024" ascent="960" descent="-64" />
<missing-glyph horiz-adv-x="1024" />
<glyph unicode="&#x20;" d="" horiz-adv-x="512" />
<glyph unicode="&#xe600;" d="M512-63.998c282 0 512 230.003 512 511.997 0 282.003-230 512.001-512 512.001s-512-229.998-512-512.001c0-281.994 230-511.997 512-511.997z" />
<glyph unicode="&#xe601;" d="M360.84 469.983c0.54-38.373 6.253-66.986 16.77-92.409-30.331 29.063-49.057 65.055-65.605 118.551-2.911-25.158-1.084-44.262 4.331-61.060-44.546 61.765-53.061 140.273-32.362 214.752 39.287 141.357 182.311 228.9 317.785 153.223 67.318 5.098 120.048-73.712 138.447-143.998 21.267-81.238 7.966-165.222-43.628-231.598 8.033 19.165 11.701 40.229 9.524 68.553-17.887-52.531-37.119-89.309-66.291-120.307-1.070-0.672-2.158-1.316-3.233-1.974 10.929 25.764 17.442 54.287 19.459 91.515-61.349-82.535-236.091-75.426-295.197 4.752z" />
<glyph unicode="&#xe602;" d="M466.925 264.796h90.152v211.671h-90.152v-211.671z" />
<glyph unicode="&#xe603;" d="M466.925 476.463h90.152v-93.346c-29.844-8.217-57.629-8.174-90.152 0.104v93.242z" />
<glyph unicode="&#xe604;" d="M512 394.147c63.432 0 154.474 77.097 164.527 135.577 18.796 109.34-2.206 256.405-164.527 256.405s-183.324-147.060-164.523-256.405c10.054-58.481 101.091-135.577 164.523-135.577z" />
<glyph unicode="&#xe605;" d="M512 313.177c133.6 4.606 187.077 36.702 239.263-41.478 55.584-83.25 13.391-193.916-13.059-283.106-68.217-33.659-144.993-52.592-226.203-52.592s-157.981 18.933-226.199 52.587c-26.45 89.195-68.643 199.861-13.064 283.111 52.185 78.181 105.663 46.084 239.263 41.478z" />
<glyph unicode="&#xe606;" d="M578.958 808.223c121.293-37.971 157.603-147.037 125.084-225.038-89.148 52.365-141.769 146.388-125.084 225.038z" />
<glyph unicode="&#xe607;" d="M638.167 781.214c-30.27-113.094-240.489-217.308-337.902-199.416-24.268 161.738 184.427 285.984 337.902 199.416z" />
<glyph unicode="&#xe608;" d="M337.716 628.457c36.139 0 47.594-121.879 11.455-121.879-36.135 0-63.347 121.879-11.455 121.879z" />
<glyph unicode="&#xe609;" d="M686.284 628.457c-36.139 0-47.594-121.879-11.455-121.879 36.135 0 63.347 121.879 11.455 121.879z" />
<glyph unicode="&#xe60a;" d="M638.287 781.214c-15.814-140.036-161.9-222.496-245.961-224.621 131.337 73.192 172.2 112.578 245.961 224.621z" />
<glyph unicode="&#xe60b;" d="M620.942 790.607c38.558-86.109-17.708-163.821-61.818-183.853 53.208 68.359 47.892 107.83 61.818 183.853z" />
<glyph unicode="&#xe60c;" d="M704.16 315.002c17.050-7.531 32.135-20.869 47.107-43.301 55.579-83.25 13.386-193.92-13.064-283.111-68.217-33.654-144.993-52.587-226.203-52.587-81.206 0-157.981 18.933-226.194 52.583-20.017 67.493-49.047 147.288-37.9 218.198 130.935-0.686 276.008-10.991 456.255 108.219z" />
<glyph unicode="&#xe60d;" d="M247.044 144.352c148.685-4.123 342.081 6.035 502.145 130.399 0.691-0.999 1.382-2.016 2.073-3.053 4.762-7.128 8.79-14.465 12.188-21.967-164.575-126.494-360.627-137.774-512.265-133.835-1.737 9.505-3.152 19.004-4.142 28.457z" />
<glyph unicode="&#xe60e;" d="M261.104 72.243c157.707-12.046 355.24-13.987 517.429 97.422-0.189-11.848-1.207-23.832-2.849-35.865-162.057-101.937-351.974-101.899-506.396-90.648-2.831 9.594-5.6 19.307-8.184 29.091z" />
<glyph unicode="&#xe60f;" d="M281.886 1.612c143.511-17.248 320.961-28.324 474.777 48.195-3.593-12.401-7.337-24.628-10.996-36.57-134.224-58.935-281.83-58.22-410.242-45.942-16.979 6.239-33.536 13.358-49.62 21.291-1.273 4.288-2.584 8.634-3.919 13.026z" />
<glyph unicode="&#xe610;" d="M661.136-41.912c10.494 34.156 14.815 72.6 19.076 123.214 1.491-49.317 1.789-86.114-4.203-118.438-4.927-1.671-9.883-3.261-14.872-4.776z" />
<glyph unicode="&#xe611;" d="M362.869-41.912c-10.494 34.156-14.815 72.6-19.076 123.214-1.491-49.317-1.789-86.114 4.208-118.443 4.923-1.666 9.879-3.257 14.868-4.771z" />
<glyph unicode="&#xe612;" d="M512-64c282 0 512 230.003 512 512.002s-230 511.998-512 511.998c-282 0-512-229.998-512-511.998s230-512.002 512-512.002z" />
<glyph unicode="&#xe613;" d="M447.136 371.27c28.353 0 51.475 23.122 51.475 51.475s-23.123 51.475-51.475 51.475c-28.353 0-51.475-23.122-51.475-51.475s23.123-51.475 51.475-51.475z" />
<glyph unicode="&#xe614;" d="M378.148 406.77c28.353 0 51.475 23.122 51.475 51.475 0 28.348-23.123 51.475-51.475 51.475s-51.475-23.127-51.475-51.475c0-28.353 23.123-51.475 51.475-51.475z" />
<glyph unicode="&#xe615;" d="M333.671 461.624c28.353 0 51.475 23.127 51.475 51.475 0 28.353-23.123 51.48-51.475 51.48s-51.475-23.127-51.475-51.48c0-28.348 23.123-51.475 51.475-51.475z" />
<glyph unicode="&#xe616;" d="M566.367 365.913c28.353 0 51.475 23.122 51.475 51.475s-23.123 51.475-51.475 51.475c-28.353 0-51.475-23.122-51.475-51.475s23.123-51.475 51.475-51.475z" />
<glyph unicode="&#xe617;" d="M624.774 404.824c28.353 0 51.475 23.127 51.475 51.48 0 28.348-23.123 51.475-51.475 51.475s-51.475-23.127-51.475-51.475c0-28.353 23.123-51.48 51.475-51.48z" />
<glyph unicode="&#xe618;" d="M692.224 461.624c28.353 0 51.475 23.127 51.475 51.475 0 28.353-23.123 51.48-51.475 51.48s-51.475-23.127-51.475-51.48c0-28.348 23.123-51.475 51.475-51.475z" />
<glyph unicode="&#xe619;" d="M713.187 536.175c28.353 0 51.475 23.127 51.475 51.48 0 28.348-23.123 51.475-51.475 51.475s-51.475-23.127-51.475-51.475c0-28.353 23.123-51.48 51.475-51.48z" />
<glyph unicode="&#xe61a;" d="M714.93 608.853c28.353 0 51.475 23.122 51.475 51.475 0 28.348-23.123 51.475-51.475 51.475s-51.475-23.127-51.475-51.475c0-28.353 23.123-51.475 51.475-51.475z" />
<glyph unicode="&#xe61b;" d="M684.833 659.843c28.353 0 51.475 23.127 51.475 51.475 0 28.353-23.123 51.475-51.475 51.475s-51.475-23.122-51.475-51.475c0-28.348 23.123-51.475 51.475-51.475z" />
<glyph unicode="&#xe61c;" d="M635.153 716.957c28.353 0 51.475 23.122 51.475 51.475s-23.123 51.475-51.475 51.475c-28.353 0-51.475-23.122-51.475-51.475s23.123-51.475 51.475-51.475z" />
<glyph unicode="&#xe61d;" d="M316.122 548.637c28.353 0 51.475 23.122 51.475 51.475 0 28.348-23.123 51.475-51.475 51.475s-51.475-23.127-51.475-51.475c0-28.353 23.123-51.475 51.475-51.475z" />
<glyph unicode="&#xe61e;" d="M323.169 621.218c28.353 0 51.475 23.127 51.475 51.475 0 28.353-23.123 51.475-51.475 51.475s-51.475-23.122-51.475-51.475c0-28.348 23.123-51.475 51.475-51.475z" />
<glyph unicode="&#xe61f;" d="M367.228 687.083c28.353 0 51.475 23.127 51.475 51.48 0 28.348-23.123 51.475-51.475 51.475s-51.475-23.127-51.475-51.475c0-28.353 23.123-51.48 51.475-51.48z" />
<glyph unicode="&#xe620;" d="M422.084 729.549c28.353 0 51.475 23.127 51.475 51.475 0 28.353-23.123 51.475-51.475 51.475s-51.475-23.122-51.475-51.475c0-28.348 23.123-51.475 51.475-51.475z" />
<glyph unicode="&#xe621;" d="M494.825 747.503c28.353 0 51.475 23.122 51.475 51.475s-23.123 51.475-51.475 51.475c-28.353 0-51.475-23.122-51.475-51.475s23.123-51.475 51.475-51.475z" />
<glyph unicode="&#xe622;" d="M569.512 741.872c28.353 0 51.475 23.127 51.475 51.475 0 28.353-23.123 51.48-51.475 51.48s-51.475-23.127-51.475-51.48c0-28.348 23.123-51.475 51.475-51.475z" />
<glyph unicode="&#xe623;" d="M466.925 264.791h90.152v211.671h-90.152v-211.671z" />
<glyph unicode="&#xe624;" d="M466.925 476.462h90.152v-90.62c-15.185-5.656-30.455-8.766-45.076-8.766-14.636 0-29.905 3.1-45.076 8.733v90.653z" />
<glyph unicode="&#xe625;" d="M512 394.146c63.432 0 154.474 77.097 164.527 135.578 18.796 109.345-2.206 256.406-164.527 256.406s-183.324-147.061-164.523-256.406c10.054-58.481 101.091-135.578 164.523-135.578z" />
<glyph unicode="&#xe626;" d="M512 303.968c14.418 0.492 27.903 10.527 40.546 11.488 104.579 7.962 152.164 25.981 198.717-43.75 55.579-83.255 13.391-193.926-13.059-283.116-68.217-33.649-144.993-52.588-226.203-52.588s-157.981 18.933-226.199 52.583c-26.45 89.195-68.643 199.866-13.064 283.121 46.434 69.557 93.896 51.802 197.907 43.812 12.88-0.989 26.635-11.043 41.356-11.549z" />
<glyph unicode="&#xe627;" d="M578.958 808.223c121.293-37.971 157.603-147.037 125.084-225.033-63.205-6.21-30.701 42.908-65.685 55.877-52.725 19.539-23.771 84.382-75.985 108.706-32.329 15.057 10.967 33.962 16.586 60.45z" />
<glyph unicode="&#xe628;" d="M654.644 776.365c-5.855-16.273 3.37-37.015-20.685-36.707-115.073 1.477-27.861-46.827-129.548-49.203-72.051-1.685-1.813-70.678-92.646-61.5-54.585 5.51 7.805-99.751-111.499-47.154-24.268 161.734 200.903 281.138 354.379 194.565z" />
<glyph unicode="&#xe629;" d="M337.716 628.457c36.139 0 47.594-121.879 11.455-121.879-36.135 0-63.347 121.879-11.455 121.879z" />
<glyph unicode="&#xe62a;" d="M686.284 628.457c-36.139 0-47.594-121.879-11.455-121.879 36.135 0 63.347 121.879 11.455 121.879z" />
<glyph unicode="&#xe62b;" d="M257.243 241.87c-30.554-78.668 5.15-174.382 28.552-253.282 68.217-33.649 144.993-52.588 226.199-52.588 81.211 0 157.986 18.933 226.203 52.583 23.189 78.195 58.471 172.895 29.371 251.157-181.979-30.322-350.44-25.125-510.324 2.13z" />
<glyph unicode="&#xe62c;" d="M720.315 220.399c-6.234-0.923-6.239-9.789-0.038-10.745 0.492-0.052 0.97-0.071 1.463 0l3.427 0.454 4.35 0.587 3.001 0.417c6.357 0.942 6.172 10.267-0.469 10.778-0.346 0.014-0.691 0.005-1.032-0.043l-0.805-0.114-4.322-0.596-2.163-0.284-3.413-0.454zM677.412 215.358c-5.907-0.663-6.679-8.993-0.795-10.641 0.639-0.156 1.254-0.218 1.922-0.147l1.231 0.133 4.303 0.45 5.278 0.578c6.068 0.672 6.608 9.519 0.298 10.731-0.497 0.085-0.989 0.095-1.496 0.043l-0.961-0.109-8.544-0.913-1.235-0.123zM634.381 211.505c-1.226-0.085-2.4-0.606-3.294-1.453-3.711-3.512-0.966-9.727 4.123-9.348l1.818 0.133 4.251 0.331 4.771 0.388c1.86 0.137 3.612 1.325 4.416 3.015 1.827 3.82-1.098 8.099-5.316 7.786l-0.497-0.043-4.232-0.341-2.111-0.161-2.111-0.17-1.818-0.137zM591.264 208.878c-5.77-0.213-7.252-8.468-1.486-10.546 0.667-0.222 1.287-0.308 2.002-0.279l0.857 0.038 8.42 0.426 1.581 0.090c1.392 0.099 2.48 0.573 3.493 1.529 3.545 3.545 0.956 9.476-4.075 9.292l-1.571-0.090-4.184-0.218-2.087-0.099-2.087-0.104-0.861-0.038zM548.091 207.477c-4.478-0.175-6.882-5.136-4.199-8.719 1.127-1.411 2.599-2.125 4.402-2.125l0.459 0.009 2.073 0.038 2.083 0.043 4.165 0.104 2.083 0.043 0.019 0.005c5.846 0.218 7.318 8.179 1.86 10.451-0.705 0.265-1.392 0.412-2.149 0.383l-0.005-0.005-2.068-0.043-2.068-0.052-4.136-0.090-2.064-0.038-0.454-0.005zM504.894 207.283c-6.423 0-7.621-9.23-1.131-10.726 0.336-0.066 0.682-0.114 1.027-0.114h0.549l2.059-0.014 2.059-0.019 6.22-0.028c5.945 0 7.635 8.34 1.78 10.536-0.601 0.194-1.131 0.298-1.766 0.298h-0.024l-6.139 0.028-4.085 0.038h-0.549zM461.707 208.315c-6.021 0.222-7.976-8.283-1.941-10.546 0.516-0.166 0.989-0.265 1.538-0.284l1.089-0.043 6.106-0.213 2.040-0.062 1.633-0.057c5.86-0.218 7.919 8.056 2.121 10.475-0.601 0.222-1.15 0.331-1.789 0.36l-10.796 0.37zM418.567 210.554c-6.002 0.445-8.302-8.208-2.054-10.56 0.454-0.142 0.871-0.218 1.344-0.256h0.024l2.016-0.133 2.012-0.128 2.016-0.123 2.016-0.128 2.773-0.165c6.205-0.232 7.9 8.122 2.376 10.423-0.634 0.237-1.079 0.35-1.751 0.393l-0.743 0.047-2.002 0.118-2.002 0.128-1.997 0.123-2.002 0.133-2.026 0.128zM375.493 213.976c-6.721 0.497-8.307-9.154-1.548-10.716l0.549-0.080 1.34-0.123 1.993-0.175 1.988-0.185 5.514-0.488c6.423-0.473 8.255 8.596 2.002 10.598-0.36 0.095-0.705 0.175-1.074 0.199l-1.505 0.137-5.94 0.525-3.318 0.308zM332.528 218.558c-6.016 0.667-8.605-7.578-2.793-10.357 0.492-0.204 0.985-0.346 1.51-0.407l0.975-0.118 9.822-1.145c3.389-0.374 6.267 2.405 6.011 5.808-0.194 2.58-2.21 4.677-4.79 4.97l-1.912 0.218-1.96 0.218-6.863 0.814zM289.701 224.266c-5.699 0.847-8.662-6.769-3.616-9.978 0.663-0.393 1.292-0.63 2.050-0.743l0.914-0.137 1.95-0.284 1.955-0.279 5.95-0.838c2.513-0.379 4.942 1.127 5.827 3.488 1.183 3.275-0.89 6.736-4.336 7.242l-0.066 0.009-1.945 0.275-1.941 0.27-1.945 0.284-1.941 0.275-2.854 0.417zM253.178 230.022c-1.046-3.474-1.979-6.982-2.797-10.513l1.713-0.293 1.941-0.322 1.87-0.317c6.527-0.966 8.922 8.217 2.58 10.499-0.275 0.090-0.525 0.142-0.805 0.194l-1.86 0.308-1.926 0.327-0.715 0.118zM771.426 227.987l-2.068-0.346-6.291-1.018c-5.472-0.805-6.314-8.672-0.776-10.513 0.871-0.256 1.59-0.322 2.499-0.185l6.319 1.023 2.982 0.492c-0.776 3.541-1.666 7.053-2.665 10.546z" />
<glyph unicode="&#xe62d;" d="M362.864-41.262c-10.494 34.156-14.815 72.6-19.076 123.219-1.491-49.317-1.789-86.119 4.203-118.443 4.927-1.666 9.883-3.257 14.872-4.776z" />
<glyph unicode="&#xe62e;" d="M661.129-41.262c10.494 34.156 14.815 72.6 19.080 123.219 1.486-49.317 1.784-86.119-4.208-118.443-4.923-1.666-9.883-3.261-14.872-4.776z" />
<glyph unicode="&#xe62f;" d="M512-63.998c282 0 512 230.003 512 512.001s-230 511.997-512 511.997c-282 0-512-229.998-512-511.997s230-512.001 512-512.001z" />
<glyph unicode="&#xe630;" d="M407.863 753.156c138.972 82.015 298.87 76.69 338.015 10.357 39.145-66.324-27.198-196.505-166.175-278.524-138.977-82.015-262.243-50.5-303.168 5.131-40.93 55.631-7.649 181.022 131.328 263.037z" />
<glyph unicode="&#xe631;" d="M744.913 572.822c-1.841-146.36-113.615-183.398-228.376-183.086-117.975 0.327-238.988 41.99-237.45 183.086 1.496 137.295 116.238 259.487 231.443 258.919 117.691-0.587 235.878-140.164 234.383-258.919z" />
<glyph unicode="&#xe632;" d="M466.925 264.793h90.152v211.671h-90.152v-211.671z" />
<glyph unicode="&#xe633;" d="M466.925 476.463h90.152v-90.62c-15.185-5.656-30.455-8.766-45.076-8.766-14.636 0-29.905 3.1-45.076 8.733v90.653z" />
<glyph unicode="&#xe634;" d="M512 394.147c63.432 0 154.474 77.101 164.527 135.577 18.796 109.345-2.206 256.405-164.527 256.405s-183.324-147.060-164.523-256.405c10.054-58.481 101.091-135.577 164.523-135.577z" />
<glyph unicode="&#xe635;" d="M512 313.181c133.6 4.601 187.077 36.698 239.263-41.478 55.584-83.255 13.391-193.92-13.059-283.111-68.217-33.654-144.993-52.592-226.203-52.592s-157.981 18.933-226.199 52.592c-26.45 89.19-68.643 199.856-13.064 283.111 52.185 78.176 105.663 46.079 239.263 41.478z" />
<glyph unicode="&#xe636;" d="M371.485 665.778c-13.888-19.232-17.087-48.881-16.022-77.717 0.454-12.382-10.75 0.587-22.237 19.549-6.745 11.138-13.594 17.627-18.233 7.606-7.266-15.705-9.116 84.604 56.493 50.562z" />
<glyph unicode="&#xe637;" d="M652.65 665.778c13.888-19.232 17.087-48.881 16.022-77.717-0.454-12.382 10.75 0.587 22.237 19.549 6.745 11.138 13.594 17.627 18.233 7.606 7.266-15.705 9.116 84.604-56.493 50.562z" />
<glyph unicode="&#xe638;" d="M719.046 577.472c-30.999 22.365-70.48 42.491-115.546 54.249-0.871 23.705-5.42 47.419-15.062 69.206 1.231-25.286 1.78-46.439 1.264-65.907-47.239 10.248-100.030 11.067-155.278-4.099-0.715 20.6-0.18 42.936 1.141 70.006-10.323-23.321-14.811-48.839-15.194-74.195-39.301-12.657-79.701-33.564-120.105-65.055-24.249 201.461 316.857 426.101 418.781 15.795z" />
<glyph unicode="&#xe639;" d="M444.386 857.784c81.211 9.893 156.377-35.699 187.532-107.012-118.084-5.997-257.34-56.606-322.783-162.008-11.564 20.259-19.369 43.102-22.365 67.706-12.070 99.116 58.5 189.249 157.617 201.314z" />
<glyph unicode="&#xe63a;" d="M571.44 825.34c24.259-17.371 44.191-40.674 57.496-68.099-30.289 1.737-70.011-8.449-111.921-25.73-76.075-21.892-148.751-62.376-194.991-123.928-5.335-5.074-10.347-10.115-14.962-15.085-10.423 19.317-17.48 40.868-20.292 63.971-0.615 5.046-1.003 10.058-1.198 15.052 76.009 86.081 149.968 132.557 285.868 153.82z" />
<glyph unicode="&#xe63b;" d="M337.716 628.457c36.139 0 47.594-121.874 11.455-121.874-36.135 0-63.347 121.874-11.455 121.874z" />
<glyph unicode="&#xe63c;" d="M686.284 628.457c-36.139 0-47.594-121.874-11.455-121.874 36.135 0 63.347 121.874 11.455 121.874z" />
<glyph unicode="&#xe63d;" d="M689.31 723.161c-69.202 86.999-449.037-79.956-399.677-218.979-0.473 2.902-33.995 13.892-1.264 137.892 84.888 100.569 162.838 151.292 321.515 171.887 25.565-11.994 91.865-52.209 79.426-90.8z" />
<glyph unicode="&#xe63e;" d="M716.407 308.351c12.212-7.985 23.568-19.733 34.857-36.646 55.579-83.255 13.391-193.925-13.064-283.116-68.213-33.649-144.988-52.587-226.199-52.587s-157.986 18.933-226.199 52.587c-26.455 89.19-68.643 199.861-13.064 283.116 11.289 16.912 22.644 28.656 34.857 36.646 24.050-139.922 357.247-162.278 408.812 0z" />
<glyph unicode="&#xe63f;" d="M661.136-41.26c10.494 34.161 14.815 72.605 19.076 123.218 1.491-49.317 1.789-86.119-4.203-118.443-4.927-1.666-9.883-3.257-14.872-4.776z" />
<glyph unicode="&#xe640;" d="M362.869-41.26c-10.494 34.156-14.815 72.6-19.076 123.218-1.491-49.317-1.789-86.119 4.208-118.443 4.923-1.666 9.879-3.257 14.868-4.776z" />
<glyph unicode="&#xe641;" d="M293.816 297.364c4.497 4.269 9.074 7.909 13.779 10.986 12.444-72.397 107.651-113.307 203.786-113.463-2.054-3.38-4.303-6.66-6.759-9.812-38.629-49.634-112.025-51.049-163.941-3.167-33.527 30.932-49.88 74.848-46.865 115.456zM716.408 308.35c4.705-3.072 9.282-6.712 13.779-10.986 3.015-40.603-13.343-84.523-46.865-115.456-51.916-47.883-125.316-46.467-163.941 3.167-2.461 3.157-4.705 6.442-6.764 9.822 89.257 0.175 179.016 35.5 203.791 113.454z" />
<glyph unicode="&#xe642;" d="M511.998-63.998c282.004 0 512.002 230.003 512.002 512.001s-229.998 511.997-512.002 511.997c-281.994 0-511.998-229.998-511.998-511.997s230.003-512.001 511.998-512.001z" />
<glyph unicode="&#xe643;" d="M601.753 803.041c93.214-9.613 146.043-114.76 128.847-228.1-20.628-136.041-104.404-326.743-247.389-340.465-231.868-22.256-246.982 150.506-188.345 167.437-12.799-50.315 23.61-75.379 56.123-44.882 44.811 42.042-38.885 138.498-52.696 181.538-73.021 227.518 164.602 343.532 303.46 264.471z" />
<glyph unicode="&#xe644;" d="M466.924 264.793h90.152v211.671h-90.152v-211.671z" />
<glyph unicode="&#xe645;" d="M466.922 476.463h90.151v-90.62c-15.18-5.656-30.454-8.766-45.076-8.766-14.636 0-29.901 3.1-45.076 8.733v90.653z" />
<glyph unicode="&#xe646;" d="M511.998 394.147c63.436 0 154.468 77.101 164.527 135.577 18.796 109.345-2.21 256.405-164.527 256.405s-183.323-147.060-164.522-256.405c10.054-58.481 101.090-135.577 164.522-135.577z" />
<glyph unicode="&#xe647;" d="M511.998 313.181c133.594 4.601 187.076 36.698 239.262-41.478 55.584-83.255 13.386-193.92-13.059-283.111-68.222-33.654-144.987-52.592-226.202-52.592-81.205 0-157.98 18.938-226.198 52.592-26.45 89.19-68.643 199.856-13.059 283.111 52.185 78.176 105.663 46.079 239.257 41.478z" />
<glyph unicode="&#xe648;" d="M629.996 322.495c54.424 4.028 88.102-1.122 121.264-50.789 55.579-83.255 13.386-193.925-13.064-283.116-68.217-33.649-144.983-52.587-226.198-52.587-81.205 0-157.98 18.938-226.198 52.587-26.45 89.19-68.643 199.861-13.064 283.116 33.157 49.667 66.849 54.817 121.264 50.789 8.473-53.463 58.074-94.501 117.998-94.501 59.929 0 109.53 41.038 117.998 94.501z" />
<glyph unicode="&#xe649;" d="M446.077-59.783c-56.876 7.322-110.827 23.974-160.276 48.375-26.45 89.19-68.643 199.856-13.064 283.111 27.080 40.565 54.514 51.433 93.299 51.863l80.041-383.349z" />
<glyph unicode="&#xe64a;" d="M657.962 323.568c38.79-0.431 66.22-11.303 93.299-51.863 55.579-83.255 13.386-193.925-13.064-283.116-49.449-24.396-103.405-41.048-160.276-48.37l80.041 383.349z" />
<glyph unicode="&#xe64b;" d="M520.408 798.784c160.953 20.685 185.126-153.715 152.613-239.228 17.485 109.752-97.256 137.48-152.613 239.228z" />
<glyph unicode="&#xe64c;" d="M654.643 776.37c-35.122-97.587-302.712-7.588-290.727-204.514-163.5 217.431 137.258 291.082 290.727 204.514z" />
<glyph unicode="&#xe64d;" d="M337.716 628.457c36.139 0 47.594-121.874 11.455-121.874-36.134 0-63.347 121.874-11.455 121.874z" />
<glyph unicode="&#xe64e;" d="M686.279 628.457c-36.139 0-47.594-121.874-11.455-121.874s63.347 121.874 11.455 121.874z" />
<glyph unicode="&#xe64f;" d="M661.133-41.261c10.494 34.161 14.811 72.605 19.071 123.218 1.491-49.317 1.794-86.119-4.203-118.443-4.918-1.666-9.874-3.257-14.867-4.776z" />
<glyph unicode="&#xe650;" d="M362.869-41.261c-10.494 34.156-14.815 72.6-19.080 123.218-1.486-49.317-1.784-86.119 4.208-118.443 4.923-1.666 9.883-3.257 14.872-4.776z" />
<glyph unicode="&#xe651;" d="M438.679 620.303v-5.088c-19.227 0.715-37.805-1.198-43.282-3.971-12.558-6.362-10.021-36.745-0.17-51.769 6.911-10.532 26.133-15.786 43.452-15.819v-4.785c-1.529 0.014-3.1 0.071-4.724 0.17-38.317 2.376-47.263 15.951-50.978 33.133-4.075 18.862-4.156 25.437-10.262 27.155-4.487 1.264-5.448 5.486-5.121 10.399 0.317 4.918 0.54 5.443 8.113 7.535 5.936 1.642 38.52 4.109 62.973 3.039zM511.719 610.657c19.942 0.421 46.557 8.103 68.676 9.708 1.638 0.118 3.323 0.218 5.041 0.298v-5.093c-19.97-0.828-40.66-4.501-48.048-12.946-12.165-13.916 7.621-47.703 26.294-55.177 5.808-2.319 13.561-3.465 21.755-3.441v-4.79c-33.645-0.402-45.043 18.896-48.943 25.229-7.294 11.843-5.453 27.908-24.443 27.86-18.985-0.047-16.704-16.392-23.913-28.268-3.877-6.371-15.521-25.57-49.459-25.167v4.785c8.307-0.019 16.179 1.164 22.043 3.545 18.626 7.564 38.184 41.445 25.929 55.3-7.427 8.392-28.045 11.971-47.973 12.714v5.088c1.652-0.076 3.271-0.161 4.842-0.27 24.737-1.671 59.721-9.557 68.198-9.377zM585.437 539.216c1.638 0.019 3.328 0.085 5.065 0.204 38.302 2.561 47.158 16.179 50.756 33.375 3.957 18.886 3.995 25.461 10.087 27.207 4.473 1.283 5.405 5.51 5.055 10.423-0.36 4.913-0.582 5.443-8.17 7.498-5.926 1.609-38.369 3.905-62.793 2.741v-5.093c19.165 0.795 37.663-1.022 43.145-3.763 12.591-6.295 10.262-36.698 0.511-51.759-6.882-10.641-26.256-15.98-43.656-16.041v-4.79z" />
<glyph unicode="&#xe652;" d="M511.998-63.998c282.004 0 512.002 230.003 512.002 512.001s-229.998 511.997-512.002 511.997c-281.994 0-511.998-229.998-511.998-511.997s230.003-512.001 511.998-512.001z" />
<glyph unicode="&#xe653;" d="M601.753 803.041c38.818 2.939 78.867-31.354 82.067-63.891 4.085-41.592 40.882-33.233 39.826-99.495-0.98-61.548 34.871-90.587-0.047-141.854-33.446-49.099-7.11-110.988-54.86-127.355-29.73-10.186 25.461-58.414-53.672-94.175-34.312-15.502-60.133-41.582-101.441-41.691-37.427-0.090-82.786 22.062-115.702 37.398-75.615 35.211-17.594 89.119-55.461 111.546-51.726 30.639-6.172 71.885-35.898 103.073-43.888 46.055-4.175 110.093-8.217 141.617-10.603 82.715 21.92 56.322 45.033 122.636 13.812 39.637 55.806 16.917 107.731 65.756 29.058 27.34 99.864 15.341 150.639-13.566z" />
<glyph unicode="&#xe654;" d="M466.924 264.792h90.152v211.671h-90.152v-211.671z" />
<glyph unicode="&#xe655;" d="M466.922 476.463h90.151v-90.62c-15.18-5.656-30.454-8.766-45.076-8.766-14.636 0-29.901 3.1-45.076 8.733v90.653z" />
<glyph unicode="&#xe656;" d="M511.998 394.147c63.436 0 154.468 77.097 164.527 135.577 18.796 109.345-2.21 256.405-164.527 256.405s-183.323-147.060-164.522-256.405c10.054-58.481 101.090-135.577 164.522-135.577z" />
<glyph unicode="&#xe657;" d="M511.998 313.181c133.594 4.601 187.076 36.698 239.262-41.478 55.584-83.255 13.386-193.92-13.059-283.111-68.222-33.654-144.987-52.592-226.202-52.592-81.205 0-157.98 18.938-226.198 52.587-26.45 89.195-68.643 199.861-13.059 283.116 52.185 78.176 105.663 46.079 239.257 41.478z" />
<glyph unicode="&#xe658;" d="M777.794 192.592c-4.18-55.939-24.462-114.007-39.595-165.042-68.217-33.654-144.987-52.592-226.202-52.592-81.205 0-157.98 18.938-226.193 52.592-15.137 51.035-35.42 109.104-39.595 165.042 2.338 27.908 10.224 54.689 26.53 79.113 33.479 50.155 67.498 54.916 122.859 50.675 12.648-52.256 41.956-117.964 116.398-175.626 81.887 63.432 94.35 125.263 97.086 173.927 67.091 6.437 104.967 6.754 142.181-48.976 16.297-24.419 24.183-51.205 26.53-79.113z" />
<glyph unicode="&#xe659;" d="M637.614 323.004c50.003 2.925 82.067-3.99 113.648-51.3 55.579-83.255 13.386-193.925-13.064-283.111-68.217-33.654-144.987-52.592-226.202-52.592-81.205 0-157.98 18.938-226.193 52.587-26.455 89.19-68.643 199.861-13.064 283.116 31.131 46.633 62.726 54.022 111.513 51.418 4.856-51.451 18.825-121.514 127.744-205.886 110.505 85.588 121.273 154.449 125.619 205.768z" />
<glyph unicode="&#xe65a;" d="M578.956 808.223c91.903-44.754 130.48-153.294 125.084-225.033-124.028 62.040-42.685 93.152-121.846 131.133-41.881 20.088-10.541 59.475-3.238 93.9z" />
<glyph unicode="&#xe65b;" d="M654.643 776.365c-30.658-14.399-59.612-50.85-116.209-59.484-44.749-6.83-41.142-51.224-106.382-53.742-52.848-2.045-22.531-93.043-131.786-91.988-24.268 161.734 200.907 291.787 354.377 205.214z" />
<glyph unicode="&#xe65c;" d="M337.716 628.457c36.139 0 47.594-121.879 11.455-121.879-36.134 0-63.347 121.879-11.455 121.879z" />
<glyph unicode="&#xe65d;" d="M686.279 628.457c-36.139 0-47.594-121.879-11.455-121.879s63.347 121.879 11.455 121.879z" />
<glyph unicode="&#xe65e;" d="M661.133-41.912c10.494 34.156 14.811 72.6 19.071 123.214 1.491-49.312 1.794-86.114-4.203-118.438-4.918-1.666-9.874-3.261-14.867-4.776z" />
<glyph unicode="&#xe65f;" d="M362.869-41.912c-10.494 34.156-14.815 72.6-19.080 123.214-1.486-49.317-1.784-86.114 4.208-118.443 4.923-1.661 9.883-3.257 14.872-4.771z" />
<glyph unicode="&#xe660;" d="M654.643 776.365c-7.739-21.494-6.906-66.333-39.893-65.396-102.558 2.906-64.563-60.038-112.119-72.581-87.278-23.032-51.901-47.793-74.276-74.588-16.164-19.355-66.915-37.275-85.271-6.641 23.596-5.107 50.292-6.134 66.097 23.856 15.525 29.47-5.23 58.779 69.5 81.541 55.494 16.903 13.466 87.936 93.787 91.761 18.545 0.876 53.118 38.44 82.176 22.048z" />
<glyph unicode="&#xe661;" d="M375.169 389.969c-8.492-22.488-31.884-65.259-8.842-92.556 52.455-62.144 2.291-74.99 28.528-114.462 48.152-72.439 6.276-71.246 4.923-107.073-0.975-25.877 24.050-71.753 57.444-57.681-20.448 10.224-40.475 25.721-32.258 60.166 8.070 33.843 42.335 45.355 3.1 109.894-29.129 47.925 37.63 71.895-10.376 135.767-10.844 14.437-10.721 61.704-42.52 65.945z" />
<glyph unicode="&#xe662;" d="M511.998-63.998c282.004 0 512.002 230.003 512.002 511.997 0 282.003-229.998 512.001-512.002 512.001-281.994 0-511.998-229.998-511.998-512.001 0-281.994 230.003-511.997 511.998-511.997z" />
<glyph unicode="&#xe663;" d="M731.486 613.402c32.22-170.258-29.981-576.294-219.49-576.815-188.203-0.516-254.749 394.652-222.245 568.352 23.037 123.133 108.673 218.827 223.476 218.827s198.19-104.285 218.26-210.364z" />
<glyph unicode="&#xe664;" d="M466.924 264.796h90.152v211.671h-90.152v-211.671z" />
<glyph unicode="&#xe665;" d="M466.922 476.463h90.151v-90.62c-15.18-5.656-30.454-8.766-45.076-8.766-14.636 0-29.901 3.096-45.076 8.733v90.653z" />
<glyph unicode="&#xe666;" d="M511.998 394.147c63.436 0 154.468 77.097 164.527 135.577 18.796 109.34-2.21 256.405-164.527 256.405s-183.323-147.060-164.522-256.405c10.054-58.481 101.090-135.577 164.522-135.577z" />
<glyph unicode="&#xe667;" d="M511.998 313.177c133.594 4.606 187.076 36.702 239.262-41.478 55.584-83.25 13.386-193.916-13.059-283.111-68.222-33.654-144.987-52.587-226.202-52.587-81.205 0-157.98 18.933-226.198 52.587-26.45 89.19-68.643 199.861-13.059 283.111 52.185 78.181 105.663 46.084 239.257 41.478z" />
<glyph unicode="&#xe668;" d="M337.716 628.457c16.822 0 28.301-26.417 32.111-54.646 4.378-32.419-1.34-67.232-20.656-67.232-36.134 0-63.347 121.879-11.455 121.879z" />
<glyph unicode="&#xe669;" d="M686.279 628.457c-36.139 0-47.594-121.879-11.455-121.879s63.347 121.879 11.455 121.879z" />
<glyph unicode="&#xe66a;" d="M654.523 661.457c13.888-19.227 17.092-48.877 16.022-77.717-0.454-12.378 10.749 0.592 22.233 19.549 6.759 11.142 13.599 17.627 18.242 7.611 7.266-15.71 9.112 84.604-56.497 50.557z" />
<glyph unicode="&#xe66b;" d="M370.281 661.457c-13.888-19.227-17.087-48.877-16.022-77.717 0.454-12.378-10.749 0.592-22.237 19.549-6.745 11.142-13.599 17.627-18.233 7.611-7.266-15.71-9.121 84.604 56.493 50.557z" />
<glyph unicode="&#xe66c;" d="M690.291 672.315c-18.062-22.872-51.366-38.558-91.34-47.67-3.152 37.233-11.223 75.781-23.899 112.147 7.029-45.951 12.151-80.604 15.109-114.031-39.931-7.957-85.607-9.694-129.088-5.742 1.051 25.603 3.081 53.307 5.666 87.146-7.616-27.998-12.416-57.288-14.361-86.275-7.682 0.833-15.284 1.851-22.749 3.044 4.695 32.475 11.502 66.395 20.647 110.935-14.228-35.481-24.187-73.054-29.404-109.44-40.418 7.313-76.33 19.89-100.238 37.228 88.518 201.754 278.762 195.274 369.656 12.657z" />
<glyph unicode="&#xe66d;" d="M661.133-41.912c10.494 34.156 14.811 72.6 19.071 123.214 1.491-49.317 1.794-86.114-4.203-118.438-4.918-1.671-9.874-3.261-14.867-4.776z" />
<glyph unicode="&#xe66e;" d="M362.869-41.912c-10.494 34.156-14.815 72.6-19.080 123.214-1.486-49.317-1.784-86.114 4.208-118.443 4.923-1.666 9.883-3.257 14.872-4.771z" />
<glyph unicode="&#xe66f;" d="M440.311 348.991l63.399-25.579v-33.2l-63.399 25.579v33.2z" />
<glyph unicode="&#xe670;" d="M583.689 348.991l-63.403-25.579v-33.2l63.403 25.579v33.2z" />
<glyph unicode="&#xe671;" d="M704.038 464.315c24.926-35.178 26.355-73.812 21.991-115.177-10.991-104.285-90.587-218.042-157.242-279.419 60.459 112.213 103.755 201.778 89.673 338.785l45.577 55.811z" />
<glyph unicode="&#xe672;" d="M517.681 313.177v-377.144c-1.893-0.024-3.787-0.033-5.685-0.033-1.893 0-3.782 0.009-5.675 0.033v377.144h11.36z" />
<glyph unicode="&#xe673;" d="M550.814 274.159c6.75 0 12.222-5.472 12.222-12.222s-5.472-12.217-12.222-12.217c-6.75 0-12.222 5.467-12.222 12.217s5.472 12.222 12.222 12.222z" />
<glyph unicode="&#xe674;" d="M473.183 274.159c6.75 0 12.222-5.472 12.222-12.222s-5.472-12.217-12.222-12.217c-6.745 0-12.217 5.467-12.217 12.217s5.472 12.222 12.217 12.222z" />
<glyph unicode="&#xe675;" d="M550.814 202.276c6.75 0 12.222-5.467 12.222-12.217s-5.472-12.222-12.222-12.222c-6.75 0-12.222 5.472-12.222 12.222s5.472 12.217 12.222 12.217z" />
<glyph unicode="&#xe676;" d="M473.183 202.276c6.75 0 12.222-5.467 12.222-12.217s-5.472-12.222-12.222-12.222c-6.745 0-12.217 5.472-12.217 12.222s5.472 12.217 12.217 12.217z" />
<glyph unicode="&#xe677;" d="M550.814 130.393c6.75 0 12.222-5.467 12.222-12.217s-5.472-12.217-12.222-12.217c-6.75 0-12.222 5.467-12.222 12.217s5.472 12.217 12.222 12.217z" />
<glyph unicode="&#xe678;" d="M473.183 130.393c6.75 0 12.222-5.467 12.222-12.217s-5.472-12.217-12.222-12.217c-6.745 0-12.217 5.467-12.217 12.217s5.472 12.217 12.217 12.217z" />
<glyph unicode="&#xe679;" d="M550.814 58.514c6.75 0 12.222-5.472 12.222-12.217 0-6.75-5.472-12.222-12.222-12.222s-12.222 5.472-12.222 12.222c0 6.745 5.472 12.217 12.222 12.217z" />
<glyph unicode="&#xe67a;" d="M473.183 58.514c6.75 0 12.222-5.472 12.222-12.217 0-6.75-5.472-12.222-12.222-12.222-6.745 0-12.217 5.472-12.217 12.222 0 6.745 5.472 12.217 12.217 12.217z" />
<glyph unicode="&#xe67b;" d="M550.814-13.364c6.75 0 12.222-5.472 12.222-12.222s-5.472-12.217-12.222-12.217c-6.75 0-12.222 5.467-12.222 12.217s5.472 12.222 12.222 12.222z" />
<glyph unicode="&#xe67c;" d="M473.183-13.364c6.75 0 12.222-5.472 12.222-12.222s-5.472-12.217-12.222-12.217c-6.745 0-12.217 5.467-12.217 12.217s5.472 12.222 12.217 12.222z" />
<glyph unicode="&#xe67d;" d="M512-63.998c281.996 0 512 230.003 512 512.001s-230.004 511.997-512 511.997c-282.005 0-512-229.998-512-511.997s229.995-512.001 512-512.001z" />
<glyph unicode="&#xe67e;" d="M298.341 506.426c20.126-205.934 86.356-209.091 92.661-295.678 8.416-115.697 45.208-124.776 144.903-127.606 49.525-1.406 12.984 120.696 73.945 206.989 43.651 61.803 84.098 132.444 98.435 185.95 37.981 141.721-26.985 343.045-197.68 344.895-172.659 1.874-226.629-167.546-212.264-314.55z" />
<glyph unicode="&#xe67f;" d="M466.924 264.793h90.147v211.671h-90.147v-211.671z" />
<glyph unicode="&#xe680;" d="M557.069 476.463h-90.147v-90.62c15.18-5.656 30.455-8.766 45.081-8.766 14.631 0 29.896 3.1 45.066 8.733v90.653z" />
<glyph unicode="&#xe681;" d="M512 394.147c-63.437 0-154.474 77.101-164.532 135.577-18.792 109.345 2.201 256.405 164.532 256.405 162.322 0 183.324-147.060 164.523-256.405-10.049-58.481-101.095-135.577-164.523-135.577z" />
<glyph unicode="&#xe682;" d="M512 313.181c-133.6 4.601-187.077 36.698-239.268-41.478-55.579-83.255-13.386-193.92 13.064-283.111 68.217-33.654 144.988-52.592 226.203-52.592 81.206 0 157.976 18.933 226.194 52.592 26.46 89.19 68.643 199.856 13.064 283.111-52.19 78.176-105.658 46.079-239.258 41.478z" />
<glyph unicode="&#xe683;" d="M445.039 808.223c-91.368-44.872-129.482-153.526-125.084-225.033 89.148 52.36 141.769 146.383 125.084 225.033z" />
<glyph unicode="&#xe684;" d="M686.284 628.457c-36.139 0-47.594-121.874-11.464-121.874 36.139 0 63.356 121.874 11.464 121.874z" />
<glyph unicode="&#xe685;" d="M337.716 628.457c36.139 0 47.594-121.874 11.455-121.874s-63.347 121.874-11.455 121.874z" />
<glyph unicode="&#xe686;" d="M391.123 759.72c35.112-97.583 248.9-234.746 320.251-231.068-214.914 60.36-166.776 317.641-320.251 231.068z" />
<glyph unicode="&#xe687;" d="M419.293 794.295c-44.461-146.89 220.064-312.538 315.712-303.474 7.039 207.879-103.865 396.546-315.712 303.474z" />
<glyph unicode="&#xe688;" d="M512 260.467c14.413 0.492 27.894 54.026 40.537 54.987 104.579 7.966 152.173 25.986 198.721-43.75 55.579-83.255 13.386-193.925-13.064-283.111-68.208-33.654-144.988-52.592-226.194-52.592-81.215 0-157.986 18.933-226.203 52.592-26.45 89.186-68.643 199.856-13.064 283.111 46.439 69.557 93.891 51.806 197.907 43.817 12.884-0.989 26.635-54.547 41.36-55.054z" />
<glyph unicode="&#xe689;" d="M509.994 260.86l-10.593-44.972c-8.582-81.267-14.517-186.674-10.607-279.367 7.692-0.346 15.431-0.521 23.208-0.521 7.247 0 14.46 0.151 21.632 0.454 2.84 86.554-1.292 190.716-9.041 279.433l-10.593 44.981c-0.667-0.246-1.335-0.379-1.997-0.402-0.677 0.024-1.34 0.161-2.007 0.393z" />
<glyph unicode="&#xe68a;" d="M509.883 260.412l-10.484-44.522c-0.322-3.048-0.639-6.13-0.951-9.235h26.928c-0.256 3.091-0.525 6.168-0.786 9.235l-10.489 44.522-2.035-0.024-2.182 0.024z" />
<glyph unicode="&#xe68b;" d="M661.129-41.912c10.494 34.161 14.82 72.6 19.080 123.218 1.491-49.317 1.784-86.119-4.203-118.443-4.927-1.666-9.883-3.261-14.877-4.776z" />
<glyph unicode="&#xe68c;" d="M362.862-41.912c-10.494 34.156-14.811 72.6-19.071 123.218-1.491-49.317-1.794-86.119 4.203-118.443 4.927-1.666 9.883-3.261 14.868-4.776z" />
<glyph unicode="&#xe68d;" d="M465.175 342.27l46.984-72.647-0.166-21.949-32.182-55.849-35.112 121.879 20.477 28.566z" />
<glyph unicode="&#xe68e;" d="M558.816 342.27l-46.827-72.652v-21.944l32.192-55.849 35.112 121.879-20.477 28.566z" />
<glyph unicode="&#xe68f;" d="M499.75 269.791l12.316-0.166 12.302 0.166 9.58-24.751-0.066-0.189 0.066-0.151-0.582-1.491-8.648-27.321h-25.319l-8.643 27.321-0.573 1.491 0.052 0.151-0.052 0.189 9.566 24.751z" />
<glyph unicode="&#xe690;" d="M465.175 342.27l46.818-72.647-32.182-51.385-35.112 100.479 20.477 23.553z" />
<glyph unicode="&#xe691;" d="M558.816 342.27l-46.827-72.647 32.192-51.385 35.112 100.479-20.477 23.553z" />
<glyph unicode="&#xe692;" d="M345.546 322.13c38.672-96.674 101.711-179.399 121.378-192.34v243.668c-64.038 32.698-107.372 0-121.378-51.328z" />
<glyph unicode="&#xe693;" d="M512 960c282.835 0 512-229.301 512-512 0-282.84-229.165-512-512-512-282.699 0-512 229.16-512 512 0 282.699 229.301 512 512 512z" />
<glyph unicode="&#xe694;" d="M295.042 411.367c40.388-13.011 66.279 28.984 32.877 75.673 6.438 41.592 103.045 66.016 94.991-43.602s-124.105-80.639-127.868-32.071z" />
<glyph unicode="&#xe695;" d="M318.661 338.247c40.383-13.152 66.415 28.984 33.004 75.668 6.438 41.596 141.685 35.824 133.635-73.794-8.049-109.614-162.886-50.583-166.639-1.874z" />
<glyph unicode="&#xe696;" d="M724.529 411.367c-40.383-13.011-66.415 28.984-33.004 75.673-6.442 41.592-102.914 66.016-94.859-43.602 7.914-109.618 124.105-80.639 127.863-32.071z" />
<glyph unicode="&#xe697;" d="M700.782 338.247c-40.388-13.152-66.279 28.984-32.872 75.668-6.442 41.596-141.821 35.824-133.766-73.794 8.045-109.614 162.881-50.583 166.639-1.874z" />
<glyph unicode="&#xe698;" d="M727.617 654.758c34.751-133.096-85.737-260.561-215.751-260.561s-246.875 115.789-213.736 247.681c28.309 112.837 116.599 181.534 208.371 182.072 95.932 0.539 195.622-71.784 221.115-169.192z" />
<glyph unicode="&#xe699;" d="M336.506 401.708c26.294-8.588 60.375 36.091 19.856 106.934 4.292 27.1 72.585 15.701 67.352-55.948-5.234-71.508-69.231-79.562-87.208-50.986z" />
<glyph unicode="&#xe69a;" d="M383.062 348.982c26.294-8.593 47.5 67.488 6.976 138.461 4.292 27.105 88.286 1.34 83.052-70.308-5.229-71.512-72.051-96.869-90.029-68.153z" />
<glyph unicode="&#xe69b;" d="M690.72 401.708c-26.435-8.588-60.511 36.091-19.997 106.934-4.156 27.1-72.585 15.701-67.216-55.948 5.234-71.508 69.231-79.562 87.213-50.986z" />
<glyph unicode="&#xe69c;" d="M644.027 348.982c-26.299-8.593-47.5 67.488-6.976 138.461-4.161 27.105-88.286 1.34-83.052-70.308 5.229-71.512 72.051-96.869 90.029-68.153z" />
<glyph unicode="&#xe69d;" d="M466.915 264.856h90.165v211.59h-90.165v-211.59z" />
<glyph unicode="&#xe69e;" d="M466.917 476.445h90.165v-90.568c-15.162-5.636-30.455-8.855-45.082-8.855-14.623 0-29.921 3.083-45.082 8.719v90.704z" />
<glyph unicode="&#xe69f;" d="M512 394.195c63.463 0 154.434 77.018 164.493 135.514 18.788 109.351-2.146 256.401-164.493 256.401s-183.276-147.049-164.493-256.401c10.064-58.496 101.030-135.514 164.493-135.514z" />
<glyph unicode="&#xe6a0;" d="M538.3 579.622v-1.879h-0.272c0-5.501 4.835-10.603 12.749-14.623 8.719-4.432 20.929-7.248 34.479-7.248 13.555 0 25.901 2.816 34.62 7.248 7.778 4.020 12.613 9.122 12.613 14.623 0 5.365-4.835 10.598-12.613 14.487-8.719 4.564-21.065 7.248-34.62 7.248-13.55 0-25.76-2.685-34.479-7.248-6.976-3.486-11.54-7.914-12.477-12.608zM473.361 592.231c-8.86 4.564-21.065 7.248-34.62 7.248s-25.76-2.685-34.615-7.248c-7.782-3.889-12.613-9.122-12.613-14.487 0-5.501 4.831-10.603 12.613-14.623 8.855-4.432 21.061-7.248 34.615-7.248s25.76 2.816 34.62 7.248c7.778 4.020 12.608 9.122 12.608 14.623 0 5.365-4.831 10.598-12.608 14.487zM585.257 608.606c15.026 0 28.712-3.224 38.781-8.19 10.865-5.636 17.575-13.55 17.575-22.672 0-9.258-6.709-17.172-17.575-22.813-10.069-4.962-23.755-8.185-38.781-8.185s-28.707 3.224-38.64 8.185c-10.865 5.641-17.711 13.555-17.711 22.813 0 0.534 0.131 1.204 0.131 1.879-0.534 2.549-2.146 4.826-4.423 6.709-3.088 2.413-7.511 4.025-12.482 4.025-4.962 0-9.258-1.612-12.472-4.025-2.821-2.286-4.568-5.369-4.568-8.588 0-9.258-6.705-17.172-17.706-22.813-9.928-4.962-23.619-8.185-38.645-8.185s-28.712 3.224-38.771 8.185c-10.875 5.641-17.579 13.555-17.579 22.813 0 9.122 6.705 17.036 17.579 22.672 10.059 4.966 23.745 8.19 38.771 8.19s28.716-3.224 38.645-8.19c5.632-2.947 10.195-6.442 13.152-10.331 1.068 1.209 2.277 2.286 3.486 3.219 4.695 3.762 11.137 6.039 18.109 6.039 6.976 0 13.419-2.277 18.114-6.039 1.209-0.932 2.286-2.010 3.355-3.083 2.956 3.889 7.515 7.379 13.016 10.195 9.933 4.966 23.614 8.19 38.64 8.19z" />
<glyph unicode="&#xe6a1;" d="M512 301.616c14.759 0.403 28.445 12.885 41.325 13.958 103.986 7.914 151.482 25.76 197.909-43.883 55.676-83.188 13.414-193.879-13.021-283.102-68.158-33.674-145.039-52.588-226.213-52.588s-157.919 18.915-226.213 52.588c-26.435 89.223-68.565 199.914-13.021 283.102 46.563 69.643 94.063 51.796 198.448 43.742 12.744-0.932 26.294-13.414 40.786-13.817z" />
<glyph unicode="&#xe6a2;" d="M256.804 240.834c4.296-1.612 7.244-5.768 7.244-10.462 0-6.18-5.098-11.278-11.264-11.278-0.806 0-1.612 0.141-2.418 0.276 1.743 7.239 3.889 14.487 6.438 21.464z" />
<glyph unicode="&#xe6a3;" d="M309.94 241.64c6.166 0 11.264-5.102 11.264-11.268 0-6.18-5.098-11.278-11.264-11.278-6.175 0-11.273 5.098-11.273 11.278 0 6.166 5.098 11.268 11.273 11.268z" />
<glyph unicode="&#xe6a4;" d="M367.098 241.64c6.166 0 11.264-5.102 11.264-11.268 0-6.18-5.098-11.278-11.264-11.278-6.175 0-11.273 5.098-11.273 11.278 0 6.166 5.098 11.268 11.273 11.268z" />
<glyph unicode="&#xe6a5;" d="M424.255 241.64c6.166 0 11.264-5.102 11.264-11.268 0-6.18-5.098-11.278-11.264-11.278-6.175 0-11.273 5.098-11.273 11.278 0 6.166 5.098 11.268 11.273 11.268z" />
<glyph unicode="&#xe6a6;" d="M481.413 241.64c6.166 0 11.132-5.102 11.132-11.268 0-6.18-4.966-11.278-11.132-11.278-6.175 0-11.273 5.098-11.273 11.278 0 6.166 5.098 11.268 11.273 11.268z" />
<glyph unicode="&#xe6a7;" d="M538.565 241.64c6.171 0 11.137-5.102 11.137-11.268 0-6.18-4.966-11.278-11.137-11.278s-11.268 5.098-11.268 11.278c0 6.166 5.098 11.268 11.268 11.268z" />
<glyph unicode="&#xe6a8;" d="M595.723 241.64c6.171 0 11.137-5.102 11.137-11.268 0-6.18-4.966-11.278-11.137-11.278s-11.268 5.098-11.268 11.278c0 6.166 5.098 11.268 11.268 11.268z" />
<glyph unicode="&#xe6a9;" d="M652.881 241.64c6.171 0 11.137-5.102 11.137-11.268 0-6.18-4.966-11.278-11.137-11.278s-11.268 5.098-11.268 11.278c0 6.166 5.098 11.268 11.268 11.268z" />
<glyph unicode="&#xe6aa;" d="M710.038 241.64c6.171 0 11.137-5.102 11.137-11.268 0-6.18-4.966-11.278-11.137-11.278s-11.268 5.098-11.268 11.278c0 6.166 5.098 11.268 11.268 11.268z" />
<glyph unicode="&#xe6ab;" d="M773.235 220.981c-1.743-1.209-3.758-1.884-6.039-1.884-6.306 0-11.268 5.098-11.268 11.273 0 6.039 4.831 11.006 11.001 11.268 2.549-6.841 4.695-13.686 6.306-20.658z" />
<glyph unicode="&#xe6ac;" d="M291.418 294.908c2.151-2.015 3.622-4.971 3.622-8.19 0-6.166-5.093-11.264-11.268-11.264-2.549 0-4.962 0.942-6.841 2.277 4.831 6.578 9.525 12.346 14.487 17.176z" />
<glyph unicode="&#xe6ad;" d="M340.93 297.992c6.171 0 11.268-5.098 11.268-11.273 0-6.171-5.098-11.268-11.268-11.268s-11.268 5.098-11.268 11.268c0 6.175 5.098 11.273 11.268 11.273z" />
<glyph unicode="&#xe6ae;" d="M398.088 297.992c6.171 0 11.268-5.098 11.268-11.273 0-6.171-5.098-11.268-11.268-11.268s-11.268 5.098-11.268 11.268c0 6.175 5.098 11.273 11.268 11.273z" />
<glyph unicode="&#xe6af;" d="M455.245 297.992c6.171 0 11.268-5.098 11.268-11.273 0-6.171-5.098-11.268-11.268-11.268s-11.268 5.098-11.268 11.268c0 6.175 5.098 11.273 11.268 11.273z" />
<glyph unicode="&#xe6b0;" d="M512.403 297.992c6.171 0 11.137-5.098 11.137-11.273 0-6.171-4.966-11.268-11.137-11.268s-11.268 5.098-11.268 11.268c0 6.175 5.098 11.273 11.268 11.273z" />
<glyph unicode="&#xe6b1;" d="M569.56 297.992c6.171 0 11.137-5.098 11.137-11.273 0-6.171-4.966-11.268-11.137-11.268s-11.268 5.098-11.268 11.268c0 6.175 5.098 11.273 11.268 11.273z" />
<glyph unicode="&#xe6b2;" d="M626.718 297.992c6.171 0 11.137-5.098 11.137-11.273 0-6.171-4.966-11.268-11.137-11.268s-11.268 5.098-11.268 11.268c0 6.175 5.098 11.273 11.268 11.273z" />
<glyph unicode="&#xe6b3;" d="M683.875 297.992c6.171 0 11.137-5.098 11.137-11.273 0-6.171-4.966-11.268-11.137-11.268s-11.268 5.098-11.268 11.268c0 6.175 5.098 11.273 11.268 11.273z" />
<glyph unicode="&#xe6b4;" d="M747.338 277.466c-1.874-1.209-4.020-2.015-6.306-2.015-6.171 0-11.268 5.098-11.268 11.268 0 3.092 1.209 5.908 3.224 7.923 4.826-4.971 9.525-10.608 14.351-17.176z" />
<glyph unicode="&#xe6b5;" d="M252.783 132.555c6.166 0 11.264-5.098 11.264-11.264 0-6.18-5.098-11.137-11.264-11.137h-0.539c-1.34 7.108-2.549 14.356-3.626 21.595 1.345 0.539 2.689 0.806 4.165 0.806z" />
<glyph unicode="&#xe6b6;" d="M309.94 132.555c6.166 0 11.264-5.098 11.264-11.264 0-6.18-5.098-11.137-11.264-11.137-6.175 0-11.273 4.957-11.273 11.137 0 6.166 5.098 11.264 11.273 11.264z" />
<glyph unicode="&#xe6b7;" d="M367.098 132.555c6.166 0 11.264-5.098 11.264-11.264 0-6.18-5.098-11.137-11.264-11.137-6.175 0-11.273 4.957-11.273 11.137 0 6.166 5.098 11.264 11.273 11.264z" />
<glyph unicode="&#xe6b8;" d="M424.255 132.555c6.166 0 11.264-5.098 11.264-11.264 0-6.18-5.098-11.137-11.264-11.137-6.175 0-11.273 4.957-11.273 11.137 0 6.166 5.098 11.264 11.273 11.264z" />
<glyph unicode="&#xe6b9;" d="M481.413 132.555c6.166 0 11.132-5.098 11.132-11.264 0-6.18-4.966-11.137-11.132-11.137-6.175 0-11.273 4.957-11.273 11.137 0 6.166 5.098 11.264 11.273 11.264z" />
<glyph unicode="&#xe6ba;" d="M538.565 132.555c6.171 0 11.137-5.098 11.137-11.264 0-6.18-4.966-11.137-11.137-11.137s-11.268 4.957-11.268 11.137c0 6.166 5.098 11.264 11.268 11.264z" />
<glyph unicode="&#xe6bb;" d="M595.723 132.555c6.171 0 11.137-5.098 11.137-11.264 0-6.18-4.966-11.137-11.137-11.137s-11.268 4.957-11.268 11.137c0 6.166 5.098 11.264 11.268 11.264z" />
<glyph unicode="&#xe6bc;" d="M652.881 132.555c6.171 0 11.137-5.098 11.137-11.264 0-6.18-4.966-11.137-11.137-11.137s-11.268 4.957-11.268 11.137c0 6.166 5.098 11.264 11.268 11.264z" />
<glyph unicode="&#xe6bd;" d="M710.038 132.555c6.171 0 11.137-5.098 11.137-11.264 0-6.18-4.966-11.137-11.137-11.137s-11.268 4.957-11.268 11.137c0 6.166 5.098 11.264 11.268 11.264z" />
<glyph unicode="&#xe6be;" d="M767.196 132.555c3.088 0 5.768-1.209 7.914-3.224-0.937-6.030-2.005-12.069-3.214-18.109-1.476-0.806-3.088-1.068-4.699-1.068-6.306 0-11.268 4.957-11.268 11.137 0 6.166 4.962 11.264 11.268 11.264z" />
<glyph unicode="&#xe6bf;" d="M283.773 188.907c6.171 0 11.268-4.962 11.268-11.264 0-6.18-5.098-11.137-11.268-11.137s-11.268 4.957-11.268 11.137c0 6.302 5.098 11.264 11.268 11.264z" />
<glyph unicode="&#xe6c0;" d="M340.93 188.907c6.171 0 11.268-4.962 11.268-11.264 0-6.18-5.098-11.137-11.268-11.137s-11.268 4.957-11.268 11.137c0 6.302 5.098 11.264 11.268 11.264z" />
<glyph unicode="&#xe6c1;" d="M398.088 188.907c6.171 0 11.268-4.962 11.268-11.264 0-6.18-5.098-11.137-11.268-11.137s-11.268 4.957-11.268 11.137c0 6.302 5.098 11.264 11.268 11.264z" />
<glyph unicode="&#xe6c2;" d="M455.245 188.907c6.171 0 11.268-4.962 11.268-11.264 0-6.18-5.098-11.137-11.268-11.137s-11.268 4.957-11.268 11.137c0 6.302 5.098 11.264 11.268 11.264z" />
<glyph unicode="&#xe6c3;" d="M512.403 188.907c6.171 0 11.137-4.962 11.137-11.264 0-6.18-4.966-11.137-11.137-11.137s-11.268 4.957-11.268 11.137c0 6.302 5.098 11.264 11.268 11.264z" />
<glyph unicode="&#xe6c4;" d="M569.56 188.907c6.171 0 11.137-4.962 11.137-11.264 0-6.18-4.966-11.137-11.137-11.137s-11.268 4.957-11.268 11.137c0 6.302 5.098 11.264 11.268 11.264z" />
<glyph unicode="&#xe6c5;" d="M626.718 188.907c6.171 0 11.137-4.962 11.137-11.264 0-6.18-4.966-11.137-11.137-11.137s-11.268 4.957-11.268 11.137c0 6.302 5.098 11.264 11.268 11.264z" />
<glyph unicode="&#xe6c6;" d="M683.875 188.907c6.171 0 11.137-4.962 11.137-11.264 0-6.18-4.966-11.137-11.137-11.137s-11.268 4.957-11.268 11.137c0 6.302 5.098 11.264 11.268 11.264z" />
<glyph unicode="&#xe6c7;" d="M741.033 188.907c6.171 0 11.137-4.962 11.137-11.264 0-6.18-4.966-11.137-11.137-11.137s-11.268 4.957-11.268 11.137c0 6.302 5.098 11.264 11.268 11.264z" />
<glyph unicode="&#xe6c8;" d="M309.94 23.474c6.166 0 11.264-4.962 11.264-11.137 0-6.306-5.098-11.264-11.264-11.264-6.175 0-11.273 4.957-11.273 11.264 0 6.175 5.098 11.137 11.273 11.137z" />
<glyph unicode="&#xe6c9;" d="M367.098 23.474c6.166 0 11.264-4.962 11.264-11.137 0-6.306-5.098-11.264-11.264-11.264-6.175 0-11.273 4.957-11.273 11.264 0 6.175 5.098 11.137 11.273 11.137z" />
<glyph unicode="&#xe6ca;" d="M424.255 23.474c6.166 0 11.264-4.962 11.264-11.137 0-6.306-5.098-11.264-11.264-11.264-6.175 0-11.273 4.957-11.273 11.264 0 6.175 5.098 11.137 11.273 11.137z" />
<glyph unicode="&#xe6cb;" d="M481.413 23.474c6.166 0 11.132-4.962 11.132-11.137 0-6.306-4.966-11.264-11.132-11.264-6.175 0-11.273 4.957-11.273 11.264 0 6.175 5.098 11.137 11.273 11.137z" />
<glyph unicode="&#xe6cc;" d="M538.565 23.474c6.171 0 11.137-4.962 11.137-11.137 0-6.306-4.966-11.264-11.137-11.264s-11.268 4.957-11.268 11.264c0 6.175 5.098 11.137 11.268 11.137z" />
<glyph unicode="&#xe6cd;" d="M595.723 23.474c6.171 0 11.137-4.962 11.137-11.137 0-6.306-4.966-11.264-11.137-11.264s-11.268 4.957-11.268 11.264c0 6.175 5.098 11.137 11.268 11.137z" />
<glyph unicode="&#xe6ce;" d="M652.881 23.474c6.171 0 11.137-4.962 11.137-11.137 0-6.306-4.966-11.264-11.137-11.264s-11.268 4.957-11.268 11.264c0 6.175 5.098 11.137 11.268 11.137z" />
<glyph unicode="&#xe6cf;" d="M710.038 23.474c6.171 0 11.137-4.962 11.137-11.137 0-6.306-4.966-11.264-11.137-11.264s-11.268 4.957-11.268 11.264c0 6.175 5.098 11.137 11.268 11.137z" />
<glyph unicode="&#xe6d0;" d="M283.773 79.826c6.171 0 11.268-4.962 11.268-11.137 0-6.306-5.098-11.264-11.268-11.264s-11.268 4.957-11.268 11.264c0 6.175 5.098 11.137 11.268 11.137z" />
<glyph unicode="&#xe6d1;" d="M340.93 79.826c6.171 0 11.268-4.962 11.268-11.137 0-6.306-5.098-11.264-11.268-11.264s-11.268 4.957-11.268 11.264c0 6.175 5.098 11.137 11.268 11.137z" />
<glyph unicode="&#xe6d2;" d="M398.088 79.826c6.171 0 11.268-4.962 11.268-11.137 0-6.306-5.098-11.264-11.268-11.264s-11.268 4.957-11.268 11.264c0 6.175 5.098 11.137 11.268 11.137z" />
<glyph unicode="&#xe6d3;" d="M455.245 79.826c6.171 0 11.268-4.962 11.268-11.137 0-6.306-5.098-11.264-11.268-11.264s-11.268 4.957-11.268 11.264c0 6.175 5.098 11.137 11.268 11.137z" />
<glyph unicode="&#xe6d4;" d="M512.403 79.826c6.171 0 11.137-4.962 11.137-11.137 0-6.306-4.966-11.264-11.137-11.264s-11.268 4.957-11.268 11.264c0 6.175 5.098 11.137 11.268 11.137z" />
<glyph unicode="&#xe6d5;" d="M569.56 79.826c6.171 0 11.137-4.962 11.137-11.137 0-6.306-4.966-11.264-11.137-11.264s-11.268 4.957-11.268 11.264c0 6.175 5.098 11.137 11.268 11.137z" />
<glyph unicode="&#xe6d6;" d="M626.718 79.826c6.171 0 11.137-4.962 11.137-11.137 0-6.306-4.966-11.264-11.137-11.264s-11.268 4.957-11.268 11.264c0 6.175 5.098 11.137 11.268 11.137z" />
<glyph unicode="&#xe6d7;" d="M683.875 79.826c6.171 0 11.137-4.962 11.137-11.137 0-6.306-4.966-11.264-11.137-11.264s-11.268 4.957-11.268 11.264c0 6.175 5.098 11.137 11.268 11.137z" />
<glyph unicode="&#xe6d8;" d="M741.033 79.826c6.171 0 11.137-4.962 11.137-11.137 0-6.306-4.966-11.264-11.137-11.264s-11.268 4.957-11.268 11.264c0 6.175 5.098 11.137 11.268 11.137z" />
<glyph unicode="&#xe6d9;" d="M340.93-29.117c5.505 0 10.2-4.025 11.006-9.399-6.175 2.151-12.346 4.301-18.385 6.578 1.879 1.743 4.564 2.821 7.379 2.821z" />
<glyph unicode="&#xe6da;" d="M398.088-29.117c6.171 0 11.268-5.098 11.268-11.273 0-5.768-4.428-10.472-9.928-11.137-2.549 0.539-4.957 1.068-7.375 1.748-3.224 1.874-5.234 5.36-5.234 9.389 0 6.175 5.098 11.273 11.268 11.273z" />
<glyph unicode="&#xe6db;" d="M455.245-29.117c6.171 0 11.268-5.098 11.268-11.273 0-6.171-5.098-11.278-11.268-11.278s-11.268 5.107-11.268 11.278c0 6.175 5.098 11.273 11.268 11.273z" />
<glyph unicode="&#xe6dc;" d="M512.403-29.117c6.171 0 11.137-5.098 11.137-11.273 0-6.171-4.966-11.278-11.137-11.278s-11.268 5.107-11.268 11.278c0 6.175 5.098 11.273 11.268 11.273z" />
<glyph unicode="&#xe6dd;" d="M569.56-29.117c6.171 0 11.137-5.098 11.137-11.273 0-6.171-4.966-11.278-11.137-11.278s-11.268 5.107-11.268 11.278c0 6.175 5.098 11.273 11.268 11.273z" />
<glyph unicode="&#xe6de;" d="M626.718-29.117c6.171 0 11.137-5.098 11.137-11.273 0-3.753-1.743-7.112-4.695-9.127-2.685-0.665-5.505-1.345-8.185-2.010-5.369 0.942-9.525 5.501-9.525 11.137 0 6.175 5.098 11.273 11.268 11.273z" />
<glyph unicode="&#xe6df;" d="M683.875-29.117c2.685 0 5.234-1.078 7.112-2.689-5.904-2.282-12.079-4.423-18.114-6.433 0.942 5.234 5.501 9.122 11.001 9.122z" />
<glyph unicode="&#xe6e0;" d="M465.174 342.274l46.956-40.659-0.131-22.007-32.198-87.747-35.159 121.833 20.531 28.581z" />
<glyph unicode="&#xe6e1;" d="M558.826 342.274l-46.825-40.659v-22.007l32.202-87.747 35.154 121.833-20.531 28.581z" />
<glyph unicode="&#xe6e2;" d="M337.714 628.462c36.091 0 47.631-121.828 11.404-121.828-36.096 0-63.332 121.828-11.404 121.828z" />
<glyph unicode="&#xe6e3;" d="M686.291 628.462c-36.091 0-47.631-121.828-11.409-121.828 36.101 0 63.332 121.828 11.409 121.828z" />
<glyph unicode="&#xe6e4;" d="M372.73 641.205c-13.686-23.614-16.905-60.108-15.832-95.534 0.403-15.157-10.603 0.675-22.002 24.022-6.709 13.681-13.555 21.604-18.114 9.389-7.244-19.318-8.991 103.986 55.948 62.123z" />
<glyph unicode="&#xe6e5;" d="M651.54 641.205c13.817-23.614 17.041-60.108 15.968-95.534-0.539-15.157 10.598 0.675 22.002 24.022 6.709 13.681 13.419 21.604 18.118 9.389 7.108-19.318 8.986 103.986-56.088 62.123z" />
<glyph unicode="&#xe6e6;" d="M512 721.039c-49.777-80.368-155.235-153.759-207.031-139.272-14.482 149.2 109.22 262.309 207.031 211.187 97.811 51.122 221.518-61.987 207.031-211.187-51.792-14.487-157.254 58.904-207.031 139.272z" />
<glyph unicode="&#xe6e7;" d="M465.174 342.274l46.825-40.795-32.198-83.315-35.159 100.491 20.531 23.619z" />
<glyph unicode="&#xe6e8;" d="M558.826 342.274l-46.825-40.795 32.202-83.315 35.154 100.491-20.531 23.619z" />
<glyph unicode="&#xe6e9;" d="M517.637 281.895v-345.895h-11.268v345.895h11.268z" />
<glyph unicode="&#xe6ea;" d="M661.199-41.865c10.467 34.076 14.759 72.585 19.051 123.164 1.481-49.369 1.748-86.131-4.292-118.469-4.831-1.612-9.792-3.224-14.759-4.695z" />
<glyph unicode="&#xe6eb;" d="M362.934-41.865c-10.598 34.076-14.89 72.585-19.186 123.164-1.476-49.369-1.743-86.131 4.296-118.469 4.831-1.612 9.792-3.224 14.89-4.695z" />
<glyph unicode="&#xe6ec;" d="M512.673 746.396c9.928-60.778 137.927-141.282 211.187-134.975-79.299 30.858-130.819 54.875-211.187 134.975z" />
<glyph unicode="&#xe6ed;" d="M513.34 750.020c9.263-41.995 127.601-97.544 195.355-93.248-73.391 21.332-121.022 37.97-195.355 93.248z" />
<glyph unicode="&#xe6ee;" d="M512.673 746.396c-5.768-65.478-123.173-127.329-191.602-116.323 79.299 31.261 111.235 40.514 191.602 116.323z" />
<glyph unicode="&#xe6ef;" d="M513.34 750.020c-5.365-45.214-113.915-88.019-177.106-80.368 73.26 21.599 102.778 28.042 177.106 80.368z" />
<glyph unicode="&#xe6f0;" d="M512.005-63.998c281.993 0 511.995 230.003 511.995 511.997 0 282.003-230.002 512.001-511.995 512.001-282.003 0-512.005-229.998-512.005-512.001 0-281.994 230.002-511.997 512.005-511.997z" />
<glyph unicode="&#xe6f1;" d="M512.005 297.909c83.794 0 152.144 128.988 152.144 287.139 0 158.155-68.349 287.144-152.144 287.144-83.804 0-152.144-128.988-152.144-287.144 0-158.151 68.34-287.139 152.144-287.139z" />
<glyph unicode="&#xe6f2;" d="M512.005 565.223c83.794 0 152.144 68.87 152.144 153.308 0 84.443-68.349 153.304-152.144 153.304-83.804 0-152.144-68.861-152.144-153.304 0-84.438 68.34-153.308 152.144-153.308z" />
<glyph unicode="&#xe6f3;" d="M698.833 669.777c37.772-144.306-105.53-268.864-183.573-268.864s-223.792 119.285-187.866 262.303c31.533 125.571 100.143 161.824 188.169 159.869 88.031-1.955 156.285-50.216 183.27-153.308z" />
<glyph unicode="&#xe6f4;" d="M466.929 264.796h90.156v211.671h-90.156v-211.671z" />
<glyph unicode="&#xe6f5;" d="M466.927 476.463h90.156v-90.62c-15.189-5.656-30.464-8.766-45.080-8.766-14.631 0-29.905 3.096-45.076 8.733v90.653z" />
<glyph unicode="&#xe6f6;" d="M512.005 394.147c63.427 0 154.472 77.097 164.521 135.577 18.801 109.345-2.201 256.401-164.521 256.401s-183.322-147.056-164.531-256.401c10.058-58.481 101.095-135.577 164.531-135.577z" />
<glyph unicode="&#xe6f7;" d="M512.005 313.177c133.598 4.606 187.066 36.702 239.256-41.478 55.579-83.25 13.395-193.916-13.064-283.106-68.207-33.659-144.987-52.592-226.192-52.592-81.215 0-157.984 18.933-226.201 52.587-26.45 89.195-68.643 199.861-13.064 283.111 52.19 78.181 105.667 46.084 239.265 41.478z" />
<glyph unicode="&#xe6f8;" d="M646.683 323.424c44.891 1.496 74.948-7.337 104.578-51.726 55.579-83.25 13.395-193.916-13.064-283.106-68.207-33.659-144.987-52.592-226.192-52.592-81.215 0-157.984 18.933-226.201 52.587-26.45 89.195-68.643 199.861-13.064 283.111 34.411 51.546 69.381 55.148 127.507 50.306-58.584-55.678-60.724-167.338-49.085-219.604 34.198 46.803 140.395 34.227 162.055-26.1 19.994 62.807 126.531 76.406 162.041 26.1 15.753 51.783 21.272 167.968-31.060 219.268 0 0 0.885 0.634 2.485 1.756z" />
<glyph unicode="&#xe6f9;" d="M397.212 776.351c30.251-101.1 221.35-215.628 305.272-194.517 20.893 169.601-173.060 288.782-305.272 194.517z" />
<glyph unicode="&#xe6fa;" d="M554.142 785.189c-135.974-43.069-209.332-191.080-220.801-233.969-16.922 168.995 113.794 324.424 220.801 233.969z" />
<glyph unicode="&#xe6fb;" d="M337.722 628.457c36.139 0 47.594-121.879 11.455-121.879s-63.346 121.879-11.455 121.879z" />
<glyph unicode="&#xe6fc;" d="M686.288 628.457c-36.139 0-47.603-121.879-11.464-121.879s63.356 121.879 11.464 121.879z" />
<glyph unicode="&#xe6fd;" d="M423.061 784.967c-27.264-75.298 90.028-170.121 195.056-216.181 43.996-19.293 108.748-15.71 64.383-103.542 85.224 93.583-29.872 121.931-56.738 152.281-91.188 103.045-100.574 240.26-202.7 167.442z" />
<glyph unicode="&#xe6fe;" d="M457.692 303.807c6.371 0 11.564 5.192 11.564 11.554 0 6.371-5.192 11.564-11.564 11.564s-11.554-5.192-11.554-11.564c0-6.362 5.183-11.554 11.554-11.554z" />
<glyph unicode="&#xe6ff;" d="M479.38 282.114c6.371 0 11.564 5.197 11.564 11.559 0 6.371-5.192 11.564-11.564 11.564s-11.554-5.192-11.554-11.564c0-6.362 5.183-11.559 11.554-11.559z" />
<glyph unicode="&#xe700;" d="M510.146 273.036c6.371 0 11.564 5.192 11.564 11.559 0 6.371-5.192 11.564-11.564 11.564-6.362 0-11.554-5.192-11.554-11.564 0-6.366 5.192-11.559 11.554-11.559z" />
<glyph unicode="&#xe701;" d="M565.551 303.807c6.371 0 11.554 5.192 11.554 11.554 0 6.371-5.183 11.564-11.554 11.564s-11.554-5.192-11.554-11.564c0-6.362 5.183-11.554 11.554-11.554z" />
<glyph unicode="&#xe702;" d="M543.862 282.114c6.371 0 11.554 5.197 11.554 11.559 0 6.371-5.183 11.564-11.554 11.564s-11.564-5.192-11.564-11.564c0-6.362 5.192-11.559 11.564-11.559z" />
<glyph unicode="&#xe703;" d="M707.587 156.759c77.47 58.769 43.637 117.269-34.733 114.878-80.097-2.452-140.66-6.844-115.773 132.837 39.911-3.843 88.244 52.829 77.381 10.158-15.44-60.686 40.418-74.186 83.804-70.868 79.354 6.078 149.606-141.589-10.678-187.005z" />
<glyph unicode="&#xe704;" d="M661.133-41.912c10.494 34.156 14.82 72.6 19.080 123.214 1.491-49.317 1.784-86.114-4.203-118.438-4.927-1.671-9.883-3.261-14.877-4.776z" />
<glyph unicode="&#xe705;" d="M362.868-41.912c-10.494 34.156-14.811 72.6-19.071 123.214-1.5-49.317-1.794-86.114 4.203-118.443 4.918-1.666 9.883-3.257 14.867-4.771z" />
<glyph unicode="&#xe706;" d="M1000.69 459.653c0-276.334-224.011-500.345-500.345-500.345s-500.345 224.011-500.345 500.345c0 276.334 224.011 500.345 500.345 500.345s500.345-224.011 500.345-500.345z" horiz-adv-x="1001" />
<glyph unicode="&#xe707;" d="M713.196 595.286c0-127.364-96.929-230.611-216.506-230.611-119.572 0-216.506 103.247-216.506 230.611s96.934 230.611 216.506 230.611c119.577 0 216.506-103.247 216.506-230.611z" horiz-adv-x="1001" />
<glyph unicode="&#xe708;" d="M561.558 213.028v161.574c0 35.365-27.854 61.984-63.214 61.984h-0.937c-35.359 0-63.597-26.619-63.597-61.984v-161.574h127.748z" horiz-adv-x="1001" />
<glyph unicode="&#xe709;" d="M498.344 463.201h-0.937c-35.359 0-63.597-28.429-63.597-63.794v-120.748c15.968-7.697 40.539-11.939 62.687-11.939 23.032 0 49.092 4.562 65.061 12.86v119.827c0 35.365-27.854 63.794-63.214 63.794z" horiz-adv-x="1001" />
<glyph unicode="&#xe70a;" d="M694.41 538.024c0-125.182-88.519-226.656-197.722-226.656-109.198 0-197.716 101.474-197.716 226.656 0 125.177 88.519 226.651 197.716 226.651 109.203 0 197.722-101.474 197.722-226.651z" horiz-adv-x="1001" />
<glyph unicode="&#xe70b;" d="M348.645 502.064c0-18.523-15.016-33.539-33.544-33.539h-2.108c-18.529 0-33.544 15.016-33.544 33.539v44.696c0 18.523 15.016 33.544 33.544 33.544h2.108c18.529 0 33.544-15.021 33.544-33.544v-44.696z" horiz-adv-x="1001" />
<glyph unicode="&#xe70c;" d="M710.597 502.064c0-18.523-15.016-33.539-33.539-33.539h-2.118c-18.523 0-33.539 15.016-33.539 33.539v44.696c0 18.523 15.016 33.544 33.539 33.544h2.118c18.523 0 33.539-15.021 33.539-33.544v-44.696z" horiz-adv-x="1001" />
<glyph unicode="&#xe70d;" d="M614.786 184.551c0-34.247-27.764-62.011-62.011-62.011h-99.537c-34.247 0-62.011 27.764-62.011 62.011v3.726c0 34.247 27.764 62.011 62.011 62.011h99.537c34.247 0 62.011-27.764 62.011-62.011v-3.726z" horiz-adv-x="1001" />
<glyph unicode="&#xe70e;" d="M496.691 825.898c-60.664 0-115.479-26.614-154.782-69.436 39.304-46.085 94.118-74.722 154.782-74.722s115.479 28.637 154.782 74.722c-39.304 42.822-94.118 69.436-154.782 69.436z" horiz-adv-x="1001" />
<glyph unicode="&#xe70f;" d="M582.849 370.052c0-48.507-39.32-87.827-87.827-87.827s-87.827 39.32-87.827 87.827v26.614c0 48.507 39.32 87.827 87.827 87.827s87.827-39.32 87.827-87.827v-26.614z" horiz-adv-x="1001" />
<glyph unicode="&#xe710;" d="M545.589 406.189c0-21.424-17.374-38.798-38.798-38.798h-23.538c-21.424 0-38.798 17.374-38.798 38.798v2.246c0 21.424 17.374 38.798 38.798 38.798h23.538c21.424 0 38.798-17.374 38.798-38.798v-2.246z" horiz-adv-x="1001" />
<glyph unicode="&#xe711;" d="M513.652 356.744c0-8.82-8.511-15.968-18.63-15.968s-18.63 7.149-18.63 15.968v15.968c0 8.82 8.511 15.968 18.63 15.968s18.63-7.149 18.63-15.968v-15.968z" horiz-adv-x="1001" />
<glyph unicode="&#xe712;" d="M811.73-64c0 0 0 0 0 0v0c0 0 0 0-633.416 0v106.941c0 93.937 76.148 170.085 170.085 170.085h293.245c93.937 0 170.085-76.148 170.085-170.085v-106.941z" horiz-adv-x="1001" />
<glyph unicode="&#xe713;" d="M1018.341 450.83c0-281.208-227.967-509.17-509.17-509.17s-509.17 227.962-509.17 509.17c0 281.203 227.967 509.17 509.17 509.17s509.17-227.967 509.17-509.17z" horiz-adv-x="1018" />
<glyph unicode="&#xe714;" d="M733.9 606.91c0-129.611-98.644-234.673-220.324-234.673s-220.324 105.062-220.324 234.673c0 129.611 98.644 234.684 220.324 234.684s220.324-105.073 220.324-234.684z" horiz-adv-x="1018" />
<glyph unicode="&#xe715;" d="M834.173-64c0 0 0 0 0 0v0c0 0 0 0-644.588 0v108.827c0 95.594 77.491 173.085 173.085 173.085h298.417c95.594 0 173.085-77.491 173.085-173.085v-108.827z" horiz-adv-x="1018" />
<glyph unicode="&#xe716;" d="M579.587 217.912v164.424c0 35.989-28.346 63.078-64.329 63.078h-0.953c-35.983 0-64.719-27.089-64.719-63.078v-164.424h130.001z" horiz-adv-x="1018" />
<glyph unicode="&#xe717;" d="M515.259 472.497h-0.953c-35.983 0-64.719-28.936-64.719-64.914v-122.883c16.25-7.833 41.254-12.144 63.793-12.144 23.438 0 49.958 4.631 66.208 13.081v121.946c0 35.978-28.346 64.914-64.329 64.914z" horiz-adv-x="1018" />
<glyph unicode="&#xe718;" d="M714.783 548.638c0-127.39-90.085-230.654-201.209-230.654-111.118 0-201.204 103.264-201.204 230.654s90.085 230.654 201.204 230.654c111.124 0 201.209-103.264 201.209-230.654z" horiz-adv-x="1018" />
<glyph unicode="&#xe719;" d="M362.919 512.043c0-18.845-15.281-34.131-34.136-34.131h-2.145c-18.856 0-34.136 15.286-34.136 34.131v45.489c0 18.85 15.281 34.131 34.136 34.131h2.145c18.856 0 34.136-15.281 34.136-34.131v-45.489z" horiz-adv-x="1018" />
<glyph unicode="&#xe71a;" d="M731.255 512.043c0-18.845-15.281-34.131-34.131-34.131h-2.156c-18.85 0-34.131 15.286-34.131 34.131v45.489c0 18.85 15.281 34.131 34.131 34.131h2.156c18.85 0 34.131-15.281 34.131-34.131v-45.489z" horiz-adv-x="1018" />
<glyph unicode="&#xe71b;" d="M326.060 525.326l-19.728 115.305c-0.921 8.932 12.523 25.534 21.445 26.455 8.927 0.921 16.911 41.692 17.832 32.766l12.783-214.805-32.332 40.279z" horiz-adv-x="1018" />
<glyph unicode="&#xe71c;" d="M701.538 525.326l19.728 115.305c0.921 8.932-12.523 25.534-21.445 26.455-8.927 0.921-16.911 41.692-17.832 32.766l-12.783-214.805 32.332 40.279z" horiz-adv-x="1018" />
<glyph unicode="&#xe71d;" d="M315.883 591.665c0 0 261.464 45.95 282.541 176.438 0 0-74.274 50.186-157.588 19.072s-135.125-129.172-124.953-195.511z" horiz-adv-x="1018" />
<glyph unicode="&#xe71e;" d="M598.424 768.104c0 0-10.151-122.423 89.484-195.007 0 0 20.546 100.929 8.136 128.035s-97.62 66.972-97.62 66.972z" horiz-adv-x="1018" />
<glyph unicode="&#xe71f;" d="M498.337 557.461c0-22.988-58.262-57.883-81.251-57.883h-7.118c-22.994 0-41.633 18.644-41.633 41.633v3.407c0 22.988 18.639 41.627 41.633 41.627h46.735c22.994 0 41.633-2.389 41.633-25.377v-3.407z" horiz-adv-x="1018" />
<glyph unicode="&#xe720;" d="M530.837 557.461c0-22.988 58.262-57.883 81.251-57.883h7.118c22.994 0 41.633 18.644 41.633 41.633v3.407c0 22.988-18.639 41.627-41.633 41.627h-46.735c-22.994 0-41.633-2.389-41.633-25.377v-3.407z" horiz-adv-x="1018" />
<glyph unicode="&#xe721;" d="M606.671 558.805c0-2.183-6.668-5.059-14.896-5.059h-154.376c-8.228 0-14.896 2.876-14.896 5.059v0.72c0 2.183 6.668 5.054 14.896 5.054h154.376c8.228 0 14.896-2.871 14.896-5.054v-0.72z" horiz-adv-x="1018" />
<glyph unicode="&#xe722;" d="M579.587 185.412h-130.001v97.501l65-48.75 65 48.75v-97.501z" horiz-adv-x="1018" />
<glyph unicode="&#xe723;" d="M422.503 0.16l-65-40.495-65 40.495v130.001h130.001v-130.001z" horiz-adv-x="1018" />
<glyph unicode="&#xe724;" d="M422.503-16.090l-65-40.495-65 40.495v130.001h130.001v-130.001z" horiz-adv-x="1018" />
<glyph unicode="&#xe725;" d="M954.25 482.876c0-263.51-213.62-477.125-477.125-477.125s-477.125 213.615-477.125 477.125c0 263.51 213.62 477.125 477.125 477.125s477.125-213.615 477.125-477.125z" horiz-adv-x="954" />
<glyph unicode="&#xe726;" d="M666.397 562.396c0-127.083-385.233-336.444-368.315-256.922 14.593 68.559 9.004 129.839 9.004 256.922s65.904 230.101 147.198 230.101c81.294 0 212.113-103.018 212.113-230.101z" horiz-adv-x="954" />
<glyph unicode="&#xe727;" d="M685.174 637.591c0-121.454-92.435-219.904-206.458-219.904s-206.458 98.45-206.458 219.904c0 121.454 92.435 219.914 206.458 219.914s206.458-98.46 206.458-219.914z" horiz-adv-x="954" />
<glyph unicode="&#xe728;" d="M216.372-64c0 0 0 0 0 0v0c0 0 0 0 531.956 0v129.749c0 113.972-63.951 206.362-142.841 206.362h-246.273c-78.89 0-142.841-92.389-142.841-206.362v-129.749z" horiz-adv-x="954" />
<glyph unicode="&#xe729;" d="M540.573 273.075v154.076c0 33.724-26.562 59.108-60.28 59.108h-0.893c-33.719 0-60.646-25.384-60.646-59.108v-154.076h121.819z" horiz-adv-x="954" />
<glyph unicode="&#xe72a;" d="M480.292 511.638h-0.893c-33.719 0-60.646-27.115-60.646-60.828v-115.15c15.227-7.34 38.657-11.38 59.778-11.38 21.963 0 46.814 4.34 62.042 12.258v114.271c0 33.713-26.562 60.828-60.28 60.828z" horiz-adv-x="954" />
<glyph unicode="&#xe72b;" d="M667.26 582.986c0-119.373-84.416-216.138-188.546-216.138-104.125 0-188.541 96.765-188.541 216.138s84.416 216.138 188.541 216.138c104.13 0 188.546-96.765 188.546-216.138z" horiz-adv-x="954" />
<glyph unicode="&#xe72c;" d="M337.541 548.695c0-17.659-14.319-31.983-31.988-31.983h-2.010c-17.669 0-31.988 14.324-31.988 31.983v42.627c0 17.664 14.319 31.983 31.988 31.983h2.010c17.669 0 31.988-14.319 31.988-31.983v-42.627z" horiz-adv-x="954" />
<glyph unicode="&#xe72d;" d="M682.695 548.695c0-17.659-14.319-31.983-31.983-31.983h-2.020c-17.664 0-31.983 14.324-31.983 31.983v42.627c0 17.664 14.319 31.983 31.983 31.983h2.020c17.664 0 31.983-14.319 31.983-31.983v-42.627z" horiz-adv-x="954" />
<glyph unicode="&#xe72e;" d="M414.654 273.075l59.544-323.716h10.152l59.549 323.716h-129.245z" horiz-adv-x="954" />
<glyph unicode="&#xe72f;" d="M414.654 273.075l-110.104-87.57 88.436-47.248-55.443-17.723 136.656-171.279-59.544 323.82z" horiz-adv-x="954" />
<glyph unicode="&#xe730;" d="M543.899 273.075l110.104-87.57-88.436-47.248 55.443-17.723-136.656-171.279 59.544 323.82z" horiz-adv-x="954" />
<glyph unicode="&#xe731;" d="M291.571 620.976c99.080-0.579 183.353 69.264 187.84 155.451 0.401 7.675 8.766 27.562 7.949 35.008l-4.446 6.68c-53.463 75.178-213.468-114.084-191.342-197.139z" horiz-adv-x="954" />
<glyph unicode="&#xe732;" d="M667.26 619.573c18.968 145.051-170.572 222.625-187.084 179.511-0.081-1.051-0.203-2.091-0.259-3.147-4.634-89.136 75.574-170.836 179.155-176.227 1.558-0.076 6.634-0.091 8.187-0.137z" horiz-adv-x="954" />
<glyph unicode="&#xe733;" d="M310.457 336.954c-0.675-0.827-1.36-1.624-2.020-2.467-59.92-75.969-67.483-172.065-21.334-226.431 0.67 0.827 1.365 1.629 2.025 2.472 59.92 75.964 67.488 172.059 21.329 226.426z" horiz-adv-x="954" />
<glyph unicode="&#xe734;" d="M520.269 434.74c0-16.4-13.294-29.693-29.699-29.693h-26.892c-16.405 0-29.699 13.294-29.699 29.693v1.523c0 16.4 13.294 29.693 29.699 29.693h26.892c16.405 0 29.699-13.294 29.699-29.693v-1.523zM487.033 476.108h-20.593c-34.13 0-62.915-30.231-62.915-64.752s28.785-62.143 62.915-62.143h20.593c34.13 0 63.691 28.115 63.691 62.635s-29.561 64.26-63.691 64.26z" horiz-adv-x="954" />
<glyph unicode="&#xe735;" d="M383.223 255.634l0.503-1.6h-0.503v1.6z" horiz-adv-x="954" />
<glyph unicode="&#xe736;" d="M1004.668 457.665c0-277.434-224.907-502.336-502.332-502.336-277.434 0-502.336 224.902-502.336 502.336 0 277.429 224.902 502.336 502.336 502.336 277.425 0 502.332-224.907 502.332-502.336z" horiz-adv-x="1005" />
<glyph unicode="&#xe737;" d="M123.202-64c0 0 0 0 0 0v0c0 0 0 0 753.272 0v122.602c0 107.694-90.557 194.993-202.269 194.993h-348.733c-111.712 0-202.269-87.3-202.269-194.993v-122.602z" horiz-adv-x="1005" />
<glyph unicode="&#xe738;" d="M576.784 243.556v184.471c0 39.859-32.868 73.335-72.727 73.335h-1.053c-39.855 0-70.416-33.475-70.416-73.335v-184.471h144.196z" horiz-adv-x="1005" />
<glyph unicode="&#xe739;" d="M431.32 218.75h143.986v81.043h-143.986v-81.043z" horiz-adv-x="1005" />
<glyph unicode="&#xe73a;" d="M504.058 527.579h-1.053c-39.859 0-70.416-31.745-70.416-71.596v-136.099c13.109-8.682 45.793-13.454 70.761-13.454 25.955 0 55.957 5.134 73.435 14.49v135.064c0 39.851-32.872 71.596-72.727 71.596z" horiz-adv-x="1005" />
<glyph unicode="&#xe73b;" d="M725.053 579.875c0-141.094-99.779-255.472-222.853-255.472-123.078 0-222.857 114.378-222.857 255.472s99.779 255.472 222.857 255.472c123.074 0 222.853-114.378 222.853-255.472z" horiz-adv-x="1005" />
<glyph unicode="&#xe73c;" d="M336.457 539.162c0-20.878-16.928-37.801-37.806-37.801h-3.041c-20.878 0-37.806 16.923-37.806 37.801v51.115c0 20.878 16.928 37.801 37.806 37.801h3.041c20.878 0 37.806-16.923 37.806-37.801v-51.115z" horiz-adv-x="1005" />
<glyph unicode="&#xe73d;" d="M742.828 539.162c0-20.878-16.923-37.801-37.801-37.801h-3.050c-20.878 0-37.801 16.923-37.801 37.801v51.115c0 20.878 16.923 37.801 37.801 37.801h3.050c20.878 0 37.801-16.923 37.801-37.801v-51.115z" horiz-adv-x="1005" />
<glyph unicode="&#xe73e;" d="M559.305 441.049c0-17.369-14.079-31.448-31.448-31.448h-55.083c-17.369 0-31.448 14.079-31.448 31.448v2.644c0 17.373 14.079 31.452 31.448 31.452h55.083c17.369 0 31.448-14.079 31.448-31.452v-2.644zM646.697 388.964c0 76.555-62.061 138.616-138.616 138.616h-6.79c-76.555 0-138.616-62.061-138.616-138.616v-76.708c0-76.551 62.061-138.612 138.616-138.612h6.79c76.555 0 138.616 62.061 138.616 138.612v76.708z" horiz-adv-x="1005" />
<glyph unicode="&#xe73f;" d="M0 462.364c0 274.835 222.795 497.635 497.635 497.635 274.831 0 497.63-222.799 497.63-497.635s-222.799-497.635-497.63-497.635c-274.84 0-497.635 222.799-497.635 497.635z" horiz-adv-x="995" />
<glyph unicode="&#xe740;" d="M704.484 583.834c0-35.88-21.589-64.968-48.224-64.968-26.625 0-48.219 29.087-48.219 64.968 0 35.89 21.594 64.972 48.219 64.972 26.635 0 48.224-29.083 48.224-64.972z" horiz-adv-x="995" />
<glyph unicode="&#xe741;" d="M382.523 583.834c0-35.88-21.589-64.968-48.214-64.968-26.635 0-48.228 29.087-48.228 64.968 0 35.89 21.594 64.972 48.228 64.972 26.625 0 48.214-29.083 48.214-64.972z" horiz-adv-x="995" />
<glyph unicode="&#xe742;" d="M551.15 375.55l14.875-70.672c0 0 133.304-6.508 160.934-37.193 31.975-35.502 23.36-189.685 23.36-189.685h-502.213c0 0-12.768 153.888 18.688 189.685 27.256 31.017 160.934 37.193 160.934 37.193l14.875 70.672z" horiz-adv-x="995" />
<glyph unicode="&#xe743;" d="M331.798 546.641c0 52.858-19.58 138.032 19.318 199.641 27.602 43.729 106.814 75.592 144.334 75.592 37.707 0 124.521-31.526 152.188-75.592 38.66-61.557 11.47-146.969 11.47-199.641 0-90.388-73.274-200.846-163.657-200.846-90.378 0-163.653 110.458-163.653 200.846z" horiz-adv-x="995" />
<glyph unicode="&#xe744;" d="M729.244 269.145c-25.485 28.303-139.91 36.24-159.598 37.399-10.909-28.737-38.627-49.205-71.181-49.205-32.755 0-60.609 20.711-71.373 49.714l-0.070-0.341c0 0-135.019-6.242-162.546-37.567-31.769-36.156-18.875-333.145-18.875-333.145h507.235c0 0 8.699 297.288-23.593 333.145z" horiz-adv-x="995" />
<glyph unicode="&#xe745;" d="M724.431 861.857h-454.737l46.719-231.302h10.502l7.396 52.213h327.049l6.774-50.616h9.577l46.719 229.704z" horiz-adv-x="995" />
<glyph unicode="&#xe746;" d="M476.463 126.549c0 17.996 9.82 32.587 21.925 32.587 12.11 0 21.93-14.59 21.93-32.587s-9.82-32.587-21.93-32.587c-12.105 0-21.925 14.59-21.925 32.587z" horiz-adv-x="995" />
<glyph unicode="&#xe747;" d="M505.453 119.827c0 2.691-1.35 3.976-5.331 5.153v-9.634c3.588 0.276 5.331 2.014 5.331 4.48zM492.787 134.113c0-2.355 1.233-3.476 4.48-4.48v8.512c-2.803-0.276-4.48-1.621-4.48-4.032zM487.578 118.425l3.018 1.626c1.233-2.243 3.368-4.149 6.672-4.653v10.479c-5.438 1.514-8.176 3.868-8.176 8.068 0 3.924 3.196 6.947 8.176 7.284v5.943h2.855v-5.999c3.761-0.561 6.335-2.747 7.569-4.873l-2.803-1.794c-0.892 1.57-2.355 3.027-4.765 3.527v-9.297l0.341-0.112c5.882-1.738 8.741-4.205 8.741-8.517 0-4.597-3.252-7.569-9.082-7.9v-6.279h-2.855v6.335c-4.98 0.505-8.349 3.359-9.69 6.162z" horiz-adv-x="995" />
<glyph unicode="&#xe748;" d="M517.443 469.522c-7.91 0-15.076-3.126-20.374-8.185-5.303 5.060-12.474 8.185-20.388 8.185-16.314 0-29.545-13.226-29.545-29.545h99.853c0 16.319-13.222 29.545-29.545 29.545z" horiz-adv-x="995" />
<glyph unicode="&#xe749;" d="M447.136 439.976c5.312-21.425 26.854-37.329 49.934-37.329 23.065 0 44.617 15.903 49.919 37.329h-99.853z" horiz-adv-x="995" />
<glyph unicode="&#xe74a;" d="M0 466.911c0 272.323 220.762 493.090 493.095 493.090 272.323 0 493.090-220.767 493.090-493.090 0-272.328-220.767-493.099-493.090-493.099-272.333 0-493.095 220.771-493.095 493.099z" horiz-adv-x="986" />
<glyph unicode="&#xe74b;" d="M308.513 606.78c-2.893 164.456 58.602 228.095 184.58 228.095 196.759-23.008 183.723-120.404 184.612-228.090 1.042-125.973-55.45-75.115-181.413-75.115-125.977 0-185.561-50.848-187.778 75.11z" horiz-adv-x="986" />
<glyph unicode="&#xe74c;" d="M545.299 369.61l14.74-70.027c0 0 132.088-6.449 159.466-36.854 31.683-35.178 23.147-290.544 23.147-290.544h-497.632c0 0-12.652 255.084 18.517 290.544 27.007 30.743 159.466 36.854 159.466 36.854l14.74 70.027z" horiz-adv-x="986" />
<glyph unicode="&#xe74d;" d="M378.21 575.998c0-35.553-21.392-64.37-47.774-64.37-26.392 0-47.788 28.817-47.788 64.37 0 35.558 21.397 64.38 47.788 64.38 26.382 0 47.774-28.822 47.774-64.38z" horiz-adv-x="986" />
<glyph unicode="&#xe74e;" d="M696.475 575.998c0-35.553-21.392-64.37-47.774-64.37-26.392 0-47.788 28.817-47.788 64.37 0 35.558 21.397 64.38 47.788 64.38 26.382 0 47.774-28.822 47.774-64.38z" horiz-adv-x="986" />
<glyph unicode="&#xe74f;" d="M327.948 539.14c0 52.385-19.401 136.773 19.142 197.824 27.35 43.34 105.84 74.902 143.018 74.902 37.363 0 123.385-31.239 150.8-74.902 38.307-60.996 11.365-145.629 11.365-197.824 0-89.558-72.606-199.014-162.164-199.014-89.554 0-162.16 109.455-162.16 199.014z" horiz-adv-x="986" />
<glyph unicode="&#xe750;" d="M719.667 266.102c-25.253 28.049-138.634 35.914-158.142 37.062-10.809-28.475-38.275-48.756-70.532-48.756-32.456 0-60.056 20.517-70.722 49.256l-0.069-0.338c0 0-133.787-6.185-161.063-37.224-31.479-35.822-18.702-330.102-18.702-330.102h502.608c0 0 8.62 294.572-23.378 330.102z" horiz-adv-x="986" />
<glyph unicode="&#xe751;" d="M643.071 739.348c-27.956 44.548-115.705 77.249-153.809 76.411-111.835-2.444-150.040-36.609-159.618-76.411-12.453-51.728-4.717-147.777-4.717-147.777s73.425 80.684 114.159 80.684c53.617 0 68.217-61.098 99.183-75.916 30.090-14.393 92.146 5.064 125.362 41.196 1.727 35.243-1.454 71.412-20.559 101.812z" horiz-adv-x="986" />
<glyph unicode="&#xe752;" d="M490.114 402.702c-18.813 0-34.072 15.258-34.072 34.072h68.143c0-18.813-15.258-34.072-34.072-34.072zM552.438 445.153c-7.254 21.841-31.405 28.646-60.162 28.646-28.762 0-52.922-6.805-60.172-28.646l-75.948-9.259 23.012-34.317c29.262-36.173 68.514-61.389 111.691-61.389 44.585 0 84.98 26.878 114.51 64.94l18.702 30.766-71.634 9.259z" horiz-adv-x="986" />
<glyph unicode="&#xe753;" d="M512.002-63.998c281.997 0 511.998 230 511.998 512.001 0 281.992-230 511.997-511.998 511.997-282.002 0-512.002-230.005-512.002-511.997 0-282.002 230-512.001 512.002-512.001z" />
<glyph unicode="&#xe754;" d="M705.148 509.968l149.010-442.814c-90.654-81.504-210.553-131.122-342.051-131.151h-0.223c-131.493 0.030-251.387 49.647-342.046 131.146l149.015 442.814 386.294 0.005z" />
<glyph unicode="&#xe755;" d="M642.583 380.818l112.58-383.488c-72.32-39.102-155.121-61.32-243.108-61.33h-0.109c-87.992 0.010-170.788 22.223-243.108 61.33l112.58 383.488h261.165z" />
<glyph unicode="&#xe756;" d="M287.108 792.532l134.883-211.488-168.556-37.083 33.674 248.571z" />
<glyph unicode="&#xe757;" d="M736.989 792.532l-134.888-211.493 168.561-37.078-33.674 248.571z" />
<glyph unicode="&#xe758;" d="M758.227 635.078l33.698-248.774-272.813-84.068-287.035 84.068 33.698 248.774 246.226 80.203 246.226-80.203z" />
<glyph unicode="&#xe759;" d="M398.552 629.081c66.521 0 120.453-53.328 120.453-119.117 0-65.783-53.932-119.117-120.453-119.117-66.516 0-120.443 53.333-120.443 119.117 0 65.788 53.927 119.117 120.443 119.117z" />
<glyph unicode="&#xe75a;" d="M625.443 629.081c66.521 0 120.453-53.328 120.453-119.117 0-65.783-53.932-119.117-120.453-119.117s-120.443 53.333-120.443 119.117c0 65.788 53.922 119.117 120.443 119.117z" />
<glyph unicode="&#xe75b;" d="M479.823 440.227c5.23 76.012 60.36 73.429 64.353 0l-32.174-68.198-32.179 68.198z" />
<glyph unicode="&#xe75c;" d="M398.557 540.078c16.627 0 30.111-13.484 30.111-30.116 0-16.622-13.484-30.106-30.111-30.106s-30.111 13.484-30.111 30.106c0 16.631 13.484 30.116 30.111 30.116z" />
<glyph unicode="&#xe75d;" d="M414.282 540.078c7.937 0 14.385-6.448 14.385-14.39 0-7.947-6.448-14.38-14.385-14.38-7.947 0-14.385 6.433-14.385 14.38 0 7.942 6.438 14.39 14.385 14.39z" />
<glyph unicode="&#xe75e;" d="M625.443 540.078c16.631 0 30.111-13.484 30.111-30.116 0-16.622-13.479-30.106-30.111-30.106-16.622 0-30.111 13.484-30.111 30.106 0 16.631 13.489 30.116 30.111 30.116z" />
<glyph unicode="&#xe75f;" d="M641.172 540.078c7.937 0 14.38-6.448 14.38-14.39 0-7.947-6.443-14.38-14.38-14.38-7.947 0-14.385 6.433-14.385 14.38 0 7.942 6.438 14.39 14.385 14.39z" />
<glyph unicode="&#xe760;" d="M442.223 222.886c2.895-3.533 4.632-8.046 4.632-12.97 0-11.307-9.169-20.481-20.486-20.481-11.302 0-20.476 9.174-20.476 20.481 0 4.924 1.742 9.437 4.632 12.97 3.761-4.582 9.461-7.507 15.845-7.507 6.393 0 12.099 2.924 15.855 7.507z" />
<glyph unicode="&#xe761;" d="M502.749 222.886c2.895-3.533 4.637-8.046 4.637-12.97 0-11.307-9.174-20.481-20.486-20.481-11.307 0-20.476 9.174-20.476 20.481 0 4.924 1.737 9.437 4.632 12.97 3.756-4.582 9.461-7.507 15.845-7.507 6.393 0 12.094 2.924 15.85 7.507z" />
<glyph unicode="&#xe762;" d="M563.279 222.886c2.895-3.533 4.632-8.046 4.632-12.97 0-11.307-9.169-20.481-20.476-20.481-11.312 0-20.486 9.174-20.486 20.481 0 4.924 1.742 9.437 4.637 12.97 3.756-4.582 9.456-7.507 15.85-7.507 6.388 0 12.084 2.924 15.845 7.507z" />
<glyph unicode="&#xe763;" d="M623.809 222.886c2.895-3.533 4.632-8.046 4.632-12.97 0-11.307-9.169-20.481-20.481-20.481-11.307 0-20.481 9.174-20.481 20.481 0 4.924 1.742 9.437 4.632 12.97 3.761-4.582 9.461-7.507 15.85-7.507s12.089 2.924 15.85 7.507z" />
<glyph unicode="&#xe764;" d="M473.536 271.712c2.895-3.533 4.632-8.046 4.632-12.97 0-11.312-9.169-20.481-20.481-20.481s-20.481 9.169-20.481 20.481c0 4.924 1.742 9.437 4.637 12.97 3.756-4.582 9.456-7.512 15.845-7.512s12.094 2.929 15.85 7.512z" />
<glyph unicode="&#xe765;" d="M534.062 271.712c2.895-3.533 4.637-8.046 4.637-12.97 0-11.312-9.169-20.481-20.481-20.481-11.307 0-20.481 9.169-20.481 20.481 0 4.924 1.737 9.437 4.637 12.97 3.751-4.582 9.456-7.512 15.845-7.512s12.094 2.929 15.845 7.512z" />
<glyph unicode="&#xe766;" d="M594.593 271.712c2.895-3.533 4.637-8.046 4.637-12.97 0-11.312-9.174-20.481-20.481-20.481-11.312 0-20.486 9.169-20.486 20.481 0 4.924 1.742 9.437 4.637 12.97 3.756-4.582 9.461-7.512 15.85-7.512s12.089 2.929 15.845 7.512z" />
<glyph unicode="&#xe767;" d="M473.536 168.826c2.895-3.538 4.632-8.051 4.632-12.975 0-11.312-9.169-20.481-20.481-20.481s-20.481 9.169-20.481 20.481c0 4.924 1.742 9.437 4.637 12.975 3.756-4.592 9.456-7.517 15.845-7.517s12.094 2.924 15.85 7.517z" />
<glyph unicode="&#xe768;" d="M534.062 168.826c2.895-3.538 4.637-8.051 4.637-12.975 0-11.312-9.169-20.481-20.481-20.481-11.307 0-20.481 9.169-20.481 20.481 0 4.924 1.737 9.437 4.637 12.975 3.751-4.592 9.456-7.517 15.845-7.517s12.094 2.924 15.845 7.517z" />
<glyph unicode="&#xe769;" d="M594.593 168.826c2.895-3.538 4.637-8.051 4.637-12.975 0-11.312-9.174-20.481-20.481-20.481-11.312 0-20.486 9.169-20.486 20.481 0 4.924 1.742 9.437 4.637 12.975 3.756-4.592 9.461-7.517 15.85-7.517s12.089 2.924 15.845 7.517z" />
<glyph unicode="&#xe76a;" d="M655.123 168.826c2.895-3.538 4.632-8.051 4.632-12.975 0-11.312-9.169-20.481-20.476-20.481-11.317 0-20.486 9.169-20.486 20.481 0 4.924 1.742 9.437 4.637 12.975 3.756-4.592 9.456-7.517 15.85-7.517 6.383 0 12.089 2.924 15.845 7.517z" />
<glyph unicode="&#xe76b;" d="M413.006 168.826c2.895-3.538 4.637-8.051 4.637-12.975 0-11.312-9.174-20.481-20.481-20.481-11.312 0-20.486 9.169-20.486 20.481 0 4.924 1.742 9.437 4.637 12.975 3.756-4.592 9.461-7.517 15.85-7.517s12.089 2.924 15.845 7.517z" />
<glyph unicode="&#xe76c;" d="M442.223 116.559c2.895-3.533 4.632-8.051 4.632-12.97 0-11.312-9.169-20.481-20.486-20.481-11.302 0-20.476 9.169-20.476 20.481 0 4.919 1.742 9.437 4.632 12.97 3.761-4.587 9.461-7.512 15.845-7.512 6.393 0 12.099 2.924 15.855 7.512z" />
<glyph unicode="&#xe76d;" d="M502.749 116.559c2.895-3.533 4.637-8.051 4.637-12.97 0-11.312-9.174-20.481-20.486-20.481-11.307 0-20.476 9.169-20.476 20.481 0 4.919 1.737 9.437 4.632 12.97 3.756-4.587 9.461-7.512 15.845-7.512 6.393 0 12.094 2.924 15.85 7.512z" />
<glyph unicode="&#xe76e;" d="M563.279 116.559c2.895-3.533 4.632-8.051 4.632-12.97 0-11.312-9.169-20.481-20.476-20.481-11.312 0-20.486 9.169-20.486 20.481 0 4.919 1.742 9.437 4.637 12.97 3.756-4.587 9.456-7.512 15.85-7.512 6.388 0 12.084 2.924 15.845 7.512z" />
<glyph unicode="&#xe76f;" d="M623.809 116.559c2.895-3.533 4.632-8.051 4.632-12.97 0-11.312-9.169-20.481-20.481-20.481-11.307 0-20.481 9.169-20.481 20.481 0 4.919 1.742 9.437 4.632 12.97 3.761-4.587 9.461-7.512 15.85-7.512s12.089 2.924 15.85 7.512z" />
<glyph unicode="&#xe770;" d="M381.692 116.559c2.895-3.533 4.632-8.051 4.632-12.97 0-11.312-9.169-20.481-20.476-20.481-11.312 0-20.486 9.169-20.486 20.481 0 4.919 1.742 9.437 4.637 12.97 3.756-4.587 9.456-7.512 15.85-7.512 6.383 0 12.089 2.924 15.845 7.512z" />
<glyph unicode="&#xe771;" d="M684.335 116.559c2.895-3.533 4.637-8.051 4.637-12.97 0-11.312-9.174-20.481-20.481-20.481-11.312 0-20.481 9.169-20.481 20.481 0 4.919 1.742 9.437 4.632 12.97 3.756-4.587 9.461-7.512 15.85-7.512s12.089 2.924 15.845 7.512z" />
<glyph unicode="&#xe772;" d="M473.536 60.136c2.895-3.538 4.632-8.051 4.632-12.975 0-11.312-9.169-20.481-20.481-20.481s-20.481 9.169-20.481 20.481c0 4.924 1.742 9.437 4.637 12.975 3.756-4.592 9.456-7.517 15.845-7.517s12.094 2.924 15.85 7.517z" />
<glyph unicode="&#xe773;" d="M534.062 60.136c2.895-3.538 4.637-8.051 4.637-12.975 0-11.312-9.169-20.481-20.481-20.481-11.307 0-20.481 9.169-20.481 20.481 0 4.924 1.737 9.437 4.637 12.975 3.751-4.592 9.456-7.517 15.845-7.517s12.094 2.924 15.845 7.517z" />
<glyph unicode="&#xe774;" d="M594.593 60.136c2.895-3.538 4.637-8.051 4.637-12.975 0-11.312-9.174-20.481-20.481-20.481-11.312 0-20.486 9.169-20.486 20.481 0 4.924 1.742 9.437 4.637 12.975 3.756-4.592 9.461-7.517 15.85-7.517s12.089 2.924 15.845 7.517z" />
<glyph unicode="&#xe775;" d="M655.123 60.136c2.895-3.538 4.632-8.051 4.632-12.975 0-11.312-9.169-20.481-20.476-20.481-11.317 0-20.486 9.169-20.486 20.481 0 4.924 1.742 9.437 4.637 12.975 3.756-4.592 9.456-7.517 15.85-7.517 6.383 0 12.089 2.924 15.845 7.517z" />
<glyph unicode="&#xe776;" d="M413.006 60.136c2.895-3.538 4.637-8.051 4.637-12.975 0-11.312-9.174-20.481-20.481-20.481-11.312 0-20.486 9.169-20.486 20.481 0 4.924 1.742 9.437 4.637 12.975 3.756-4.592 9.461-7.517 15.85-7.517s12.089 2.924 15.845 7.517z" />
<glyph unicode="&#xe777;" d="M442.223 2.747c2.895-3.528 4.632-8.046 4.632-12.97 0-11.307-9.169-20.481-20.486-20.481-11.302 0-20.476 9.174-20.476 20.481 0 4.924 1.742 9.441 4.632 12.97 3.761-4.582 9.461-7.512 15.845-7.512 6.393 0 12.099 2.929 15.855 7.512z" />
<glyph unicode="&#xe778;" d="M502.749 2.747c2.895-3.528 4.637-8.046 4.637-12.97 0-11.307-9.174-20.481-20.486-20.481-11.307 0-20.476 9.174-20.476 20.481 0 4.924 1.737 9.441 4.632 12.97 3.756-4.582 9.461-7.512 15.845-7.512 6.393 0 12.094 2.929 15.85 7.512z" />
<glyph unicode="&#xe779;" d="M563.279 2.747c2.895-3.528 4.632-8.046 4.632-12.97 0-11.307-9.169-20.481-20.476-20.481-11.312 0-20.486 9.174-20.486 20.481 0 4.924 1.742 9.441 4.637 12.97 3.756-4.582 9.456-7.512 15.85-7.512 6.388 0 12.084 2.929 15.845 7.512z" />
<glyph unicode="&#xe77a;" d="M623.809 2.747c2.895-3.528 4.632-8.046 4.632-12.97 0-11.307-9.169-20.481-20.481-20.481-11.307 0-20.481 9.174-20.481 20.481 0 4.924 1.742 9.441 4.632 12.97 3.761-4.582 9.461-7.512 15.85-7.512s12.089 2.929 15.85 7.512z" />
<glyph unicode="&#xe77b;" d="M511.998-64c281.997 0 512.002 230 512.002 512.002 0 281.997-230.005 511.998-512.002 511.998s-511.998-230-511.998-511.998c0-282.002 230-512.002 511.998-512.002z" />
<glyph unicode="&#xe77c;" d="M705.148 509.962l149.010-442.809c-90.669-81.519-210.583-131.137-342.1-131.151h-0.119c-131.518 0.015-251.431 49.632-342.105 131.147l149.020 442.814h386.294z" />
<glyph unicode="&#xe77d;" d="M659.98 594.693l87.151 35.089 13.321 103.401-104.43 8.981-52.354-78.016 56.312-69.455z" />
<glyph unicode="&#xe77e;" d="M665.088 619.107l58.292 23.47 7.427 69.876-68.367 5.295-35.015-52.181 37.662-46.46z" />
<glyph unicode="&#xe77f;" d="M366.963 594.693l-87.156 35.094-13.316 103.401 104.43 8.981 52.349-78.021-56.307-69.455z" />
<glyph unicode="&#xe780;" d="M361.855 619.112l-58.297 23.47-7.423 69.871 68.367 5.3 35.015-52.185-37.662-46.455z" />
<glyph unicode="&#xe781;" d="M679.116 668.431l103.282-278.365-270.399-172.040-270.403 172.040 103.287 278.365h334.232z" />
<glyph unicode="&#xe782;" d="M395.871 546.48c16.627 0 30.111-13.484 30.111-30.111s-13.484-30.111-30.111-30.111c-16.627 0-30.111 13.484-30.111 30.111s13.484 30.111 30.111 30.111z" />
<glyph unicode="&#xe783;" d="M408.836 540.88c5.928 0 10.738-4.805 10.738-10.733s-4.81-10.733-10.738-10.733c-5.923 0-10.733 4.805-10.733 10.733s4.81 10.733 10.733 10.733z" />
<glyph unicode="&#xe784;" d="M628.125 546.48c16.631 0 30.111-13.484 30.111-30.111s-13.479-30.111-30.111-30.111c-16.627 0-30.111 13.484-30.111 30.111s13.484 30.111 30.111 30.111z" />
<glyph unicode="&#xe785;" d="M641.095 540.88c5.928 0 10.733-4.805 10.733-10.733s-4.805-10.733-10.733-10.733c-5.923 0-10.733 4.805-10.733 10.733s4.81 10.733 10.733 10.733z" />
<glyph unicode="&#xe786;" d="M511.998 515.602c71.296 0 129.098-44.788 129.098-100.031s-57.802-100.031-129.098-100.031c-71.296 0-129.098 44.788-129.098 100.031s57.802 100.031 129.098 100.031z" />
<glyph unicode="&#xe787;" d="M471.676 440.366c13.697 0 24.796-11.099 24.796-24.796 0-13.687-11.099-24.791-24.796-24.791s-24.791 11.104-24.791 24.791c0 13.697 11.094 24.796 24.791 24.796z" />
<glyph unicode="&#xe788;" d="M552.319 440.366c13.697 0 24.791-11.099 24.791-24.796 0-13.687-11.094-24.791-24.791-24.791s-24.796 11.104-24.796 24.791c0 13.697 11.099 24.796 24.796 24.796z" />
<glyph unicode="&#xe789;" d="M511.998-64c281.997 0 512.002 229.996 512.002 512 0 281.999-230.005 512-512.002 512s-511.998-230.001-511.998-512c0-282.004 230-512 511.998-512z" />
<glyph unicode="&#xe78a;" d="M663.503 401.69l119.444-388.157c-78.59-49.118-171.446-77.531-270.948-77.531-99.507 0-192.358 28.414-270.948 77.531l119.444 388.157h303.008z" />
<glyph unicode="&#xe78b;" d="M346.363 848.635c46.084 4.325 150.787-338.589 27.295-371.995-123.491-33.402-73.374 367.67-27.295 371.995z" />
<glyph unicode="&#xe78c;" d="M337.007 830.706c30.289 7.546 81.594-221.148 24.895-314.673-15.582-25.702 0.341-41.868-19.843-46.891-74.394-18.537-46.619 351.207-5.052 361.564z" />
<glyph unicode="&#xe78d;" d="M674.941 848.64c-46.084 4.32-150.787-338.594-27.29-372 123.491-33.402 73.369 367.67 27.29 372z" />
<glyph unicode="&#xe78e;" d="M684.297 830.706c-30.289 7.541-81.594-221.148-24.895-314.673 15.582-25.702-0.336-41.868 19.843-46.891 74.394-18.537 46.619 351.207 5.052 361.564z" />
<glyph unicode="&#xe78f;" d="M630.164 648.337l118.167-182.007-147.709-472.987h-177.25l-147.709 472.977 118.167 182.017h236.334z" />
<glyph unicode="&#xe790;" d="M387.443 446.409c14.266 0 25.83-11.564 25.83-25.831 0-14.261-11.564-25.826-25.83-25.826s-25.83 11.564-25.83 25.826c0 14.266 11.564 25.831 25.83 25.831z" />
<glyph unicode="&#xe791;" d="M398.572 441.606c5.077 0 9.199-4.122 9.199-9.209s-4.122-9.204-9.199-9.204c-5.082 0-9.209 4.117-9.209 9.204s4.127 9.209 9.209 9.209z" />
<glyph unicode="&#xe792;" d="M636.552 446.409c14.266 0 25.83-11.564 25.83-25.831 0-14.261-11.564-25.826-25.83-25.826-14.261 0-25.83 11.564-25.83 25.826 0 14.266 11.569 25.831 25.83 25.831z" />
<glyph unicode="&#xe793;" d="M647.677 441.606c5.087 0 9.209-4.122 9.209-9.209s-4.122-9.204-9.209-9.204c-5.082 0-9.204 4.117-9.204 9.204s4.122 9.209 9.204 9.209z" />
<glyph unicode="&#xe794;" d="M638.427 114.398l-37.806-121.057h-177.25l-37.806 121.052 57.733 88.967h137.396l57.733-88.962z" />
<glyph unicode="&#xe795;" d="M424.995 98.881c7.071 1.306 16.231-16.092 20.457-38.865 4.226-22.777 1.925-42.299-5.146-43.615s-16.236 16.082-20.457 38.865c-4.231 22.768-1.925 42.294 5.146 43.615z" />
<glyph unicode="&#xe796;" d="M599 98.877c-7.071 1.311-16.226-16.087-20.457-38.86-4.226-22.777-1.92-42.299 5.146-43.615 7.071-1.316 16.236 16.082 20.457 38.865 4.231 22.768 1.925 42.294-5.146 43.61z" />
<glyph unicode="&#xe797;" d="M557.838 533.504l45.852-189.4-57.307-350.762h-68.767l-57.307 350.762 45.852 189.4h0.411c28.028-40.567 42.452-94.014 24.613-164.356 37.098 31.046 65.972 101.155 66.447 164.356h0.208z" />
<glyph unicode="&#xe798;" d="M512-64c281.999 0 512 230 512 512.002 0 281.997-230.001 511.998-512 511.998s-512-230-512-511.998c0-282.002 230.001-512.002 512-512.002z" />
<glyph unicode="&#xe799;" d="M701.824 882.046c-67.758 21.941-190.513-385.018-69.268-424.273 121.236-39.26 137.016 402.332 69.268 424.273z" />
<glyph unicode="&#xe79a;" d="M713.789 858.421c-34.54 15.102-87.745-131.612-34.842-255.608 14.4-33.773-36.638-135.115-13.618-145.175 84.83-37.088 95.865 380.059 48.46 400.783z" />
<glyph unicode="&#xe79b;" d="M705.149 509.962l149.021-442.809c-90.674-81.519-210.594-131.137-342.112-131.151h-0.109c-131.523 0.015-251.438 49.632-342.107 131.147l149.011 442.814h386.296z" />
<glyph unicode="&#xe79c;" d="M642.588 129.392l95.207-141.004c-68.115-33.53-144.75-52.388-225.795-52.388s-157.675 18.858-225.79 52.388l95.207 141.004h261.171z" />
<glyph unicode="&#xe79d;" d="M325.169 882.046c67.748 21.941 190.513-385.018 69.268-424.273-121.24-39.26-137.016 402.332-69.268 424.273z" />
<glyph unicode="&#xe79e;" d="M313.199 858.421c34.54 15.102 87.745-131.612 34.847-255.608-14.41-33.773 36.638-135.115 13.618-145.175-84.83-37.088-95.87 380.059-48.465 400.783z" />
<glyph unicode="&#xe79f;" d="M654.157 660.336l116.752-271.002-152.292-163.929h-213.236l-152.287 163.929 116.747 271.002h284.315z" />
<glyph unicode="&#xe7a0;" d="M402.154 564.81c-32.249-8.952-55.452-26.771-51.834-39.815 3.617-13.039 32.694-16.359 64.933-7.418 32.249 8.947 55.457 26.766 51.834 39.81-3.612 13.044-32.684 16.364-64.933 7.423z" />
<glyph unicode="&#xe7a1;" d="M617.808 564.81c32.244-8.952 55.457-26.771 51.834-39.81-3.617-13.049-32.689-16.369-64.928-7.423-32.254 8.947-55.462 26.766-51.834 39.81 3.612 13.044 32.684 16.364 64.928 7.423z" />
<glyph unicode="&#xe7a2;" d="M417.072 546.48c16.627 0 30.111-13.484 30.111-30.111s-13.484-30.111-30.111-30.111c-16.627 0-30.111 13.484-30.111 30.111s13.484 30.111 30.111 30.111z" />
<glyph unicode="&#xe7a3;" d="M430.042 540.88c5.923 0 10.733-4.805 10.733-10.733s-4.81-10.733-10.733-10.733c-5.928 0-10.733 4.805-10.733 10.733s4.805 10.733 10.733 10.733z" />
<glyph unicode="&#xe7a4;" d="M606.935 546.48c16.622 0 30.106-13.484 30.106-30.111s-13.484-30.111-30.106-30.111c-16.632 0-30.116 13.484-30.116 30.111s13.484 30.111 30.116 30.111z" />
<glyph unicode="&#xe7a5;" d="M619.905 540.88c5.923 0 10.728-4.805 10.728-10.733s-4.805-10.733-10.728-10.733c-5.933 0-10.738 4.805-10.738 10.733s4.805 10.733 10.738 10.733z" />
<glyph unicode="&#xe7a6;" d="M618.62 225.402l152.287 163.934-254.55 120.626-263.269-120.626 152.297-163.929 213.236-0.005z" />
<glyph unicode="&#xe7a7;" d="M600.643 225.412l52.092 175.86-136.378 108.691-136.368-108.691 52.087-175.865 168.567 0.005z" />
<glyph unicode="&#xe7a8;" d="M510.172 367.936h12.376v-142.533h-12.376v142.533z" />
<glyph unicode="&#xe7a9;" d="M516.366 401.118c31.304 0 56.674-14.855 56.674-33.179s-25.37-33.179-56.674-33.179c-31.313 0-56.689 14.855-56.689 33.179s25.375 33.179 56.689 33.179z" />
<glyph unicode="&#xe7aa;" d="M572.673 364.169c-2.172-11.302-14.063-20.887-30.655-25.826-1.103 2.568-1.712 5.399-1.712 8.378 0 11.609 9.298 21.021 20.778 21.021 4.29 0 8.284-1.316 11.589-3.573z" />
<glyph unicode="&#xe7ab;" d="M490.708 338.345c-16.597 4.938-28.478 14.523-30.66 25.826 3.31 2.256 7.299 3.568 11.589 3.568 11.48 0 20.783-9.407 20.783-21.021 0-2.974-0.614-5.804-1.712-8.373z" />
<glyph unicode="&#xe7ac;" d="M512-63.999c281.999 0 512 229.996 512 511.999 0 281.999-230.001 511.999-512 511.999s-512-230.001-512-511.999c0-282.004 230.001-511.999 512-511.999z" />
<glyph unicode="&#xe7ad;" d="M705.149 509.97l149.021-442.816c-90.664-81.505-210.559-131.122-342.057-131.152h-0.218c-131.499 0.030-251.398 49.647-342.053 131.152l149.011 442.811 386.296 0.005z" />
<glyph unicode="&#xe7ae;" d="M642.588 453.561l114.798-455.019c-72.825-39.849-156.404-62.523-245.277-62.543h-0.218c-88.873 0.020-172.441 22.693-245.277 62.543l114.803 455.014 261.171 0.005z" />
<glyph unicode="&#xe7af;" d="M636.828 672.112l124.823-267.683c-182.022-227.418-317.281-227.418-499.297-0.005l124.823 267.688h249.651z" />
<glyph unicode="&#xe7b0;" d="M797.438 820.96c-39.038 24.005-256.233-170.556-159.566-250.289 26.771-22.075 111.665-40.725 98.369-14.519-20.645 40.671 89.417 247.449 61.197 264.808z" />
<glyph unicode="&#xe7b1;" d="M799.149 804.042c-23.94 19.101-156.038-112.017-140.138-203.834 4.364-25.242-11.985-36.475 3.969-49.202 13.544-10.797 81.421-10.936 73.261 5.146-17.532 34.53 88.2 227.715 62.909 247.889z" />
<glyph unicode="&#xe7b2;" d="M225.694 820.96c39.038 24.005 256.233-170.556 159.566-250.289-26.766-22.075-111.66-40.725-98.364-14.519 20.64 40.671-89.422 247.449-61.202 264.808z" />
<glyph unicode="&#xe7b3;" d="M223.983 804.042c23.945 19.101 156.043-112.017 140.143-203.834-4.369-25.242 11.975-36.475-3.979-49.202-13.544-10.797-81.416-10.936-73.251 5.146 17.522 34.53-88.21 227.715-62.914 247.889z" />
<glyph unicode="&#xe7b4;" d="M654.157 717.856l142.162-280.079c-207.293-237.948-361.341-237.948-568.634 0l142.157 280.079h284.315z" />
<glyph unicode="&#xe7b5;" d="M434.889 424.983c-41.675 0-75.458-20.491-75.458-45.753 0-25.271 33.783-45.753 75.458-45.753s75.458 20.481 75.458 45.753c0 25.262-33.783 45.753-75.458 45.753z" />
<glyph unicode="&#xe7b6;" d="M585.808 424.983c41.675 0 75.453-20.486 75.453-45.753s-33.778-45.753-75.453-45.753c-41.675 0-75.463 20.486-75.463 45.753s33.788 45.753 75.463 45.753z" />
<glyph unicode="&#xe7b7;" d="M395.321 414.511c58.297 33.357 84.301 108.657 51.755 190.889-129.678-46.411-98.513-129.257-51.755-190.889z" />
<glyph unicode="&#xe7b8;" d="M654.157 717.856c-101.754-70.351-116.955-224.869-143.81-338.628-25.024 115.189-36.969 267.045-140.505 338.628h284.315z" />
<glyph unicode="&#xe7b9;" d="M628.681 414.511c-58.297 33.357-84.296 108.657-51.755 190.889 134.294-42.467 102.333-124.769 51.755-190.889z" />
<glyph unicode="&#xe7ba;" d="M511.314 394.191c3.553-15.716 13.296-29.087 26.518-37.425 16.547-12.158 39.666-19.704 65.245-19.704 4.582 0 9.085 0.242 13.484 0.713-46.515-92.99-162.228-91.57-208.688-0.045 4.261-0.435 8.62-0.668 13.054-0.668 46.5 0 84.85 24.935 90.387 57.129z" />
<glyph unicode="&#xe7bb;" d="M607.786 531.789c13.984 11.713 33.258 12.965 48.306 4.597 5.607-16.275 0.995-35.030-12.98-46.747-13.984-11.713-33.258-12.965-48.296-4.597-5.616 16.28-1.005 35.035 12.97 46.747z" />
<glyph unicode="&#xe7bc;" d="M416.216 531.789c-13.984 11.713-33.253 12.965-48.301 4.597-5.607-16.275-1-35.030 12.98-46.747 13.984-11.713 33.258-12.965 48.296-4.597 5.611 16.28 1 35.035-12.975 46.747z" />
<glyph unicode="&#xe7bd;" d="M625.453 536.544c14.266 0 25.826-11.569 25.826-25.836 0-14.261-11.559-25.821-25.826-25.821s-25.836 11.559-25.836 25.821c0 14.266 11.569 25.836 25.836 25.836z" />
<glyph unicode="&#xe7be;" d="M636.577 531.74c5.082 0 9.199-4.127 9.199-9.209 0-5.087-4.117-9.209-9.199-9.209s-9.209 4.122-9.209 9.209c0 5.082 4.127 9.209 9.209 9.209z" />
<glyph unicode="&#xe7bf;" d="M625.453 527.261c3.073 0 5.557-7.408 5.557-16.552 0-9.13-2.484-16.542-5.557-16.542s-5.567 7.413-5.567 16.542c0 9.145 2.494 16.552 5.567 16.552z" />
<glyph unicode="&#xe7c0;" d="M398.559 536.544c14.266 0 25.831-11.569 25.831-25.836s-11.564-25.826-25.831-25.826c-14.266 0-25.831 11.559-25.831 25.826s11.564 25.836 25.831 25.836z" />
<glyph unicode="&#xe7c1;" d="M409.683 531.736c5.082 0 9.204-4.122 9.204-9.204 0-5.087-4.122-9.214-9.204-9.214s-9.204 4.127-9.204 9.214c0 5.082 4.122 9.204 9.204 9.204z" />
<glyph unicode="&#xe7c2;" d="M398.559 527.261c3.073 0 5.562-7.408 5.562-16.552 0-9.135-2.489-16.542-5.562-16.542s-5.567 7.408-5.567 16.542c0 9.145 2.494 16.552 5.567 16.552z" />
<glyph unicode="&#xe7c3;" d="M511.314 394.191c3.553-15.716 13.296-29.087 26.518-37.425 4.251-3.117 8.932-5.938 13.974-8.402-25.534-9.996-53.561-9.857-79.095 0.257 20.828 10.322 35.356 26.697 38.602 45.57z" />
<glyph unicode="&#xe7c4;" d="M471.625 420.605c18.65 15.231 60.806 16.627 81.149 0l-42.427-42.121-38.721 42.121z" />
<glyph unicode="&#xe7c5;" d="M456.5 387.329c1.465-0.722 2.063-2.499 1.341-3.964-0.722-1.47-2.494-2.068-3.964-1.341-42.828 21.199-94.687 27.28-142.266 23.619-55.699-4.28-105.346-21.852-127.584-44.085-1.153-1.158-3.038-1.158-4.191 0-1.163 1.153-1.163 3.038 0 4.201 23.158 23.153 74.275 41.413 131.33 45.797 48.509 3.731 101.467-2.509 145.334-24.227z" />
<glyph unicode="&#xe7c6;" d="M449.314 376.978c1.569-0.46 2.469-2.108 2.009-3.672-0.46-1.574-2.108-2.469-3.677-2.009-37.118 10.906-78.363 11.025-117.252 4.394-45.258-7.715-87.26-24.559-115.871-44.179-1.356-0.92-3.197-0.579-4.117 0.777-0.925 1.351-0.574 3.197 0.772 4.117 29.26 20.061 72.123 37.266 118.217 45.129 39.701 6.769 81.866 6.626 119.919-4.557z" />
<glyph unicode="&#xe7c7;" d="M444.027 365.544c1.623-0.173 2.796-1.643 2.618-3.266s-1.643-2.806-3.271-2.623c-32.476 3.647-66.516-0.792-98.696-10.253-36.895-10.842-71.311-28.265-98.141-47.658-1.326-0.955-3.172-0.648-4.127 0.673-0.955 1.326-0.653 3.177 0.673 4.132 27.335 19.754 62.384 37.504 99.928 48.539 32.882 9.664 67.719 14.197 101.016 10.456z" />
<glyph unicode="&#xe7c8;" d="M567.512 387.329c-1.47-0.722-2.068-2.499-1.351-3.964 0.722-1.47 2.499-2.068 3.969-1.341 42.828 21.199 94.687 27.28 142.266 23.619 55.699-4.28 105.346-21.852 127.579-44.085 1.158-1.158 3.043-1.158 4.191 0 1.163 1.153 1.163 3.038 0 4.201-23.154 23.153-74.275 41.413-131.325 45.797-48.509 3.731-101.472-2.509-145.329-24.227z" />
<glyph unicode="&#xe7c9;" d="M574.693 376.978c-1.574-0.46-2.474-2.108-2.009-3.672 0.46-1.574 2.108-2.469 3.672-2.009 37.123 10.906 78.363 11.025 117.252 4.394 45.263-7.715 87.265-24.559 115.871-44.179 1.356-0.92 3.202-0.579 4.117 0.777 0.93 1.351 0.579 3.197-0.772 4.117-29.255 20.061-72.118 37.266-118.212 45.129-39.701 6.769-81.871 6.626-119.919-4.557z" />
<glyph unicode="&#xe7ca;" d="M579.98 365.544c-1.623-0.173-2.801-1.643-2.618-3.266 0.173-1.623 1.643-2.806 3.266-2.623 32.481 3.647 66.521-0.792 98.696-10.253 36.9-10.842 71.316-28.265 98.146-47.658 1.326-0.955 3.172-0.648 4.127 0.673 0.95 1.326 0.648 3.177-0.678 4.132-27.33 19.754-62.374 37.504-99.923 48.539-32.887 9.664-67.719 14.197-101.016 10.456z" />
<glyph unicode="&#xe7cb;" d="M512.005-63.999c281.999 0 511.995 230 511.995 512.002 0 281.997-229.996 511.997-511.995 511.997s-512.005-230-512.005-511.997c0-282.002 230.006-512.002 512.005-512.002z" />
<glyph unicode="&#xe7cc;" d="M705.147 509.967l149.021-442.814c-90.664-81.504-210.559-131.122-342.057-131.151h-0.223c-131.499 0.030-251.388 49.647-342.048 131.151l149.016 442.809 386.291 0.005z" />
<glyph unicode="&#xe7cd;" d="M654.165 700.161l105.905-102.792 36.247-143.433-36.069-143.116-106.093-103.104-141.974-40.319-142.335 40.314-105.905 102.802-36.257 143.423 36.074 143.116 106.089 103.109 141.974 40.319 142.345-40.319z" />
<glyph unicode="&#xe7ce;" d="M642.587 453.559l114.808-455.017c-72.835-39.849-156.404-62.523-245.282-62.542h-0.223c-88.868 0.020-172.441 22.693-245.277 62.542l114.803 455.012 261.171 0.005z" />
<glyph unicode="&#xe7cf;" d="M413.047 400.828c74.721 0 68.12 95.568 99.992 95.568 34.099 0 17.176-95.568 97.914-95.568l-103.471-77.348-94.435 77.348z" />
<glyph unicode="&#xe7d0;" d="M398.559 632.275c56.135 0 101.635-54.759 101.635-122.309s-45.5-122.314-101.635-122.314c-56.135 0-101.635 54.764-101.635 122.314s45.5 122.309 101.635 122.309z" />
<glyph unicode="&#xe7d1;" d="M625.451 632.275c56.125 0 101.635-54.759 101.635-122.309s-45.51-122.314-101.635-122.314c-56.135 0-101.635 54.764-101.635 122.314s45.5 122.309 101.635 122.309z" />
<glyph unicode="&#xe7d2;" d="M398.559 540.078c16.622 0 30.106-13.484 30.106-30.111s-13.484-30.111-30.106-30.111c-16.632 0-30.116 13.484-30.116 30.111s13.484 30.111 30.116 30.111z" />
<glyph unicode="&#xe7d3;" d="M414.284 540.078c7.942 0 14.38-6.443 14.38-14.39s-6.438-14.38-14.38-14.38c-7.942 0-14.39 6.433-14.39 14.38s6.448 14.39 14.39 14.39z" />
</font>
</defs>
</svg>
