<?xml version="1.0" encoding="UTF-8" standalone="no"?>
<!-- Created with Inkscape (http://www.inkscape.org/) -->
<svg id="svg2" xmlns:rdf="http://www.w3.org/1999/02/22-rdf-syntax-ns#" xmlns="http://www.w3.org/2000/svg" xml:space="preserve" height="1e3" viewBox="0 0 600 1000" width="600" version="1.1" xmlns:cc="http://creativecommons.org/ns#" xmlns:dc="http://purl.org/dc/elements/1.1/"><metadata id="metadata8"><rdf:RDF><cc:Work rdf:about=""><dc:format>image/svg+xml</dc:format><dc:type rdf:resource="http://purl.org/dc/dcmitype/StillImage"/><dc:title/></cc:Work></rdf:RDF></metadata><defs id="defs6"><clipPath id="clipPath152" clipPathUnits="userSpaceOnUse"><path id="path154" d="m497.1 360.12h25.436v-20.239h-25.436v20.239z"/></clipPath><clipPath id="clipPath396" clipPathUnits="userSpaceOnUse"><path id="path398" d="m384.27 259.04h88.951v-76.712h-88.951v76.712z"/></clipPath><clipPath id="clipPath424" clipPathUnits="userSpaceOnUse"><path id="path426" d="m465.63 421.37h44.479v-75.207h-44.479v75.207z"/></clipPath></defs><g id="g10" transform="matrix(1.25 0 0 -1.25 0 1e3)"><g id="g3660" transform="translate(16)"><g id="g22" transform="matrix(-1 0 0 1 202.74 543.02)"><path id="path24" d="m0 0c0 13.696-11.103 24.8-24.799 24.8-13.697 0-24.8-11.104-24.8-24.8s11.103-24.8 24.8-24.8c13.696 0 24.799 11.104 24.799 24.8" fill="#fff"/></g><g id="g26" transform="matrix(-1 0 0 1 157.42 509.54)"><path id="path28" d="m0 0c0 13.696-11.103 24.8-24.799 24.8-13.697 0-24.8-11.104-24.8-24.8s11.103-24.8 24.8-24.8c13.696 0 24.799 11.104 24.799 24.8" fill="#fff"/></g><g id="g30" transform="matrix(-1 0 0 1 156.05 558.46)"><path id="path32" d="m0 0c0 18.619-15.094 33.713-33.712 33.713-18.619 0-33.712-15.094-33.712-33.713s15.093-33.713 33.712-33.713c18.618 0 33.712 15.094 33.712 33.713" fill="#fff"/></g><g id="g34" transform="matrix(-1 0 0 1 116.63 517.59)"><path id="path36" d="m0 0c0 18.619-15.094 33.713-33.712 33.713-18.619 0-33.712-15.094-33.712-33.713s15.093-33.713 33.712-33.713c18.618 0 33.712 15.094 33.712 33.713" fill="#fff"/></g><g id="g38" transform="matrix(-1 0 0 1 182.22 518.46)"><path id="path40" d="m0 0c0 18.619-15.094 33.713-33.712 33.713-18.619 0-33.712-15.094-33.712-33.713s15.093-33.713 33.712-33.713c18.618 0 33.712 15.094 33.712 33.713" fill="#fff"/></g><g id="g42" transform="matrix(-1 0 0 1 225.81 517.58)"><path id="path44" d="m0 0c0 14.652-11.876 26.528-26.527 26.528s-26.527-11.876-26.527-26.528c0-14.649 11.876-26.525 26.527-26.525s26.527 11.876 26.527 26.525" fill="#fff"/></g><g id="g46" transform="matrix(-1 0 0 1 124.71 544.67)"><path id="path48" d="m0 0c0 13.742-11.141 24.884-24.884 24.884s-24.884-11.142-24.884-24.884 11.141-24.884 24.884-24.884 24.884 11.142 24.884 24.884" fill="#fff"/></g><g id="g50" transform="matrix(-1 0 0 1 91.076 520.29)"><path id="path52" d="m0 0c0-15.43-12.508-27.936-27.935-27.936-15.429 0-27.937 12.506-27.937 27.936 0 15.428 12.508 27.935 27.937 27.935 15.427 0 27.935-12.507 27.935-27.935" fill="#fff"/></g><path id="path54" d="m130.61 535.59h106.88v-41.831h-106.88v41.831z" fill="#fff"/><path id="path56" d="m211.43 544.3h-55.304v-27.88h55.304v27.88z" fill="#fff"/></g><g id="g5365" transform="matrix(-1 0 0 1 802.5 .82684)"><g id="g58" transform="translate(695.89 336.8)"><path id="path60" d="m0 0c0 10.491-8.504 18.996-18.995 18.996-10.49 0-18.995-8.505-18.995-18.996s8.505-18.996 18.995-18.996c10.491 0 18.995 8.505 18.995 18.996" fill="#fff"/></g><g id="g62" transform="translate(767.87 316.37)"><path id="path64" d="m0 0c0 11.283-9.146 20.43-20.428 20.43s-20.428-9.147-20.428-20.43c0-11.281 9.146-20.429 20.428-20.429s20.428 9.148 20.428 20.429" fill="#fff"/></g><g id="g66" transform="translate(734.54 347.8)"><path id="path68" d="m0 0c0 14.262-11.562 25.822-25.822 25.822-14.261 0-25.823-11.56-25.823-25.822s11.562-25.823 25.823-25.823c14.26 0 25.822 11.561 25.822 25.823" fill="#fff"/></g><g id="g70" transform="translate(716.2 316.37)"><path id="path72" d="m0 0c0 14.263-11.562 25.823-25.822 25.823-14.261 0-25.823-11.56-25.823-25.823 0-14.262 11.562-25.823 25.823-25.823 14.26 0 25.822 11.561 25.822 25.823" fill="#fff"/></g><g id="g74" transform="translate(678.22 317.81)"><path id="path76" d="m0 0c0 11.223-9.098 20.319-20.318 20.319-11.224 0-20.32-9.096-20.32-20.319 0-11.222 9.096-20.318 20.32-20.318 11.22 0 20.318 9.096 20.318 20.318" fill="#fff"/></g><g id="g78" transform="translate(758.35 344.45)"><path id="path80" d="m0 0c0 9.278-7.521 16.799-16.797 16.799-9.278 0-16.799-7.521-16.799-16.799 0-9.277 7.521-16.798 16.799-16.798 9.276 0 16.797 7.521 16.797 16.798" fill="#fff"/></g><g id="g82" transform="translate(740.34 307.03)"><path id="path84" d="m0 0c0 9.277-7.521 16.798-16.798 16.798-9.278 0-16.799-7.521-16.799-16.798s7.521-16.798 16.799-16.798c9.277 0 16.798 7.521 16.798 16.798" fill="#fff"/></g><g id="g86" transform="translate(778.53 319.83)"><path id="path88" d="m0 0c0-11.817-9.58-21.396-21.397-21.396-11.818 0-21.399 9.579-21.399 21.396s9.581 21.397 21.399 21.397c11.817 0 21.397-9.58 21.397-21.397" fill="#fff"/></g><path id="path90" d="m757.14 330.47h-81.864v-32.041h81.864v32.041z" fill="#fff"/><path id="path92" d="m703.58 345.49h42.362v-21.355h-42.362v21.355z" fill="#fff"/></g><g id="g6378" transform="matrix(-1 0 0 1 791.6 -28.892)"><g id="g94" transform="translate(629.85 110.42)"><path id="path96" d="m0 0c0 17.467 14.16 31.627 31.627 31.627s31.628-14.16 31.628-31.627c0-17.469-14.161-31.629-31.628-31.629s-31.627 14.16-31.627 31.629" fill="#fff"/></g><g id="g98" transform="translate(602.51 103.97)"><path id="path100" d="m0 0c0 17.467 14.16 31.627 31.627 31.627s31.628-14.16 31.628-31.627c0-17.469-14.161-31.629-31.628-31.629s-31.627 14.16-31.627 31.629" fill="#fff"/></g><g id="g102" transform="translate(380 118.66)"><path id="path104" d="m0 0c0 22.025 17.854 39.879 39.878 39.879 22.026 0 39.88-17.854 39.88-39.879s-17.854-39.879-39.88-39.879c-22.024 0-39.878 17.854-39.878 39.879" fill="#fff"/></g><g id="g106" transform="translate(651.12 148.85)"><path id="path108" d="m0 0c0 28.059-22.747 50.807-50.809 50.807-28.059 0-50.807-22.748-50.807-50.807 0-28.061 22.748-50.809 50.807-50.809 28.066 0 50.813 22.748 50.813 50.809" fill="#fff"/></g><g id="g110" transform="translate(647.65 107.74)"><path id="path112" d="m0 0c0 28.059-22.747 50.807-50.809 50.807-28.059 0-50.807-22.748-50.807-50.807 0-28.061 22.748-50.809 50.807-50.809 28.066 0 50.813 22.748 50.813 50.809" fill="#fff"/></g><g id="g114" transform="translate(517.23 110.42)"><path id="path116" d="m0 0c0 28.059-22.747 50.807-50.809 50.807-28.059 0-50.807-22.748-50.807-50.807 0-28.061 22.748-50.809 50.807-50.809 28.066 0 50.813 22.748 50.813 50.809" fill="#fff"/></g><g id="g118" transform="translate(580.34 118.67)"><path id="path120" d="m0 0c0 28.059-22.747 50.807-50.809 50.807-28.059 0-50.807-22.748-50.807-50.807 0-28.061 22.748-50.809 50.807-50.809 28.066 0 50.813 22.748 50.813 50.809" fill="#fff"/></g><g id="g122" transform="translate(515.63 161.44)"><path id="path124" d="m0 0c0 28.061-22.747 50.809-50.808 50.809-28.059 0-50.808-22.748-50.808-50.809s22.749-50.807 50.808-50.807c28.065 0 50.812 22.746 50.812 50.807" fill="#fff"/></g><g id="g126" transform="translate(596.84 176.64)"><path id="path128" d="m0 0c0 36.453-29.552 66.008-66.008 66.008-36.454 0-66.006-29.555-66.006-66.008s29.552-66.006 66.006-66.006c36.452 0 66.004 29.553 66.004 66.006" fill="#fff"/></g><path id="path130" d="m414.02 129.16h247.45v-50.375h-247.45v50.375z" fill="#fff"/><g id="g132" transform="translate(474.66 211.29)"><path id="path134" d="m0 0c-0.031 0.006-0.064 0.011-0.096 0.017-0.03 0.004-0.06 0.008-0.091 0.014-2.434-8.611-3.738-17.697-3.738-27.088 0-14.42 3.075-28.121 8.599-40.488-10.09-11.166-16.237-25.963-16.237-42.197 0-7.26 1.242-32.035 3.504-41.937 14.35 0.048 27.29 6.05 36.501 15.658 7.702-4.701 16.75-7.412 26.434-7.412 1.974 0 3.921 0.115 5.836 0.333-2.858 14.524-4.615 35.985-5.093 45.291-27.073 8.235-40.735 33.395-40.735 63.159 0 33.277 18.584 60.795 50.603 65.341-1.499 0.212-3.012 0.375-4.541 0.489-0.173 0.011-0.346 0.019-0.52 0.03-0.597 0.04-1.196 0.076-1.797 0.099-0.814 0.03-1.63 0.048-2.451 0.048-23.742 0-44.549-12.543-56.178-31.357" fill="#f1f2f2"/></g><g id="g136" transform="translate(439.75 91.708)"><path id="path138" d="m0 0s-4.194-6.252-11.217-7.533c-7.02-1.283-11.866-3.858-13.161-9.147 7.772-0.281 20.808 0 20.808 0l8.697 5.992 1.838-4.957 10.684 0.881-1.941 14.764s-12.331-0.873-15.708 0"/></g><g id="g140" transform="translate(464.87 92.286)"><path id="path142" d="m0 0s-3.02-6.898-9.703-9.408c-6.68-2.508-10.994-5.899-11.329-11.336 7.698 1.099 20.475 3.691 20.475 3.691l7.499 7.446 2.687-4.557 10.36 2.766-4.535 14.185s-11.976-3.051-15.454-2.787"/></g><g id="g144" transform="translate(526.4 342.42)"><path id="path146" d="m0 0s-6.521 4.803-6.763 12.346v5.351h-16.302v-5.351c0-3.407-3.523-12.27-6.409-13.748 3-7.787 7.948-18.737 7.948-18.737l6.79-24.332v24.006s12.985 8.488 14.736 20.465" fill="#f9bb78"/></g><g id="g148"><g id="g156"><g id="g158" opacity="0.2" clip-path="url(#clipPath152)"><g id="g160" transform="translate(503.33 354.77)"><path id="path162" d="m0 0v5.352h16.303v-5.352c0.105-3.334 1.442-6.133 2.897-8.217-4.454-3.293-14.595-9.277-25.436-5.418 2.853 1.729 6.236 10.293 6.236 13.635" fill="#ffc988"/></g></g></g></g><g id="g164" fill="#475673" transform="translate(466.43 227.76)"><path id="path166" d="m0 0s17.486 21.117 23.356 40.891c6.701 22.566-10.388 47.402 3.225 48.916 13.615 1.513 19.25-34.244 14.366-53.235-4.883-18.996-28.349-45.031-28.349-45.031l-12.598 8.459z" fill="#475673"/></g><g id="g168" transform="translate(475.07 221.96)"><path id="path170" d="m0 0s-2.19-6.479-7.593-9.287c-1.421-1.043-1.745 0.021-0.862 0.973 0.884 0.949 1.891 2.226 1.96 2.349 0.07 0.117-2.546-1.959-3.506-2.818-0.962-0.86-2.091 0-1.041 1.084 1.053 1.088 3.105 3.011 3.105 3.011s-3.703-3.064-4.699-3.65c-0.991-0.588-1.996 0.342-0.874 1.358 1.125 1.015 4.094 3.585 4.094 3.585s-2.994-2.589-4.352-3.154c-1.358-0.556-2.007 0.529-0.958 1.488 1.049 0.956 3.282 2.469 3.282 2.469s-1.674 0.1-3.1-0.769c-1.623-0.993-3.175 0.062-1.106 1.916 1.262 1.132 5.856 5.652 9.907 5.3 3.935-2.373 5.743-3.855 5.743-3.855" fill="#fed196"/></g><g id="g172" transform="translate(488.65 334.04)"><path id="path174" d="m0 0 17.393-8.311 1.911-3.207 2.92-19.951-0.648 19.303 7.785 7.383-0.312 0.406 21.14 7.137s24.658-3.893 35.039-31.795c10.381-27.901 7.138-83.377 7.138-83.377h-63.264s-11.68 53.527-23.036 65.857c-11.791 20.385-6.066 46.553-6.066 46.553" fill="#fff"/></g><g id="g176" transform="translate(517.75 221.63)"><path id="path178" d="m0 0s-8.703 39.859-18.387 58.705h0.002c22.541-17.021 48.628 6.707 48.628 6.707s1.145-7.826 1.144-20.16c-0.002-29.912 17.217-45.252 17.217-45.252h-48.604z" fill="#f1f2f2"/></g><g id="g180" fill="#475673" transform="translate(520.29 311.5)"><path id="path182" d="m0 0-10.057 10.381s16.275 14.351 16.437 22.299c6.326-2.106 12.924-7.213 12.924-7.213l-19.304-25.467z" fill="#475673"/></g><g id="g184" fill="#475673" transform="translate(507.96 322.52)"><path id="path186" d="m0 0s-5.548-9.07-5.78-9.895c0 0-10.888 14.196-13.524 21.413 2.271 4.707 8.274 6.976 8.274 6.976l11.03-18.494z" fill="#475673"/></g><g id="g188" transform="translate(517.75 221.63)"><path id="path190" d="m0 0s1.195-8.225-9.475-8.928c-6.649-0.437-39.097-3.578-54.885-17.82-15.786-14.246-16.098-59.783-14.12-103.52h16.47s-2.309 83.494 14.253 89.483c16.565 5.988 68.801 9.74 72.597 10.162 3.795 0.424 37.885 14.24 38.37 30.619l-63.21 0.01z" fill="#404042"/></g><g id="g192" transform="translate(580.94 221.63)"><path id="path194" d="m0 0s6.429-29.166-14.885-41.826c-26.816-15.926-76.869-8.772-84.09-21.037-5.159-8.76 0.996-67.401 0.996-67.401h-19.841s-8.475 72.002 1.358 85.973c9.834 13.978 49.861 20.789 61.613 21.426 11.753 0.63 17.875 22.86 17.875 22.86h36.974z" fill="#404042"/></g><g id="g196" transform="translate(464.48 177.34)"><path id="path198" d="m0 0c9.834 13.979 49.861 20.789 61.613 21.426 11.753 0.635 17.875 22.865 17.875 22.865h27.208c-0.35-4.457-9.266-29.539-31.939-33.986-24.808-4.871-58.816 4.377-75.462-11.494 0.225 0.421 0.453 0.839 0.701 1.189" fill="#5b5b5b"/></g><g id="g200" transform="translate(508.9 179.64)"><path id="path202" d="m0 0s60.665 29.504 61.91 30.131c1.248 0.622 1.476 1.525 1.476 2.567v2.89l-63.386-27.366v-8.222z" fill="#76888c"/></g><g id="g204" transform="translate(424.42 184.59)"><path id="path206" d="m0 0c-2.695-1.492-2.495-2.72 0.446-2.72h82.152c2.941 0 4.938 2.464 4.938 2.464l58.433 28.997c2.694 1.494 2.49 2.721-0.449 2.721h-83.501c-2.94 0-7.55-1.227-10.248-2.721l-51.771-28.741z" fill="#a6a7ab"/></g><g id="g208" transform="translate(498.88 187.1)"><path id="path210" d="m0 0 2.4 0.021c0.273 0 0.883 0.184 1.355 0.401l3.101 1.432c0.48 0.216 0.646 0.395 0.372 0.395l-2.402-0.02c-0.272-0.007-0.887-0.192-1.361-0.407l-3.102-1.429c-0.473-0.219-0.635-0.397-0.363-0.393" fill-rule="evenodd" fill="#f7f9f8"/></g><g id="g212" transform="translate(504.91 189.84)"><path id="path214" d="m0 0 2.182 0.015c0.336 0.006 1.079 0.225 1.66 0.492l4.205 1.941c0.582 0.268 0.781 0.483 0.447 0.481l-2.181-0.016c-0.332-0.008-1.083-0.226-1.659-0.496l-4.204-1.938c-0.581-0.27-0.779-0.479-0.45-0.479" fill-rule="evenodd" fill="#f7f9f8"/></g><g id="g216" transform="translate(512.32 193.25)"><path id="path218" d="m0 0 2.175 0.02c0.339 0.001 1.087 0.224 1.667 0.492l4.204 1.942c0.58 0.264 0.779 0.483 0.444 0.477l-2.177-0.018c-0.335-0.004-1.083-0.225-1.663-0.488l-4.205-1.943c-0.575-0.267-0.781-0.482-0.445-0.482" fill-rule="evenodd" fill="#f7f9f8"/></g><g id="g220" transform="translate(519.72 196.66)"><path id="path222" d="m0 0 2.177 0.021c0.336 0 1.084 0.221 1.665 0.491l4.201 1.942c0.582 0.264 0.783 0.481 0.448 0.481l-2.179-0.024c-0.334 0-1.083-0.224-1.662-0.487l-4.206-1.942c-0.579-0.269-0.779-0.482-0.444-0.482" fill-rule="evenodd" fill="#f7f9f8"/></g><g id="g224" transform="translate(527.12 200.08)"><path id="path226" d="m0 0 2.183 0.018c0.331 0.005 1.076 0.224 1.658 0.496l4.201 1.939c0.583 0.265 0.785 0.48 0.449 0.477l-2.178-0.018c-0.334 0-1.082-0.223-1.66-0.486l-4.204-1.944c-0.582-0.267-0.779-0.482-0.449-0.482" fill-rule="evenodd" fill="#f7f9f8"/></g><g id="g228" transform="translate(534.53 203.49)"><path id="path230" d="m0 0 2.179 0.02c0.333 0.005 1.082 0.226 1.665 0.494l4.198 1.939c0.58 0.267 0.784 0.483 0.452 0.479l-2.181-0.02c-0.336 0-1.084-0.223-1.664-0.488l-4.2-1.942c-0.581-0.264-0.784-0.486-0.449-0.482" fill-rule="evenodd" fill="#f7f9f8"/></g><g id="g232" transform="translate(494.64 187.06)"><path id="path234" d="m0 0 2.406 0.027c0.275 0 0.883 0.182 1.355 0.395l3.106 1.433c0.474 0.223 0.641 0.4 0.364 0.392l-2.399-0.019c-0.272-0.002-0.883-0.18-1.357-0.399l-3.102-1.433c-0.478-0.218-0.641-0.396-0.373-0.396" fill-rule="evenodd" fill="#f7f9f8"/></g><g id="g236" transform="translate(496.8 189.76)"><path id="path238" d="m0 0 6.012 0.053c0.356 0.004 1.159 0.242 1.779 0.528l4.057 1.869c0.618 0.283 0.834 0.516 0.479 0.514l-6.014-0.052c-0.357 0-1.154-0.238-1.779-0.527l-4.052-1.867c-0.62-0.286-0.836-0.518-0.482-0.518" fill-rule="evenodd" fill="#f7f9f8"/></g><g id="g240" transform="translate(506.96 193.2)"><path id="path242" d="m0 0 3.256 0.029c0.355 0.002 1.156 0.242 1.771 0.524l4.061 1.875c0.615 0.282 0.834 0.518 0.476 0.512l-3.25-0.026c-0.355-0.004-1.159-0.242-1.777-0.529l-4.058-1.869c-0.622-0.286-0.833-0.516-0.479-0.516" fill-rule="evenodd" fill="#f7f9f8"/></g><g id="g244" transform="translate(511.12 196.59)"><path id="path246" d="m0 0 6.493 0.058c0.359 0.004 1.157 0.24 1.777 0.527l4.056 1.871c0.617 0.28 0.836 0.516 0.479 0.512l-6.491-0.057c-0.355-0.002-1.154-0.236-1.776-0.526l-4.056-1.87c-0.622-0.288-0.837-0.519-0.482-0.515" fill-rule="evenodd" fill="#f7f9f8"/></g><g id="g248" transform="translate(522.88 200.04)"><path id="path250" d="m0 0 2.182 0.02c0.328 0 1.08 0.226 1.659 0.49l4.206 1.939c0.578 0.268 0.78 0.487 0.445 0.481l-2.18-0.018c-0.333-0.004-1.083-0.224-1.662-0.488l-4.201-1.944c-0.579-0.264-0.783-0.484-0.449-0.48" fill-rule="evenodd" fill="#f7f9f8"/></g><g id="g252" transform="translate(530.28 203.46)"><path id="path254" d="m0 0 2.185 0.023c0.336 0.002 1.08 0.221 1.659 0.488l4.207 1.939c0.578 0.27 0.775 0.485 0.443 0.481l-2.181-0.02c-0.333-0.006-1.078-0.219-1.66-0.492l-4.204-1.937c-0.58-0.269-0.78-0.482-0.449-0.482" fill-rule="evenodd" fill="#f7f9f8"/></g><g id="g256" transform="translate(490.73 187.03)"><path id="path258" d="m0 0 2.074 0.02c0.272 0.001 0.886 0.183 1.36 0.403l3.1 1.431c0.48 0.219 0.646 0.397 0.372 0.397l-2.075-0.02c-0.273-0.003-0.888-0.183-1.362-0.404l-3.105-1.435c-0.471-0.215-0.637-0.392-0.364-0.392" fill-rule="evenodd" fill="#f7f9f8"/></g><g id="g260" transform="translate(486.74 187)"><path id="path262" d="m0 0 2.082 0.016c0.271 0.004 0.887 0.184 1.355 0.399l3.106 1.438c0.478 0.216 0.643 0.395 0.367 0.391l-2.077-0.015c-0.275-0.006-0.886-0.189-1.356-0.404l-3.106-1.433c-0.473-0.217-0.642-0.396-0.371-0.392" fill-rule="evenodd" fill="#f7f9f8"/></g><g id="g264" transform="translate(492.5 189.72)"><path id="path266" d="m0 0 2.14 0.019c0.33 0.003 1.061 0.222 1.631 0.484l4.242 1.957c0.566 0.264 0.768 0.478 0.442 0.475l-2.142-0.024c-0.328 0-1.061-0.219-1.629-0.478l-4.242-1.958c-0.57-0.264-0.768-0.475-0.442-0.475" fill-rule="evenodd" fill="#f7f9f8"/></g><g id="g268" transform="translate(488.18 189.69)"><path id="path270" d="m0 0 2.136 0.02c0.328 0.003 1.062 0.222 1.632 0.486l4.241 1.954c0.571 0.264 0.769 0.475 0.441 0.471l-2.137-0.018c-0.33-0.002-1.061-0.221-1.632-0.482l-4.239-1.956c-0.574-0.264-0.773-0.475-0.442-0.475" fill-rule="evenodd" fill="#f7f9f8"/></g><g id="g272" transform="translate(489.49 193.05)"><path id="path274" d="m0 0 2.294 0.023c0.35 0.002 1.136 0.233 1.746 0.516l4.096 1.889c0.611 0.283 0.822 0.51 0.471 0.51l-2.292-0.024c-0.353-0.004-1.136-0.232-1.746-0.519l-4.095-1.889c-0.609-0.28-0.82-0.506-0.474-0.506" fill-rule="evenodd" fill="#f7f9f8"/></g><g id="g276" transform="translate(493.89 193.08)"><path id="path278" d="m0 0 2.292 0.021c0.352 0.008 1.136 0.237 1.745 0.518l4.097 1.891c0.611 0.278 0.823 0.505 0.472 0.505l-2.292-0.019c-0.35-0.006-1.136-0.236-1.746-0.516l-4.093-1.888c-0.614-0.283-0.824-0.512-0.475-0.512" fill-rule="evenodd" fill="#f7f9f8"/></g><g id="g280" transform="translate(498.29 193.13)"><path id="path282" d="m0 0 2.294 0.016c0.352 0.007 1.133 0.236 1.746 0.514l4.094 1.895c0.609 0.279 0.825 0.508 0.47 0.506l-2.289-0.02c-0.353-0.004-1.135-0.238-1.748-0.52l-4.093-1.886c-0.611-0.284-0.823-0.509-0.474-0.505" fill-rule="evenodd" fill="#f7f9f8"/></g><g id="g284" transform="translate(502.69 193.17)"><path id="path286" d="m0 0 2.291 0.018c0.352 0.005 1.138 0.234 1.746 0.517l4.094 1.891c0.609 0.277 0.821 0.508 0.473 0.504l-2.291-0.018c-0.351-0.006-1.138-0.238-1.746-0.517l-4.093-1.889c-0.614-0.282-0.822-0.51-0.474-0.506" fill-rule="evenodd" fill="#f7f9f8"/></g><g id="g288" transform="translate(489.31 196.4)"><path id="path290" d="m0 0 2.288 0.02c0.349 0.003 1.14 0.24 1.747 0.517l4.098 1.891c0.609 0.282 0.819 0.507 0.47 0.505l-2.291-0.015c-0.352-0.004-1.136-0.238-1.744-0.523l-4.095-1.889c-0.611-0.283-0.825-0.506-0.473-0.506" fill-rule="evenodd" fill="#f7f9f8"/></g><g id="g292" transform="translate(493.71 196.44)"><path id="path294" d="m0 0 2.295 0.018c0.352 0.007 1.135 0.238 1.75 0.52l4.092 1.889c0.61 0.279 0.817 0.506 0.47 0.506l-2.294-0.028c-0.348 0-1.134-0.228-1.741-0.509l-4.097-1.892c-0.61-0.281-0.826-0.508-0.475-0.504" fill-rule="evenodd" fill="#f7f9f8"/></g><g id="g296" transform="translate(498.12 196.48)"><path id="path298" d="m0 0 2.287 0.012c0.354 0.004 1.136 0.238 1.749 0.523l4.093 1.889c0.611 0.279 0.822 0.508 0.472 0.5l-2.292-0.014c-0.347-0.006-1.135-0.24-1.745-0.515l-4.092-1.891c-0.614-0.282-0.827-0.513-0.472-0.504" fill-rule="evenodd" fill="#f7f9f8"/></g><g id="g300" transform="translate(502.51 196.51)"><path id="path302" d="m0 0 2.292 0.02c0.355 0.001 1.138 0.238 1.747 0.517l4.093 1.889c0.611 0.282 0.822 0.51 0.473 0.51l-2.292-0.024c-0.349 0-1.136-0.234-1.745-0.516l-4.096-1.89c-0.606-0.279-0.82-0.506-0.472-0.506" fill-rule="evenodd" fill="#f7f9f8"/></g><g id="g304" transform="translate(506.92 196.56)"><path id="path306" d="m0 0 2.289 0.018c0.353 0 1.137 0.234 1.746 0.516l4.097 1.889c0.61 0.279 0.824 0.512 0.471 0.506l-2.291-0.02c-0.354-0.004-1.133-0.232-1.746-0.514l-4.097-1.893c-0.609-0.279-0.819-0.512-0.469-0.502" fill-rule="evenodd" fill="#f7f9f8"/></g><g id="g308" transform="translate(485.82 199.72)"><path id="path310" d="m0 0 2.288 0.02c0.349 0.001 1.135 0.236 1.745 0.519l4.096 1.887c0.608 0.282 0.82 0.507 0.471 0.503l-2.291-0.013c-0.349-0.008-1.138-0.238-1.743-0.521l-4.095-1.889c-0.611-0.281-0.822-0.506-0.471-0.506" fill-rule="evenodd" fill="#f7f9f8"/></g><g id="g312" transform="translate(490.22 199.76)"><path id="path314" d="m0 0 2.292 0.018c0.354 0.003 1.133 0.238 1.745 0.514l4.095 1.891c0.611 0.287 0.822 0.514 0.471 0.504l-2.291-0.018c-0.348 0-1.134-0.236-1.744-0.516l-4.097-1.893c-0.611-0.275-0.823-0.506-0.471-0.5" fill-rule="evenodd" fill="#f7f9f8"/></g><g id="g316" transform="translate(494.62 199.8)"><path id="path318" d="m0 0 2.292 0.019c0.35 0.002 1.137 0.236 1.745 0.515l4.095 1.891c0.607 0.283 0.823 0.506 0.471 0.506l-2.293-0.022c-0.351-0.002-1.138-0.232-1.747-0.515l-4.091-1.887c-0.612-0.28-0.824-0.509-0.472-0.507" fill-rule="evenodd" fill="#f7f9f8"/></g><g id="g320" transform="translate(499.02 199.84)"><path id="path322" d="m0 0 2.289 0.018c0.35 0.003 1.144 0.24 1.747 0.517l4.095 1.889c0.61 0.282 0.819 0.511 0.472 0.506l-2.29-0.016c-0.35-0.004-1.138-0.238-1.746-0.519l-4.096-1.891c-0.61-0.279-0.823-0.51-0.471-0.504" fill-rule="evenodd" fill="#f7f9f8"/></g><g id="g324" transform="translate(503.42 199.88)"><path id="path326" d="m0 0 2.293 0.021c0.35 0 1.137 0.235 1.746 0.517l4.095 1.885c0.609 0.285 0.816 0.51 0.471 0.51l-2.292-0.024c-0.352 0-1.138-0.232-1.748-0.514l-4.092-1.889c-0.611-0.279-0.826-0.506-0.473-0.506" fill-rule="evenodd" fill="#f7f9f8"/></g><g id="g328" transform="translate(507.82 199.92)"><path id="path330" d="m0 0 2.288 0.015c0.354 0.004 1.136 0.236 1.746 0.517l4.096 1.893c0.61 0.279 0.819 0.508 0.471 0.506l-2.291-0.022c-0.355-0.002-1.134-0.232-1.744-0.515l-4.096-1.889c-0.608-0.282-0.823-0.507-0.47-0.505" fill-rule="evenodd" fill="#f7f9f8"/></g><g id="g332" transform="translate(512.22 199.95)"><path id="path334" d="m0 0 2.294 0.025c0.35 0.002 1.131 0.235 1.742 0.512l4.098 1.891c0.608 0.28 0.824 0.512 0.472 0.507l-2.297-0.019c-0.349-0.002-1.135-0.236-1.747-0.521l-4.091-1.889c-0.612-0.277-0.824-0.51-0.471-0.506" fill-rule="evenodd" fill="#f7f9f8"/></g><g id="g336" transform="translate(516.64 199.99)"><path id="path338" d="m0 0 4.142 0.035c0.358 0.004 1.156 0.24 1.775 0.527l4.057 1.869c0.623 0.289 0.834 0.523 0.48 0.519l-4.142-0.039c-0.358 0-1.158-0.238-1.776-0.522l-4.058-1.871c-0.622-0.288-0.837-0.518-0.478-0.518" fill-rule="evenodd" fill="#f7f9f8"/></g><g id="g340" transform="translate(488.75 203.1)"><path id="path342" d="m0 0 2.293 0.022c0.35 0.004 1.134 0.234 1.742 0.518l4.096 1.891c0.61 0.281 0.825 0.506 0.472 0.504l-2.291-0.022c-0.351-0.002-1.138-0.236-1.748-0.519l-4.094-1.885c-0.612-0.282-0.824-0.509-0.47-0.509" fill-rule="evenodd" fill="#f7f9f8"/></g><g id="g344" transform="translate(493.15 203.13)"><path id="path346" d="m0 0 2.29 0.023c0.35 0 1.139 0.237 1.747 0.518l4.095 1.891c0.609 0.277 0.822 0.507 0.467 0.504l-2.288-0.018c-0.352-0.006-1.137-0.238-1.746-0.52l-4.094-1.886c-0.609-0.285-0.822-0.512-0.471-0.512" fill-rule="evenodd" fill="#f7f9f8"/></g><g id="g348" transform="translate(497.55 203.17)"><path id="path350" d="m0 0 2.291 0.021c0.353 0.006 1.142 0.235 1.751 0.518l4.095 1.889c0.609 0.284 0.816 0.509 0.47 0.505l-2.294-0.017c-0.35-0.004-1.135-0.234-1.743-0.518l-4.094-1.888c-0.611-0.283-0.826-0.51-0.476-0.51" fill-rule="evenodd" fill="#f7f9f8"/></g><g id="g352" transform="translate(501.95 203.22)"><path id="path354" d="m0 0 2.291 0.018c0.352 0 1.138 0.238 1.748 0.516l4.095 1.891c0.605 0.281 0.822 0.508 0.471 0.504l-2.292-0.018c-0.349-0.006-1.136-0.234-1.746-0.518l-4.092-1.889c-0.611-0.279-0.824-0.508-0.475-0.504" fill-rule="evenodd" fill="#f7f9f8"/></g><g id="g356" transform="translate(506.35 203.25)"><path id="path358" d="m0 0 2.29 0.018c0.353 0.005 1.138 0.234 1.747 0.517l4.09 1.889c0.617 0.285 0.825 0.51 0.476 0.506l-2.292-0.02c-0.353-0.002-1.137-0.236-1.744-0.512l-4.097-1.892c-0.609-0.282-0.822-0.51-0.47-0.506" fill-rule="evenodd" fill="#f7f9f8"/></g><g id="g360" transform="translate(510.76 203.29)"><path id="path362" d="m0 0 2.29 0.02c0.349 0.001 1.134 0.234 1.744 0.521l4.094 1.887c0.61 0.28 0.824 0.507 0.47 0.507l-2.285-0.023c-0.355-0.004-1.14-0.235-1.749-0.512l-4.095-1.894c-0.613-0.283-0.826-0.508-0.469-0.506" fill-rule="evenodd" fill="#f7f9f8"/></g><g id="g364" transform="translate(515.15 203.33)"><path id="path366" d="m0 0 2.291 0.02c0.35 0.003 1.134 0.232 1.742 0.514l4.098 1.889c0.61 0.281 0.822 0.512 0.472 0.512l-2.292-0.026c-0.349 0-1.134-0.236-1.744-0.511l-4.095-1.893c-0.609-0.282-0.822-0.509-0.472-0.505" fill-rule="evenodd" fill="#f7f9f8"/></g><g id="g368" transform="translate(519.57 203.37)"><path id="path370" d="m0 0 4.144 0.035c0.357 0.006 1.156 0.24 1.777 0.526l4.055 1.875c0.622 0.285 0.837 0.515 0.481 0.515l-4.145-0.035c-0.359-0.006-1.156-0.24-1.778-0.529l-4.055-1.871c-0.622-0.288-0.836-0.52-0.479-0.516" fill-rule="evenodd" fill="#f7f9f8"/></g><g id="g372" transform="translate(526.04 203.42)"><path id="path374" d="m0 0 2.18 0.018c0.328 0.003 1.08 0.222 1.658 0.49l4.205 1.938c0.582 0.27 0.778 0.487 0.446 0.487l-2.18-0.024c-0.332 0-1.079-0.226-1.659-0.489l-4.205-1.941c-0.581-0.268-0.782-0.483-0.445-0.479" fill-rule="evenodd" fill="#f7f9f8"/></g><g id="g376" transform="translate(503.27 208.49)"><path id="path378" d="m0 0 22.866 0.198c0.35 0.004 1.129 0.233 1.738 0.515l9.631 4.159c0.606 0.274 0.815 0.498 0.467 0.496l-22.865-0.197c-0.347 0-1.134-0.233-1.738-0.516l-9.628-4.149c-0.612-0.283-0.821-0.508-0.471-0.506" fill-rule="evenodd" fill="#f7f9f8"/></g><g id="g380" transform="translate(508.9 179.64)"><path id="path382" d="m0 0h-85.455l-2.063 3.692 87.622-1.057-0.104-2.635z" fill="#76888c"/></g><g id="g384" transform="translate(415.97 189.09)"><path id="path386" d="m0 0c1.952-3.97 6.561-7.216 10.242-7.216h80.802c3.683 0 5.102 3.246 3.151 7.216l-30.83 62.735c-1.951 3.967-6.56 7.214-10.243 7.214h-80.801c-3.683 0-5.101-3.247-3.151-7.214l30.83-62.735z" fill="#dadada"/></g><g id="g388" transform="translate(508.13 185.72)"><path id="path390" d="m0 0-30.83 62.733c-1.951 3.968-6.56 7.212-10.242 7.212h-80.803c-0.766 0-1.426-0.144-1.983-0.402 0.035 2.241 1.496 3.771 4.024 3.771h80.801c3.682 0 8.292-3.247 10.243-7.213l30.836-62.736c1.544-3.142 0.97-5.827-1.166-6.811 0.017 1.027-0.263 2.203-0.874 3.446" fill="#e6e6e8"/></g><g id="g392"><g id="g400"><g id="g402" opacity=".10001" clip-path="url(#clipPath396)"><g id="g404" transform="translate(388.3 259.04)"><path id="path406" d="m0 0h80.801c1.313 0 2.739-0.424 4.123-1.137l-49.481-75.575c-3.069 1.009-6.235 3.649-7.764 6.763l-30.83 62.735c-1.95 3.967-0.532 7.214 3.151 7.214" fill="#f7f9f8"/></g></g></g></g><g id="g408" fill="#475673" transform="translate(517.63 219.29)"><path id="path410" d="m0 0s19.882 21.473 27.308 42.203c8.471 23.654-8.274 51.137 6.326 51.945 14.599 0.811 18.492-37.634 12.167-57.589-6.327-19.954-32.875-46.319-32.875-46.319l-12.926 9.76z" fill="#475673"/></g><g id="g412" transform="translate(529.53 210.53)"><path id="path414" d="m0 0s-3.969-9.893-12.614-13.801c-2.3-1.498-2.716 0.192-1.259 1.59 1.456 1.4 3.132 3.307 3.255 3.482 0.117 0.178-4.13-2.822-5.699-4.076-1.573-1.254-3.256 0.178-1.527 1.776 1.729 1.601 5.091 4.422 5.091 4.422s-6.025-4.452-7.626-5.28c-1.597-0.83-3.076 0.705-1.242 2.19 1.835 1.48 6.679 5.228 6.679 5.228s-4.885-3.773-7.046-4.531c-2.161-0.756-3.078 0.994-1.363 2.393 1.718 1.394 5.319 3.558 5.319 3.558s-2.596 0.301-4.89-0.93c-2.611-1.404-4.933 0.375-1.554 3.083 2.062 1.648 9.595 8.289 15.872 7.39 5.92-4.029 8.604-6.494 8.604-6.494" fill="#f9bb78"/></g><g id="g416" transform="translate(516.58 346.45)"><path id="path418" d="m0 0s-21.315-3.639-30.675 13.518c-9.358 17.158-20.275 56.15-20.275 56.15s25.476 0.52 43.153 11.957c21.835-11.957 32.235-13.515 32.235-13.515s9.878-60.835-24.438-68.11" fill="#fed196"/></g><g id="g420"><g id="g428"><g id="g430" opacity=".35001" clip-path="url(#clipPath424)"><g id="g432" transform="translate(494.56 421.37)"><path id="path434" d="m0 0c2.122-5.342 3.746-9.506 3.746-9.506s0.082-6.203 0-17.395c-0.081-11.194-1.785-24.429 1.621-32.714 3.385-8.232 3.814-13.777 10.183-15.592-7.051 0.299-18.136 2.68-24.204 13.801-9.359 17.158-20.276 56.151-20.276 56.151s14.315 0.293 28.93 5.255" fill="#ffc483"/></g></g></g></g><g id="g436" transform="translate(541.4 381.18)"><path id="path438" d="m0 0s9.459 22.101 7.463 42.46c-1.995 20.36-27.889 37.818-49.019 28.172-29.849-13.626-52.38-8.9-52.38-8.9s7.91-30.752 20.288-34.065c38.256-10.242 52.369 8.322 52.369 8.322s5.453-16.55 13.836-24.933c3.926 12.94-0.711 23.553-0.711 23.553s11.348-26.629 8.154-34.609" fill="#231f20"/></g><g id="g440" transform="translate(491.29 364.54)"><path id="path442" d="m0 0s11.558-12.531 21.778 0" stroke="#231f20" stroke-miterlimit="10" fill="#fed196"/></g><g id="g444" transform="translate(498.69 367.46)"><path id="path446" d="m0 0c-3.811 0-11.117 3.649-6.141 9.164 4.551 5.043 5.721 15.543 5.721 15.543" stroke="#231f20" stroke-miterlimit="10" fill="#fed196"/></g><g id="g448" transform="translate(508.72 432.94)"><path id="path450" d="m0 0c-29.232-19.981-53.517-7.402-55.531-6.311-3.659 8.279-5.722 16.28-5.722 16.28s22.53-4.726 52.38 8.9c21.13 9.646 47.023-7.812 49.019-28.172 1.996-20.359-7.463-42.46-7.463-42.46 0.328 0.81 0.44 4.355 0.49 5.508 11.527 66.121-29.852 48.487-33.173 46.255" fill="#3d3d3f"/></g><g id="g452" transform="translate(481.01 390.72)"><path id="path454" d="m0 0c0 2.559 2.077 4.635 4.636 4.635 2.562 0 4.638-2.076 4.635-4.635 0.003-2.562-2.073-4.638-4.635-4.636-2.559-0.002-4.636 2.074-4.636 4.636" fill="#fff"/></g><g id="g456" transform="translate(483.05 389.88)"><path id="path458" d="m0 0c0 1.897 1.542 3.438 3.44 3.438 1.903 0 3.444-1.541 3.444-3.438 0-1.902-1.541-3.443-3.444-3.443-1.898 0-3.44 1.541-3.44 3.443" fill="#88a4b2"/></g><g id="g460" transform="translate(484.58 389.36)"><path id="path462" d="m0 0c0 1.054 0.855 1.907 1.909 1.907 1.051 0 1.904-0.857 1.904-1.907 0-1.053-0.851-1.906-1.904-1.906-1.054 0-1.909 0.855-1.909 1.906" fill="#0b1316"/></g><g id="g464" transform="translate(517.7 390.72)"><path id="path466" d="m0 0c0 2.559-2.076 4.635-4.635 4.635-2.562 0-4.639-2.076-4.636-4.635-0.003-2.562 2.074-4.638 4.636-4.636 2.559-0.002 4.635 2.074 4.635 4.636" fill="#fff"/></g><g id="g468" transform="translate(515.66 389.88)"><path id="path470" d="m0 0c0 1.897-1.542 3.438-3.44 3.438-1.901 0-3.443-1.541-3.443-3.438 0-1.902 1.542-3.443 3.443-3.443 1.898 0 3.44 1.541 3.44 3.443" fill="#88a4b2"/></g><g id="g472" transform="translate(514.13 389.36)"><path id="path474" d="m0 0c0 1.054-0.855 1.907-1.908 1.907-1.052 0-1.905-0.857-1.905-1.907 0-1.053 0.851-1.906 1.905-1.906 1.053 0 1.908 0.855 1.908 1.906" fill="#0b1316"/></g></g></g></svg>
