<?xml version="1.0" encoding="UTF-8" standalone="no"?>
<svg
   xmlns:dc="http://purl.org/dc/elements/1.1/"
   xmlns:cc="http://creativecommons.org/ns#"
   xmlns:rdf="http://www.w3.org/1999/02/22-rdf-syntax-ns#"
   xmlns:svg="http://www.w3.org/2000/svg"
   xmlns="http://www.w3.org/2000/svg"
   viewBox="0 0 210 350"
   height="350"
   width="210"
   xml:space="preserve"
   version="1.1"
   id="svg2"><metadata
     id="metadata8"><rdf:RDF><cc:Work
         rdf:about=""><dc:format>image/svg+xml</dc:format><dc:type
           rdf:resource="http://purl.org/dc/dcmitype/StillImage" /><dc:title></dc:title></cc:Work></rdf:RDF></metadata><defs
     id="defs6"><clipPath
       id="clipPath226"
       clipPathUnits="userSpaceOnUse"><path
         id="path228"
         d="m 1474.77,1083.43 c -316.59,0 -573.239,48.76 -573.239,108.88 0,60.14 256.649,108.9 573.239,108.9 316.59,0 573.24,-48.76 573.24,-108.9 0,-60.12 -256.65,-108.88 -573.24,-108.88" /></clipPath></defs><g
     transform="matrix(1.25,0,0,-1.25,0,350)"
     id="g10"><path
       d="m 93.561522,7.3927949 c 0.344779,0 0.678917,-0.036647 1.000758,-0.1010187 1.239078,1.4384323 1.97121,3.2075758 1.97121,5.1220228 0,4.814137 -4.61969,8.717064 -10.318743,8.717064 -5.698246,0 -10.317114,-3.902927 -10.317114,-8.717064 0,-4.8141366 4.618868,-8.717053 10.317114,-8.717053 1.041696,0 2.045735,0.1314519 2.994067,0.3736122 0.221116,1.8660194 2.085048,3.3224367 4.352708,3.3224367"
       style="fill:#313847;fill-opacity:1;fill-rule:nonzero;stroke:none"
       id="path240" /><path
       d="m 72.740591,16.110545 c 0,2.041747 -1.958923,3.696736 -4.376464,3.696736 -2.415895,0 -4.374818,-1.654989 -4.374818,-3.696736 0,-2.041756 1.958923,-3.696746 4.374818,-3.696746 2.417541,0 4.376464,1.65499 4.376464,3.696746"
       style="fill:#313847;fill-opacity:1;fill-rule:nonzero;stroke:none"
       id="path242" /><path
       d="m 123.00636,70.852822 c 0,1.023243 -0.0403,2.037036 -0.11905,3.041358 l 0,57.10567 c 0,8.40695 -6.938,15.22228 -15.4954,15.22228 l -48.554617,0 c -8.557389,0 -15.495392,-6.81533 -15.495392,-15.22228 l 0,-57.110828 c -0.07872,-1.001743 -0.119051,-2.01467 -0.119051,-3.0362 0,-16.039153 9.812644,-29.826306 23.861961,-35.890103 0,0 -9.355711,-12.365789 -6.91612,-15.988424 3.211647,-4.768836 17.091146,-6.170422 22.912197,-6.170422 0.359775,0 1.077561,0 1.436449,0 5.822814,0 20.448983,1.401586 23.660643,6.170422 2.56389,3.806647 -7.26801,16.801862 -7.26801,16.801862 13.0987,6.424085 22.09639,19.717676 22.09639,35.076665"
       style="fill:#f25b4a;fill-opacity:1;fill-rule:nonzero;stroke:none"
       id="path244" /><path
       d="m 72.740591,4.7269604 c 0,2.0417567 -1.958923,3.6967461 -4.376464,3.6967461 -2.415895,0 -4.374818,-1.6549894 -4.374818,-3.6967461 0,-2.0417566 1.958923,-3.696746 4.374818,-3.696746 2.417541,0 4.376464,1.6549894 4.376464,3.696746"
       style="fill:#313847;fill-opacity:1;fill-rule:nonzero;stroke:none"
       id="path260" /><path
       d="m 109.21163,8.4237065 c 0,1.3567827 -1.30295,2.4568755 -2.90809,2.4568755 -1.60595,0 -2.90726,-1.1000928 -2.90726,-2.4568755 0,-1.3567928 1.30131,-2.4568858 2.90726,-2.4568858 1.60514,0 2.90809,1.100093 2.90809,2.4568858"
       style="fill:#313847;fill-opacity:1;fill-rule:nonzero;stroke:none"
       id="path262" /><path
       d="M 94.56228,7.2917762 C 93.256056,5.7744727 91.385582,4.6266387 89.208814,4.0703582 89.194133,3.9472017 89.185955,3.822671 89.185955,3.696746 89.185955,1.6549893 91.144878,0 93.561591,0 c 2.415905,0 4.374828,1.6549893 4.374828,3.696746 0,1.7497742 -1.441345,3.2124155 -3.37407,3.5950302"
       style="fill:#313847;fill-opacity:1;fill-rule:nonzero;stroke:none"
       id="path264" /><path
       d="m 94.56228,7.2917762 c -0.321841,0.064332 -0.655979,0.1010187 -1.000758,0.1010187 -2.26766,0 -4.131592,-1.4564173 -4.352708,-3.3224367 2.176768,0.5562805 4.047242,1.7041145 5.353466,3.221418"
       style="fill:#44bea0;fill-opacity:1;fill-rule:nonzero;stroke:none"
       id="path266" /><path
       d="m 85.438504,263.77042 0,2.88696 c 0,0.90722 -0.726151,1.63917 -1.619799,1.63917 -0.898575,0 -1.623741,-0.73195 -1.623741,-1.63917 l 0,-2.88696 -5.258432,5.31384 6.882173,6.957 6.879221,-6.957 -5.259422,-5.31384 z m 8.701003,6.475 -9.173937,9.27433 c -0.63452,0.64033 -1.662167,0.64033 -2.295701,0 l -9.173933,-9.27433 c -0.635506,-0.64132 -0.635506,-1.677 0,-2.31833 l 8.699028,-8.79334 0,-16.51713 c 0,-0.90522 0.725166,-1.63916 1.623741,-1.63916 0.893648,0 1.619799,0.73394 1.619799,1.63916 l 0,16.51713 8.701003,8.79334 c 0.633535,0.64133 0.633535,1.67701 0,2.31833"
       style="fill:#44bea0;fill-opacity:1;fill-rule:nonzero;stroke:none"
       id="path440" /><path
       d="m 100.49752,236.3398 c 0,9.2564 -7.4231,16.75812 -16.579302,16.75812 -9.158169,0 -16.580279,-7.50172 -16.580279,-16.75812 0,-9.25442 7.42211,-16.75415 16.580279,-16.75415 9.156202,0 16.579302,7.49973 16.579302,16.75415"
       style="fill:#313847;fill-opacity:1;fill-rule:nonzero;stroke:none"
       id="path442" /><path
       d="m 21.381549,131.31272 125.237891,0 0,8.50049 -125.237891,0 0,-8.50049 z"
       style="fill:#44bea0;fill-opacity:1;fill-rule:nonzero;stroke:none"
       id="path452" /><path
       d="m 156.35203,69.333148 0,28.143652 -5.99543,0 0,-28.143652 c -6.64177,-1.39817 -11.64699,-7.362302 -11.64699,-14.487592 0,-3.413766 1.17347,-6.743881 3.31251,-9.378894 l 4.11946,3.410778 c -1.3794,1.699912 -2.10949,3.763309 -2.10949,5.968116 0,5.193345 4.1835,9.419723 9.32272,9.419723 5.13823,0 9.32173,-4.226378 9.32173,-9.419723 0,-2.248625 -0.79907,-4.427539 -2.24447,-6.132431 l 4.04161,-3.502396 C 166.74771,47.888564 168,51.312288 168,54.845556 c 0,7.12529 -5.00916,13.089422 -11.64797,14.487592"
       style="fill:#44bea0;fill-opacity:1;fill-rule:nonzero;stroke:none"
       id="path454" /><path
       d="m 158.64871,96.758794 c 0,-2.955676 -2.37058,-5.351686 -5.2939,-5.351686 -2.92431,0 -5.29293,2.39601 -5.29293,5.351686 l 0,36.783626 c 0,2.95468 2.36862,5.35069 5.29293,5.35069 2.92332,0 5.2939,-2.39601 5.2939,-5.35069 l 0,-36.783626"
       style="fill:#b0ce28;fill-opacity:1;fill-rule:nonzero;stroke:none"
       id="path456" /><path
       d="m 162.09226,123.67755 c 0,-2.74356 -2.20111,-4.96729 -4.91555,-4.96729 l -7.6438,0 c -2.71642,0 -4.91556,2.22373 -4.91556,4.96729 l 0,23.77288 c 0,2.74256 2.19914,4.96629 4.91556,4.96629 l 7.6438,0 c 2.71444,0 4.91555,-2.22373 4.91555,-4.96629 l 0,-23.77288"
       style="fill:#f25b4a;fill-opacity:1;fill-rule:nonzero;stroke:none"
       id="path458" /><path
       d="m 157.67033,75.290309 c 0,-1.352361 -1.08775,-2.452773 -2.42674,-2.452773 l -3.77855,0 c -1.33899,0 -2.42773,1.100412 -2.42773,2.452773 l 0,11.74204 c 0,1.354353 1.08874,2.454765 2.42773,2.454765 l 3.77855,0 c 1.33899,0 2.42674,-1.100412 2.42674,-2.454765 l 0,-11.74204"
       style="fill:#f25b4a;fill-opacity:1;fill-rule:nonzero;stroke:none"
       id="path460" /><path
       d="m 11.649944,69.333148 0,28.143652 5.993455,0 0,-28.143652 c 6.641769,-1.39817 11.648959,-7.362302 11.648959,-14.487592 0,-3.413766 -1.174453,-6.743881 -3.31448,-9.378894 l -4.119453,3.410778 c 1.379391,1.699912 2.108498,3.763309 2.108498,5.968116 0,5.193345 -4.181526,9.419723 -9.322714,9.419723 -5.1362623,0 -9.3207441,-4.226378 -9.3207441,-9.419723 0,-2.248625 0.7980764,-4.427539 2.2434813,-6.132431 L 3.5263152,45.210729 C 1.2522902,47.888564 0,51.312288 0,54.845556 c 0,7.12529 5.0081755,13.089422 11.649944,14.487592"
       style="fill:#44bea0;fill-opacity:1;fill-rule:nonzero;stroke:none"
       id="path462" /><path
       d="m 9.3522726,96.758794 c 0,-2.955676 2.3695974,-5.351686 5.2919364,-5.351686 2.923324,0 5.294891,2.39601 5.294891,5.351686 l 0,36.783626 c 0,2.95468 -2.371567,5.35069 -5.294891,5.35069 -2.922339,0 -5.2919364,-2.39601 -5.2919364,-5.35069 l 0,-36.783626"
       style="fill:#b0ce28;fill-opacity:1;fill-rule:nonzero;stroke:none"
       id="path464" /><path
       d="m 5.9077356,123.67755 c 0,-2.74356 2.200129,-4.96729 4.9155594,-4.96729 l 7.644783,0 c 2.714445,0 4.913589,2.22373 4.913589,4.96729 l 0,23.77288 c 0,2.74256 -2.199144,4.96629 -4.913589,4.96629 l -7.644783,0 c -2.7154304,0 -4.9155594,-2.22373 -4.9155594,-4.96629 l 0,-23.77288"
       style="fill:#f25b4a;fill-opacity:1;fill-rule:nonzero;stroke:none"
       id="path466" /><path
       d="m 10.32967,75.290309 c 0,-1.352361 1.086763,-2.452773 2.427728,-2.452773 l 3.777562,0 c 1.33998,0 2.427728,1.100412 2.427728,2.452773 l 0,11.74204 c 0,1.354353 -1.087748,2.454765 -2.427728,2.454765 l -3.777562,0 c -1.340965,0 -2.427728,-1.100412 -2.427728,-2.454765 l 0,-11.74204"
       style="fill:#f25b4a;fill-opacity:1;fill-rule:nonzero;stroke:none"
       id="path468" /><path
       d="m 70.748977,171.58978 0,-3.58705 10.431149,3.58705 -10.431149,0"
       style="fill:#f25b4a;fill-opacity:1;fill-rule:nonzero;stroke:none"
       id="path470" /><path
       d="m 70.748977,151.70867 0.706445,0 25.089152,8.63002 0,2.91286 -25.795597,-8.874 0,-2.66888"
       style="fill:#f25b4a;fill-opacity:1;fill-rule:nonzero;stroke:none"
       id="path472" /><path
       d="m 70.748977,162.64607 0,-2.91285 25.795597,8.87399 0,2.91385 -25.795597,-8.87499"
       style="fill:#f25b4a;fill-opacity:1;fill-rule:nonzero;stroke:none"
       id="path474" /><path
       d="m 95.48934,151.70867 1.055234,0.36249 0,2.91186 -9.521741,-3.27435 8.466507,0"
       style="fill:#f25b4a;fill-opacity:1;fill-rule:nonzero;stroke:none"
       id="path476" /><path
       d="m 96.544574,171.58978 -15.364448,0 -10.431149,-3.58705 0,-5.35666 25.795597,8.87499 0,0.0687"
       style="fill:#313847;fill-opacity:1;fill-rule:nonzero;stroke:none"
       id="path478" /><path
       d="m 70.748977,154.37755 25.795597,8.874 0,5.35566 -25.795597,-8.87399 0,-5.35567"
       style="fill:#313847;fill-opacity:1;fill-rule:nonzero;stroke:none"
       id="path480" /><path
       d="m 87.022833,151.70867 9.521741,3.27435 0,5.35567 -25.089152,-8.63002 15.567411,0"
       style="fill:#313847;fill-opacity:1;fill-rule:nonzero;stroke:none"
       id="path482" /><path
       d="m 96.544574,151.70867 0,0.36249 -1.055234,-0.36249 1.055234,0"
       style="fill:#313847;fill-opacity:1;fill-rule:nonzero;stroke:none"
       id="path484" /><path
       d="m 126.9306,176.77217 c 0,-4.56596 -3.66032,-8.26653 -8.17782,-8.26653 l -70.212002,0 c -4.518492,0 -8.17979,3.70057 -8.17979,8.26653 l -2.635623,55.99751 c 0,4.56596 3.663269,8.26753 8.180775,8.26753 l 75.48029,0 c 4.51849,0 8.17979,-3.70157 8.17979,-8.26753 l -2.63562,-55.99751"
       style="fill:#b0ce28;fill-opacity:1;fill-rule:nonzero;stroke:none"
       id="path486" /><path
       d="m 112.57507,205.50138 c 3.54307,3.57708 3.54307,9.38089 0,12.95797 -3.54207,3.58007 -9.28231,3.58007 -12.821437,0 -3.540113,-3.57708 -3.540113,-9.38089 0,-12.95797 3.539127,-3.58007 9.279367,-3.58007 12.821437,0"
       style="fill:#ebf5bc;fill-opacity:1;fill-rule:nonzero;stroke:none"
       id="path488" /><path
       d="m 112.57507,205.50138 c 3.54307,3.57708 3.54307,9.38089 0,12.95797 -3.54207,3.58007 -9.28231,3.58007 -12.821437,0 l 12.821437,-12.95797"
       style="fill:#f25b4a;fill-opacity:1;fill-rule:nonzero;stroke:none"
       id="path490" /><path
       d="m 106.49196,184.17132 -45.547499,0 c -0.61777,0 -1.116322,0.50489 -1.116322,1.12829 0,0.62141 0.498552,1.1273 1.116322,1.1273 l 45.547499,0 c 0.61678,0 1.11632,-0.50589 1.11632,-1.1273 0,-0.6234 -0.49954,-1.12829 -1.11632,-1.12829"
       style="fill:#313847;fill-opacity:1;fill-rule:nonzero;stroke:none"
       id="path492" /><path
       d="m 67.541892,205.50138 c 3.539124,3.57708 3.539124,9.38089 0,12.95797 -3.54208,3.58007 -9.282318,3.58007 -12.823412,0 -3.541095,-3.57708 -3.541095,-9.38089 0,-12.95797 3.541094,-3.58007 9.281332,-3.58007 12.823412,0"
       style="fill:#ebf5bc;fill-opacity:1;fill-rule:nonzero;stroke:none"
       id="path494" /><path
       d="m 67.541892,205.50138 c 3.539124,3.57708 3.539124,9.38089 0,12.95797 -3.54208,3.58007 -9.282318,3.58007 -12.823412,0 l 12.823412,-12.95797"
       style="fill:#f25b4a;fill-opacity:1;fill-rule:nonzero;stroke:none"
       id="path496" /><path
       d="m 124.70584,47.488233 c 0,-7.47085 -5.99247,-13.529587 -13.38601,-13.529587 l -55.347089,0 c -7.391567,0 -13.385022,6.058737 -13.385022,13.529587 l 0,93.089847 c 0,7.47085 5.993455,13.5286 13.385022,13.5286 l 55.347089,0 c 7.39354,0 13.38601,-6.05775 13.38601,-13.5286 l 0,-93.089847"
       style="fill:#b0ce28;fill-opacity:1;fill-rule:nonzero;stroke:none"
       id="path498" /><path
       d="m 56.224972,128.04932 12.275597,0 0,12.40647 -12.275597,0 0,-12.40647 z"
       style="fill:#ebf5bc;fill-opacity:1;fill-rule:nonzero;stroke:none"
       id="path500" /><path
       d="m 77.50799,128.04932 12.275596,0 0,12.40647 -12.275596,0 0,-12.40647 z"
       style="fill:#f25b4a;fill-opacity:1;fill-rule:nonzero;stroke:none"
       id="path502" /><path
       d="m 98.792,128.04932 12.27481,0 0,12.40647 -12.27481,0 0,-12.40647 z"
       style="fill:#44bea0;fill-opacity:1;fill-rule:nonzero;stroke:none"
       id="path504" /><path
       d="m 56.224972,107.93918 12.275597,0 0,12.40726 -12.275597,0 0,-12.40726 z"
       style="fill:#ebf5bc;fill-opacity:1;fill-rule:nonzero;stroke:none"
       id="path506" /><path
       d="m 77.50799,107.93918 12.275596,0 0,12.40726 -12.275596,0 0,-12.40726 z"
       style="fill:#44bea0;fill-opacity:1;fill-rule:nonzero;stroke:none"
       id="path508" /><path
       d="m 98.792,107.93918 12.27481,0 0,12.40726 -12.27481,0 0,-12.40726 z"
       style="fill:#313847;fill-opacity:1;fill-rule:nonzero;stroke:none"
       id="path510" /><path
       d="m 56.224972,87.830023 12.275597,0 0,12.407267 -12.275597,0 0,-12.407267 z"
       style="fill:#313847;fill-opacity:1;fill-rule:nonzero;stroke:none"
       id="path512" /><path
       d="m 77.50799,87.830023 12.275596,0 0,12.407267 -12.275596,0 0,-12.407267 z"
       style="fill:#f25b4a;fill-opacity:1;fill-rule:nonzero;stroke:none"
       id="path514" /><path
       d="m 98.792,87.830023 12.27481,0 0,12.407267 -12.27481,0 0,-12.407267 z"
       style="fill:#ebf5bc;fill-opacity:1;fill-rule:nonzero;stroke:none"
       id="path516" /><path
       d="m 56.224972,67.719875 12.275597,0 0,12.40647 -12.275597,0 0,-12.40647 z"
       style="fill:#f25b4a;fill-opacity:1;fill-rule:nonzero;stroke:none"
       id="path518" /><path
       d="m 77.50799,67.719875 12.275596,0 0,12.40647 -12.275596,0 0,-12.40647 z"
       style="fill:#44bea0;fill-opacity:1;fill-rule:nonzero;stroke:none"
       id="path520" /><path
       d="m 98.792,67.719875 12.27481,0 0,12.40647 -12.27481,0 0,-12.40647 z"
       style="fill:#313847;fill-opacity:1;fill-rule:nonzero;stroke:none"
       id="path522" /><path
       d="m 56.224972,47.610722 12.275597,0 0,12.40647 -12.275597,0 0,-12.40647 z"
       style="fill:#44bea0;fill-opacity:1;fill-rule:nonzero;stroke:none"
       id="path524" /><path
       d="m 77.50799,47.610722 12.275596,0 0,12.40647 -12.275596,0 0,-12.40647 z"
       style="fill:#ebf5bc;fill-opacity:1;fill-rule:nonzero;stroke:none"
       id="path526" /><path
       d="m 98.792,47.610722 12.27481,0 0,12.40647 -12.27481,0 0,-12.40647 z"
       style="fill:#f25b4a;fill-opacity:1;fill-rule:nonzero;stroke:none"
       id="path528" /></g></svg>