<?xml version="1.0" encoding="UTF-8" standalone="no"?>
<!-- Generated by IcoMoon.io -->
<!DOCTYPE svg  PUBLIC '-//W3C//DTD SVG 1.1//EN'  'http://www.w3.org/Graphics/SVG/1.1/DTD/svg11.dtd'>
<svg xmlns="http://www.w3.org/2000/svg" height="64" width="256" version="1.1" xmlns:xlink="http://www.w3.org/1999/xlink" viewBox="0 0 256 64">
 <g transform="translate(0)">
  <path d="m16 32c8.812 0 16-7.188 16-16s-7.188-16-16-16c-8.813 0-16 7.188-16 16s7.188 16 16 16z" fill="#57a9aa"/>
  <path d="m22.036 14.063l4.657 13.838c-2.833 2.547-6.58 4.098-10.689 4.098h-0.007c-4.109-0.001-7.856-1.551-10.689-4.098l4.657-13.838h12.072z" fill="#333"/>
  <path d="m20.081 18.099l3.518 11.984c-2.26 1.222-4.848 1.916-7.597 1.917h-0.003c-2.75 0-5.337-0.694-7.597-1.917l3.518-11.984h8.161z" fill="#666"/>
  <path d="m8.972 5.233l4.215 6.609-5.267 1.159 1.052-7.768z" fill="#333"/>
  <path d="m23.031 5.233l-4.215 6.609 5.268 1.159-1.052-7.768z" fill="#333"/>
  <path d="m23.695 10.154l1.053 7.774-8.525 2.627-8.97-2.627 1.053-7.774 7.695-2.506 7.695 2.506z" fill="#333"/>
  <path d="m12.455 10.341c2.079 0 3.764 1.666 3.764 3.722s-1.685 3.722-3.764 3.722c-2.079 0-3.764-1.667-3.764-3.722s1.685-3.722 3.764-3.722z" fill="#fff"/>
  <path d="m19.545 10.341c2.079 0 3.764 1.666 3.764 3.722s-1.685 3.722-3.764 3.722-3.764-1.667-3.764-3.722c0-2.056 1.685-3.722 3.764-3.722z" fill="#fff"/>
  <path d="m14.994 16.243c0.163-2.375 1.886-2.295 2.011 0l-1.005 2.131-1.006-2.131z" fill="#f4762f"/>
  <path d="m12.455 13.123c0.52 0 0.941 0.421 0.941 0.941s-0.421 0.941-0.941 0.941-0.941-0.421-0.941-0.941c0-0.52 0.421-0.941 0.941-0.941z"/>
  <path d="m12.946 13.123c0.248 0 0.45 0.201 0.45 0.45s-0.201 0.449-0.45 0.449c-0.248 0-0.45-0.201-0.45-0.449s0.201-0.45 0.45-0.45z" fill="#fff"/>
  <path d="m19.545 13.123c0.52 0 0.941 0.421 0.941 0.941s-0.421 0.941-0.941 0.941c-0.519 0-0.941-0.421-0.941-0.941s0.422-0.941 0.941-0.941z"/>
  <path d="m20.037 13.123c0.248 0 0.449 0.201 0.449 0.45s-0.201 0.449-0.449 0.449c-0.248 0-0.45-0.201-0.45-0.449s0.201-0.45 0.45-0.45z" fill="#fff"/>
  <path d="m13.819 23.035c0.09 0.11 0.145 0.251 0.145 0.405 0 0.353-0.287 0.64-0.64 0.64s-0.64-0.287-0.64-0.64c0-0.154 0.054-0.295 0.145-0.405 0.118 0.143 0.296 0.235 0.495 0.235s0.378-0.091 0.495-0.235z" fill="#c3c3c3"/>
  <path d="m15.711 23.035c0.09 0.11 0.145 0.251 0.145 0.405 0 0.353-0.287 0.64-0.64 0.64s-0.64-0.287-0.64-0.64c0-0.154 0.054-0.295 0.145-0.405 0.117 0.143 0.296 0.235 0.495 0.235s0.378-0.091 0.495-0.235z" fill="#c3c3c3"/>
  <path d="m17.602 23.035c0.09 0.11 0.145 0.251 0.145 0.405 0 0.353-0.287 0.64-0.64 0.64s-0.64-0.287-0.64-0.64c0-0.154 0.054-0.295 0.145-0.405 0.117 0.143 0.296 0.235 0.495 0.235s0.378-0.091 0.495-0.235z" fill="#c3c3c3"/>
  <path d="m19.494 23.035c0.09 0.11 0.145 0.251 0.145 0.405 0 0.353-0.287 0.64-0.64 0.64s-0.64-0.287-0.64-0.64c0-0.154 0.054-0.295 0.145-0.405 0.118 0.143 0.296 0.235 0.495 0.235s0.378-0.091 0.495-0.235z" fill="#c3c3c3"/>
  <path d="m14.798 21.509c0.09 0.11 0.145 0.251 0.145 0.405 0 0.354-0.287 0.64-0.64 0.64s-0.64-0.287-0.64-0.64c0-0.154 0.054-0.295 0.145-0.405 0.117 0.143 0.296 0.235 0.495 0.235s0.378-0.092 0.495-0.235z" fill="#c3c3c3"/>
  <path d="m16.689 21.509c0.09 0.11 0.145 0.251 0.145 0.405 0 0.354-0.287 0.64-0.64 0.64s-0.64-0.287-0.64-0.64c0-0.154 0.054-0.295 0.145-0.405 0.117 0.143 0.296 0.235 0.495 0.235s0.378-0.092 0.495-0.235z" fill="#c3c3c3"/>
  <path d="m18.581 21.509c0.09 0.11 0.145 0.251 0.145 0.405 0 0.354-0.287 0.64-0.64 0.64s-0.64-0.287-0.64-0.64c0-0.154 0.054-0.295 0.145-0.405 0.117 0.143 0.296 0.235 0.495 0.235s0.378-0.092 0.495-0.235z" fill="#c3c3c3"/>
  <path d="m14.798 24.724c0.09 0.111 0.145 0.252 0.145 0.405 0 0.354-0.287 0.64-0.64 0.64s-0.64-0.287-0.64-0.64c0-0.154 0.054-0.295 0.145-0.405 0.117 0.143 0.296 0.235 0.495 0.235s0.378-0.091 0.495-0.235z" fill="#c3c3c3"/>
  <path d="m16.689 24.724c0.09 0.111 0.145 0.252 0.145 0.405 0 0.354-0.287 0.64-0.64 0.64s-0.64-0.287-0.64-0.64c0-0.154 0.054-0.295 0.145-0.405 0.117 0.143 0.296 0.235 0.495 0.235s0.378-0.091 0.495-0.235z" fill="#c3c3c3"/>
  <path d="m18.581 24.724c0.09 0.111 0.145 0.252 0.145 0.405 0 0.354-0.287 0.64-0.64 0.64s-0.64-0.287-0.64-0.64c0-0.154 0.054-0.295 0.145-0.405 0.117 0.143 0.296 0.235 0.495 0.235s0.378-0.091 0.495-0.235z" fill="#c3c3c3"/>
  <path d="m20.473 24.724c0.09 0.111 0.145 0.252 0.145 0.405 0 0.354-0.287 0.64-0.64 0.64s-0.64-0.287-0.64-0.64c0-0.154 0.054-0.295 0.145-0.405 0.117 0.143 0.296 0.235 0.495 0.235s0.378-0.091 0.495-0.235z" fill="#c3c3c3"/>
  <path d="m12.906 24.724c0.09 0.111 0.145 0.252 0.145 0.405 0 0.354-0.287 0.64-0.64 0.64s-0.64-0.287-0.64-0.64c0-0.154 0.054-0.295 0.145-0.405 0.117 0.143 0.296 0.235 0.495 0.235s0.378-0.091 0.495-0.235z" fill="#c3c3c3"/>
  <path d="m13.819 26.358c0.09 0.11 0.145 0.252 0.145 0.405 0 0.354-0.287 0.64-0.64 0.64s-0.64-0.287-0.64-0.64c0-0.154 0.054-0.295 0.145-0.405 0.118 0.143 0.296 0.235 0.495 0.235s0.378-0.091 0.495-0.235z" fill="#c3c3c3"/>
  <path d="m15.711 26.358c0.09 0.11 0.145 0.252 0.145 0.405 0 0.354-0.287 0.64-0.64 0.64s-0.64-0.287-0.64-0.64c0-0.154 0.054-0.295 0.145-0.405 0.117 0.143 0.296 0.235 0.495 0.235s0.378-0.091 0.495-0.235z" fill="#c3c3c3"/>
  <path d="m17.602 26.358c0.09 0.11 0.145 0.252 0.145 0.405 0 0.354-0.287 0.64-0.64 0.64s-0.64-0.287-0.64-0.64c0-0.154 0.054-0.295 0.145-0.405 0.117 0.143 0.296 0.235 0.495 0.235s0.378-0.091 0.495-0.235z" fill="#c3c3c3"/>
  <path d="m19.494 26.358c0.09 0.11 0.145 0.252 0.145 0.405 0 0.354-0.287 0.64-0.64 0.64s-0.64-0.287-0.64-0.64c0-0.154 0.054-0.295 0.145-0.405 0.118 0.143 0.296 0.235 0.495 0.235s0.378-0.091 0.495-0.235z" fill="#c3c3c3"/>
  <path d="m11.928 26.358c0.09 0.11 0.145 0.252 0.145 0.405 0 0.354-0.287 0.64-0.64 0.64s-0.64-0.287-0.64-0.64c0-0.154 0.054-0.295 0.145-0.405 0.117 0.143 0.296 0.235 0.495 0.235s0.378-0.091 0.495-0.235z" fill="#c3c3c3"/>
  <path d="m21.385 26.358c0.09 0.11 0.145 0.252 0.145 0.405 0 0.354-0.287 0.64-0.64 0.64s-0.64-0.287-0.64-0.64c0-0.154 0.054-0.295 0.145-0.405 0.117 0.143 0.296 0.235 0.495 0.235s0.378-0.091 0.495-0.235z" fill="#c3c3c3"/>
  <path d="m14.798 28.121c0.09 0.111 0.145 0.252 0.145 0.405 0 0.354-0.287 0.64-0.64 0.64s-0.64-0.287-0.64-0.64c0-0.154 0.054-0.295 0.145-0.405 0.117 0.143 0.296 0.235 0.495 0.235s0.378-0.091 0.495-0.235z" fill="#c3c3c3"/>
  <path d="m16.689 28.121c0.09 0.111 0.145 0.252 0.145 0.405 0 0.354-0.287 0.64-0.64 0.64s-0.64-0.287-0.64-0.64c0-0.154 0.054-0.295 0.145-0.405 0.117 0.143 0.296 0.235 0.495 0.235s0.378-0.091 0.495-0.235z" fill="#c3c3c3"/>
  <path d="m18.581 28.121c0.09 0.111 0.145 0.252 0.145 0.405 0 0.354-0.287 0.64-0.64 0.64s-0.64-0.287-0.64-0.64c0-0.154 0.054-0.295 0.145-0.405 0.117 0.143 0.296 0.235 0.495 0.235s0.378-0.091 0.495-0.235z" fill="#c3c3c3"/>
  <path d="m20.473 28.121c0.09 0.111 0.145 0.252 0.145 0.405 0 0.354-0.287 0.64-0.64 0.64s-0.64-0.287-0.64-0.64c0-0.154 0.054-0.295 0.145-0.405 0.117 0.143 0.296 0.235 0.495 0.235s0.378-0.091 0.495-0.235z" fill="#c3c3c3"/>
  <path d="m12.906 28.121c0.09 0.111 0.145 0.252 0.145 0.405 0 0.354-0.287 0.64-0.64 0.64s-0.64-0.287-0.64-0.64c0-0.154 0.054-0.295 0.145-0.405 0.117 0.143 0.296 0.235 0.495 0.235s0.378-0.091 0.495-0.235z" fill="#c3c3c3"/>
  <path d="m13.819 29.914c0.09 0.11 0.145 0.251 0.145 0.405 0 0.353-0.287 0.64-0.64 0.64s-0.64-0.287-0.64-0.64c0-0.154 0.054-0.295 0.145-0.405 0.118 0.143 0.296 0.235 0.495 0.235s0.378-0.092 0.495-0.235z" fill="#c3c3c3"/>
  <path d="m15.711 29.914c0.09 0.11 0.145 0.251 0.145 0.405 0 0.353-0.287 0.64-0.64 0.64s-0.64-0.287-0.64-0.64c0-0.154 0.054-0.295 0.145-0.405 0.117 0.143 0.296 0.235 0.495 0.235s0.378-0.092 0.495-0.235z" fill="#c3c3c3"/>
  <path d="m17.602 29.914c0.09 0.11 0.145 0.251 0.145 0.405 0 0.353-0.287 0.64-0.64 0.64s-0.64-0.287-0.64-0.64c0-0.154 0.054-0.295 0.145-0.405 0.117 0.143 0.296 0.235 0.495 0.235s0.378-0.092 0.495-0.235z" fill="#c3c3c3"/>
  <path d="m19.494 29.914c0.09 0.11 0.145 0.251 0.145 0.405 0 0.353-0.287 0.64-0.64 0.64s-0.64-0.287-0.64-0.64c0-0.154 0.054-0.295 0.145-0.405 0.118 0.143 0.296 0.235 0.495 0.235s0.378-0.092 0.495-0.235z" fill="#c3c3c3"/>
 </g>
 <g transform="translate(32)">
  <path d="m16 32c8.812 0 16-7.188 16-16s-7.188-16-16-16-16 7.188-16 16c0 8.813 7.188 16 16 16z" fill="#f4762f"/>
  <path d="m22.036 14.064l4.657 13.838c-2.833 2.547-6.581 4.098-10.691 4.098h-0.004c-4.11 0-7.857-1.551-10.691-4.098l4.657-13.838h12.072z" fill="#f6a7aa"/>
  <path d="m20.624 11.416l2.723-1.097 0.416-3.231-3.263-0.281-1.636 2.438 1.76 2.17z" fill="#ffd7da"/>
  <path d="m20.784 10.653l1.822-0.733 0.232-2.184-2.136-0.165-1.094 1.631 1.177 1.452z" fill="#f6a7aa"/>
  <path d="m11.468 11.416l-2.724-1.097-0.416-3.231 3.263-0.281 1.636 2.438-1.76 2.17z" fill="#ffd7da"/>
  <path d="m11.308 10.653l-1.822-0.733-0.232-2.183 2.136-0.166 1.094 1.631-1.177 1.452z" fill="#f6a7aa"/>
  <path d="m21.222 9.112l3.228 8.699-8.45 5.376-8.45-5.376 3.228-8.699h10.445z" fill="#ffd7da"/>
  <path d="m12.371 12.922c0.52 0 0.941 0.421 0.941 0.941s-0.421 0.941-0.941 0.941c-0.52 0-0.941-0.421-0.941-0.941s0.421-0.941 0.941-0.941z"/>
  <path d="m12.776 13.098c0.185 0 0.336 0.15 0.336 0.335s-0.15 0.335-0.336 0.335c-0.185 0-0.335-0.15-0.335-0.335s0.15-0.335 0.335-0.335z" fill="#fff"/>
  <path d="m19.629 12.922c0.52 0 0.941 0.421 0.941 0.941s-0.421 0.941-0.941 0.941c-0.52 0-0.941-0.421-0.941-0.941s0.421-0.941 0.941-0.941z"/>
  <path d="m20.034 13.098c0.185 0 0.335 0.15 0.335 0.335s-0.15 0.335-0.335 0.335c-0.185 0-0.335-0.15-0.335-0.335s0.15-0.335 0.335-0.335z" fill="#fff"/>
  <path d="m16 13.887c2.228 0 4.034 1.4 4.034 3.126s-1.806 3.126-4.034 3.126c-2.228 0-4.034-1.4-4.034-3.126s1.806-3.126 4.034-3.126z" fill="#f6a7aa"/>
  <path d="m14.74 16.239c0.428 0 0.775 0.347 0.775 0.775s-0.347 0.775-0.775 0.775-0.775-0.347-0.775-0.775c0-0.428 0.347-0.775 0.775-0.775z" fill="#ffd7da"/>
  <path d="m17.26 16.239c0.428 0 0.775 0.347 0.775 0.775s-0.347 0.775-0.775 0.775-0.775-0.347-0.775-0.775c0-0.428 0.347-0.775 0.775-0.775z" fill="#ffd7da"/>
 </g>
 <g transform="translate(64)">
  <path d="m16 32c8.812 0 16-7.187 16-16s-7.188-16-16-16-16 7.188-16 16c0 8.813 7.188 16 16 16z" fill="#57a9aa"/>
  <path d="m20.734 17.447l3.733 12.13c-2.456 1.535-5.358 2.423-8.467 2.423s-6.011-0.888-8.467-2.423l3.733-12.13h9.469z" fill="#6a4733"/>
  <path d="m10.824 3.48c1.44-0.135 4.712 10.581 0.853 11.625s-2.293-11.49-0.853-11.625z" fill="#84604b"/>
  <path d="m10.531 4.04c0.947-0.236 2.55 6.911 0.778 9.834-0.487 0.803 0.011 1.308-0.62 1.465-2.325 0.579-1.457-10.975-0.158-11.299z" fill="#6a4733"/>
  <path d="m21.092 3.48c-1.44-0.135-4.712 10.581-0.853 11.625s2.293-11.49 0.853-11.625z" fill="#84604b"/>
  <path d="m21.384 4.04c-0.947-0.236-2.55 6.911-0.778 9.834 0.487 0.803-0.011 1.308 0.62 1.465 2.325 0.579 1.457-10.975 0.158-11.299z" fill="#6a4733"/>
  <path d="m19.693 9.739l3.693 5.688-4.616 14.781h-5.539l-4.616-14.781 3.693-5.688h7.385z" fill="#84604b"/>
  <path d="m12.108 16.05c0.446 0 0.807 0.361 0.807 0.807s-0.361 0.807-0.807 0.807-0.807-0.361-0.807-0.807c0-0.446 0.361-0.807 0.807-0.807z"/>
  <path d="m12.455 16.2c0.159 0 0.287 0.129 0.287 0.288s-0.129 0.288-0.287 0.288c-0.159 0-0.288-0.129-0.288-0.288s0.129-0.288 0.288-0.288z" fill="#fff"/>
  <path d="m19.892 16.05c0.446 0 0.807 0.361 0.807 0.807s-0.361 0.807-0.807 0.807c-0.446 0-0.807-0.361-0.807-0.807s0.362-0.807 0.807-0.807z"/>
  <path d="m20.24 16.2c0.159 0 0.288 0.129 0.288 0.288s-0.129 0.288-0.288 0.288c-0.159 0-0.288-0.129-0.288-0.288s0.129-0.288 0.288-0.288z" fill="#fff"/>
  <path d="m19.951 26.425l-1.181 3.783h-5.539l-1.181-3.783 1.804-2.78h4.294l1.804 2.78z" fill="#e7ccbd"/>
  <path d="m13.281 26.91c0.221-0.041 0.507 0.503 0.639 1.215s0.06 1.322-0.161 1.363-0.507-0.503-0.639-1.215c-0.132-0.712-0.06-1.322 0.161-1.363z" fill="#84604b"/>
  <path d="m18.719 26.91c-0.221-0.041-0.507 0.503-0.639 1.214s-0.06 1.322 0.161 1.363c0.221 0.041 0.507-0.503 0.639-1.215s0.06-1.322-0.161-1.363z" fill="#84604b"/>
  <path d="m17.432 13.328l1.433 5.919-1.791 10.961h-2.149l-1.791-10.961 1.433-5.919h0.013c0.876 1.268 1.327 2.938 0.769 5.136 1.159-0.97 2.062-3.161 2.076-5.136h0.006z" fill="#e7ccbd"/>
 </g>
 <g transform="translate(96)">
  <path d="m16 32c8.812 0 16-7.188 16-16s-7.188-16-16-16-16 7.188-16 16c0 8.813 7.188 16 16 16z" fill="#f6a7aa"/>
  <path d="m21.932 2.436c-2.117-0.686-5.954 12.032-2.165 13.259s4.282-12.573 2.165-13.259z" fill="#c99d6d"/>
  <path d="m22.306 3.174c-1.079-0.472-2.742 4.113-1.089 7.988 0.45 1.055-1.145 4.222-0.426 4.537 2.651 1.159 2.996-11.877 1.514-12.524z" fill="#a07747"/>
  <path d="m22.036 14.064l4.657 13.838c-2.834 2.547-6.581 4.098-10.691 4.098h-0.003c-4.11 0-7.857-1.551-10.691-4.098l4.657-13.838h12.072z" fill="#c99d6d"/>
  <path d="m20.081 25.956l2.975 4.406c-2.129 1.048-4.523 1.637-7.056 1.637s-4.927-0.589-7.056-1.637l2.975-4.406h8.162z" fill="#e1c19e"/>
  <path d="m10.162 2.436c2.117-0.686 5.954 12.032 2.165 13.259s-4.282-12.573-2.165-13.259z" fill="#c99d6d"/>
  <path d="m9.787 3.174c1.079-0.472 2.742 4.113 1.089 7.988-0.45 1.055 1.145 4.222 0.426 4.537-2.651 1.159-2.996-11.877-1.515-12.524z" fill="#a07747"/>
  <path d="m20.442 9.364l3.648 8.469-4.759 5.123h-6.664l-4.759-5.123 3.648-8.469h8.885z" fill="#c99d6d"/>
  <path d="m12.567 12.35c-1.008 0.28-1.733 0.837-1.62 1.244s1.022 0.511 2.029 0.232c1.008-0.28 1.733-0.836 1.62-1.244s-1.021-0.511-2.029-0.232z" fill="#a07747"/>
  <path d="m19.306 12.35c1.008 0.28 1.733 0.837 1.62 1.244s-1.022 0.512-2.029 0.232c-1.008-0.28-1.733-0.836-1.62-1.244s1.021-0.511 2.029-0.232z" fill="#a07747"/>
  <path d="m13.034 12.922c0.52 0 0.941 0.421 0.941 0.941s-0.421 0.941-0.941 0.941c-0.52 0-0.941-0.421-0.941-0.941s0.421-0.941 0.941-0.941z"/>
  <path d="m13.439 13.098c0.185 0 0.335 0.15 0.335 0.335s-0.15 0.335-0.335 0.335c-0.185 0-0.335-0.15-0.335-0.335s0.15-0.335 0.335-0.335z" fill="#fff"/>
  <path d="m18.967 12.922c0.519 0 0.941 0.421 0.941 0.941s-0.421 0.941-0.941 0.941c-0.52 0-0.941-0.421-0.941-0.941s0.421-0.941 0.941-0.941z"/>
  <path d="m19.372 13.098c0.185 0 0.335 0.15 0.335 0.335s-0.15 0.335-0.335 0.335c-0.185 0-0.336-0.15-0.336-0.335s0.15-0.335 0.336-0.335z" fill="#fff"/>
  <path d="m19.332 22.956l4.759-5.123-7.955-3.77-8.227 3.77 4.759 5.123h6.664z" fill="#e1c19e"/>
  <path d="m18.77 22.956l1.628-5.496-4.262-3.397-4.261 3.397 1.628 5.496h5.268z" fill="#a07747"/>
  <path d="m15.943 18.502h0.387v4.454h-0.387v-4.454z" fill="#755530"/>
  <path d="m16.136 17.465c0.978 0 1.771 0.464 1.771 1.037s-0.793 1.037-1.771 1.037c-0.979 0-1.772-0.464-1.772-1.037s0.793-1.037 1.772-1.037z" fill="#4d4d4d"/>
  <path d="m17.896 18.62c-0.068 0.353-0.439 0.653-0.958 0.807-0.034-0.08-0.053-0.169-0.053-0.262 0-0.363 0.291-0.657 0.649-0.657 0.134 0 0.259 0.041 0.362 0.112z" fill="#333"/>
  <path d="m15.335 19.427c-0.519-0.154-0.89-0.454-0.958-0.807 0.103-0.07 0.228-0.111 0.362-0.111 0.359 0 0.649 0.294 0.649 0.657 0 0.093-0.019 0.181-0.053 0.262z" fill="#333"/>
 </g>
 <g transform="translate(128)">
  <path d="m16 32c8.812 0 16-7.187 16-16s-7.188-16-16-16-16 7.188-16 16c0 8.813 7.188 16 16 16z" fill="#f4762f"/>
  <path d="m22.036 14.063l4.657 13.838c-2.833 2.547-6.58 4.098-10.689 4.099h-0.007c-4.109-0.001-7.856-1.551-10.689-4.099l4.657-13.838h12.072z" fill="#b2b2b2"/>
  <path d="m20.081 15.826l3.587 14.219c-2.276 1.245-4.888 1.954-7.665 1.954h-0.007c-2.777-0.001-5.389-0.709-7.665-1.954l3.588-14.219h8.162z" fill="#e5e5e5"/>
  <path d="m19.901 8.996l3.901 8.365c-5.688 7.107-9.915 7.107-15.603 0l3.901-8.365h7.802z" fill="#b2b2b2"/>
  <path d="m24.92 4.345c-1.22-0.75-8.007 5.33-4.986 7.822 0.837 0.69 3.49 1.273 3.074 0.454-0.645-1.271 2.794-7.733 1.912-8.275z" fill="#e5e5e5"/>
  <path d="m24.973 4.874c-0.748-0.597-4.876 3.501-4.379 6.37 0.136 0.789-0.375 1.14 0.124 1.538 0.423 0.337 2.544 0.342 2.289-0.161-0.548-1.079 2.756-7.116 1.966-7.747z" fill="#b2b2b2"/>
  <path d="m7.053 4.345c1.22-0.75 8.007 5.33 4.986 7.822-0.836 0.69-3.489 1.273-3.074 0.454 0.645-1.271-2.794-7.733-1.913-8.275z" fill="#e5e5e5"/>
  <path d="m6.999 4.874c0.748-0.597 4.876 3.501 4.379 6.37-0.137 0.789 0.374 1.14-0.124 1.538-0.423 0.337-2.544 0.342-2.289-0.161 0.548-1.079-2.757-7.116-1.966-7.747z" fill="#b2b2b2"/>
  <path d="m20.442 7.567l4.443 8.752c-6.478 7.436-11.292 7.436-17.77 0l4.442-8.752h8.885z" fill="#e5e5e5"/>
  <path d="m13.59 16.719c-1.302 0-2.358 0.64-2.358 1.43s1.056 1.43 2.358 1.43 2.358-0.64 2.358-1.43c0-0.789-1.056-1.43-2.358-1.43z" fill="#fff"/>
  <path d="m18.306 16.719c1.302 0 2.358 0.64 2.358 1.43s-1.056 1.43-2.358 1.43c-1.302 0-2.358-0.64-2.358-1.43s1.056-1.43 2.358-1.43z" fill="#fff"/>
  <path d="m12.354 17.047c1.822-1.042 2.634-3.396 1.617-5.965-4.052 1.45-3.079 4.039-1.617 5.965z" fill="#b2b2b2"/>
  <path d="m20.442 7.567c-3.18 2.198-3.655 7.027-4.494 10.582-0.782-3.6-1.155-8.345-4.391-10.582h8.885z" fill="#b2b2b2"/>
  <path d="m19.646 17.047c-1.822-1.042-2.634-3.396-1.617-5.965 4.197 1.327 3.198 3.899 1.617 5.965z" fill="#b2b2b2"/>
  <path d="m15.979 17.682c0.111 0.491 0.415 0.909 0.829 1.17 0.517 0.38 1.24 0.616 2.039 0.616 0.143 0 0.284-0.008 0.421-0.022-1.454 2.906-5.07 2.862-6.521 0.001 0.133 0.014 0.269 0.021 0.408 0.021 1.453 0 2.652-0.779 2.825-1.785z" fill="#b2b2b2"/>
  <path d="m18.993 13.382c0.437-0.366 1.039-0.405 1.51-0.144 0.175 0.509 0.031 1.095-0.406 1.461s-1.039 0.405-1.509 0.144c-0.175-0.509-0.031-1.095 0.405-1.461z" fill="#d3d3d3"/>
  <path d="m13.007 13.382c-0.437-0.366-1.039-0.405-1.509-0.144-0.175 0.509-0.031 1.095 0.406 1.461s1.039 0.405 1.509 0.144c0.175-0.509 0.031-1.095-0.405-1.461z" fill="#d3d3d3"/>
  <path d="m19.545 13.233c0.446 0 0.807 0.362 0.807 0.807s-0.361 0.807-0.807 0.807-0.807-0.361-0.807-0.807c0-0.446 0.362-0.807 0.807-0.807z" fill="#57a9aa"/>
  <path d="m19.893 13.383c0.159 0 0.287 0.129 0.287 0.288s-0.129 0.288-0.287 0.288-0.288-0.129-0.288-0.288c0-0.159 0.129-0.288 0.288-0.288z" fill="#fff"/>
  <path d="m19.545 13.523c0.096 0 0.174 0.232 0.174 0.517s-0.078 0.517-0.174 0.517-0.174-0.232-0.174-0.517c0-0.286 0.078-0.517 0.174-0.517z" fill="#333"/>
  <path d="m12.455 13.233c0.446 0 0.807 0.362 0.807 0.807s-0.361 0.807-0.807 0.807c-0.446 0-0.807-0.361-0.807-0.807s0.361-0.807 0.807-0.807z" fill="#57a9aa"/>
  <path d="m12.803 13.383c0.159 0 0.288 0.129 0.288 0.288s-0.129 0.288-0.288 0.288-0.288-0.129-0.288-0.288c0-0.159 0.129-0.288 0.288-0.288z" fill="#fff"/>
  <path d="m12.455 13.523c0.096 0 0.174 0.232 0.174 0.517s-0.078 0.517-0.174 0.517-0.174-0.232-0.174-0.517c0-0.286 0.078-0.517 0.174-0.517z" fill="#333"/>
  <path d="m15.979 17.682c0.111 0.491 0.415 0.909 0.829 1.17 0.133 0.097 0.279 0.186 0.437 0.263-0.798 0.312-1.674 0.308-2.472-0.008 0.651-0.323 1.105-0.834 1.206-1.424z" fill="#e5e5e5"/>
  <path d="m14.738 16.856c0.583-0.476 1.9-0.52 2.536 0l-1.326 1.316-1.21-1.316z" fill="#84604b"/>
  <path d="m14.266 17.896c0.046 0.023 0.064 0.078 0.042 0.124s-0.078 0.065-0.124 0.042c-1.338-0.662-2.959-0.852-4.446-0.738-1.741 0.134-3.292 0.683-3.987 1.378-0.036 0.036-0.095 0.036-0.131 0s-0.036-0.095 0-0.131c0.724-0.724 2.321-1.294 4.104-1.431 1.516-0.117 3.171 0.078 4.542 0.757z" fill="#fff"/>
  <path d="m14.041 18.219c0.049 0.014 0.077 0.066 0.063 0.115s-0.066 0.077-0.115 0.063c-1.16-0.341-2.449-0.345-3.664-0.137-1.414 0.241-2.727 0.767-3.621 1.381-0.042 0.029-0.1 0.018-0.129-0.024s-0.018-0.1 0.024-0.129c0.914-0.627 2.254-1.165 3.694-1.41 1.241-0.212 2.558-0.207 3.747 0.142z" fill="#fff"/>
  <path d="m13.876 18.577c0.051 0.005 0.087 0.051 0.082 0.102s-0.051 0.088-0.102 0.082c-1.015-0.114-2.079 0.025-3.084 0.32-1.153 0.339-2.228 0.883-3.067 1.489-0.041 0.03-0.099 0.02-0.129-0.021s-0.02-0.099 0.021-0.129c0.854-0.617 1.95-1.172 3.123-1.517 1.028-0.302 2.116-0.444 3.157-0.327z" fill="#fff"/>
  <path d="m17.735 17.896c-0.046 0.023-0.065 0.078-0.042 0.124s0.078 0.065 0.124 0.042c1.338-0.662 2.959-0.852 4.446-0.738 1.741 0.134 3.292 0.683 3.987 1.378 0.036 0.036 0.095 0.036 0.131 0s0.036-0.095 0-0.131c-0.724-0.724-2.321-1.294-4.104-1.431-1.516-0.117-3.171 0.078-4.542 0.757z" fill="#fff"/>
  <path d="m17.959 18.219c-0.049 0.014-0.077 0.066-0.063 0.115s0.066 0.077 0.115 0.063c1.16-0.341 2.449-0.345 3.664-0.137 1.414 0.241 2.727 0.767 3.621 1.381 0.042 0.029 0.1 0.018 0.129-0.024s0.018-0.1-0.024-0.129c-0.914-0.627-2.254-1.165-3.694-1.41-1.241-0.212-2.558-0.207-3.747 0.142z" fill="#fff"/>
  <path d="m18.124 18.577c-0.051 0.005-0.088 0.051-0.082 0.102s0.051 0.088 0.102 0.082c1.015-0.114 2.079 0.025 3.084 0.32 1.153 0.339 2.229 0.883 3.067 1.489 0.041 0.03 0.099 0.02 0.129-0.021s0.02-0.099-0.021-0.129c-0.854-0.617-1.949-1.172-3.123-1.517-1.028-0.302-2.116-0.444-3.157-0.327z" fill="#fff"/>
 </g>
 <g transform="translate(160)">
  <path d="m16 32c8.812 0 16-7.188 16-16s-7.187-16-16-16-16 7.188-16 16c0 8.813 7.188 16 16 16z" fill="#f6a7aa"/>
  <path d="m22.036 14.064l4.657 13.838c-2.833 2.547-6.58 4.098-10.689 4.098h-0.007c-4.109-0.001-7.856-1.551-10.689-4.098l4.657-13.838h12.072z" fill="#333"/>
  <path d="m20.443 8.12l3.31 3.212 1.133 4.482-1.127 4.472-3.315 3.222-4.437 1.26-4.448-1.26-3.31-3.213-1.133-4.482 1.127-4.472 3.315-3.222 4.437-1.26 4.448 1.26z" fill="#333"/>
  <path d="m20.081 15.826l3.588 14.219c-2.276 1.245-4.888 1.954-7.665 1.954h-0.007c-2.777-0.001-5.389-0.709-7.665-1.954l3.588-14.219h8.162z" fill="#fff"/>
  <path d="m12.908 17.474c2.335 0 2.129-2.986 3.125-2.986 1.066 0 0.537 2.986 3.06 2.986l-3.233 2.417-2.951-2.417z" fill="#f4762f"/>
  <path d="m12.455 10.241c1.754 0 3.176 1.711 3.176 3.822s-1.422 3.822-3.176 3.822c-1.754 0-3.176-1.711-3.176-3.822s1.422-3.822 3.176-3.822z" fill="#fff"/>
  <path d="m19.545 10.241c1.754 0 3.176 1.711 3.176 3.822s-1.422 3.822-3.176 3.822c-1.754 0-3.176-1.711-3.176-3.822s1.422-3.822 3.176-3.822z" fill="#fff"/>
  <path d="m12.455 13.123c0.519 0 0.941 0.421 0.941 0.941s-0.421 0.941-0.941 0.941c-0.52 0-0.941-0.421-0.941-0.941s0.421-0.941 0.941-0.941z"/>
  <path d="m12.946 13.123c0.248 0 0.449 0.201 0.449 0.45s-0.201 0.449-0.449 0.449c-0.248 0-0.45-0.201-0.45-0.449s0.201-0.45 0.45-0.45z" fill="#fff"/>
  <path d="m19.545 13.123c0.519 0 0.941 0.421 0.941 0.941s-0.421 0.941-0.941 0.941c-0.52 0-0.941-0.421-0.941-0.941s0.421-0.941 0.941-0.941z"/>
  <path d="m20.037 13.123c0.248 0 0.449 0.201 0.449 0.45s-0.201 0.449-0.449 0.449c-0.248 0-0.45-0.201-0.45-0.449s0.201-0.45 0.45-0.45z" fill="#fff"/>
 </g>
 <g transform="translate(192)">
  <path d="m16 32c8.812 0 16-7.188 16-16s-7.187-16-16-16-16 7.188-16 16c0 8.813 7.188 16 16 16z" fill="#57a9aa"/>
  <path d="m22.036 14.064l4.657 13.838c-2.834 2.547-6.581 4.098-10.691 4.098h-0.004c-4.11 0-7.857-1.551-10.691-4.098l4.657-13.838h12.072z" fill="#f4762f"/>
  <path d="m24.389 4.297c-1.256-0.688-7.731 5.724-4.589 8.061s5.845-7.373 4.589-8.061z" fill="#f4762f"/>
  <path d="m24.469 4.822c-0.777-0.559-2.97 1.541-2.331 4.382 0.176 0.781-2.042 3.356-1.524 3.728 1.909 1.372 4.921-7.343 3.855-8.11z" fill="#a2450f"/>
  <path d="m7.723 4.297c1.256-0.688 7.731 5.724 4.589 8.061s-5.845-7.373-4.589-8.061z" fill="#f4762f"/>
  <path d="m7.643 4.822c0.777-0.559 2.97 1.541 2.331 4.382-0.176 0.781 2.042 3.356 1.524 3.728-1.909 1.372-4.921-7.343-3.854-8.11z" fill="#a2450f"/>
  <path d="m21.187 7.567l5.187 8.924-10.373 6.465-10.373-6.465 5.187-8.924h10.373z" fill="#f4762f"/>
  <path d="m15.839 22.956l10.534-6.465c-5.187-8.924-10.373-8.924-10.453 3.937 0.08-12.861-3.98-12.861-10.453-3.937l10.373 6.465z" fill="#a2450f"/>
  <path d="m13.033 12.252c0.52 0 0.941 0.421 0.941 0.941s-0.421 0.941-0.941 0.941c-0.519 0-0.941-0.421-0.941-0.941s0.421-0.941 0.941-0.941z"/>
  <path d="m13.439 12.427c0.185 0 0.336 0.15 0.336 0.335s-0.15 0.335-0.336 0.335c-0.185 0-0.335-0.15-0.335-0.335s0.15-0.335 0.335-0.335z" fill="#fff"/>
  <path d="m18.967 12.252c0.52 0 0.941 0.421 0.941 0.941s-0.421 0.941-0.941 0.941c-0.519 0-0.941-0.421-0.941-0.941s0.422-0.941 0.941-0.941z"/>
  <path d="m19.372 12.427c0.185 0 0.335 0.15 0.335 0.335s-0.15 0.335-0.335 0.335-0.336-0.15-0.336-0.335c0-0.185 0.15-0.335 0.336-0.335z" fill="#fff"/>
  <path d="m14.162 18.59c1.14-0.662 2.429-0.709 3.515 0l-1.838 1.838-1.677-1.838z" fill="#1a1a1a"/>
  <path d="m15.839 22.956l10.534-6.465c-4.76-2.194-8.152-0.629-10.453 3.937-2.301-4.567-5.694-6.132-10.453-3.937l10.373 6.465z" fill="#fff"/>
 </g>
 <g transform="translate(224)">
  <path d="m16 32c8.812 0 16-7.188 16-16s-7.187-16-16-16-16 7.188-16 16c0 8.813 7.188 16 16 16z" fill="#f6a7aa"/>
  <path d="m22.036 14.063l4.657 13.838c-2.833 2.547-6.58 4.098-10.689 4.098h-0.007c-4.109-0.001-7.856-1.551-10.689-4.098l4.657-13.838h12.072z" fill="#6a4733"/>
  <path d="m16 19.833c3.648 0 6.697 4.428 7.437 10.336-2.22 1.168-4.748 1.83-7.43 1.831h-0.014c-2.683-0.001-5.21-0.663-7.43-1.831 0.74-5.909 3.789-10.336 7.437-10.336z" fill="#e7ccbd"/>
  <path d="m20.442 7.567l4.443 7.695-4.443 7.695h-8.885l-4.443-7.695 4.443-7.695h8.885z" fill="#6a4733"/>
  <path d="m16 11.335c1.936 0 3.521 4.893 3.657 11.095h-7.315c0.137-6.202 1.722-11.095 3.658-11.095z" fill="#e7ccbd"/>
  <path d="m14.242 20.013c1.738-0.907 1.802-0.708 3.515 0l-1.838 2.417-1.678-2.417z" fill="#f4762f"/>
  <path d="m12.455 13.123c0.519 0 0.941 0.421 0.941 0.941s-0.421 0.941-0.941 0.941c-0.52 0-0.941-0.421-0.941-0.941s0.421-0.941 0.941-0.941z"/>
  <path d="m12.86 13.298c0.185 0 0.336 0.15 0.336 0.335s-0.15 0.336-0.336 0.336c-0.185 0-0.335-0.15-0.335-0.336s0.15-0.335 0.335-0.335z" fill="#fff"/>
  <path d="m19.545 13.123c0.519 0 0.941 0.421 0.941 0.941s-0.421 0.941-0.941 0.941c-0.52 0-0.941-0.421-0.941-0.941s0.421-0.941 0.941-0.941z"/>
  <path d="m19.95 13.298c0.185 0 0.336 0.15 0.336 0.335s-0.15 0.336-0.336 0.336c-0.185 0-0.335-0.15-0.335-0.336s0.15-0.335 0.335-0.335z" fill="#fff"/>
  <path d="m11.558 5.03c1.401 0 2.537 1.136 2.537 2.537s-1.136 2.537-2.537 2.537-2.537-1.136-2.537-2.537c0-1.401 1.136-2.537 2.537-2.537z" fill="#6a4733"/>
  <path d="m20.442 5.03c1.401 0 2.537 1.136 2.537 2.537s-1.136 2.537-2.537 2.537c-1.401 0-2.537-1.136-2.537-2.537s1.136-2.537 2.537-2.537z" fill="#6a4733"/>
 </g>
</svg>
