<?xml version="1.0" encoding="UTF-8" standalone="no"?>
<svg
   xmlns:dc="http://purl.org/dc/elements/1.1/"
   xmlns:cc="http://creativecommons.org/ns#"
   xmlns:rdf="http://www.w3.org/1999/02/22-rdf-syntax-ns#"
   xmlns:svg="http://www.w3.org/2000/svg"
   xmlns="http://www.w3.org/2000/svg"
   xmlns:sodipodi="http://sodipodi.sourceforge.net/DTD/sodipodi-0.dtd"
   xmlns:inkscape="http://www.inkscape.org/namespaces/inkscape"
   id="svg2"
   xml:space="preserve"
   height="30"
   width="90"
   version="1.1"
   viewBox="0 0 90 30"
   inkscape:version="0.91 r13725"
   sodipodi:docname="flags-sprite.svg"><defs
     id="defs133" /><sodipodi:namedview
     pagecolor="#ffffff"
     bordercolor="#666666"
     borderopacity="1"
     objecttolerance="10"
     gridtolerance="10"
     guidetolerance="10"
     inkscape:pageopacity="0"
     inkscape:pageshadow="2"
     inkscape:window-width="967"
     inkscape:window-height="510"
     id="namedview131"
     showgrid="false"
     inkscape:zoom="1"
     inkscape:cx="130"
     inkscape:cy="43.5"
     inkscape:window-x="0"
     inkscape:window-y="0"
     inkscape:window-maximized="0"
     inkscape:current-layer="svg2" /><metadata
     id="metadata8"><rdf:RDF><cc:Work
         rdf:about=""><dc:format>image/svg+xml</dc:format><dc:type
           rdf:resource="http://purl.org/dc/dcmitype/StillImage" /><dc:title></dc:title></cc:Work></rdf:RDF></metadata><g
     id="g10"
     transform="matrix(0.43268921,0,0,-0.43103438,1.1146485e-4,30.000013)"><g
       id="g3186"
       transform="matrix(0.99966,0,0,0.99852,104,32.118)"><path
         id="path3188"
         d="m 0,0 0,-5.367 104.03,0 0,5.367 L 52.512,0 0,0 Z"
         inkscape:connector-curvature="0"
         style="fill:#ffffff" /></g><path
       id="path3190"
       d="m 156.49,37.478 51.505,0 0,5.361 -51.505,0 0,-5.361 z"
       inkscape:connector-curvature="0"
       style="fill:#ffffff" /><path
       id="path3192"
       d="m 104,16.04 104,0 0,5.3591 -104,0 0,-5.3591 z"
       inkscape:connector-curvature="0"
       style="fill:#ffffff" /><g
       id="g3194"
       transform="matrix(0.99966,0,0,0.99852,104,8.8287)"><path
         id="path3196"
         d="m 0,0 c 0,-1.248 0.263,-2.436 0.729,-3.512 l 102.58,0 c 0.466,1.076 0.728,2.264 0.728,3.512 l 0,1.854 -104.04,0 0,-1.854 z"
         inkscape:connector-curvature="0"
         style="fill:#ffffff" /></g><g
       id="g3198"
       transform="matrix(0.99966,0,0,0.99852,207.27,64.276)"><path
         id="path3200"
         d="m 0,0 -50.794,0 0,-5.365 51.523,0 0,1.853 C 0.729,-2.264 0.467,-1.076 0,0"
         inkscape:connector-curvature="0"
         style="fill:#ffffff" /></g><path
       id="path3202"
       d="m 156.49,48.198 51.505,0 0,5.3591 -51.505,0 0,-5.3591 z"
       inkscape:connector-curvature="0"
       style="fill:#ffffff" /><g
       id="g3204"
       transform="matrix(0.99966,0,0,0.99852,199.16,69.6)"><path
         id="path3206"
         d="m 0,0 -42.68,0 0,-5.332 50.794,0 C 6.755,-2.195 3.636,0 0,0"
         inkscape:connector-curvature="0"
         style="fill:#be2134" /></g><path
       id="path3208"
       d="m 156.49,53.558 51.505,0 0,5.361 -51.505,0 0,-5.361 z"
       inkscape:connector-curvature="0"
       style="fill:#be2134" /><path
       id="path3210"
       d="m 156.49,42.839 51.505,0 0,5.3591 -51.505,0 0,-5.3591 z"
       inkscape:connector-curvature="0"
       style="fill:#be2134" /><path
       id="path3212"
       d="m 156.49,32.118 51.505,0 0,5.3591 -51.505,0 0,-5.3591 z"
       inkscape:connector-curvature="0"
       style="fill:#be2134" /><path
       id="path3214"
       d="m 104,21.4 104,0 0,5.3591 -104,0 0,-5.3591 z"
       inkscape:connector-curvature="0"
       style="fill:#be2134" /><path
       id="path3216"
       d="m 104,10.679 104,0 0,5.361 -104,0 0,-5.361 z"
       inkscape:connector-curvature="0"
       style="fill:#be2134" /><g
       id="g3218"
       transform="matrix(0.99966,0,0,0.99852,112.84,0)"><path
         id="path3220"
         d="m 0,0 86.349,0 c 3.635,0 6.755,2.195 8.114,5.33 l -102.58,0 C -6.755,2.195 -3.635,0 0,0"
         inkscape:connector-curvature="0"
         style="fill:#be2134" /></g><g
       id="g3222"
       transform="matrix(0.99966,0,0,0.99852,153.46,34.271)"><path
         id="path3224"
         d="M 0,0 -1.264,0.918 -2.527,0 l 0.482,1.484 -1.264,0.918 1.563,0 0.482,1.485 0.482,-1.485 1.562,0 L -0.483,1.484 0,0 Z M -8.793,0 -10.057,0.918 -11.319,0 l 0.483,1.484 -1.264,0.918 1.561,0 0.482,1.485 0.484,-1.485 1.56,0 L -9.275,1.484 -8.793,0 Z m -8.791,0 -1.265,0.918 -1.262,-0.918 0.482,1.484 -1.264,0.918 1.562,0 0.483,1.485 0.483,-1.485 1.56,0 L -18.067,1.484 -17.584,0 Z m -8.793,0 -1.264,0.918 -1.262,-0.918 0.482,1.484 -1.264,0.918 1.562,0 0.482,1.485 0.483,-1.485 1.561,0 L -26.86,1.484 -26.377,0 Z m -8.792,0 -1.264,0.918 -1.261,-0.918 0.481,1.484 -1.263,0.918 1.562,0 0.481,1.485 0.483,-1.485 1.561,0 L -35.652,1.484 -35.169,0 Z m -8.792,0 -1.264,0.918 -1.261,-0.918 0.481,1.484 -1.263,0.918 1.561,0 0.482,1.485 0.483,-1.485 1.561,0 L -44.443,1.484 -43.961,0 Z m -3.481,9.723 1.561,0 0.483,1.486 0.482,-1.486 1.561,0 -1.264,-0.918 0.483,-1.485 -1.263,0.918 -1.262,-0.918 0.481,1.485 -1.262,0.918 z m 6.44,5.254 0.481,-1.487 1.562,0 -1.263,-0.918 0.482,-1.486 -1.263,0.92 -1.264,-0.92 0.484,1.486 -1.264,0.918 1.562,0 0.483,1.487 z m -3.088,-0.375 -1.264,0.918 -1.262,-0.918 0.482,1.484 -1.262,0.916 1.56,0 0.483,1.488 0.483,-1.488 1.561,0 -1.263,-0.916 0.482,-1.484 z m 1.088,6.169 1.562,0 0.482,1.487 0.483,-1.487 1.561,0 -1.263,-0.917 0.484,-1.485 -1.265,0.918 -1.263,-0.918 0.483,1.486 -1.264,0.916 z m -4.502,4.059 1.561,0 0.485,1.486 0.482,-1.486 1.561,0 -1.264,-0.916 0.484,-1.486 -1.264,0.918 -1.265,-0.918 0.485,1.484 -1.265,0.918 z m 6.441,5.254 0.481,-1.484 1.561,0 -1.262,-0.918 0.482,-1.485 -1.262,0.918 -1.263,-0.918 0.482,1.485 -1.264,0.918 1.562,0 0.483,1.484 z m 4.396,3.768 0.482,-1.485 1.562,0 -1.264,-0.918 0.484,-1.484 -1.264,0.918 -1.264,-0.918 0.483,1.484 -1.262,0.918 1.561,0 0.482,1.485 z m 4.878,-5.252 1.562,0 -1.264,-0.918 0.483,-1.485 -1.263,0.918 -1.263,-0.918 0.482,1.485 -1.263,0.918 1.561,0 0.483,1.484 0.482,-1.484 z m 3.914,5.252 0.481,-1.485 1.564,0 -1.264,-0.918 0.483,-1.484 -1.264,0.918 -1.263,-0.918 0.482,1.484 -1.263,0.918 1.562,0 0.482,1.485 z m 4.878,-5.252 1.562,0 -1.264,-0.918 0.484,-1.485 -1.264,0.918 -1.262,-0.918 0.481,1.485 -1.263,0.918 1.561,0 0.483,1.484 0.482,-1.484 z m 3.913,5.252 0.482,-1.485 1.563,0 -1.264,-0.918 0.483,-1.484 -1.263,0.918 -1.263,-0.918 0.482,1.484 -1.263,0.918 1.561,0 0.482,1.485 z m 4.879,-5.252 1.562,0 -1.263,-0.918 0.482,-1.485 -1.264,0.916 -1.262,-0.916 0.482,1.485 -1.263,0.918 1.561,0 0.483,1.484 0.482,-1.484 z m 3.913,5.252 0.482,-1.485 1.562,0 -1.263,-0.918 0.483,-1.484 -1.264,0.918 -1.263,-0.918 0.483,1.484 -1.264,0.918 1.562,0 0.482,1.485 z m 4.879,-5.252 1.561,0 -1.262,-0.918 0.482,-1.485 -1.263,0.918 -1.263,-0.918 0.482,1.485 -1.263,0.918 1.562,0 0.482,1.484 0.482,-1.484 z m 3.914,5.252 0.481,-1.485 1.562,0 -1.263,-0.918 0.483,-1.484 -1.264,0.918 -1.262,-0.918 0.482,1.484 -1.262,0.918 1.56,0 0.483,1.485 z m 1.263,-11.424 -1.264,0.918 -1.262,-0.918 0.482,1.486 -1.262,0.916 1.56,0 0.483,1.486 0.483,-1.486 1.56,0 -1.263,-0.918 0.483,-1.484 z m -4.29,-4.059 -1.263,0.918 -1.264,-0.918 0.483,1.485 -1.264,0.917 1.562,0 0.483,1.487 0.481,-1.487 1.563,0 -1.263,-0.916 0.482,-1.486 z m 4.397,-3.767 -1.264,0.918 -1.262,-0.918 0.482,1.484 -1.265,0.916 1.561,0 0.484,1.488 0.483,-1.488 1.561,0 -1.264,-0.916 0.484,-1.484 z m -3.662,-1.112 -1.263,-0.918 0.483,-1.486 -1.264,0.92 -1.263,-0.92 0.482,1.486 -1.263,0.918 1.562,0 0.483,1.487 0.481,-1.487 1.562,0 z M -4.396,3.768 -5.66,4.686 -6.923,3.768 l 0.482,1.484 -1.263,0.918 1.561,0 0.483,1.486 0.482,-1.486 1.561,0 -1.263,-0.916 0.484,-1.486 z m -6.615,5.037 -1.264,0.918 1.56,0 0.485,1.486 0.481,-1.486 1.562,0 -1.263,-0.918 0.482,-1.485 -1.262,0.918 -1.264,-0.918 0.483,1.485 z m -8.794,0 -1.262,0.918 1.56,0 0.484,1.486 0.483,-1.486 1.561,0 -1.263,-0.918 0.482,-1.485 -1.263,0.918 -1.264,-0.918 0.482,1.485 z m -8.791,0 -1.263,0.918 1.561,0 0.483,1.486 0.481,-1.486 1.563,0 -1.263,-0.916 0.483,-1.487 -1.263,0.918 -1.263,-0.918 0.481,1.485 z m -2.177,-5.037 -1.263,0.918 -1.263,-0.918 0.483,1.484 -1.265,0.918 1.563,0 0.483,1.486 0.482,-1.486 1.562,0 -1.265,-0.918 0.483,-1.484 z m -1.439,11.209 0.483,-1.487 1.562,0 -1.263,-0.918 0.483,-1.486 -1.263,0.92 -1.264,-0.92 0.484,1.486 -1.264,0.918 1.561,0 0.481,1.487 z m -4.349,3.513 0.483,-1.488 1.561,0 -1.263,-0.916 0.482,-1.484 -1.264,0.918 -1.262,-0.918 0.481,1.484 -1.261,0.916 1.56,0 0.483,1.488 z m 2.352,2.281 1.561,0 0.484,1.487 0.481,-1.487 1.562,0 -1.264,-0.916 0.484,-1.486 -1.263,0.918 -1.264,-0.918 0.483,1.485 -1.264,0.917 z m 20.892,-2.402 -1.264,0.918 -1.264,-0.918 0.483,1.486 -1.263,0.916 1.562,0 0.482,1.487 0.481,-1.487 1.563,0 -1.264,-0.916 0.484,-1.486 z m 4.396,-3.767 -1.265,0.918 -1.262,-0.918 0.481,1.484 -1.263,0.916 1.561,0 0.483,1.488 0.484,-1.488 1.559,0 -1.262,-0.916 0.484,-1.484 z m -18.85,3.888 0.484,-1.488 1.561,0 -1.263,-0.916 0.482,-1.484 -1.263,0.918 -1.262,-0.918 0.481,1.484 -1.262,0.916 1.56,0 0.482,1.488 z m 10.056,-3.888 -1.263,0.918 -1.262,-0.918 0.481,1.484 -1.262,0.916 1.561,0 0.483,1.488 0.482,-1.488 1.56,0 -1.261,-0.916 0.481,-1.484 z m -7.703,6.169 1.563,0 0.482,1.487 0.482,-1.487 1.562,0 -1.265,-0.917 0.484,-1.485 -1.264,0.918 -1.263,-0.918 0.483,1.485 -1.264,0.917 z m 3.438,-17.003 -1.264,0.918 -1.263,-0.918 0.483,1.486 -1.263,0.916 1.56,0 0.484,1.486 0.482,-1.486 1.562,0 -1.265,-0.918 0.484,-1.484 z m 0.605,9.722 -1.263,-0.918 0.483,-1.486 -1.264,0.92 -1.263,-0.92 0.482,1.486 -1.262,0.918 1.561,0 0.482,1.487 0.482,-1.487 1.562,0 z m 8.187,-9.722 -1.264,0.918 -1.263,-0.918 0.483,1.486 -1.264,0.916 1.561,0 0.484,1.486 0.482,-1.486 1.561,0 -1.264,-0.918 0.484,-1.484 z m 0.605,9.722 -1.263,-0.918 0.483,-1.486 -1.264,0.92 -1.263,-0.92 0.482,1.488 -1.262,0.916 1.561,0 0.483,1.487 0.481,-1.487 1.562,0 z m 0.247,11.34 1.562,0 0.482,1.486 0.482,-1.486 1.562,0 -1.263,-0.918 0.483,-1.484 -1.264,0.918 -1.263,-0.918 0.483,1.484 -1.264,0.918 z m -8.791,0 1.561,0 0.482,1.486 0.482,-1.486 1.563,0 -1.264,-0.916 0.483,-1.486 -1.263,0.918 -1.263,-0.918 0.482,1.484 -1.263,0.918 z m -8.792,0 1.562,0 0.482,1.486 0.482,-1.486 1.563,0 -1.264,-0.916 0.483,-1.486 -1.264,0.918 -1.263,-0.918 0.482,1.484 -1.263,0.918 z m -8.791,0 1.561,0 0.482,1.486 0.482,-1.486 1.562,0 -1.264,-0.916 0.484,-1.486 -1.264,0.918 -1.264,-0.918 0.483,1.486 -1.262,0.916 z m 1.322,-16.025 -1.262,0.918 1.561,0 0.482,1.486 0.482,-1.486 1.562,0 -1.263,-0.918 0.483,-1.485 -1.264,0.918 -1.262,-0.918 0.481,1.485 z m -3.44,-1.149 0.482,-1.486 1.563,0 -1.264,-0.916 0.483,-1.486 -1.264,0.918 -1.263,-0.918 0.482,1.484 -1.263,0.918 1.56,0 0.484,1.486 z M -0.176,7.32 -1.438,8.238 -2.701,7.32 l 0.481,1.485 -1.261,0.918 1.56,0 0.483,1.486 0.482,-1.486 1.56,0 -1.262,-0.918 0.482,-1.485 z m 3.212,-4.109 0,5.369 0,5.367 0,5.367 0,5.37 0,5.365 0,5.332 -43.669,0 c -2.647,0 -5.016,-1.17 -6.637,-3.014 l 1.328,0 0.484,1.485 0.481,-1.485 1.562,0 -1.264,-0.918 0.484,-1.484 -1.264,0.918 -1.265,-0.918 0.485,1.484 -1.124,0.817 c -1.315,-1.545 -2.113,-3.541 -2.113,-5.729 l 0,-28.693 52.512,0 0,5.367 z"
         inkscape:connector-curvature="0"
         style="fill:#223165" /></g><g
       id="g3226"
       transform="matrix(0.99966,0,0,0.99852,106.75,64.192)"><path
         id="path3228"
         d="M 0,0 1.265,0.918 2.528,0 2.045,1.484 l 1.264,0.918 -1.562,0 -0.481,1.485 -0.485,-1.485 -1.327,0 C -0.577,2.367 -0.609,2.336 -0.64,2.301 L 0.484,1.484 0,0 Z"
         inkscape:connector-curvature="0"
         style="fill:#ffffff" /></g><g
       id="g3230"
       transform="matrix(0.99966,0,0,0.99852,115.54,64.192)"><path
         id="path3232"
         d="M 0,0 1.264,0.918 2.527,0 2.044,1.484 l 1.264,0.918 -1.562,0 -0.482,1.485 -0.483,-1.485 -1.56,0 L 0.482,1.484 0,0 Z"
         inkscape:connector-curvature="0"
         style="fill:#ffffff" /></g><g
       id="g3234"
       transform="matrix(0.99966,0,0,0.99852,124.33,64.192)"><path
         id="path3236"
         d="M 0,0 1.263,0.918 2.526,0 2.044,1.484 3.308,2.402 1.744,2.402 1.263,3.887 0.78,2.402 -0.781,2.402 0.481,1.484 0,0 Z"
         inkscape:connector-curvature="0"
         style="fill:#ffffff" /></g><g
       id="g3238"
       transform="matrix(0.99966,0,0,0.99852,133.12,64.192)"><path
         id="path3240"
         d="M 0,0 1.263,0.918 2.525,0 2.043,1.484 l 1.264,0.918 -1.563,0 -0.482,1.485 -0.483,-1.485 -1.56,0 L 0.481,1.484 0,0 Z"
         inkscape:connector-curvature="0"
         style="fill:#ffffff" /></g><g
       id="g3242"
       transform="matrix(0.99966,0,0,0.99852,141.91,64.192)"><path
         id="path3244"
         d="M 0,0 1.263,0.918 2.526,0 2.044,1.484 3.307,2.402 1.745,2.402 1.263,3.887 0.78,2.402 -0.781,2.402 0.482,1.484 0,0 Z"
         inkscape:connector-curvature="0"
         style="fill:#ffffff" /></g><g
       id="g3246"
       transform="matrix(0.99966,0,0,0.99852,150.7,64.192)"><path
         id="path3248"
         d="M 0,0 1.262,0.918 2.525,0 2.043,1.484 3.306,2.402 1.744,2.402 1.263,3.887 0.779,2.402 -0.78,2.402 0.481,1.484 0,0 Z"
         inkscape:connector-curvature="0"
         style="fill:#ffffff" /></g><g
       id="g3250"
       transform="matrix(0.99966,0,0,0.99852,111.15,60.43)"><path
         id="path3252"
         d="M 0,0 1.263,0.918 2.525,0 2.043,1.484 3.306,2.402 1.744,2.402 1.263,3.887 0.78,2.402 -0.782,2.402 0.482,1.484 0,0 Z"
         inkscape:connector-curvature="0"
         style="fill:#ffffff" /></g><g
       id="g3254"
       transform="matrix(0.99966,0,0,0.99852,119.94,60.43)"><path
         id="path3256"
         d="M 0,0 1.263,0.918 2.526,0 2.043,1.484 3.308,2.402 1.745,2.402 1.263,3.887 0.78,2.402 -0.781,2.402 0.482,1.484 0,0 Z"
         inkscape:connector-curvature="0"
         style="fill:#ffffff" /></g><g
       id="g3258"
       transform="matrix(0.99966,0,0,0.99852,128.73,60.43)"><path
         id="path3260"
         d="M 0,0 1.262,0.918 2.526,0 2.042,1.484 3.307,2.402 1.744,2.402 1.262,3.887 0.779,2.402 -0.782,2.402 0.481,1.484 0,0 Z"
         inkscape:connector-curvature="0"
         style="fill:#ffffff" /></g><g
       id="g3262"
       transform="matrix(0.99966,0,0,0.99852,137.51,60.43)"><path
         id="path3264"
         d="M 0,0 1.263,0.916 2.526,0 2.044,1.484 3.308,2.402 1.745,2.402 1.264,3.887 0.78,2.402 -0.781,2.402 0.482,1.484 0,0 Z"
         inkscape:connector-curvature="0"
         style="fill:#ffffff" /></g><g
       id="g3266"
       transform="matrix(0.99966,0,0,0.99852,146.3,60.43)"><path
         id="path3268"
         d="M 0,0 1.264,0.918 2.526,0 2.044,1.484 3.307,2.402 1.745,2.402 1.264,3.887 0.781,2.402 -0.781,2.402 0.482,1.484 0,0 Z"
         inkscape:connector-curvature="0"
         style="fill:#ffffff" /></g><g
       id="g3270"
       transform="matrix(0.99966,0,0,0.99852,106.75,56.666)"><path
         id="path3272"
         d="M 0,0 1.265,0.918 2.528,0 2.045,1.486 3.309,2.402 1.748,2.402 1.266,3.889 0.78,2.402 -0.78,2.402 0.484,1.484 0,0 Z"
         inkscape:connector-curvature="0"
         style="fill:#ffffff" /></g><g
       id="g3274"
       transform="matrix(0.99966,0,0,0.99852,115.54,56.666)"><path
         id="path3276"
         d="M 0,0 1.264,0.918 2.527,0 2.044,1.486 l 1.264,0.916 -1.562,0 -0.482,1.487 -0.483,-1.487 -1.56,0 L 0.482,1.486 0,0 Z"
         inkscape:connector-curvature="0"
         style="fill:#ffffff" /></g><g
       id="g3278"
       transform="matrix(0.99966,0,0,0.99852,124.33,56.666)"><path
         id="path3280"
         d="M 0,0 1.263,0.918 2.526,0 2.044,1.486 3.308,2.402 1.745,2.402 1.263,3.889 0.78,2.402 -0.781,2.402 0.481,1.484 0,0 Z"
         inkscape:connector-curvature="0"
         style="fill:#ffffff" /></g><g
       id="g3282"
       transform="matrix(0.99966,0,0,0.99852,133.12,56.666)"><path
         id="path3284"
         d="M 0,0 1.263,0.918 2.525,0 2.043,1.486 l 1.264,0.916 -1.563,0 -0.482,1.487 -0.483,-1.487 -1.56,0 L 0.481,1.484 0,0 Z"
         inkscape:connector-curvature="0"
         style="fill:#ffffff" /></g><g
       id="g3286"
       transform="matrix(0.99966,0,0,0.99852,141.91,56.666)"><path
         id="path3288"
         d="M 0,0 1.263,0.918 2.526,0 2.044,1.484 3.307,2.402 1.745,2.402 1.263,3.889 0.78,2.402 -0.781,2.402 0.482,1.484 0,0 Z"
         inkscape:connector-curvature="0"
         style="fill:#ffffff" /></g><g
       id="g3290"
       transform="matrix(0.99966,0,0,0.99852,150.7,56.666)"><path
         id="path3292"
         d="M 0,0 1.262,0.918 2.525,0 2.043,1.484 3.306,2.402 1.746,2.402 1.263,3.889 0.779,2.402 -0.78,2.402 0.481,1.486 0,0 Z"
         inkscape:connector-curvature="0"
         style="fill:#ffffff" /></g><g
       id="g3294"
       transform="matrix(0.99966,0,0,0.99852,113,55.012)"><path
         id="path3296"
         d="M 0,0 -0.483,1.486 -0.966,0 -2.527,0 -1.264,-0.916 -1.746,-2.402 -0.483,-1.484 0.781,-2.402 0.298,-0.918 1.561,0 0,0 Z"
         inkscape:connector-curvature="0"
         style="fill:#ffffff" /></g><g
       id="g3298"
       transform="matrix(0.99966,0,0,0.99852,121.79,55.012)"><path
         id="path3300"
         d="M 0,0 -0.481,1.486 -0.966,0 -2.526,0 -1.263,-0.918 -1.745,-2.402 -0.481,-1.484 0.781,-2.402 0.298,-0.916 1.562,0 0,0 Z"
         inkscape:connector-curvature="0"
         style="fill:#ffffff" /></g><g
       id="g3302"
       transform="matrix(0.99966,0,0,0.99852,130.58,55.012)"><path
         id="path3304"
         d="M 0,0 -0.482,1.486 -0.965,0 -2.527,0 -1.264,-0.918 -1.746,-2.402 -0.483,-1.484 0.78,-2.402 0.297,-0.918 1.562,0 0,0 Z"
         inkscape:connector-curvature="0"
         style="fill:#ffffff" /></g><g
       id="g3306"
       transform="matrix(0.99966,0,0,0.99852,139.36,55.012)"><path
         id="path3308"
         d="M 0,0 -0.481,1.486 -0.963,0 -2.525,0 -1.263,-0.916 -1.745,-2.402 -0.481,-1.484 0.782,-2.402 0.299,-0.916 1.563,0 0,0 Z"
         inkscape:connector-curvature="0"
         style="fill:#ffffff" /></g><g
       id="g3310"
       transform="matrix(0.99966,0,0,0.99852,148.15,55.012)"><path
         id="path3312"
         d="M 0,0 -0.481,1.486 -0.965,0 -2.526,0 -1.263,-0.918 -1.745,-2.402 -0.481,-1.484 0.781,-2.402 0.3,-0.916 1.563,0 0,0 Z"
         inkscape:connector-curvature="0"
         style="fill:#ffffff" /></g><g
       id="g3314"
       transform="matrix(0.99966,0,0,0.99852,108.6,51.248)"><path
         id="path3316"
         d="M 0,0 -0.482,1.488 -0.966,0 -2.526,0 -1.264,-0.916 -1.746,-2.4 -0.483,-1.482 0.78,-2.4 0.298,-0.916 1.562,0 0,0 Z"
         inkscape:connector-curvature="0"
         style="fill:#ffffff" /></g><g
       id="g3318"
       transform="matrix(0.99966,0,0,0.99852,117.39,51.248)"><path
         id="path3320"
         d="M 0,0 -0.482,1.488 -0.966,0 -2.526,0 -1.265,-0.916 -1.746,-2.4 -0.483,-1.482 0.78,-2.4 0.298,-0.916 1.562,0 0,0 Z"
         inkscape:connector-curvature="0"
         style="fill:#ffffff" /></g><g
       id="g3322"
       transform="matrix(0.99966,0,0,0.99852,126.18,51.248)"><path
         id="path3324"
         d="M 0,0 -0.483,1.488 -0.966,0 -2.526,0 -1.264,-0.916 -1.745,-2.4 -0.482,-1.482 0.78,-2.4 0.298,-0.916 1.562,0 0,0 Z"
         inkscape:connector-curvature="0"
         style="fill:#ffffff" /></g><g
       id="g3326"
       transform="matrix(0.99966,0,0,0.99852,134.97,51.248)"><path
         id="path3328"
         d="M 0,0 -0.481,1.488 -0.965,0 -2.526,0 -1.264,-0.916 -1.745,-2.4 -0.482,-1.482 0.78,-2.4 0.299,-0.916 1.561,0 0,0 Z"
         inkscape:connector-curvature="0"
         style="fill:#ffffff" /></g><g
       id="g3330"
       transform="matrix(0.99966,0,0,0.99852,143.76,51.248)"><path
         id="path3332"
         d="M 0,0 -0.483,1.488 -0.967,0 -2.528,0 -1.265,-0.916 -1.746,-2.4 -0.483,-1.482 0.781,-2.4 0.297,-0.916 1.56,0 0,0 Z"
         inkscape:connector-curvature="0"
         style="fill:#ffffff" /></g><g
       id="g3334"
       transform="matrix(0.99966,0,0,0.99852,152.55,51.248)"><path
         id="path3336"
         d="M 0,0 -0.482,1.488 -0.967,0 -2.527,0 -1.263,-0.916 -1.745,-2.4 -0.482,-1.482 0.781,-2.4 0.297,-0.916 1.562,0 0,0 Z"
         inkscape:connector-curvature="0"
         style="fill:#ffffff" /></g><g
       id="g3338"
       transform="matrix(0.99966,0,0,0.99852,111.21,45.341)"><path
         id="path3340"
         d="M 0,0 1.264,0.92 2.526,0 2.045,1.486 3.308,2.404 1.746,2.404 1.265,3.891 0.781,2.404 -0.78,2.404 0.483,1.486 0,0 Z"
         inkscape:connector-curvature="0"
         style="fill:#ffffff" /></g><g
       id="g3342"
       transform="matrix(0.99966,0,0,0.99852,120,45.341)"><path
         id="path3344"
         d="M 0,0 1.264,0.92 2.526,0 2.044,1.486 3.307,2.404 1.745,2.404 1.262,3.891 0.78,2.404 -0.78,2.404 0.483,1.486 0,0 Z"
         inkscape:connector-curvature="0"
         style="fill:#ffffff" /></g><g
       id="g3346"
       transform="matrix(0.99966,0,0,0.99852,128.79,45.341)"><path
         id="path3348"
         d="M 0,0 1.263,0.92 2.526,0 2.044,1.486 3.307,2.404 1.745,2.404 1.263,3.891 0.78,2.404 -0.78,2.404 0.481,1.486 0,0 Z"
         inkscape:connector-curvature="0"
         style="fill:#ffffff" /></g><g
       id="g3350"
       transform="matrix(0.99966,0,0,0.99852,137.58,45.341)"><path
         id="path3352"
         d="M 0,0 1.263,0.92 2.526,0 2.044,1.486 3.307,2.404 1.745,2.404 1.264,3.891 0.78,2.404 -0.78,2.404 0.481,1.488 0,0 Z"
         inkscape:connector-curvature="0"
         style="fill:#ffffff" /></g><g
       id="g3354"
       transform="matrix(0.99966,0,0,0.99852,146.36,45.341)"><path
         id="path3356"
         d="M 0,0 1.263,0.92 2.526,0 2.044,1.486 3.307,2.404 1.745,2.404 1.264,3.891 0.78,2.404 -0.781,2.404 0.481,1.486 0,0 Z"
         inkscape:connector-curvature="0"
         style="fill:#ffffff" /></g><g
       id="g3358"
       transform="matrix(0.99966,0,0,0.99852,106.81,41.581)"><path
         id="path3360"
         d="M 0,0 1.262,0.918 2.525,0 2.042,1.484 3.306,2.402 1.745,2.402 1.263,3.889 0.78,2.402 -0.781,2.402 0.481,1.484 0,0 Z"
         inkscape:connector-curvature="0"
         style="fill:#ffffff" /></g><g
       id="g3362"
       transform="matrix(0.99966,0,0,0.99852,115.6,41.581)"><path
         id="path3364"
         d="M 0,0 1.262,0.918 2.526,0 2.043,1.484 3.307,2.402 1.744,2.402 1.262,3.889 0.78,2.402 -0.781,2.402 0.481,1.484 0,0 Z"
         inkscape:connector-curvature="0"
         style="fill:#ffffff" /></g><g
       id="g3366"
       transform="matrix(0.99966,0,0,0.99852,124.39,41.581)"><path
         id="path3368"
         d="M 0,0 1.263,0.918 2.526,0 2.043,1.486 3.306,2.402 1.743,2.402 1.262,3.889 0.779,2.402 -0.782,2.402 0.481,1.484 0,0 Z"
         inkscape:connector-curvature="0"
         style="fill:#ffffff" /></g><g
       id="g3370"
       transform="matrix(0.99966,0,0,0.99852,133.18,41.581)"><path
         id="path3372"
         d="M 0,0 1.264,0.918 2.527,0 2.045,1.484 3.309,2.402 1.747,2.402 1.264,3.889 0.78,2.402 -0.78,2.402 0.482,1.484 0,0 Z"
         inkscape:connector-curvature="0"
         style="fill:#ffffff" /></g><g
       id="g3374"
       transform="matrix(0.99966,0,0,0.99852,141.97,41.581)"><path
         id="path3376"
         d="M 0,0 1.264,0.918 2.526,0 2.044,1.484 l 1.264,0.918 -1.563,0 -0.481,1.487 -0.485,-1.487 -1.56,0 L 0.483,1.484 0,0 Z"
         inkscape:connector-curvature="0"
         style="fill:#ffffff" /></g><g
       id="g3378"
       transform="matrix(0.99966,0,0,0.99852,150.76,41.581)"><path
         id="path3380"
         d="M 0,0 1.263,0.918 2.525,0 2.043,1.484 3.306,2.402 1.745,2.402 1.264,3.889 0.78,2.402 -0.78,2.402 0.481,1.484 0,0 Z"
         inkscape:connector-curvature="0"
         style="fill:#ffffff" /></g><g
       id="g3382"
       transform="matrix(0.99966,0,0,0.99852,113.13,40.432)"><path
         id="path3384"
         d="M 0,0 -0.482,1.486 -0.966,0 -2.526,0 -1.264,-0.918 -1.745,-2.402 -0.482,-1.484 0.781,-2.402 0.299,-0.916 1.563,0 0,0 Z"
         inkscape:connector-curvature="0"
         style="fill:#ffffff" /></g><g
       id="g3386"
       transform="matrix(0.99966,0,0,0.99852,121.92,40.432)"><path
         id="path3388"
         d="M 0,0 -0.482,1.486 -0.965,0 -2.528,0 -1.264,-0.918 -1.746,-2.402 -0.483,-1.484 0.779,-2.402 0.297,-0.918 1.562,0 0,0 Z"
         inkscape:connector-curvature="0"
         style="fill:#ffffff" /></g><g
       id="g3390"
       transform="matrix(0.99966,0,0,0.99852,130.71,40.432)"><path
         id="path3392"
         d="M 0,0 -0.482,1.486 -0.966,0 -2.526,0 -1.264,-0.916 -1.746,-2.402 -0.483,-1.484 0.78,-2.402 0.297,-0.918 1.562,0 0,0 Z"
         inkscape:connector-curvature="0"
         style="fill:#ffffff" /></g><g
       id="g3394"
       transform="matrix(0.99966,0,0,0.99852,139.5,40.432)"><path
         id="path3396"
         d="M 0,0 -0.482,1.486 -0.966,0 -2.527,0 -1.264,-0.916 -1.746,-2.402 -0.483,-1.484 0.78,-2.402 0.297,-0.918 1.561,0 0,0 Z"
         inkscape:connector-curvature="0"
         style="fill:#ffffff" /></g><g
       id="g3398"
       transform="matrix(0.99966,0,0,0.99852,148.28,40.432)"><path
         id="path3400"
         d="M 0,0 -0.482,1.486 -0.965,0 -2.526,0 -1.264,-0.918 -1.745,-2.402 -0.482,-1.484 0.781,-2.402 0.298,-0.916 1.561,0 0,0 Z"
         inkscape:connector-curvature="0"
         style="fill:#ffffff" /></g><g
       id="g3402"
       transform="matrix(0.99966,0,0,0.99852,108.73,36.67)"><path
         id="path3404"
         d="M 0,0 -0.482,1.484 -0.965,0 -2.525,0 -1.263,-0.918 -1.744,-2.402 -0.482,-1.484 0.781,-2.402 0.299,-0.918 1.562,0 0,0 Z"
         inkscape:connector-curvature="0"
         style="fill:#ffffff" /></g><g
       id="g3406"
       transform="matrix(0.99966,0,0,0.99852,117.52,36.67)"><path
         id="path3408"
         d="M 0,0 -0.482,1.484 -0.964,0 -2.525,0 -1.263,-0.918 -1.744,-2.402 -0.482,-1.484 0.781,-2.402 0.298,-0.918 1.562,0 0,0 Z"
         inkscape:connector-curvature="0"
         style="fill:#ffffff" /></g><g
       id="g3410"
       transform="matrix(0.99966,0,0,0.99852,126.31,36.67)"><path
         id="path3412"
         d="M 0,0 -0.482,1.484 -0.965,0 -2.526,0 -1.263,-0.918 -1.745,-2.402 -0.482,-1.484 0.781,-2.402 0.298,-0.918 1.562,0 0,0 Z"
         inkscape:connector-curvature="0"
         style="fill:#ffffff" /></g><g
       id="g3414"
       transform="matrix(0.99966,0,0,0.99852,135.1,36.67)"><path
         id="path3416"
         d="M 0,0 -0.482,1.484 -0.966,0 -2.527,0 -1.264,-0.918 -1.746,-2.402 -0.483,-1.484 0.781,-2.402 0.298,-0.918 1.561,0 0,0 Z"
         inkscape:connector-curvature="0"
         style="fill:#ffffff" /></g><g
       id="g3418"
       transform="matrix(0.99966,0,0,0.99852,143.89,36.67)"><path
         id="path3420"
         d="M 0,0 -0.483,1.484 -0.966,0 -2.526,0 -1.263,-0.918 -1.746,-2.402 -0.483,-1.484 0.78,-2.402 0.298,-0.918 1.561,0 0,0 Z"
         inkscape:connector-curvature="0"
         style="fill:#ffffff" /></g><g
       id="g3422"
       transform="matrix(0.99966,0,0,0.99852,154.24,36.67)"><path
         id="path3424"
         d="M 0,0 -1.563,0 -2.044,1.484 -2.526,0 -4.089,0 -2.825,-0.918 -3.308,-2.402 -2.044,-1.484 -0.78,-2.402 -1.264,-0.918 0,0 Z"
         inkscape:connector-curvature="0"
         style="fill:#ffffff" /></g><g
       id="g4150"
       transform="matrix(0.99966,0,0,0.99852,38.904,20.848)"><path
         id="path4152"
         d="m 0,0 c -7.715,0 -13.971,6.256 -13.971,13.973 0,7.716 6.256,13.97 13.971,13.97 4.123,0 7.828,-1.787 10.385,-4.627 -3.098,4.879 -8.543,8.122 -14.75,8.122 -9.645,0 -17.465,-7.821 -17.465,-17.465 0,-9.647 7.82,-17.465 17.465,-17.465 6.207,0 11.652,3.24 14.75,8.119 C 7.828,1.787 4.123,0 0,0"
         inkscape:connector-curvature="0"
         style="fill:#ffffff" /></g><g
       id="g4154"
       transform="matrix(0.99966,0,0,0.99852,65.085,29.675)"><path
         id="path4156"
         d="m 0,0 -6.035,1.961 -3.729,-5.133 0,6.344 -2.504,0.814 -3.529,1.147 3.529,1.146 2.504,0.813 0,6.346 L -6.035,8.305 0,10.266 -3.729,5.133 0,0 Z m -30.555,-12.332 c -9.644,0 -17.465,7.818 -17.465,17.465 0,9.644 7.821,17.465 17.465,17.465 6.207,0 11.653,-3.243 14.75,-8.121 -2.556,2.839 -6.261,4.627 -10.384,4.627 -7.715,0 -13.971,-6.254 -13.971,-13.971 0,-7.717 6.256,-13.973 13.971,-13.973 4.123,0 7.828,1.787 10.384,4.627 -3.097,-4.879 -8.543,-8.119 -14.75,-8.119 m 60.639,52.316 -86.348,0 c -4.884,0 -8.843,-3.959 -8.843,-8.841 l 0,-52.02 c 0,-4.883 3.959,-8.842 8.843,-8.842 l 86.348,0 c 4.885,0 8.844,3.959 8.844,8.842 l 0,52.02 c 0,4.882 -3.959,8.841 -8.844,8.841"
         inkscape:connector-curvature="0"
         style="fill:#e32f34" /></g><g
       id="g4158"
       transform="matrix(0.99966,0,0,0.99852,65.085,39.926)"><path
         id="path4160"
         d="m 0,0 -6.035,-1.961 -3.729,5.133 0,-6.346 -2.504,-0.812 -3.529,-1.147 3.529,-1.146 2.504,-0.815 0,-6.344 3.729,5.133 L 0,-10.266 -3.729,-5.133 0,0 Z"
         inkscape:connector-curvature="0"
         style="fill:#ffffff" /></g></g></svg>